<svg width="152" height="52" viewBox="0 0 152 52" fill="none" xmlns="http://www.w3.org/2000/svg">
<path d="M150.846 5.98763C150.594 4.62951 150.011 3.44606 149.013 2.48468C147.369 0.903136 145.414 0.305992 143.186 0.759602C139.945 1.41903 137.61 4.54014 138.162 8.09726C138.617 11.022 141.108 13.3646 144.191 13.5121C145.631 13.5812 146.963 13.2048 148.142 12.3734C149.755 11.2346 150.699 9.68557 150.875 7.69375C150.879 7.64094 150.878 7.58543 150.933 7.55293C150.933 7.20629 150.933 6.85965 150.933 6.51301C150.807 6.35459 150.879 6.16231 150.846 5.98763Z" fill="url(#paint0_linear_7_1306)"/>
<path d="M111.576 43.7321C107.443 37.6009 103.31 31.4684 99.178 25.3358C99.0592 25.1584 98.8501 24.996 98.8609 24.7874C98.8703 24.5803 99.0781 24.4232 99.2036 24.2499C102.408 19.8058 105.613 15.3632 108.819 10.9191C111.242 7.56107 113.664 4.20435 116.086 0.844924C116.128 0.786699 116.199 0.740659 116.176 0.618794C116.068 0.618794 115.954 0.618794 115.84 0.618794C112.495 0.618794 109.149 0.622856 105.804 0.61067C105.507 0.609316 105.337 0.712226 105.172 0.942416C104.303 2.16243 103.42 3.37431 102.539 4.58755C101.869 5.51237 101.191 6.43178 100.521 7.3566C99.6557 8.54682 98.7907 9.73839 97.9285 10.9313C96.7315 12.5873 95.5373 14.2461 94.3404 15.9021C93.4957 17.072 92.6483 18.2405 91.8008 19.4077C90.693 20.9338 89.5824 22.4584 88.4719 23.9845C87.9348 24.7224 87.3964 25.4604 86.8553 26.197C86.688 26.4245 86.6515 26.4258 86.4599 26.2525C85.4857 25.3656 84.5141 24.4746 83.5385 23.5904C81.6021 21.8342 79.6644 20.0807 77.7239 18.3286C77.6578 18.269 77.6052 18.1769 77.4594 18.1742C77.4594 18.2974 77.4608 18.4125 77.4594 18.529C77.4284 21.6785 77.4325 24.828 77.3825 27.9789C77.3528 29.8624 77.3623 31.746 77.338 33.6294C77.3043 36.2699 77.3002 38.9116 77.284 41.5534C77.2813 41.9542 77.2813 42.3537 77.28 42.7545C77.2435 42.8371 77.2557 42.9251 77.2557 43.0104C77.2327 45.732 77.2098 48.4551 77.1882 51.1767C77.1882 51.2553 77.1626 51.3419 77.2166 51.415C77.3286 51.3744 77.3758 51.285 77.4379 51.2119C77.8481 50.7258 78.2596 50.2397 78.6672 49.7509C79.2555 49.0481 79.8398 48.3427 80.4268 47.6386C80.4511 47.6169 80.478 47.5993 80.4983 47.5749C81.3187 46.6014 82.1392 45.6278 82.9582 44.6542C84.2145 43.162 85.4708 41.6685 86.7271 40.175C87.0914 39.7417 87.4571 39.3084 87.8215 38.8751C88.4408 38.1385 89.0629 37.4046 89.6782 36.6653C90.7362 35.3951 91.8265 34.1521 92.8574 32.8603C92.9222 32.7791 92.9937 32.7561 93.0558 32.8739C93.0801 32.9213 93.1205 32.9605 93.1502 33.0052C96.6668 38.2861 100.185 43.5655 103.701 48.8464C104.246 49.6656 104.796 50.4821 105.333 51.3054C105.432 51.4597 105.54 51.5193 105.725 51.5193C109.34 51.5139 112.955 51.5152 116.572 51.5125C116.638 51.5125 116.724 51.5532 116.774 51.4489C116.742 51.3974 116.709 51.3419 116.674 51.2891C114.974 48.7692 113.274 46.2506 111.576 43.7321Z" fill="url(#paint1_linear_7_1306)"/>
<path d="M130.842 51.3189C127.939 51.3202 125.035 51.3202 122.133 51.3202C122.057 51.3202 121.981 51.3175 121.906 51.3202C121.78 51.327 121.732 51.2647 121.737 51.1442C121.741 51.0684 121.737 50.9926 121.737 50.9167V38.9983H131.252C131.252 42.9643 131.252 46.9317 131.25 50.8991C131.25 51.3703 131.3 51.3189 130.842 51.3189Z" fill="url(#paint2_linear_7_1306)"/>
<path d="M121.739 18.0226C121.739 17.5676 121.685 17.5987 122.149 17.5987C125.051 17.5974 127.955 17.5974 130.858 17.5987C131.299 17.5987 131.25 17.5649 131.25 18.005C131.252 21.7124 131.252 25.4211 131.252 29.1286H121.739C121.737 25.4266 121.739 21.7246 121.739 18.0226Z" fill="url(#paint3_linear_7_1306)"/>
<path d="M149.254 18.1498V29.1285H139.742C139.742 25.4793 139.741 21.8302 139.742 18.181C139.742 17.7246 139.688 17.7693 140.161 17.7693C143.063 17.768 145.966 17.768 148.868 17.7693C149.287 17.7693 149.254 17.7328 149.254 18.1498Z" fill="url(#paint4_linear_7_1306)"/>
<path d="M139.742 38.9983H149.254V51.0061C149.251 51.3175 149.251 51.3189 148.932 51.3189C146.45 51.3202 143.969 51.3202 141.487 51.3202C140.981 51.3202 140.474 51.3148 139.966 51.323C139.803 51.3243 139.722 51.2756 139.741 51.1022C139.748 51.0372 139.741 50.9723 139.741 50.9073C139.741 46.9372 139.741 42.9684 139.742 38.9983Z" fill="url(#paint5_linear_7_1306)"/>
<path d="M87.781 7.11015C87.8053 3.51918 84.9513 0.649925 81.3768 0.610657C77.8198 0.6418 74.9455 3.38378 74.9239 7.03297C74.9024 10.693 77.8036 13.5094 81.3187 13.5176C84.9014 13.523 87.7567 10.6727 87.781 7.11015Z" fill="url(#paint6_linear_7_1306)"/>
<path d="M63.3029 0.616086C59.727 0.601191 56.8569 3.44743 56.8569 7.0709C56.8569 10.6795 59.7419 13.5216 63.276 13.5135C66.9288 13.5054 69.6977 10.5603 69.7207 7.06006C69.6991 3.56929 66.949 0.630981 63.3029 0.616086Z" fill="url(#paint7_linear_7_1306)"/>
<path d="M126.54 0.617472C122.841 0.597162 120.058 3.61807 120.08 7.05197C120.046 10.5928 122.948 13.5176 126.465 13.5163C130.035 13.5135 132.905 10.6781 132.928 7.09665C132.949 3.58422 130.144 0.636429 126.54 0.617472Z" fill="url(#paint8_linear_7_1306)"/>
<path d="M67.8463 17.7667C67.7923 17.7721 67.7384 17.7667 67.6844 17.7667C66.0975 17.7667 64.512 17.7667 62.9251 17.768C62.8185 17.768 62.7105 17.7802 62.6039 17.787C62.4865 17.7802 62.3678 17.768 62.2504 17.768C61.16 17.7667 60.0711 17.7653 58.9808 17.768C58.4666 17.7694 58.5301 17.7071 58.5301 18.2121C58.5287 26.763 58.5287 35.3139 58.5287 43.8648C58.5287 46.2466 58.5287 48.6271 58.5301 51.0089C58.5301 51.3162 58.5328 51.3203 58.8229 51.3203C61.801 51.3216 64.7791 51.3216 67.7572 51.3203C68.0393 51.3203 68.0393 51.3162 68.0433 51.0346C68.0433 50.9913 68.0433 50.9479 68.0433 50.9046C68.0433 42.9928 68.0433 35.0797 68.0433 27.1679C68.0433 27.0379 68.0352 26.9093 68.0312 26.7793C68.0352 26.7143 68.042 26.6493 68.042 26.5857C68.0433 23.7503 68.0433 20.9135 68.0433 18.0781C68.0433 18.0456 68.0406 18.0131 68.0433 17.9806C68.0568 17.8357 68.0082 17.7491 67.8463 17.7667Z" fill="url(#paint9_linear_7_1306)"/>
<path d="M25.9341 0C11.6102 0 0 11.6409 0 25.9993C0 40.3591 11.6102 52 25.9341 52C40.2566 52 51.8668 40.3591 51.8668 25.9993C51.8668 11.6409 40.2566 0 25.9341 0ZM25.9341 42.286C17.4666 42.286 10.6022 34.9943 10.6022 25.9993C10.6022 17.0056 17.4666 9.71403 25.9341 9.71403C34.4002 9.71403 41.2646 17.0056 41.2646 25.9993C41.2646 34.9943 34.4002 42.286 25.9341 42.286Z" fill="url(#paint10_linear_7_1306)"/>
<path d="M119.974 31.3694H122.091C122.925 31.3694 123.574 31.6092 124.038 32.0903C124.5 32.57 124.732 33.2503 124.732 34.1284C124.732 35.0092 124.5 35.6965 124.035 36.1903C123.569 36.684 122.922 36.9295 122.089 36.9295H119.973V31.3694H119.974ZM121.134 32.3288V35.9658H121.952C122.472 35.9658 122.868 35.8101 123.14 35.4974C123.413 35.1846 123.55 34.7301 123.55 34.1312C123.55 33.5505 123.412 33.1045 123.135 32.7945C122.858 32.4831 122.464 32.3288 121.952 32.3288H121.134Z" fill="#2B2B2B"/>
<path d="M126.638 34.8942V36.9295H125.477V31.3694H127.748C128.379 31.3694 128.871 31.5265 129.224 31.8421C129.576 32.1563 129.752 32.5897 129.752 33.1423C129.752 33.5042 129.663 33.8282 129.485 34.1115C129.307 34.3949 129.06 34.5983 128.746 34.7217L129.913 36.9295H128.599L127.566 34.8942H126.638ZM126.638 32.2783V34.0512H127.636C127.928 34.0512 128.154 33.9727 128.318 33.8156C128.481 33.6585 128.562 33.4411 128.562 33.1648C128.562 32.8955 128.479 32.6795 128.309 32.5196C128.14 32.3597 127.912 32.2783 127.626 32.2783H126.638Z" fill="#2B2B2B"/>
<path d="M131.671 36.9295H130.511V31.3694H131.671V36.9295Z" fill="#2B2B2B"/>
<path d="M135.5 36.9295H134.102L132.24 31.3694H133.539L134.806 35.7316H134.833L136.101 31.3694H137.364L135.5 36.9295Z" fill="#2B2B2B"/>
<path d="M141.598 35.9658V36.9295H137.928V31.3694H141.598V32.3288H139.087V33.6697H141.456V34.5632H139.087V35.9658H141.598Z" fill="#2B2B2B"/>
<path d="M143.595 34.8942V36.9295H142.434V31.3694H144.704C145.336 31.3694 145.828 31.5265 146.181 31.8421C146.533 32.1563 146.709 32.5897 146.709 33.1423C146.709 33.5042 146.619 33.8282 146.442 34.1115C146.264 34.3949 146.017 34.5983 145.702 34.7217L146.87 36.9295H145.556L144.523 34.8942H143.595ZM143.595 32.2783V34.0512H144.593C144.885 34.0512 145.111 33.9727 145.275 33.8156C145.438 33.6585 145.519 33.4411 145.519 33.1648C145.519 32.8955 145.435 32.6795 145.266 32.5196C145.097 32.3597 144.869 32.2783 144.583 32.2783H143.595Z" fill="#2B2B2B"/>
<path d="M147.262 35.3459H148.379C148.404 35.5717 148.525 35.7554 148.738 35.8957C148.952 36.036 149.214 36.1061 149.524 36.1061C149.832 36.1061 150.082 36.0402 150.275 35.9069C150.468 35.7737 150.564 35.6053 150.564 35.4006C150.564 35.221 150.493 35.0751 150.349 34.9657C150.205 34.8549 149.966 34.7624 149.63 34.688L148.908 34.5295C147.891 34.3107 147.383 33.7931 147.383 32.9768C147.383 32.4676 147.581 32.0567 147.975 31.7439C148.371 31.4311 148.88 31.274 149.502 31.274C150.142 31.274 150.652 31.4255 151.034 31.7298C151.415 32.0342 151.611 32.4396 151.621 32.9459H150.535C150.516 32.7117 150.413 32.5279 150.226 32.3933C150.037 32.2586 149.798 32.1913 149.506 32.1913C149.219 32.1913 148.987 32.2544 148.813 32.3807C148.638 32.5069 148.55 32.6724 148.55 32.8772C148.55 33.0469 148.621 33.1844 148.762 33.2896C148.903 33.3948 149.135 33.4846 149.456 33.5589L150.128 33.702C150.683 33.8198 151.088 34.0049 151.341 34.2546C151.594 34.5057 151.721 34.8423 151.721 35.2659C151.721 35.8059 151.519 36.2337 151.115 36.5507C150.711 36.8677 150.164 37.0262 149.475 37.0262C148.807 37.0262 148.276 36.8761 147.879 36.5774C147.482 36.2786 147.281 35.8676 147.262 35.3459Z" fill="#2B2B2B"/>
<defs>
<linearGradient id="paint0_linear_7_1306" x1="33.1248" y1="55.1912" x2="148.577" y2="5.65117" gradientUnits="userSpaceOnUse">
<stop stop-color="#F66F6F"/>
<stop offset="1" stop-color="#D700CC"/>
</linearGradient>
<linearGradient id="paint1_linear_7_1306" x1="34.7849" y1="59.0603" x2="150.238" y2="9.52026" gradientUnits="userSpaceOnUse">
<stop stop-color="#F66F6F"/>
<stop offset="1" stop-color="#D700CC"/>
</linearGradient>
<linearGradient id="paint2_linear_7_1306" x1="73.2294" y1="68.1521" x2="144.526" y2="37.5592" gradientUnits="userSpaceOnUse">
<stop stop-color="#F66F6F"/>
<stop offset="1" stop-color="#D700CC"/>
</linearGradient>
<linearGradient id="paint3_linear_7_1306" x1="74.432" y1="45.8816" x2="144.091" y2="15.9912" gradientUnits="userSpaceOnUse">
<stop stop-color="#F66F6F"/>
<stop offset="1" stop-color="#D700CC"/>
</linearGradient>
<linearGradient id="paint4_linear_7_1306" x1="83.407" y1="49.8655" x2="152.931" y2="20.033" gradientUnits="userSpaceOnUse">
<stop stop-color="#F66F6F"/>
<stop offset="1" stop-color="#D700CC"/>
</linearGradient>
<linearGradient id="paint5_linear_7_1306" x1="81.6878" y1="72.2712" x2="153.194" y2="41.5885" gradientUnits="userSpaceOnUse">
<stop stop-color="#F66F6F"/>
<stop offset="1" stop-color="#D700CC"/>
</linearGradient>
<linearGradient id="paint6_linear_7_1306" x1="23.2473" y1="32.172" x2="138.7" y2="-17.368" gradientUnits="userSpaceOnUse">
<stop stop-color="#F66F6F"/>
<stop offset="1" stop-color="#D700CC"/>
</linearGradient>
<linearGradient id="paint7_linear_7_1306" x1="20.4189" y1="25.5804" x2="135.872" y2="-23.9596" gradientUnits="userSpaceOnUse">
<stop stop-color="#F66F6F"/>
<stop offset="1" stop-color="#D700CC"/>
</linearGradient>
<linearGradient id="paint8_linear_7_1306" x1="30.3064" y1="48.6235" x2="145.759" y2="-0.916583" gradientUnits="userSpaceOnUse">
<stop stop-color="#F66F6F"/>
<stop offset="1" stop-color="#D700CC"/>
</linearGradient>
<linearGradient id="paint9_linear_7_1306" x1="30.3668" y1="48.764" x2="145.819" y2="-0.776039" gradientUnits="userSpaceOnUse">
<stop stop-color="#F66F6F"/>
<stop offset="1" stop-color="#D700CC"/>
</linearGradient>
<linearGradient id="paint10_linear_7_1306" x1="21.4333" y1="27.9446" x2="136.886" y2="-21.5955" gradientUnits="userSpaceOnUse">
<stop stop-color="#F66F6F"/>
<stop offset="1" stop-color="#D700CC"/>
</linearGradient>
</defs>
</svg>
