<svg width="434" height="356" viewBox="0 0 434 356" fill="none" xmlns="http://www.w3.org/2000/svg">
<g clip-path="url(#clip0_147_1449)">
<g opacity="0.3">
<path d="M0 296.085H19.6221V118.965H71.2325V203.269H82.3211V308.008H95.1152V151.664H119.004V88.3095H157.393V204.971H171.892V158.561H204.308V168.781H232.036V306.733H243.125V281.611H273.407V306.306H287.913V181.98H336.962V298.642H351.04V135.996H368.101V106.194H376.628V89.1638H390.278V199.437H412.462V304.603H429.522" stroke="black" stroke-opacity="0.33" stroke-miterlimit="10"/>
<path d="M71.2325 113.431H19.6221V118.965H71.2325V113.431Z" stroke="black" stroke-opacity="0.33" stroke-miterlimit="10"/>
<path d="M119.004 151.664H94.9725V154.469H119.004V151.664Z" stroke="black" stroke-opacity="0.33" stroke-miterlimit="10"/>
<path d="M157.392 88.3095H118.892V91.0334H157.392V88.3095Z" stroke="black" stroke-opacity="0.33" stroke-miterlimit="10"/>
<path d="M180.556 152.778H174.949V158.56H180.556V152.778Z" stroke="black" stroke-opacity="0.33" stroke-miterlimit="10"/>
<path d="M195.13 155.199H192.327V158.554H195.13V155.199Z" stroke="black" stroke-opacity="0.33" stroke-miterlimit="10"/>
<path d="M232.123 168.781H204.308V172.174H232.123V168.781Z" stroke="black" stroke-opacity="0.33" stroke-miterlimit="10"/>
<path d="M336.956 179.448H287.913V181.98H336.956V179.448Z" stroke="black" stroke-opacity="0.33" stroke-miterlimit="10"/>
<path d="M319.951 174.415H300.515V179.454H319.951V174.415Z" stroke="black" stroke-opacity="0.33" stroke-miterlimit="10"/>
<path d="M315.839 174.6V169.939H330.041V179.262" stroke="black" stroke-opacity="0.33" stroke-miterlimit="10"/>
<path d="M222.237 167.388V129.694H267.187V160.925H282.654V107.798H332.28V172.056H347.741" stroke="black" stroke-opacity="0.33" stroke-miterlimit="10"/>
<path d="M189.877 148.724V107.079H159.309" stroke="black" stroke-opacity="0.33" stroke-miterlimit="10"/>
<path d="M93.4965 159.13H83.4312V130.053H73.7194" stroke="black" stroke-opacity="0.33" stroke-miterlimit="10"/>
<path d="M17.9786 151.231H9.71179V264.308" stroke="black" stroke-opacity="0.33" stroke-miterlimit="10"/>
<path d="M362.848 130.412V116.774H367.158" stroke="black" stroke-opacity="0.33" stroke-miterlimit="10"/>
<path d="M391.971 117.133H407.438V174.21H433.69V240.258" stroke="black" stroke-opacity="0.33" stroke-miterlimit="10"/>
<path d="M125.764 96.314H121.906V103.854H125.764V96.314Z" stroke="black" stroke-opacity="0.33" stroke-miterlimit="10"/>
<path d="M132.71 96.314H128.852V103.854H132.71V96.314Z" stroke="black" stroke-opacity="0.33" stroke-miterlimit="10"/>
<path d="M139.656 96.314H135.798V103.854H139.656V96.314Z" stroke="black" stroke-opacity="0.33" stroke-miterlimit="10"/>
<path d="M146.608 96.314H142.75V103.854H146.608V96.314Z" stroke="black" stroke-opacity="0.33" stroke-miterlimit="10"/>
<path d="M153.554 96.314H149.696V103.854H153.554V96.314Z" stroke="black" stroke-opacity="0.33" stroke-miterlimit="10"/>
<path d="M125.764 109.054H121.906V116.594H125.764V109.054Z" stroke="black" stroke-opacity="0.33" stroke-miterlimit="10"/>
<path d="M132.71 109.054H128.852V116.594H132.71V109.054Z" stroke="black" stroke-opacity="0.33" stroke-miterlimit="10"/>
<path d="M139.656 109.054H135.798V116.594H139.656V109.054Z" stroke="black" stroke-opacity="0.33" stroke-miterlimit="10"/>
<path d="M146.608 109.054H142.75V116.594H146.608V109.054Z" stroke="black" stroke-opacity="0.33" stroke-miterlimit="10"/>
<path d="M153.554 109.054H149.696V116.594H153.554V109.054Z" stroke="black" stroke-opacity="0.33" stroke-miterlimit="10"/>
<path d="M125.764 121.801H121.906V129.341H125.764V121.801Z" stroke="black" stroke-opacity="0.33" stroke-miterlimit="10"/>
<path d="M132.71 121.801H128.852V129.341H132.71V121.801Z" stroke="black" stroke-opacity="0.33" stroke-miterlimit="10"/>
<path d="M139.656 121.801H135.798V129.341H139.656V121.801Z" stroke="black" stroke-opacity="0.33" stroke-miterlimit="10"/>
<path d="M146.608 121.801H142.75V129.341H146.608V121.801Z" stroke="black" stroke-opacity="0.33" stroke-miterlimit="10"/>
<path d="M153.554 121.801H149.696V129.341H153.554V121.801Z" stroke="black" stroke-opacity="0.33" stroke-miterlimit="10"/>
<path d="M125.764 134.541H121.906V142.081H125.764V134.541Z" stroke="black" stroke-opacity="0.33" stroke-miterlimit="10"/>
<path d="M132.71 134.541H128.852V142.081H132.71V134.541Z" stroke="black" stroke-opacity="0.33" stroke-miterlimit="10"/>
<path d="M139.656 134.541H135.798V142.081H139.656V134.541Z" stroke="black" stroke-opacity="0.33" stroke-miterlimit="10"/>
<path d="M146.608 134.541H142.75V142.081H146.608V134.541Z" stroke="black" stroke-opacity="0.33" stroke-miterlimit="10"/>
<path d="M153.554 134.541H149.696V142.081H153.554V134.541Z" stroke="black" stroke-opacity="0.33" stroke-miterlimit="10"/>
<path d="M125.764 147.287H121.906V154.828H125.764V147.287Z" stroke="black" stroke-opacity="0.33" stroke-miterlimit="10"/>
<path d="M132.71 147.287H128.852V154.828H132.71V147.287Z" stroke="black" stroke-opacity="0.33" stroke-miterlimit="10"/>
<path d="M139.656 147.287H135.798V154.828H139.656V147.287Z" stroke="black" stroke-opacity="0.33" stroke-miterlimit="10"/>
<path d="M146.608 147.287H142.75V154.828H146.608V147.287Z" stroke="black" stroke-opacity="0.33" stroke-miterlimit="10"/>
<path d="M153.554 147.287H149.696V154.828H153.554V147.287Z" stroke="black" stroke-opacity="0.33" stroke-miterlimit="10"/>
<path d="M125.764 160.028H121.906V167.568H125.764V160.028Z" stroke="black" stroke-opacity="0.33" stroke-miterlimit="10"/>
<path d="M132.71 160.028H128.852V167.568H132.71V160.028Z" stroke="black" stroke-opacity="0.33" stroke-miterlimit="10"/>
<path d="M139.656 160.028H135.798V167.568H139.656V160.028Z" stroke="black" stroke-opacity="0.33" stroke-miterlimit="10"/>
<path d="M146.608 160.028H142.75V167.568H146.608V160.028Z" stroke="black" stroke-opacity="0.33" stroke-miterlimit="10"/>
<path d="M153.554 160.028H149.696V167.568H153.554V160.028Z" stroke="black" stroke-opacity="0.33" stroke-miterlimit="10"/>
<path d="M102.08 160.028H98.2223V167.568H102.08V160.028Z" stroke="black" stroke-opacity="0.33" stroke-miterlimit="10"/>
<path d="M109.032 160.028H105.174V167.568H109.032V160.028Z" stroke="black" stroke-opacity="0.33" stroke-miterlimit="10"/>
<path d="M115.978 160.028H112.12V167.568H115.978V160.028Z" stroke="black" stroke-opacity="0.33" stroke-miterlimit="10"/>
<path d="M102.08 172.415H98.2223V179.955H102.08V172.415Z" stroke="black" stroke-opacity="0.33" stroke-miterlimit="10"/>
<path d="M109.032 172.415H105.174V179.955H109.032V172.415Z" stroke="black" stroke-opacity="0.33" stroke-miterlimit="10"/>
<path d="M115.978 172.415H112.12V179.955H115.978V172.415Z" stroke="black" stroke-opacity="0.33" stroke-miterlimit="10"/>
<path d="M102.08 184.796H98.2223V192.336H102.08V184.796Z" stroke="black" stroke-opacity="0.33" stroke-miterlimit="10"/>
<path d="M109.032 184.796H105.174V192.336H109.032V184.796Z" stroke="black" stroke-opacity="0.33" stroke-miterlimit="10"/>
<path d="M115.978 184.796H112.12V192.336H115.978V184.796Z" stroke="black" stroke-opacity="0.33" stroke-miterlimit="10"/>
<path d="M102.08 197.184H98.2223V204.724H102.08V197.184Z" stroke="black" stroke-opacity="0.33" stroke-miterlimit="10"/>
<path d="M109.032 197.184H105.174V204.724H109.032V197.184Z" stroke="black" stroke-opacity="0.33" stroke-miterlimit="10"/>
<path d="M115.978 197.184H112.12V204.724H115.978V197.184Z" stroke="black" stroke-opacity="0.33" stroke-miterlimit="10"/>
<path d="M102.08 209.565H98.2223V217.105H102.08V209.565Z" stroke="black" stroke-opacity="0.33" stroke-miterlimit="10"/>
<path d="M109.032 209.565H105.174V217.105H109.032V209.565Z" stroke="black" stroke-opacity="0.33" stroke-miterlimit="10"/>
<path d="M115.978 209.565H112.12V217.105H115.978V209.565Z" stroke="black" stroke-opacity="0.33" stroke-miterlimit="10"/>
<path d="M102.08 221.952H98.2223V229.492H102.08V221.952Z" stroke="black" stroke-opacity="0.33" stroke-miterlimit="10"/>
<path d="M109.032 221.952H105.174V229.492H109.032V221.952Z" stroke="black" stroke-opacity="0.33" stroke-miterlimit="10"/>
<path d="M115.978 221.952H112.12V229.492H115.978V221.952Z" stroke="black" stroke-opacity="0.33" stroke-miterlimit="10"/>
<path d="M102.08 234.333H98.2223V241.874H102.08V234.333Z" stroke="black" stroke-opacity="0.33" stroke-miterlimit="10"/>
<path d="M109.032 234.333H105.174V241.874H109.032V234.333Z" stroke="black" stroke-opacity="0.33" stroke-miterlimit="10"/>
<path d="M115.978 234.333H112.12V241.874H115.978V234.333Z" stroke="black" stroke-opacity="0.33" stroke-miterlimit="10"/>
<path d="M102.08 246.721H98.2223V254.261H102.08V246.721Z" stroke="black" stroke-opacity="0.33" stroke-miterlimit="10"/>
<path d="M109.032 246.721H105.174V254.261H109.032V246.721Z" stroke="black" stroke-opacity="0.33" stroke-miterlimit="10"/>
<path d="M115.978 246.721H112.12V254.261H115.978V246.721Z" stroke="black" stroke-opacity="0.33" stroke-miterlimit="10"/>
<path d="M102.08 259.102H98.2223V266.642H102.08V259.102Z" stroke="black" stroke-opacity="0.33" stroke-miterlimit="10"/>
<path d="M109.032 259.102H105.174V266.642H109.032V259.102Z" stroke="black" stroke-opacity="0.33" stroke-miterlimit="10"/>
<path d="M115.978 259.102H112.12V266.642H115.978V259.102Z" stroke="black" stroke-opacity="0.33" stroke-miterlimit="10"/>
<path d="M102.08 271.49H98.2223V279.03H102.08V271.49Z" stroke="black" stroke-opacity="0.33" stroke-miterlimit="10"/>
<path d="M109.032 271.49H105.174V279.03H109.032V271.49Z" stroke="black" stroke-opacity="0.33" stroke-miterlimit="10"/>
<path d="M115.978 271.49H112.12V279.03H115.978V271.49Z" stroke="black" stroke-opacity="0.33" stroke-miterlimit="10"/>
<path d="M102.08 283.871H98.2223V291.411H102.08V283.871Z" stroke="black" stroke-opacity="0.33" stroke-miterlimit="10"/>
<path d="M109.032 283.871H105.174V291.411H109.032V283.871Z" stroke="black" stroke-opacity="0.33" stroke-miterlimit="10"/>
<path d="M115.978 283.871H112.12V291.411H115.978V283.871Z" stroke="black" stroke-opacity="0.33" stroke-miterlimit="10"/>
<path d="M164.022 211.001H160.165V218.541H164.022V211.001Z" stroke="black" stroke-opacity="0.33" stroke-miterlimit="10"/>
<path d="M170.968 211.001H167.111V218.541H170.968V211.001Z" stroke="black" stroke-opacity="0.33" stroke-miterlimit="10"/>
<path d="M164.022 223.388H160.165V230.929H164.022V223.388Z" stroke="black" stroke-opacity="0.33" stroke-miterlimit="10"/>
<path d="M170.968 223.388H167.111V230.929H170.968V223.388Z" stroke="black" stroke-opacity="0.33" stroke-miterlimit="10"/>
<path d="M164.022 235.77H160.165V243.31H164.022V235.77Z" stroke="black" stroke-opacity="0.33" stroke-miterlimit="10"/>
<path d="M170.968 235.77H167.111V243.31H170.968V235.77Z" stroke="black" stroke-opacity="0.33" stroke-miterlimit="10"/>
<path d="M164.022 248.157H160.165V255.697H164.022V248.157Z" stroke="black" stroke-opacity="0.33" stroke-miterlimit="10"/>
<path d="M170.968 248.157H167.111V255.697H170.968V248.157Z" stroke="black" stroke-opacity="0.33" stroke-miterlimit="10"/>
<path d="M164.022 260.538H160.165V268.079H164.022V260.538Z" stroke="black" stroke-opacity="0.33" stroke-miterlimit="10"/>
<path d="M170.968 260.538H167.111V268.079H170.968V260.538Z" stroke="black" stroke-opacity="0.33" stroke-miterlimit="10"/>
<path d="M164.022 272.926H160.165V280.466H164.022V272.926Z" stroke="black" stroke-opacity="0.33" stroke-miterlimit="10"/>
<path d="M170.968 272.926H167.111V280.466H170.968V272.926Z" stroke="black" stroke-opacity="0.33" stroke-miterlimit="10"/>
<path d="M164.022 285.307H160.165V292.847H164.022V285.307Z" stroke="black" stroke-opacity="0.33" stroke-miterlimit="10"/>
<path d="M170.968 285.307H167.111V292.847H170.968V285.307Z" stroke="black" stroke-opacity="0.33" stroke-miterlimit="10"/>
<path d="M125.764 172.774H121.906V180.314H125.764V172.774Z" stroke="black" stroke-opacity="0.33" stroke-miterlimit="10"/>
<path d="M132.71 172.774H128.852V180.314H132.71V172.774Z" stroke="black" stroke-opacity="0.33" stroke-miterlimit="10"/>
<path d="M139.656 172.774H135.798V180.314H139.656V172.774Z" stroke="black" stroke-opacity="0.33" stroke-miterlimit="10"/>
<path d="M146.608 172.774H142.75V180.314H146.608V172.774Z" stroke="black" stroke-opacity="0.33" stroke-miterlimit="10"/>
<path d="M153.554 172.774H149.696V180.314H153.554V172.774Z" stroke="black" stroke-opacity="0.33" stroke-miterlimit="10"/>
<path d="M125.764 185.514H121.906V193.055H125.764V185.514Z" stroke="black" stroke-opacity="0.33" stroke-miterlimit="10"/>
<path d="M132.71 185.514H128.852V193.055H132.71V185.514Z" stroke="black" stroke-opacity="0.33" stroke-miterlimit="10"/>
<path d="M139.656 185.514H135.798V193.055H139.656V185.514Z" stroke="black" stroke-opacity="0.33" stroke-miterlimit="10"/>
<path d="M146.608 185.514H142.75V193.055H146.608V185.514Z" stroke="black" stroke-opacity="0.33" stroke-miterlimit="10"/>
<path d="M153.554 185.514H149.696V193.055H153.554V185.514Z" stroke="black" stroke-opacity="0.33" stroke-miterlimit="10"/>
<path d="M125.764 198.261H121.906V205.801H125.764V198.261Z" stroke="black" stroke-opacity="0.33" stroke-miterlimit="10"/>
<path d="M132.71 198.261H128.852V205.801H132.71V198.261Z" stroke="black" stroke-opacity="0.33" stroke-miterlimit="10"/>
<path d="M139.656 198.261H135.798V205.801H139.656V198.261Z" stroke="black" stroke-opacity="0.33" stroke-miterlimit="10"/>
<path d="M146.608 198.261H142.75V205.801H146.608V198.261Z" stroke="black" stroke-opacity="0.33" stroke-miterlimit="10"/>
<path d="M153.554 198.261H149.696V205.801H153.554V198.261Z" stroke="black" stroke-opacity="0.33" stroke-miterlimit="10"/>
<path d="M125.764 211.001H121.906V218.541H125.764V211.001Z" stroke="black" stroke-opacity="0.33" stroke-miterlimit="10"/>
<path d="M132.71 211.001H128.852V218.541H132.71V211.001Z" stroke="black" stroke-opacity="0.33" stroke-miterlimit="10"/>
<path d="M139.656 211.001H135.798V218.541H139.656V211.001Z" stroke="black" stroke-opacity="0.33" stroke-miterlimit="10"/>
<path d="M146.608 211.001H142.75V218.541H146.608V211.001Z" stroke="black" stroke-opacity="0.33" stroke-miterlimit="10"/>
<path d="M153.554 211.001H149.696V218.541H153.554V211.001Z" stroke="black" stroke-opacity="0.33" stroke-miterlimit="10"/>
<path d="M125.764 223.748H121.906V231.288H125.764V223.748Z" stroke="black" stroke-opacity="0.33" stroke-miterlimit="10"/>
<path d="M132.71 223.748H128.852V231.288H132.71V223.748Z" stroke="black" stroke-opacity="0.33" stroke-miterlimit="10"/>
<path d="M139.656 223.748H135.798V231.288H139.656V223.748Z" stroke="black" stroke-opacity="0.33" stroke-miterlimit="10"/>
<path d="M146.608 223.748H142.75V231.288H146.608V223.748Z" stroke="black" stroke-opacity="0.33" stroke-miterlimit="10"/>
<path d="M153.554 223.748H149.696V231.288H153.554V223.748Z" stroke="black" stroke-opacity="0.33" stroke-miterlimit="10"/>
<path d="M125.764 236.488H121.906V244.028H125.764V236.488Z" stroke="black" stroke-opacity="0.33" stroke-miterlimit="10"/>
<path d="M132.71 236.488H128.852V244.028H132.71V236.488Z" stroke="black" stroke-opacity="0.33" stroke-miterlimit="10"/>
<path d="M139.656 236.488H135.798V244.028H139.656V236.488Z" stroke="black" stroke-opacity="0.33" stroke-miterlimit="10"/>
<path d="M146.608 236.488H142.75V244.028H146.608V236.488Z" stroke="black" stroke-opacity="0.33" stroke-miterlimit="10"/>
<path d="M153.554 236.488H149.696V244.028H153.554V236.488Z" stroke="black" stroke-opacity="0.33" stroke-miterlimit="10"/>
<path d="M125.764 249.234H121.906V256.774H125.764V249.234Z" stroke="black" stroke-opacity="0.33" stroke-miterlimit="10"/>
<path d="M132.71 249.234H128.852V256.774H132.71V249.234Z" stroke="black" stroke-opacity="0.33" stroke-miterlimit="10"/>
<path d="M139.656 249.234H135.798V256.774H139.656V249.234Z" stroke="black" stroke-opacity="0.33" stroke-miterlimit="10"/>
<path d="M146.608 249.234H142.75V256.774H146.608V249.234Z" stroke="black" stroke-opacity="0.33" stroke-miterlimit="10"/>
<path d="M153.554 249.234H149.696V256.774H153.554V249.234Z" stroke="black" stroke-opacity="0.33" stroke-miterlimit="10"/>
<path d="M125.764 261.975H121.906V269.515H125.764V261.975Z" stroke="black" stroke-opacity="0.33" stroke-miterlimit="10"/>
<path d="M132.71 261.975H128.852V269.515H132.71V261.975Z" stroke="black" stroke-opacity="0.33" stroke-miterlimit="10"/>
<path d="M139.656 261.975H135.798V269.515H139.656V261.975Z" stroke="black" stroke-opacity="0.33" stroke-miterlimit="10"/>
<path d="M146.608 261.975H142.75V269.515H146.608V261.975Z" stroke="black" stroke-opacity="0.33" stroke-miterlimit="10"/>
<path d="M153.554 261.975H149.696V269.515H153.554V261.975Z" stroke="black" stroke-opacity="0.33" stroke-miterlimit="10"/>
<path d="M125.764 274.721H121.906V282.261H125.764V274.721Z" stroke="black" stroke-opacity="0.33" stroke-miterlimit="10"/>
<path d="M132.71 274.721H128.852V282.261H132.71V274.721Z" stroke="black" stroke-opacity="0.33" stroke-miterlimit="10"/>
<path d="M139.656 274.721H135.798V282.261H139.656V274.721Z" stroke="black" stroke-opacity="0.33" stroke-miterlimit="10"/>
<path d="M146.608 274.721H142.75V282.261H146.608V274.721Z" stroke="black" stroke-opacity="0.33" stroke-miterlimit="10"/>
<path d="M153.554 274.721H149.696V282.261H153.554V274.721Z" stroke="black" stroke-opacity="0.33" stroke-miterlimit="10"/>
<path d="M125.764 287.82H121.906V295.36H125.764V287.82Z" stroke="black" stroke-opacity="0.33" stroke-miterlimit="10"/>
<path d="M132.71 287.82H128.852V295.36H132.71V287.82Z" stroke="black" stroke-opacity="0.33" stroke-miterlimit="10"/>
<path d="M139.656 287.82H135.798V295.36H139.656V287.82Z" stroke="black" stroke-opacity="0.33" stroke-miterlimit="10"/>
<path d="M146.608 287.82H142.75V295.36H146.608V287.82Z" stroke="black" stroke-opacity="0.33" stroke-miterlimit="10"/>
<path d="M153.554 287.82H149.696V295.36H153.554V287.82Z" stroke="black" stroke-opacity="0.33" stroke-miterlimit="10"/>
<path d="M119.004 154.462V308.101" stroke="black" stroke-opacity="0.33" stroke-miterlimit="10"/>
<path d="M178.007 161.643V305.946" stroke="black" stroke-opacity="0.33" stroke-miterlimit="10"/>
<path d="M185.561 161.643V305.946" stroke="black" stroke-opacity="0.33" stroke-miterlimit="10"/>
<path d="M193.108 161.643V305.946" stroke="black" stroke-opacity="0.33" stroke-miterlimit="10"/>
<path d="M200.662 161.643V305.946" stroke="black" stroke-opacity="0.33" stroke-miterlimit="10"/>
<path d="M208.215 175.999V305.946" stroke="black" stroke-opacity="0.33" stroke-miterlimit="10"/>
<path d="M215.763 175.999V305.946" stroke="black" stroke-opacity="0.33" stroke-miterlimit="10"/>
<path d="M223.316 175.999V305.946" stroke="black" stroke-opacity="0.33" stroke-miterlimit="10"/>
<path d="M21.5757 127.18H68.6837" stroke="black" stroke-opacity="0.33" stroke-miterlimit="10"/>
<path d="M21.5757 136.516H68.6837" stroke="black" stroke-opacity="0.33" stroke-miterlimit="10"/>
<path d="M21.5757 145.851H68.6837" stroke="black" stroke-opacity="0.33" stroke-miterlimit="10"/>
<path d="M21.5757 155.18H68.6837" stroke="black" stroke-opacity="0.33" stroke-miterlimit="10"/>
<path d="M21.5757 164.516H68.6837" stroke="black" stroke-opacity="0.33" stroke-miterlimit="10"/>
<path d="M21.5757 173.851H68.6837" stroke="black" stroke-opacity="0.33" stroke-miterlimit="10"/>
<path d="M21.5757 183.181H68.6837" stroke="black" stroke-opacity="0.33" stroke-miterlimit="10"/>
<path d="M21.5757 192.516H68.6837" stroke="black" stroke-opacity="0.33" stroke-miterlimit="10"/>
<path d="M21.5757 201.845H68.6837" stroke="black" stroke-opacity="0.33" stroke-miterlimit="10"/>
<path d="M21.5757 211.181H68.6837" stroke="black" stroke-opacity="0.33" stroke-miterlimit="10"/>
<path d="M21.5757 220.516H68.6837" stroke="black" stroke-opacity="0.33" stroke-miterlimit="10"/>
<path d="M21.5757 229.845H68.6837" stroke="black" stroke-opacity="0.33" stroke-miterlimit="10"/>
<path d="M21.5757 239.181H68.6837" stroke="black" stroke-opacity="0.33" stroke-miterlimit="10"/>
<path d="M21.5757 248.516H68.6837" stroke="black" stroke-opacity="0.33" stroke-miterlimit="10"/>
<path d="M21.5757 257.845H68.6837" stroke="black" stroke-opacity="0.33" stroke-miterlimit="10"/>
<path d="M21.5757 267.181H68.6837" stroke="black" stroke-opacity="0.33" stroke-miterlimit="10"/>
<path d="M21.5757 276.516H68.6837" stroke="black" stroke-opacity="0.33" stroke-miterlimit="10"/>
<path d="M21.5757 285.846H68.6837" stroke="black" stroke-opacity="0.33" stroke-miterlimit="10"/>
<path d="M21.5757 295.181H68.6837" stroke="black" stroke-opacity="0.33" stroke-miterlimit="10"/>
<path d="M21.5757 304.51H68.6837" stroke="black" stroke-opacity="0.33" stroke-miterlimit="10"/>
<path d="M21.5757 313.846H68.6837" stroke="black" stroke-opacity="0.33" stroke-miterlimit="10"/>
<path d="M27.6906 113.183V316" stroke="black" stroke-opacity="0.33" stroke-miterlimit="10"/>
<path d="M351.338 153.026H361.769V158.053H351.338" stroke="black" stroke-opacity="0.33" stroke-miterlimit="10"/>
<path d="M412.114 209.385H400.244V214.412H412.114" stroke="black" stroke-opacity="0.33" stroke-miterlimit="10"/>
<path d="M412.114 221.234H400.244V226.261H412.114" stroke="black" stroke-opacity="0.33" stroke-miterlimit="10"/>
<path d="M412.114 233.077H400.244V238.104H412.114" stroke="black" stroke-opacity="0.33" stroke-miterlimit="10"/>
<path d="M412.114 244.926H400.244V249.952H412.114" stroke="black" stroke-opacity="0.33" stroke-miterlimit="10"/>
<path d="M412.114 256.768H400.244V261.795H412.114" stroke="black" stroke-opacity="0.33" stroke-miterlimit="10"/>
<path d="M412.114 268.617H400.244V273.644H412.114" stroke="black" stroke-opacity="0.33" stroke-miterlimit="10"/>
<path d="M412.114 280.46H400.244V285.486H412.114" stroke="black" stroke-opacity="0.33" stroke-miterlimit="10"/>
<path d="M412.114 292.309H400.244V297.335H412.114" stroke="black" stroke-opacity="0.33" stroke-miterlimit="10"/>
<path d="M351.338 166.67H361.769V171.697H351.338" stroke="black" stroke-opacity="0.33" stroke-miterlimit="10"/>
<path d="M351.338 180.308H361.769V185.335H351.338" stroke="black" stroke-opacity="0.33" stroke-miterlimit="10"/>
<path d="M351.338 193.952H361.769V198.979H351.338" stroke="black" stroke-opacity="0.33" stroke-miterlimit="10"/>
<path d="M351.338 207.59H361.769V212.617H351.338" stroke="black" stroke-opacity="0.33" stroke-miterlimit="10"/>
<path d="M351.338 221.234H361.769V226.261H351.338" stroke="black" stroke-opacity="0.33" stroke-miterlimit="10"/>
<path d="M351.338 234.872H361.769V239.899H351.338" stroke="black" stroke-opacity="0.33" stroke-miterlimit="10"/>
<path d="M351.338 248.516H361.769V253.537H351.338" stroke="black" stroke-opacity="0.33" stroke-miterlimit="10"/>
<path d="M351.338 262.154H361.769V267.181H351.338" stroke="black" stroke-opacity="0.33" stroke-miterlimit="10"/>
<path d="M351.338 275.798H361.769V280.819H351.338" stroke="black" stroke-opacity="0.33" stroke-miterlimit="10"/>
<path d="M334.798 185.694H289.488V190.003H334.798V185.694Z" stroke="black" stroke-opacity="0.33" stroke-miterlimit="10"/>
<path d="M334.798 193.234H289.488V197.543H334.798V193.234Z" stroke="black" stroke-opacity="0.33" stroke-miterlimit="10"/>
<path d="M334.798 200.774H289.488V205.083H334.798V200.774Z" stroke="black" stroke-opacity="0.33" stroke-miterlimit="10"/>
<path d="M334.798 208.308H289.488V212.617H334.798V208.308Z" stroke="black" stroke-opacity="0.33" stroke-miterlimit="10"/>
<path d="M334.798 215.848H289.488V220.157H334.798V215.848Z" stroke="black" stroke-opacity="0.33" stroke-miterlimit="10"/>
<path d="M334.798 223.389H289.488V227.697H334.798V223.389Z" stroke="black" stroke-opacity="0.33" stroke-miterlimit="10"/>
<path d="M334.798 230.922H289.488V235.231H334.798V230.922Z" stroke="black" stroke-opacity="0.33" stroke-miterlimit="10"/>
<path d="M334.798 238.463H289.488V242.771H334.798V238.463Z" stroke="black" stroke-opacity="0.33" stroke-miterlimit="10"/>
<path d="M334.798 246.003H289.488V250.311H334.798V246.003Z" stroke="black" stroke-opacity="0.33" stroke-miterlimit="10"/>
<path d="M334.798 253.537H289.488V257.845H334.798V253.537Z" stroke="black" stroke-opacity="0.33" stroke-miterlimit="10"/>
<path d="M334.798 261.077H289.488V265.386H334.798V261.077Z" stroke="black" stroke-opacity="0.33" stroke-miterlimit="10"/>
<path d="M334.798 268.617H289.488V272.926H334.798V268.617Z" stroke="black" stroke-opacity="0.33" stroke-miterlimit="10"/>
<path d="M334.798 276.157H289.488V280.466H334.798V276.157Z" stroke="black" stroke-opacity="0.33" stroke-miterlimit="10"/>
<path d="M334.798 283.691H289.488V288H334.798V283.691Z" stroke="black" stroke-opacity="0.33" stroke-miterlimit="10"/>
<path d="M334.798 291.231H289.488V295.54H334.798V291.231Z" stroke="black" stroke-opacity="0.33" stroke-miterlimit="10"/>
<path d="M334.798 298.771H289.488V303.08H334.798V298.771Z" stroke="black" stroke-opacity="0.33" stroke-miterlimit="10"/>
<path d="M334.798 306.306H289.488V310.614H334.798V306.306Z" stroke="black" stroke-opacity="0.33" stroke-miterlimit="10"/>
<path d="M368.237 141.183V307.742" stroke="black" stroke-opacity="0.33" stroke-miterlimit="10"/>
<path d="M377.589 109.593V307.742" stroke="black" stroke-opacity="0.33" stroke-miterlimit="10"/>
<path d="M270.065 269.694H247.41V281.543H270.065V269.694Z" stroke="black" stroke-opacity="0.33" stroke-miterlimit="10"/>
<path d="M264.675 248.875H252.805V269.694H264.675V248.875Z" stroke="black" stroke-opacity="0.33" stroke-miterlimit="10"/>
<path d="M157.393 204.971V307.816" stroke="black" stroke-opacity="0.33" stroke-miterlimit="10"/>
<path d="M287.516 193.698H232.507" stroke="black" stroke-opacity="0.33" stroke-miterlimit="10"/>
<path d="M287.516 199.833H232.507" stroke="black" stroke-opacity="0.33" stroke-miterlimit="10"/>
<path d="M243.354 204.439H234.963V210.574H243.354V204.439Z" stroke="black" stroke-opacity="0.33" stroke-miterlimit="10"/>
<path d="M253.705 204.439H245.314V210.574H253.705V204.439Z" stroke="black" stroke-opacity="0.33" stroke-miterlimit="10"/>
<path d="M264.055 204.439H255.664V210.574H264.055V204.439Z" stroke="black" stroke-opacity="0.33" stroke-miterlimit="10"/>
<path d="M274.4 204.439H266.009V210.574H274.4V204.439Z" stroke="black" stroke-opacity="0.33" stroke-miterlimit="10"/>
<path d="M284.75 204.439H276.359V210.574H284.75V204.439Z" stroke="black" stroke-opacity="0.33" stroke-miterlimit="10"/>
<path d="M243.354 213.948H234.963V220.083H243.354V213.948Z" stroke="black" stroke-opacity="0.33" stroke-miterlimit="10"/>
<path d="M253.705 213.948H245.314V220.083H253.705V213.948Z" stroke="black" stroke-opacity="0.33" stroke-miterlimit="10"/>
<path d="M264.055 213.948H255.664V220.083H264.055V213.948Z" stroke="black" stroke-opacity="0.33" stroke-miterlimit="10"/>
<path d="M274.4 213.948H266.009V220.083H274.4V213.948Z" stroke="black" stroke-opacity="0.33" stroke-miterlimit="10"/>
<path d="M284.75 213.948H276.359V220.083H284.75V213.948Z" stroke="black" stroke-opacity="0.33" stroke-miterlimit="10"/>
<path d="M243.354 223.457H234.963V229.591H243.354V223.457Z" stroke="black" stroke-opacity="0.33" stroke-miterlimit="10"/>
<path d="M253.705 223.457H245.314V229.591H253.705V223.457Z" stroke="black" stroke-opacity="0.33" stroke-miterlimit="10"/>
<path d="M264.055 223.457H255.664V229.591H264.055V223.457Z" stroke="black" stroke-opacity="0.33" stroke-miterlimit="10"/>
<path d="M274.4 223.457H266.009V229.591H274.4V223.457Z" stroke="black" stroke-opacity="0.33" stroke-miterlimit="10"/>
<path d="M284.75 223.457H276.359V229.591H284.75V223.457Z" stroke="black" stroke-opacity="0.33" stroke-miterlimit="10"/>
<path d="M243.354 240.636H234.963V246.77H243.354V240.636Z" stroke="black" stroke-opacity="0.33" stroke-miterlimit="10"/>
<path d="M253.705 240.636H245.314V246.77H253.705V240.636Z" stroke="black" stroke-opacity="0.33" stroke-miterlimit="10"/>
<path d="M264.055 240.636H255.664V246.77H264.055V240.636Z" stroke="black" stroke-opacity="0.33" stroke-miterlimit="10"/>
<path d="M274.4 240.636H266.009V246.77H274.4V240.636Z" stroke="black" stroke-opacity="0.33" stroke-miterlimit="10"/>
<path d="M284.75 240.636H276.359V246.77H284.75V240.636Z" stroke="black" stroke-opacity="0.33" stroke-miterlimit="10"/>
</g>
</g>
<path opacity="0.3" d="M268.326 82.6195C268.326 82.6195 267.272 80.9083 265.645 81.0039C264.018 81.0995 263.44 82.1463 262.964 82.9063C262.487 83.6663 262.295 83.1931 261.048 82.8107C259.801 82.4283 259.228 83.0975 258.94 83.7619C258.651 84.4263 258.747 83.9531 257.597 83.7619C256.446 83.5707 256.417 84.2543 255.681 84.6175C255.079 84.9139 254.954 84.9282 254.29 84.7514C253.462 84.5267 253.193 84.7131 253 85.0955H272.422C272.422 85.0955 272.051 83.5755 271.19 83.1931C270.333 82.8107 269.187 83.5707 268.326 82.6195Z" stroke="black" stroke-miterlimit="10"/>
<path opacity="0.3" d="M370.156 30.606C370.156 30.606 369.113 28.909 367.505 29.0038C365.896 29.0986 365.324 30.1367 364.853 30.8904C364.382 31.644 364.192 31.1747 362.959 30.7955C361.726 30.4163 361.159 31.08 360.874 31.7388C360.588 32.3977 360.683 31.9284 359.546 31.7388C358.408 31.5492 358.38 32.227 357.651 32.5873C357.056 32.8812 356.933 32.8954 356.276 32.72C355.457 32.4972 355.19 32.6821 355 33.0613H374.207C374.207 33.0613 373.84 31.5539 372.988 31.1747C372.146 30.7955 371.008 31.5492 370.156 30.606Z" stroke="black" stroke-miterlimit="10"/>
<path opacity="0.3" d="M108.084 4.08347C108.084 4.08347 106.084 0.827086 102.995 1.00721C99.9059 1.18733 98.8159 3.17812 97.9067 4.62856C96.9976 6.07426 96.6358 5.17366 94.2701 4.44844C91.9091 3.72322 90.8143 4.99354 90.2717 6.25912C89.7243 7.5247 89.9099 6.61936 87.7251 6.25912C85.545 5.89888 85.4879 7.19291 84.0884 7.88969C82.9508 8.45849 82.7033 8.48218 81.4466 8.1409C79.8758 7.71904 79.3618 8.0698 79 8.79502H115.871C115.871 8.79502 115.171 5.89888 113.534 5.17366C111.901 4.44844 109.716 5.89415 108.084 4.08347Z" stroke="black" stroke-miterlimit="10"/>
<g clip-path="url(#clip1_147_1449)">
<path d="M83.0056 316.671L345.006 316.671" stroke="#263238" stroke-miterlimit="10"/>
<path d="M126.692 316.741C133.621 316.12 138.731 310.04 138.107 303.159C137.482 296.278 131.359 291.203 124.43 291.823C117.501 292.444 112.39 298.525 113.015 305.405C113.64 312.286 119.763 317.361 126.692 316.741Z" fill="#2F2F2F"/>
<path d="M315.6 316.785C322.557 316.785 328.196 311.184 328.196 304.276C328.196 297.367 322.557 291.767 315.6 291.767C308.643 291.767 303.004 297.367 303.004 304.276C303.004 311.184 308.643 316.785 315.6 316.785Z" fill="#2F2F2F"/>
<path d="M98.2377 305.85L311.208 307.312L339.583 306.849L341.133 300.641C341.133 300.641 342.428 295.502 339.32 291.646C336.216 287.79 330.263 284.195 325.346 285.221C320.43 286.247 107.448 285.221 107.448 285.221C107.448 285.221 95.803 288.047 93.7324 296.529C91.6696 305.01 98.2377 305.85 98.2377 305.85Z" fill="#2F2F2F"/>
<path d="M112.619 316.785C119.575 316.785 125.215 311.184 125.215 304.276C125.215 297.367 119.575 291.767 112.619 291.767C105.662 291.767 100.023 297.367 100.023 304.276C100.023 311.184 105.662 316.785 112.619 316.785Z" fill="#2F2F2F"/>
<path d="M112.619 295.576C107.781 295.576 103.859 299.471 103.859 304.276C103.859 309.08 107.781 312.975 112.619 312.975C117.457 312.975 121.379 309.08 121.379 304.276C121.379 299.471 117.457 295.576 112.619 295.576ZM119.731 301.776L116.263 302.464C116.145 302.235 116.008 302.017 115.852 301.815L117.989 299.009C118.76 299.782 119.355 300.727 119.731 301.776ZM116.263 297.706L114.126 300.513C113.989 300.459 113.844 300.412 113.699 300.373V296.863C114.619 296.991 115.484 297.279 116.263 297.706ZM111.534 296.859V300.369C111.296 300.435 111.065 300.521 110.845 300.626L108.516 297.979C109.409 297.407 110.434 297.018 111.534 296.859ZM106.884 299.401L109.213 302.044C109.029 302.32 108.881 302.624 108.767 302.942L105.232 302.705C105.503 301.461 106.082 300.334 106.884 299.401ZM106.285 308.349C105.62 307.327 105.197 306.138 105.099 304.855L108.626 305.092C108.693 305.426 108.81 305.741 108.955 306.04L106.285 308.349ZM107.71 309.967L110.372 307.654C110.458 307.712 110.548 307.766 110.642 307.817L109.808 311.23C109.037 310.927 108.329 310.495 107.71 309.967ZM112.619 311.774C112.38 311.774 112.145 311.758 111.914 311.739L112.748 308.318C112.959 308.311 113.163 308.291 113.362 308.256L114.912 311.42C114.188 311.65 113.417 311.774 112.619 311.774ZM116.858 310.48L115.308 307.315C115.433 307.207 115.55 307.09 115.66 306.966L118.838 308.52C118.306 309.29 117.637 309.955 116.858 310.48ZM116.623 305.041C116.654 304.89 116.67 304.731 116.682 304.571L120.15 303.883C120.157 304.011 120.169 304.144 120.169 304.272C120.169 305.08 120.036 305.858 119.797 306.589L116.623 305.041Z" fill="white" stroke="#263238" stroke-miterlimit="10" stroke-linecap="round" stroke-linejoin="round"/>
<path d="M326.353 316.785C333.309 316.785 338.949 311.184 338.949 304.276C338.949 297.367 333.309 291.767 326.353 291.767C319.396 291.767 313.756 297.367 313.756 304.276C313.756 311.184 319.396 316.785 326.353 316.785Z" fill="#2F2F2F"/>
<path d="M326.352 295.576C321.514 295.576 317.592 299.471 317.592 304.276C317.592 309.08 321.514 312.975 326.352 312.975C331.19 312.975 335.113 309.08 335.113 304.276C335.113 299.471 331.19 295.576 326.352 295.576ZM333.465 301.776L329.997 302.464C329.879 302.235 329.742 302.017 329.586 301.815L331.723 299.009C332.494 299.782 333.089 300.727 333.465 301.776ZM329.997 297.706L327.859 300.513C327.722 300.459 327.578 300.412 327.433 300.373V296.863C328.349 296.991 329.218 297.279 329.997 297.706ZM325.268 296.859V300.369C325.029 300.435 324.799 300.521 324.579 300.626L322.25 297.979C323.143 297.407 324.168 297.018 325.268 296.859ZM320.618 299.401L322.947 302.044C322.763 302.32 322.614 302.624 322.501 302.942L318.966 302.705C319.232 301.461 319.816 300.334 320.618 299.401ZM320.015 308.349C319.35 307.327 318.927 306.138 318.829 304.855L322.356 305.092C322.423 305.426 322.54 305.741 322.685 306.04L320.015 308.349ZM321.444 309.967L324.106 307.654C324.192 307.712 324.282 307.766 324.376 307.817L323.542 311.23C322.771 310.927 322.062 310.495 321.444 309.967ZM326.352 311.774C326.114 311.774 325.879 311.758 325.648 311.739L326.482 308.318C326.693 308.311 326.897 308.291 327.096 308.256L328.646 311.42C327.922 311.65 327.151 311.774 326.352 311.774ZM330.592 310.48L329.042 307.315C329.167 307.207 329.284 307.09 329.394 306.966L332.572 308.52C332.04 309.29 331.371 309.955 330.592 310.48ZM330.357 305.041C330.388 304.89 330.404 304.731 330.415 304.571L333.884 303.883C333.891 304.011 333.903 304.144 333.903 304.272C333.903 305.08 333.77 305.858 333.531 306.589L330.357 305.041Z" fill="white" stroke="#263238" stroke-miterlimit="10" stroke-linecap="round" stroke-linejoin="round"/>
<path d="M355.126 294.807C353.948 294.107 351.713 292.937 351.713 292.937C351.713 292.937 350.065 289.197 348.652 287.911C347.239 286.624 345.239 285.924 344.648 285.808C344.061 285.691 303.681 280.665 303.681 280.665C303.681 280.665 283.433 269.676 281.198 268.623C278.963 267.569 274.489 266.287 272.606 266.403C270.723 266.52 202.208 265.117 202.208 265.117L141.463 265C141.463 265 130.162 265.583 123.453 267.69C116.744 269.793 113.331 271.313 110.857 273.42C108.383 275.523 105.444 278.329 105.444 278.329L80.2518 280.902C80.2518 280.902 76.3688 281.839 75.5429 284.525C74.717 287.215 73.895 291.304 73.895 291.304C73.895 291.304 71.66 292.004 71.4212 293.524C71.1863 295.044 72.1258 301.706 72.7168 302.177C73.304 302.643 80.604 303.463 80.604 303.463C80.604 303.463 82.0171 304.75 84.487 305.1C86.4089 305.372 94.664 305.714 98.2417 305.854C98.2221 305.539 98.2103 305.22 98.2143 304.902C98.226 296.505 104.602 289.699 112.458 289.699C120.31 289.699 126.671 296.509 126.655 304.909C126.655 305.31 126.636 305.702 126.604 306.095L311.212 307.319C311.161 306.534 311.165 305.726 311.232 304.905C311.925 296.509 318.857 289.703 326.709 289.703C334.561 289.703 340.366 296.513 339.673 304.913C339.618 305.574 339.52 306.223 339.391 306.861L339.587 306.857C339.587 306.857 351.478 305.57 352.535 305.454C353.596 305.337 355.361 302.297 355.713 300.194C356.066 298.091 356.3 295.506 355.126 294.807Z" fill="#F66F6F"/>
<path d="M348.652 287.907H342.839C342.464 287.907 342.158 288.21 342.158 288.583V292.195C342.158 292.568 342.464 292.871 342.839 292.871H351.713C351.713 292.867 349.873 289.229 348.652 287.907Z" fill="white" stroke="#263238" stroke-miterlimit="10" stroke-linecap="round" stroke-linejoin="round"/>
<path d="M342.37 291.471H347.709V292.797H343.156C342.448 292.797 342.26 292.167 342.37 291.471Z" fill="#BDBDBD" stroke="#263238" stroke-miterlimit="10" stroke-linecap="round" stroke-linejoin="round"/>
<path d="M355.126 294.807H337.308" stroke="#263238" stroke-miterlimit="10" stroke-linecap="round" stroke-linejoin="round"/>
<path d="M72.0514 292.859H102.676" stroke="#263238" stroke-miterlimit="10" stroke-linecap="round" stroke-linejoin="round"/>
<path d="M100.594 292.77C100.594 292.77 106.121 286.562 115.817 287.643C125.512 288.723 129.137 298.441 129.137 305.1" stroke="#263238" stroke-miterlimit="10" stroke-linecap="round" stroke-linejoin="round"/>
<path d="M312.7 295.382C312.7 295.382 318.407 287.464 327.378 288.272C336.349 289.081 338.702 295.02 338.702 295.02" stroke="#263238" stroke-miterlimit="10" stroke-linecap="round" stroke-linejoin="round"/>
<path d="M314.927 295.65H126.87C126.87 295.65 129.219 299.825 128.992 306.103L311.208 307.312C311.157 306.526 311.161 305.718 311.228 304.898C311.517 301.415 312.876 298.212 314.927 295.65Z" fill="white" stroke="#263238" stroke-miterlimit="10" stroke-linecap="round" stroke-linejoin="round"/>
<path d="M258.792 266.769C258.792 266.769 264.954 281.614 265.862 295.293" stroke="#263238" stroke-miterlimit="10" stroke-linecap="round" stroke-linejoin="round"/>
<path d="M303.681 280.661H299.653C299.653 280.661 288.145 273.338 284.795 271.449C281.444 269.56 274.829 267.041 272.383 266.951L272.602 266.399" stroke="#263238" stroke-miterlimit="10" stroke-linecap="round" stroke-linejoin="round"/>
<path d="M301.286 282.243C301.286 282.243 305.454 286.562 305.454 291.421C305.454 296.28 305.184 302.849 303.912 306.266" stroke="#263238" stroke-miterlimit="10" stroke-linecap="round" stroke-linejoin="round"/>
<path d="M154.685 265.599L154.775 266.679C154.775 266.679 156.588 289.714 157.042 292.502C157.496 295.293 156.862 305.279 156.862 305.279" stroke="#263238" stroke-miterlimit="10" stroke-linecap="round" stroke-linejoin="round"/>
<path d="M282.439 271.896C280.806 270.815 276.097 269.288 273.467 268.926C270.841 268.565 266.582 268.028 265.224 268.028C263.865 268.028 259.607 268.028 259.607 268.028L258.248 268.117L152.149 267.037C152.149 267.037 140.097 267.126 138.104 267.398C136.112 267.667 128.229 269.019 125.962 270.908C123.696 272.798 122.972 279.095 122.972 279.095L263.591 280.895H297.207C297.207 280.895 284.071 272.976 282.439 271.896Z" fill="#2F2F2F"/>
<path d="M254.871 280.782L263.595 280.895H297.211C297.211 280.895 284.075 272.976 282.442 271.896C280.81 270.815 276.101 269.288 273.471 268.926C270.845 268.565 266.586 268.028 265.228 268.028C263.869 268.028 259.611 268.028 259.611 268.028L258.252 268.117L251.336 268.048L254.871 280.782Z" fill="white" stroke="#263238" stroke-miterlimit="10" stroke-linecap="round" stroke-linejoin="round"/>
<path d="M282.439 271.896C280.806 270.815 276.097 269.288 273.467 268.926C270.841 268.565 266.582 268.028 265.224 268.028C264.226 268.028 261.658 268.028 260.37 268.028L261.591 272.354C261.591 272.354 267.592 272.016 270.195 273.252C272.798 274.489 278.348 278.76 278.348 278.76C278.348 278.76 277.667 279.546 277.557 280.222C277.518 280.444 277.585 280.677 277.683 280.891H297.203C297.207 280.895 284.071 272.976 282.439 271.896ZM274.5 272.354C274.5 272.354 276.653 271.791 278.689 272.016C280.728 272.242 293.183 279.324 294.655 280.56L284.916 280.335L274.5 272.354Z" fill="#263238" stroke="#263238" stroke-miterlimit="10" stroke-linecap="round" stroke-linejoin="round"/>
<path d="M261.102 268.028C260.245 268.028 259.607 268.028 259.607 268.028L258.248 268.117L249.982 268.032C250.823 270.178 252.87 278.364 253.461 280.762L263.591 280.891H266.183C264.582 276.545 262.077 270.399 261.102 268.028Z" fill="#4C4C4C" stroke="#4C4C4C" stroke-miterlimit="10" stroke-linecap="round" stroke-linejoin="round"/>
<path d="M129.485 269.276C127.986 269.754 126.687 270.302 125.962 270.905C123.696 272.794 122.972 279.091 122.972 279.091L127.963 279.153L129.485 269.276Z" fill="#4C4C4C" stroke="#4C4C4C" stroke-miterlimit="10" stroke-linecap="round" stroke-linejoin="round"/>
<path d="M212.283 267.647L200.341 267.527C201.206 270.551 202.701 277.279 203.328 280.121L215.661 280.28C214.836 276.16 212.953 269.851 212.283 267.647Z" fill="#4C4C4C" stroke="#4C4C4C" stroke-miterlimit="10" stroke-linecap="round" stroke-linejoin="round"/>
<path d="M163.614 267.153L152.247 267.037L152.325 279.468L165.43 279.635C165.027 275.826 163.989 269.427 163.614 267.153Z" fill="#4C4C4C" stroke="#4C4C4C" stroke-miterlimit="10" stroke-linecap="round" stroke-linejoin="round"/>
<path d="M275.369 285.753H268.574V286.562H275.369V285.753Z" fill="#263238"/>
<path d="M129.133 283.503H122.338V284.311H129.133V283.503Z" fill="#263238"/>
<path d="M118.263 287.371C118.263 287.371 117.629 286.651 117.809 285.303C117.989 283.954 119.891 272.976 121.344 271.177C122.792 269.377 124.424 268.117 126.781 267.309" stroke="#263238" stroke-miterlimit="10" stroke-linecap="round" stroke-linejoin="round"/>
<path d="M80.244 280.895C80.244 280.895 76.361 281.831 75.5351 284.517C74.7092 287.207 73.8872 291.297 73.8872 291.297H76.9442C76.9442 291.297 77.8367 284.995 80.2635 280.891L80.244 280.895Z" fill="white" stroke="#263238" stroke-miterlimit="10" stroke-linecap="round" stroke-linejoin="round"/>
<path d="M156.744 275.985C156.497 275.985 156.282 275.798 156.259 275.546L155.691 269.587C155.668 269.322 155.863 269.085 156.13 269.062C156.396 269.035 156.634 269.233 156.658 269.497L157.226 275.456C157.249 275.721 157.053 275.958 156.787 275.981C156.775 275.985 156.76 275.985 156.744 275.985Z" fill="white"/>
<path d="M158.216 275.985C157.969 275.985 157.754 275.798 157.73 275.546L157.163 269.587C157.139 269.322 157.335 269.085 157.601 269.062C157.867 269.035 158.106 269.233 158.13 269.497L158.697 275.456C158.721 275.721 158.525 275.958 158.259 275.981C158.247 275.985 158.232 275.985 158.216 275.985Z" fill="white"/>
<path d="M159.688 275.985C159.441 275.985 159.226 275.798 159.202 275.546L158.635 269.587C158.611 269.322 158.807 269.085 159.073 269.062C159.339 269.035 159.578 269.233 159.601 269.497L160.169 275.456C160.192 275.721 159.997 275.958 159.731 275.981C159.719 275.985 159.703 275.985 159.688 275.985Z" fill="white"/>
<path d="M161.159 275.985C160.913 275.985 160.697 275.798 160.674 275.546L160.106 269.587C160.083 269.322 160.279 269.085 160.545 269.062C160.811 269.035 161.05 269.233 161.073 269.497L161.641 275.456C161.664 275.721 161.469 275.958 161.202 275.981C161.191 275.985 161.175 275.985 161.159 275.985Z" fill="white"/>
<path d="M162.631 275.985C162.385 275.985 162.169 275.798 162.146 275.546L161.578 269.587C161.555 269.322 161.75 269.085 162.017 269.062C162.283 269.035 162.522 269.233 162.545 269.497L163.113 275.456C163.136 275.721 162.94 275.958 162.674 275.981C162.662 275.985 162.647 275.985 162.631 275.985Z" fill="white"/>
<path d="M205.794 276.658C205.547 276.658 205.32 276.471 205.277 276.218L204.287 270.259C204.244 269.995 204.424 269.758 204.69 269.735C204.956 269.707 205.206 269.906 205.25 270.17L206.24 276.129C206.283 276.393 206.103 276.63 205.837 276.654C205.825 276.658 205.809 276.658 205.794 276.658Z" fill="white"/>
<path d="M207.265 276.658C207.019 276.658 206.792 276.471 206.749 276.218L205.758 270.259C205.715 269.995 205.895 269.758 206.162 269.735C206.428 269.707 206.678 269.906 206.721 270.17L207.712 276.129C207.755 276.393 207.575 276.63 207.308 276.654C207.297 276.658 207.281 276.658 207.265 276.658Z" fill="white"/>
<path d="M208.737 276.658C208.49 276.658 208.263 276.471 208.22 276.218L207.23 270.259C207.187 269.995 207.367 269.758 207.633 269.735C207.899 269.707 208.15 269.906 208.193 270.17L209.183 276.129C209.226 276.393 209.046 276.63 208.78 276.654C208.768 276.658 208.753 276.658 208.737 276.658Z" fill="white"/>
<path d="M210.209 276.658C209.962 276.658 209.735 276.471 209.692 276.218L208.702 270.259C208.659 269.995 208.839 269.758 209.105 269.735C209.371 269.707 209.622 269.906 209.665 270.17L210.655 276.129C210.698 276.393 210.518 276.63 210.252 276.654C210.24 276.658 210.225 276.658 210.209 276.658Z" fill="white"/>
<path d="M211.681 276.658C211.434 276.658 211.207 276.471 211.164 276.218L210.174 270.259C210.131 269.995 210.311 269.758 210.577 269.735C210.843 269.707 211.094 269.906 211.137 270.17L212.127 276.129C212.17 276.393 211.99 276.63 211.724 276.654C211.712 276.658 211.696 276.658 211.681 276.658Z" fill="white"/>
<path d="M254.702 277.108C254.456 277.108 254.205 276.922 254.131 276.669L252.365 270.71C252.287 270.446 252.436 270.209 252.698 270.185C252.96 270.158 253.238 270.357 253.317 270.621L255.082 276.58C255.16 276.844 255.011 277.081 254.749 277.105C254.733 277.108 254.718 277.108 254.702 277.108Z" fill="white"/>
<path d="M256.174 277.108C255.927 277.108 255.677 276.922 255.602 276.669L253.837 270.71C253.759 270.446 253.908 270.209 254.17 270.185C254.432 270.158 254.71 270.357 254.788 270.621L256.554 276.58C256.632 276.844 256.483 277.081 256.221 277.105C256.205 277.108 256.19 277.108 256.174 277.108Z" fill="white"/>
<path d="M257.646 277.108C257.399 277.108 257.149 276.922 257.074 276.669L255.313 270.71C255.235 270.446 255.383 270.209 255.646 270.185C255.908 270.158 256.186 270.357 256.264 270.621L258.029 276.58C258.108 276.844 257.959 277.081 257.697 277.105C257.677 277.108 257.661 277.108 257.646 277.108Z" fill="white"/>
<path d="M259.117 277.108C258.871 277.108 258.62 276.922 258.546 276.669L256.785 270.71C256.706 270.446 256.855 270.209 257.117 270.185C257.38 270.158 257.657 270.357 257.736 270.621L259.501 276.58C259.579 276.844 259.431 277.081 259.168 277.105C259.149 277.108 259.133 277.108 259.117 277.108Z" fill="white"/>
<path d="M260.593 277.108C260.347 277.108 260.096 276.922 260.022 276.669L258.256 270.71C258.178 270.446 258.327 270.209 258.589 270.185C258.851 270.158 259.129 270.357 259.208 270.621L260.973 276.58C261.051 276.844 260.902 277.081 260.64 277.105C260.621 277.108 260.605 277.108 260.593 277.108Z" fill="white"/>
<path d="M290.467 276.514C290.467 276.514 290.013 279.437 290.58 280.226C291.148 281.015 292.619 282.585 294.205 282.698C295.79 282.811 296.244 281.8 296.017 281.237C295.79 280.673 295.563 278.426 294.432 277.524C293.297 276.626 291.488 276.401 290.467 276.514Z" fill="white" stroke="#263238" stroke-miterlimit="10" stroke-linecap="round" stroke-linejoin="round"/>
<path d="M279.193 268.654L281.607 331.646C281.607 331.646 280.094 332.546 280.094 334.347C280.094 336.148 280.547 339.896 280.547 339.896C280.547 339.896 280.094 340.644 279.941 341.545C279.787 342.445 280.241 345.445 280.241 345.445C280.241 345.445 283.562 343.948 285.222 344.392C286.882 344.843 292.323 347.544 292.323 347.544C292.323 347.544 294.437 343.492 294.59 341.545C294.743 339.598 293.383 336.294 293.383 335.095C293.383 333.897 297.31 276.454 297.31 276.454L302.291 332.85L301.385 336.75C301.385 336.75 300.631 339.75 300.931 340.651C301.231 341.551 301.838 346.498 301.838 346.498C301.838 346.498 304.558 348 307.272 347.398C309.993 346.796 316.334 344.849 316.334 344.849C316.334 344.849 316.181 341.849 316.334 340.346C316.487 338.85 313.92 333.897 314.067 332.4C314.22 330.903 315.127 267.455 315.127 267.455H278.728L279.193 268.654Z" fill="#2F2F2F"/>
<path d="M277.772 232.537C278.257 232.418 278.257 232.418 278.257 232.417L278.257 232.417L278.256 232.413L278.253 232.4L278.241 232.349L278.192 232.149C278.149 231.974 278.086 231.716 278.006 231.388C277.846 230.732 277.619 229.795 277.346 228.667C276.802 226.412 276.08 223.397 275.37 220.36C274.659 217.323 273.961 214.266 273.464 211.924C273.215 210.752 273.017 209.764 272.893 209.049C272.831 208.69 272.789 208.408 272.768 208.209C272.765 208.179 272.762 208.151 272.76 208.127C272.866 208.075 273.017 208.011 273.214 207.936C273.645 207.773 274.249 207.576 274.977 207.355C276.429 206.914 278.336 206.393 280.236 205.892C282.136 205.392 284.025 204.914 285.439 204.562C286.146 204.385 286.734 204.24 287.145 204.139C287.351 204.089 287.512 204.049 287.622 204.023L287.739 203.994L287.81 203.993L288.167 203.984L289.476 203.951C290.581 203.924 292.101 203.887 293.768 203.847C297.102 203.766 301.019 203.673 303.355 203.625C304.457 203.603 306.066 203.869 307.896 204.302C309.715 204.733 311.713 205.321 313.573 205.922C315.433 206.522 317.15 207.134 318.405 207.612C319.034 207.851 319.543 208.055 319.895 208.207C319.986 208.246 320.065 208.281 320.131 208.311C320.099 208.499 320.05 208.763 319.987 209.093C319.853 209.789 319.657 210.769 319.418 211.94C318.942 214.282 318.297 217.379 317.65 220.468C317.002 223.558 316.352 226.639 315.864 228.947C315.619 230.101 315.416 231.063 315.273 231.735L315.107 232.516L315.064 232.721L315.052 232.774L315.05 232.787L315.049 232.791L315.049 232.791C315.049 232.792 315.049 232.792 315.538 232.896L315.049 232.792L315.036 232.849L315.038 232.908L315.947 269.292C315.816 269.326 315.655 269.368 315.466 269.416C314.922 269.555 314.154 269.747 313.257 269.962C311.462 270.394 309.159 270.914 307.112 271.277C303.033 271.999 298.212 272.364 289.889 272.091C285.753 271.955 282.485 271.391 280.257 270.863C279.142 270.599 278.288 270.345 277.714 270.157C277.494 270.085 277.315 270.022 277.179 269.973L278.272 232.551L278.274 232.484L278.257 232.418L277.772 232.537Z" fill="white" stroke="#2F2F2F"/>
<path d="M290.081 200.539L288.77 202.042L286.846 203.587L284.095 208.503L288.31 208.686L285.008 211.326C285.008 211.326 288.947 218.701 291.147 221.433C293.346 224.165 296.747 230.663 296.747 230.663C296.747 230.663 301.415 222.71 303.07 220.8C304.718 218.889 307.377 214.156 308.296 212.969C309.215 211.783 309.852 210.329 309.852 210.329L306.458 208.692L309.576 206.873C309.576 206.873 305.906 203.502 305.361 202.23C304.81 200.959 304.626 200.046 303.621 200.137C302.616 200.222 290.081 200.539 290.081 200.539Z" fill="white" stroke="#2F2F2F" stroke-miterlimit="10" stroke-linecap="round" stroke-linejoin="round"/>
<path d="M290.081 200.539L296.753 230.663L303.976 200.904L290.081 200.539Z" fill="white" stroke="#2F2F2F" stroke-miterlimit="10" stroke-linecap="round" stroke-linejoin="round"/>
<path d="M290.081 200.539L292.311 210.627L296.937 205.139L301.587 210.748L303.976 200.904L290.081 200.539Z" fill="white" stroke="#2F2F2F" stroke-miterlimit="10" stroke-linecap="round" stroke-linejoin="round"/>
<path d="M290.081 196.553V200.539C290.081 200.539 296.753 205.078 296.937 205.139C297.12 205.199 303.976 200.904 303.976 200.904V195.197C303.976 195.197 300.147 198.817 297.862 198.878C295.576 198.945 290.081 196.553 290.081 196.553Z" fill="white" stroke="#2F2F2F" stroke-miterlimit="10" stroke-linecap="round" stroke-linejoin="round"/>
<path d="M294.59 208.144L296.379 210.535L294.712 220.417L296.753 230.663L299.222 220.356L298.113 210.535L299.406 208.205L296.937 205.139L294.59 208.144Z" fill="#2F2F2F"/>
<path d="M298.677 214.058H296.385V214.861H298.677V214.058Z" fill="white"/>
<path d="M300.502 250.108L297.935 251.471C297.935 251.471 295.092 253.108 293.996 253.838C292.893 254.568 289.045 260.209 289.321 260.665C289.597 261.121 290.516 262.119 291.153 262.302C291.796 262.484 292.985 263.306 294.271 263.488C295.552 263.671 297.022 263.944 298.67 262.758C300.319 261.571 302.518 258.116 302.794 257.659C303.069 257.203 304.534 255.931 304.534 255.931L300.502 250.108Z" fill="white" stroke="#263238" stroke-miterlimit="10" stroke-linecap="round" stroke-linejoin="round"/>
<path d="M322.034 210.493L322.033 210.492C321.672 209.491 321.285 208.953 321.005 208.669L315.845 231.784L315.571 236.75L315.56 236.951L315.413 237.088L315.072 236.723L315.413 237.088L315.413 237.089L315.412 237.089L315.411 237.091L315.404 237.097L315.378 237.121L315.278 237.214C315.191 237.295 315.064 237.412 314.905 237.559C314.587 237.851 314.142 238.259 313.63 238.721C312.609 239.644 311.318 240.789 310.255 241.661M322.034 210.493L309.938 241.274M322.034 210.493C322.119 210.728 322.252 211.337 322.418 212.282C322.581 213.207 322.769 214.411 322.972 215.8C323.378 218.577 323.841 222.084 324.276 225.564C324.711 229.044 325.117 232.496 325.408 235.162C325.554 236.495 325.671 237.63 325.749 238.473C325.787 238.895 325.816 239.241 325.834 239.502C325.852 239.776 325.856 239.923 325.853 239.969C325.814 240.548 325.575 241.135 325.326 241.596C325.203 241.823 325.084 242.01 324.995 242.14C324.951 242.205 324.915 242.255 324.89 242.288C324.888 242.291 324.886 242.293 324.885 242.296L305.754 258.363M322.034 210.493L305.754 258.363M310.255 241.661L309.938 241.274M310.255 241.661C310.255 241.66 310.255 241.66 310.255 241.66L309.938 241.274M310.255 241.661C309.195 242.532 306.623 244.562 304.322 246.37C303.17 247.275 302.083 248.125 301.285 248.75C300.886 249.062 300.559 249.318 300.332 249.495L300.328 249.498M309.938 241.274C307.83 243.008 299.669 249.378 299.669 249.378M300.328 249.498L300.096 249.117L299.669 249.378M300.328 249.498L305.754 258.363M300.328 249.498L300.069 249.7L300 249.754L299.983 249.768L299.978 249.771L299.977 249.772L299.977 249.772C299.977 249.772 299.977 249.772 299.669 249.378M299.669 249.378L305.754 258.363" fill="white" stroke="#2F2F2F"/>
<path d="M292.072 250.291C292.072 250.291 294.823 250.656 295.282 250.565C295.742 250.473 297.941 250.473 299.038 251.569C300.141 252.664 302.34 253.844 302.34 253.844C302.34 253.844 303.713 254.118 302.616 255.031C301.513 255.943 300.876 256.035 299.865 255.67C298.854 255.305 298.033 255.122 298.033 255.122C298.033 255.122 300.968 257.032 301.519 257.945C302.071 258.858 303.443 259.673 301.611 260.677C299.779 261.681 299.779 261.681 299.779 261.681C299.779 261.681 295.564 262.229 293.726 262.137C291.888 262.046 290.148 259.223 289.787 258.408C289.419 257.586 288.506 256.406 288.506 256.406L292.072 250.291Z" fill="white" stroke="#2F2F2F" stroke-miterlimit="10" stroke-linecap="round" stroke-linejoin="round"/>
<path d="M287.188 258.363L292.613 249.498L292.61 249.495C292.383 249.318 292.056 249.062 291.656 248.75C290.858 248.125 289.772 247.275 288.62 246.37C286.318 244.562 283.746 242.531 282.686 241.66M287.188 258.363L267.089 239.969C267.086 239.923 267.09 239.776 267.108 239.502C267.126 239.241 267.154 238.895 267.193 238.473C267.271 237.63 267.388 236.495 267.533 235.162C267.825 232.496 268.231 229.044 268.666 225.564C269.1 222.084 269.564 218.577 269.97 215.8C270.173 214.411 270.361 213.207 270.524 212.282C270.69 211.337 270.822 210.728 270.908 210.493L270.908 210.492C271.27 209.491 271.656 208.953 271.937 208.669L277.097 231.784L277.371 236.75L277.382 236.951L277.529 237.088L277.87 236.723L277.529 237.088L277.529 237.089L277.529 237.089L277.531 237.091L277.538 237.097L277.564 237.121L277.664 237.214C277.751 237.295 277.878 237.412 278.037 237.559C278.354 237.851 278.8 238.259 279.311 238.721C280.332 239.644 281.623 240.788 282.686 241.66M287.188 258.363L268.057 242.296C268.055 242.293 268.053 242.291 268.051 242.288C268.027 242.255 267.991 242.205 267.947 242.14C267.858 242.01 267.738 241.823 267.616 241.596C267.367 241.135 267.128 240.548 267.089 239.969L287.188 258.363ZM282.686 241.66L283.004 241.274L282.687 241.661C282.687 241.66 282.687 241.66 282.686 241.66Z" fill="white" stroke="#2F2F2F"/>
<path d="M299.038 234.812C299.038 235.317 298.628 235.725 298.119 235.725C297.61 235.725 297.2 235.317 297.2 234.812C297.2 234.307 297.61 233.9 298.119 233.9C298.628 233.906 299.038 234.313 299.038 234.812Z" fill="white"/>
<path d="M299.038 245.831C299.038 246.336 298.628 246.744 298.119 246.744C297.61 246.744 297.2 246.336 297.2 245.831C297.2 245.326 297.61 244.918 298.119 244.918C298.628 244.918 299.038 245.326 299.038 245.831Z" fill="white"/>
<path d="M281.296 344.538L281.343 344.478C281.352 344.473 281.362 344.467 281.373 344.461C281.447 344.422 281.561 344.364 281.71 344.3C282.008 344.171 282.445 344.015 282.988 343.91C284.071 343.702 285.58 343.699 287.279 344.542C289.057 345.425 290.232 346.266 290.956 346.877C291.309 347.174 291.555 347.418 291.712 347.586L290.273 349.794L290.268 349.8C290.252 349.819 290.228 349.847 290.195 349.885C290.131 349.959 290.036 350.067 289.914 350.202C289.671 350.471 289.323 350.844 288.906 351.258C288.065 352.093 286.966 353.072 285.885 353.716C285.416 353.996 284.713 354.166 283.848 354.231C282.993 354.297 282.029 354.257 281.075 354.156C279.156 353.953 277.355 353.51 276.658 353.231C276.361 353.113 276.197 352.961 276.107 352.806C276.016 352.65 275.971 352.438 276.008 352.144C276.085 351.532 276.505 350.684 277.318 349.656C278.153 348.604 279.175 347.289 279.987 346.238C280.393 345.713 280.747 345.253 281 344.924L281.296 344.538Z" stroke="#2F2F2F"/>
<path d="M306.706 349.794L305.268 347.586C305.425 347.418 305.671 347.174 306.023 346.877C306.747 346.266 307.922 345.425 309.7 344.542L309.701 344.542C311.396 343.699 312.905 343.702 313.989 343.91C314.533 344.015 314.97 344.171 315.269 344.3C315.418 344.365 315.532 344.422 315.607 344.462C315.617 344.467 315.627 344.473 315.636 344.478L315.683 344.538L315.979 344.924C316.232 345.253 316.586 345.713 316.992 346.238C317.804 347.289 318.826 348.604 319.661 349.656C320.474 350.684 320.895 351.532 320.971 352.144C321.008 352.438 320.963 352.65 320.872 352.806C320.783 352.961 320.618 353.112 320.322 353.231C319.622 353.51 317.82 353.953 315.902 354.156C314.948 354.257 313.985 354.297 313.13 354.231C312.266 354.166 311.563 353.996 311.094 353.716C310.013 353.072 308.914 352.093 308.074 351.258C307.656 350.844 307.308 350.471 307.065 350.202C306.943 350.067 306.848 349.959 306.784 349.885C306.752 349.847 306.727 349.819 306.711 349.8L306.706 349.794Z" stroke="#2F2F2F"/>
<path d="M287.795 185.2C287.795 185.2 283.592 182.073 282.851 180.351C282.11 178.635 293.414 170.044 295.019 169.679C296.624 169.314 298.971 169.314 300.208 170.044C301.446 170.78 311.512 179.371 311.328 180.594C311.145 181.823 305.894 185.991 305.894 185.991C305.894 185.991 303.051 182.432 297.494 182.249C291.931 182.073 287.795 185.2 287.795 185.2Z" fill="#2F2F2F" stroke="#2F2F2F" stroke-miterlimit="10"/>
<path d="M297.12 178.574C291.275 178.489 287.354 181.586 285.565 183.393C286.723 184.403 287.789 185.2 287.789 185.2C287.789 185.2 291.931 182.073 297.488 182.255C303.045 182.438 305.888 185.997 305.888 185.997C305.888 185.997 306.678 185.37 307.652 184.531C305.845 182.079 302.389 178.653 297.12 178.574Z" stroke="#2F2F2F" stroke-miterlimit="10" stroke-linecap="round" stroke-linejoin="round"/>
<path d="M287.379 184.975C287.379 184.975 287.857 194.035 288.543 195.397C289.229 196.76 293.138 200.642 294.302 201.531C295.466 202.419 297.8 202.212 299.173 201.597C300.545 200.983 304.589 196.967 305.14 194.375C305.692 191.783 305.692 184.634 305.692 184.634C305.692 184.634 302.671 181.367 297.666 181.634C292.66 181.908 288.61 183.271 287.379 184.975Z" fill="white" stroke="#2F2F2F" stroke-miterlimit="10" stroke-linecap="round" stroke-linejoin="round"/>
<path d="M287.379 184.975C287.379 184.975 289.137 185.93 290.485 185.997C291.839 186.064 295.754 183.411 297.715 183.819C299.675 184.226 302.108 186.612 303.664 186.545C305.22 186.478 305.894 185.316 305.894 185.316C305.894 185.316 303.866 181.568 299.001 180.618C294.137 179.663 288.861 182.389 287.379 184.975Z" fill="#BDBDBD" stroke="#2F2F2F" stroke-miterlimit="10" stroke-linecap="round" stroke-linejoin="round"/>
<path d="M294.234 186.338C294.234 186.338 292.176 185.182 290.258 186.952" stroke="#2F2F2F" stroke-miterlimit="10" stroke-linecap="round" stroke-linejoin="round"/>
<path d="M299.381 186.271C299.381 186.271 301.299 185.383 303.357 186.818" stroke="#2F2F2F" stroke-miterlimit="10" stroke-linecap="round" stroke-linejoin="round"/>
<path d="M292.831 189.307C293.153 189.307 293.413 188.893 293.413 188.382C293.413 187.871 293.153 187.457 292.831 187.457C292.51 187.457 292.249 187.871 292.249 188.382C292.249 188.893 292.51 189.307 292.831 189.307Z" fill="#263238" stroke="#2F2F2F" stroke-miterlimit="10"/>
<path d="M300.956 189.307C301.277 189.307 301.538 188.893 301.538 188.382C301.538 187.871 301.277 187.457 300.956 187.457C300.634 187.457 300.374 187.871 300.374 188.382C300.374 188.893 300.634 189.307 300.956 189.307Z" fill="#263238" stroke="#2F2F2F" stroke-miterlimit="10"/>
<path d="M298.143 187.427V192.739L295.405 192.264" stroke="#2F2F2F" stroke-miterlimit="10" stroke-linecap="round" stroke-linejoin="round"/>
<path d="M296.361 192.465C296.361 192.465 295.264 192.872 294.443 193.353C293.622 193.828 292.593 194.168 292.317 194.241C292.041 194.308 291.471 194.564 294.682 195.434C297.874 196.304 301.648 194.917 301.783 194.375C301.783 194.375 301.556 194.412 299.982 193.645C298.07 192.714 297.322 192.605 297.322 192.605L296.361 192.465Z" fill="#2F2F2F" stroke="#2F2F2F" stroke-miterlimit="10"/>
<path d="M287.544 186.983C287.544 186.983 286.061 185.389 285.259 186.922C284.456 188.455 285.197 189.435 285.877 190.36C286.558 191.278 287.795 191.771 287.795 191.771L287.544 186.983Z" fill="white" stroke="#2F2F2F" stroke-miterlimit="10" stroke-linecap="round" stroke-linejoin="round"/>
<path d="M305.545 186.983C305.545 186.983 307.027 185.389 307.83 186.922C308.633 188.455 307.891 189.435 307.211 190.36C306.531 191.278 305.294 191.771 305.294 191.771L305.545 186.983Z" fill="white" stroke="#2F2F2F" stroke-miterlimit="10" stroke-linecap="round" stroke-linejoin="round"/>
</g>
<defs>
<clipPath id="clip0_147_1449">
<rect width="434" height="228" fill="white" transform="translate(0 88)"/>
</clipPath>
<clipPath id="clip1_147_1449">
<rect width="361" height="239" fill="white" transform="translate(33 117)"/>
</clipPath>
</defs>
</svg>
