<svg width="68" height="27" viewBox="0 0 68 27" fill="none" xmlns="http://www.w3.org/2000/svg">
<path d="M1 14.0493V20.1324C1 21.2369 1.89543 22.1324 3 22.1324H66C66.5523 22.1324 67 21.6846 67 21.1324V10.0147C67 9.69996 66.8518 9.40357 66.6 9.21471L57.4863 2.37942C56.1015 1.34084 54.4172 0.779419 52.6863 0.779419H36.0214C33.4306 0.779419 30.8906 1.49835 28.6841 2.8562L21.8094 7.08673C20.2423 8.0511 18.5206 8.73792 16.7201 9.11699L2.58798 12.0922C1.66249 12.287 1 13.1035 1 14.0493Z" fill="white" stroke="black"/>
<path d="M39.8235 0.779419L39.8235 22.1324" stroke="black"/>
<path d="M18.4706 8.54413H51.4706M66.0294 8.54413H51.4706M51.4706 0.779419V8.54413" stroke="black"/>
<circle cx="12.647" cy="21.1618" r="5.32353" fill="white" stroke="black"/>
<circle cx="55.3529" cy="21.1618" r="5.32353" fill="white" stroke="black"/>
<path d="M37.8823 12.4265L35.9412 12.4265" stroke="black" stroke-linecap="round" stroke-linejoin="round"/>
</svg>
