<svg width="61" height="187" viewBox="0 0 61 187" fill="none" xmlns="http://www.w3.org/2000/svg">
<path d="M13.1932 100.654L15.6072 163.646C15.6072 163.646 14.0938 164.546 14.0938 166.347C14.0938 168.148 14.5472 171.896 14.5472 171.896C14.5472 171.896 14.0938 172.644 13.9407 173.545C13.7875 174.445 14.2409 177.445 14.2409 177.445C14.2409 177.445 17.5616 175.948 19.222 176.392C20.8824 176.843 26.323 179.544 26.323 179.544C26.323 179.544 28.4368 175.492 28.5899 173.545C28.7431 171.598 27.3829 168.294 27.3829 167.095C27.3829 165.897 31.3103 108.454 31.3103 108.454L36.2914 164.85L35.3846 168.75C35.3846 168.75 34.631 171.75 34.9312 172.651C35.2314 173.551 35.838 178.498 35.838 178.498C35.838 178.498 38.5583 180 41.2725 179.398C43.9928 178.796 50.3341 176.849 50.3341 176.849C50.3341 176.849 50.1809 173.849 50.3341 172.346C50.4873 170.85 47.9201 165.897 48.0672 164.4C48.2203 162.903 49.1271 99.4551 49.1271 99.4551H12.7275L13.1932 100.654Z" fill="#2F2F2F"/>
<path d="M11.7718 64.5366C12.2574 64.4176 12.2574 64.4175 12.2573 64.4173L12.2571 64.4165L12.2563 64.4133L12.2532 64.4003L12.2406 64.349L12.1917 64.1489C12.1488 63.9735 12.0859 63.716 12.0061 63.3881C11.8464 62.7323 11.6186 61.7946 11.3465 60.6669C10.8021 58.4116 10.0802 55.3973 9.36983 52.3604C8.65931 49.3228 7.96103 46.2656 7.46355 43.9235C7.21463 42.7516 7.01709 41.7639 6.89342 41.0489C6.83139 40.6903 6.78937 40.4083 6.7683 40.2092C6.76509 40.1788 6.76247 40.1513 6.76037 40.1265C6.86606 40.0748 7.01696 40.0111 7.21427 39.9364C7.64472 39.7734 8.24949 39.5755 8.97687 39.3548C10.429 38.914 12.3357 38.3925 14.2365 37.8921C16.136 37.392 18.0247 36.9143 19.4387 36.5617C20.1457 36.3853 20.7338 36.2403 21.1452 36.1394C21.3508 36.0889 21.5123 36.0494 21.6222 36.0226L21.7387 35.9943L21.8098 35.9925L22.1668 35.9836L23.4765 35.9513C24.5805 35.9241 26.1012 35.8868 27.768 35.8465C31.1017 35.7659 35.0188 35.6731 37.3553 35.6245C38.4568 35.603 40.0662 35.8685 41.8964 36.3023C43.7155 36.7334 45.713 37.3209 47.5735 37.9216C49.4333 38.5221 51.1499 39.1338 52.4054 39.6116C53.0337 39.8507 53.5429 40.0549 53.8952 40.2065C53.9861 40.2456 54.0648 40.2805 54.1314 40.311C54.0989 40.4992 54.0501 40.7627 53.9866 41.0931C53.8531 41.7886 53.6569 42.7691 53.4185 43.9401C52.9418 46.2816 52.2973 49.3788 51.6499 52.4683C51.0024 55.5576 50.3521 58.6385 49.8636 60.947C49.6194 62.1013 49.4156 63.0625 49.2729 63.7351L49.1072 64.5156L49.0635 64.7212L49.0523 64.7738L49.0495 64.7872L49.0488 64.7905L49.0486 64.7913C49.0486 64.7915 49.0486 64.7916 49.5376 64.8956L49.0486 64.7916L49.0363 64.8492L49.0378 64.9081L49.9469 101.292C49.8164 101.326 49.6549 101.368 49.4664 101.416C48.9225 101.554 48.1541 101.747 47.2573 101.962C45.4619 102.394 43.1588 102.914 41.1118 103.277C37.0334 103.999 32.2117 104.364 23.8887 104.091C19.7531 103.955 16.4854 103.391 14.2566 102.863C13.1421 102.599 12.2875 102.344 11.7142 102.157C11.4939 102.084 11.3152 102.022 11.1791 101.973L12.2716 64.5512L12.2735 64.4834L12.2574 64.4176L11.7718 64.5366Z" fill="white" stroke="#2F2F2F"/>
<path d="M24.0806 32.5387L22.7694 34.0416L20.8456 35.587L18.0947 40.5032L22.3099 40.6857L19.0076 43.3264C19.0076 43.3264 22.9471 50.7007 25.1467 53.4326C27.3462 56.1645 30.7466 62.6626 30.7466 62.6626C30.7466 62.6626 35.4152 54.7103 37.0695 52.7998C38.7176 50.8893 41.3767 46.1556 42.2957 44.9692C43.2147 43.7827 43.8519 42.3285 43.8519 42.3285L40.4576 40.6918L43.5762 38.8726C43.5762 38.8726 39.9062 35.5018 39.3609 34.2302C38.8095 32.9585 38.6257 32.0459 37.6209 32.1371C36.6161 32.2223 24.0806 32.5387 24.0806 32.5387Z" fill="white" stroke="#2F2F2F" stroke-miterlimit="10" stroke-linecap="round" stroke-linejoin="round"/>
<path d="M24.0806 32.5388L30.7528 62.6627L37.9763 32.9039L24.0806 32.5388Z" fill="white" stroke="#2F2F2F" stroke-miterlimit="10" stroke-linecap="round" stroke-linejoin="round"/>
<path d="M24.0806 32.5388L26.3108 42.6268L30.9366 37.1386L35.5868 42.7485L37.9763 32.9039L24.0806 32.5388Z" fill="white" stroke="#2F2F2F" stroke-miterlimit="10" stroke-linecap="round" stroke-linejoin="round"/>
<path d="M24.0806 28.5535V32.5388C24.0806 32.5388 30.7528 37.0777 30.9366 37.1386C31.1204 37.1994 37.9763 32.9038 37.9763 32.9038V27.1967C37.9763 27.1967 34.147 30.8169 31.8617 30.8777C29.5764 30.9447 24.0806 28.5535 24.0806 28.5535Z" fill="white" stroke="#2F2F2F" stroke-miterlimit="10" stroke-linecap="round" stroke-linejoin="round"/>
<path d="M28.59 40.1442L30.379 42.5354L28.7125 52.4165L30.7527 62.6627L33.2219 52.3557L32.1129 42.5354L33.4057 40.2051L30.9365 37.1385L28.59 40.1442Z" fill="#2F2F2F"/>
<path d="M32.6766 46.0583H30.3851V46.8615H32.6766V46.0583Z" fill="white"/>
<path d="M34.5023 82.1084L31.9352 83.4713C31.9352 83.4713 29.0923 85.108 27.9956 85.8381C26.8928 86.5683 23.0451 92.2085 23.3209 92.6649C23.5966 93.1212 24.5156 94.119 25.1528 94.3016C25.7961 94.4841 26.9847 95.3055 28.2713 95.488C29.5518 95.6705 31.0223 95.9444 32.6704 94.7579C34.3185 93.5714 36.5181 90.1155 36.7938 89.6592C37.0695 89.2028 38.5338 87.9312 38.5338 87.9312L34.5023 82.1084Z" fill="white" stroke="#263238" stroke-miterlimit="10" stroke-linecap="round" stroke-linejoin="round"/>
<path d="M56.0339 42.4933L56.0335 42.4922C55.6722 41.4907 55.2855 40.9529 55.0045 40.6693L49.8446 63.7839L49.5712 68.7502L49.5601 68.9511L49.413 69.0884L49.072 68.7227L49.413 69.0884L49.4128 69.0885L49.4124 69.0889L49.4107 69.0905L49.404 69.0968L49.378 69.121L49.2778 69.214C49.1905 69.295 49.0636 69.4124 48.9048 69.5586C48.5873 69.8511 48.1419 70.2591 47.6304 70.7213C46.609 71.6442 45.3182 72.7886 44.2547 73.6605M56.0339 42.4933L43.9377 73.2739M56.0339 42.4933C56.1193 42.7283 56.2517 43.3368 56.418 44.2816C56.5808 45.2071 56.7691 46.4107 56.9721 47.7997C57.3781 50.5771 57.8413 54.0839 58.2761 57.5643C58.7109 61.0445 59.1169 64.4957 59.4083 67.1616C59.5541 68.4948 59.671 69.6298 59.7486 70.473C59.7873 70.8949 59.8161 71.2413 59.8336 71.5019C59.8521 71.776 59.8556 71.9227 59.8526 71.9686C59.8136 72.5476 59.5746 73.1345 59.3255 73.5963C59.2032 73.823 59.0835 74.0104 58.9949 74.1402C58.9508 74.205 58.9147 74.255 58.8903 74.2879C58.8883 74.2906 58.8864 74.2933 58.8845 74.2958L39.7537 90.363M56.0339 42.4933L39.7537 90.363M44.2547 73.6605L43.9377 73.2739M44.2547 73.6605C44.2549 73.6604 44.2551 73.6602 44.2553 73.66L43.9377 73.2739M44.2547 73.6605C43.195 74.5323 40.6232 76.5621 38.3218 78.3696C37.1697 79.2745 36.0834 80.1252 35.2852 80.7497C34.8861 81.0619 34.559 81.3176 34.3317 81.4952L34.3284 81.4978M43.9377 73.2739C41.83 75.0079 33.6691 81.3783 33.6691 81.3783M34.3284 81.4978L34.0955 81.1173L33.6691 81.3783M34.3284 81.4978L39.7537 90.363M34.3284 81.4978L34.069 81.7004L34.0002 81.7541L33.9827 81.7678L33.9782 81.7713L33.9771 81.7722L33.9768 81.7724C33.9768 81.7724 33.9767 81.7725 33.6691 81.3783M33.6691 81.3783L39.7537 90.363" fill="white" stroke="#2F2F2F"/>
<path d="M26.0718 82.291C26.0718 82.291 28.8228 82.6561 29.2823 82.5648C29.7418 82.4735 31.9413 82.4735 33.038 83.5687C34.1409 84.6639 36.3404 85.8443 36.3404 85.8443C36.3404 85.8443 37.7128 86.1181 36.6161 87.0308C35.5133 87.9434 34.8761 88.0347 33.8651 87.6696C32.8542 87.3046 32.0332 87.122 32.0332 87.122C32.0332 87.122 34.968 89.0325 35.5194 89.9452C36.0708 90.8579 37.4432 91.6732 35.6113 92.6771C33.7794 93.681 33.7794 93.681 33.7794 93.681C33.7794 93.681 29.5641 94.2286 27.7261 94.1373C25.888 94.0461 24.148 91.2229 23.7865 90.4076C23.4189 89.5862 22.506 88.4058 22.506 88.4058L26.0718 82.291Z" fill="white" stroke="#2F2F2F" stroke-miterlimit="10" stroke-linecap="round" stroke-linejoin="round"/>
<path d="M21.188 90.363L26.6133 81.4978L26.61 81.4952C26.3827 81.3176 26.0556 81.0619 25.6565 80.7497C24.8583 80.1252 23.7721 79.2745 22.6199 78.3696C20.3181 76.5617 17.7456 74.5315 16.6864 73.66M21.188 90.363L1.08912 71.9686C1.08607 71.9227 1.08964 71.776 1.1081 71.5019C1.12565 71.2413 1.15437 70.8949 1.19317 70.473C1.27072 69.6298 1.38764 68.4948 1.5334 67.1616C1.82486 64.4957 2.23083 61.0445 2.66559 57.5643C3.10037 54.0839 3.56362 50.5771 3.96959 47.7997C4.17262 46.4107 4.36089 45.2071 4.52376 44.2816C4.69005 43.3368 4.82242 42.7283 4.90783 42.4933L4.90823 42.4922C5.26955 41.4907 5.65621 40.9529 5.93719 40.6693L11.0971 63.7839L11.3705 68.7502L11.3816 68.9511L11.5287 69.0884L11.8698 68.7227L11.5288 69.0884L11.5289 69.0885L11.5293 69.0889L11.531 69.0905L11.5377 69.0968L11.5637 69.121L11.6639 69.214C11.7512 69.295 11.8781 69.4124 12.0369 69.5586C12.3545 69.8511 12.7998 70.2591 13.3113 70.7213C14.3325 71.644 15.623 72.7882 16.6864 73.66M21.188 90.363L2.05723 74.2958C2.05537 74.2933 2.05343 74.2906 2.0514 74.2879C2.02704 74.255 1.99095 74.205 1.94678 74.1402C1.85823 74.0104 1.73849 73.823 1.61619 73.5963C1.36712 73.1346 1.1282 72.5477 1.08913 71.9688L21.188 90.363ZM16.6864 73.66L17.0041 73.2739L16.6871 73.6605C16.6868 73.6604 16.6866 73.6602 16.6864 73.66Z" fill="white" stroke="#2F2F2F"/>
<path d="M33.038 66.8122C33.038 67.3172 32.6275 67.7249 32.119 67.7249C31.6104 67.7249 31.2 67.3172 31.2 66.8122C31.2 66.3072 31.6104 65.8995 32.119 65.8995C32.6275 65.9056 33.038 66.3133 33.038 66.8122Z" fill="white"/>
<path d="M33.038 77.8311C33.038 78.3361 32.6275 78.7438 32.119 78.7438C31.6104 78.7438 31.2 78.3361 31.2 77.8311C31.2 77.3261 31.6104 76.9185 32.119 76.9185C32.6275 76.9185 33.038 77.3261 33.038 77.8311Z" fill="white"/>
<path d="M15.343 176.478L15.2965 176.538L15 176.924C14.7474 177.253 14.3933 177.713 13.9871 178.238C13.175 179.289 12.1534 180.604 11.3181 181.656M15.343 176.478L11.3179 181.656C11.318 181.656 11.3181 181.656 11.3181 181.656M15.343 176.478C15.3521 176.473 15.3621 176.467 15.3729 176.461C15.4473 176.422 15.561 176.364 15.7099 176.3C16.0081 176.171 16.4449 176.015 16.9883 175.91C18.0708 175.702 19.5799 175.699 21.2789 176.542C23.0574 177.425 24.2322 178.266 24.9559 178.877C25.3086 179.174 25.5547 179.418 25.7116 179.586L24.2732 181.794M15.343 176.478L24.2732 181.794M11.3181 181.656C10.5049 182.684 10.0847 183.532 10.0079 184.144C9.97096 184.438 10.0164 184.65 10.1069 184.806C10.1968 184.961 10.3613 185.113 10.6585 185.231C11.3546 185.51 13.1558 185.953 15.0748 186.156C16.0289 186.257 16.9931 186.297 17.848 186.231C18.7135 186.166 19.4162 185.996 19.8851 185.716C20.966 185.072 22.0652 184.093 22.9058 183.258C23.3232 182.844 23.6711 182.471 23.9143 182.202C24.0359 182.067 24.1311 181.959 24.1955 181.885C24.2277 181.847 24.2522 181.819 24.2685 181.8L24.2732 181.794M11.3181 181.656L24.2732 181.794" stroke="#2F2F2F"/>
<path d="M40.7062 181.794L39.2678 179.586C39.4247 179.418 39.6708 179.174 40.0235 178.877C40.7472 178.266 41.922 177.425 43.7005 176.542L43.7008 176.542C45.3964 175.699 46.9055 175.702 47.9889 175.91C48.5327 176.015 48.9702 176.171 49.2689 176.3C49.4181 176.365 49.532 176.422 49.6066 176.462C49.6174 176.467 49.6274 176.473 49.6365 176.478L49.6829 176.538L49.9794 176.924C50.232 177.253 50.5861 177.713 50.9923 178.238C51.8043 179.289 52.8259 180.604 53.6612 181.656C54.4745 182.684 54.8947 183.532 54.9715 184.144C55.0084 184.438 54.963 184.65 54.8725 184.806C54.7826 184.961 54.6181 185.112 54.3211 185.231C53.6211 185.51 51.8199 185.953 49.9023 186.156C48.9486 186.257 47.985 186.297 47.1305 186.231C46.2656 186.166 45.5632 185.996 45.0943 185.716C44.0134 185.072 42.9142 184.093 42.0736 183.258C41.6562 182.844 41.3083 182.471 41.0651 182.202C40.9435 182.067 40.8483 181.959 40.7839 181.885C40.7517 181.847 40.7272 181.819 40.7109 181.8L40.7062 181.794Z" stroke="#2F2F2F"/>
<path d="M21.7953 17.2C21.7953 17.2 17.5923 14.0726 16.8509 12.3507C16.1096 10.6349 27.4136 2.0437 29.0188 1.67864C30.6241 1.31357 32.9706 1.31357 34.2083 2.0437C35.4459 2.77992 45.5123 11.3711 45.3285 12.5941C45.1447 13.8231 39.894 17.9909 39.894 17.9909C39.894 17.9909 37.0511 14.4316 31.4941 14.249C25.9309 14.0726 21.7953 17.2 21.7953 17.2Z" fill="#2F2F2F" stroke="#2F2F2F" stroke-miterlimit="10"/>
<path d="M31.1204 10.574C25.2753 10.4889 21.3542 13.5858 19.5651 15.3929C20.7231 16.4029 21.7892 17.2 21.7892 17.2C21.7892 17.2 25.9309 14.0726 31.4879 14.2551C37.045 14.4377 39.8879 17.997 39.8879 17.997C39.8879 17.997 40.6782 17.3703 41.6524 16.5307C39.845 14.0787 36.3894 10.6531 31.1204 10.574Z" stroke="#2F2F2F" stroke-miterlimit="10" stroke-linecap="round" stroke-linejoin="round"/>
<path d="M21.3787 16.9748C21.3787 16.9748 21.8566 26.0345 22.5428 27.3974C23.229 28.7603 27.1379 32.6422 28.302 33.5305C29.4661 34.4188 31.8004 34.212 33.1728 33.5974C34.5452 32.9829 38.589 28.9672 39.1404 26.3752C39.6918 23.7833 39.6918 16.6341 39.6918 16.6341C39.6918 16.6341 36.6713 13.3668 31.6656 13.6345C26.66 13.9083 22.6102 15.2712 21.3787 16.9748Z" fill="white" stroke="#2F2F2F" stroke-miterlimit="10" stroke-linecap="round" stroke-linejoin="round"/>
<path d="M21.3787 16.9748C21.3787 16.9748 23.1371 17.9301 24.485 17.997C25.839 18.0639 29.7541 15.4111 31.7147 15.8188C33.6752 16.2265 36.1076 18.6115 37.6638 18.5446C39.22 18.4777 39.894 17.3156 39.894 17.3156C39.894 17.3156 37.866 13.5676 33.0013 12.6184C28.1366 11.6631 22.8614 14.389 21.3787 16.9748Z" fill="#BDBDBD" stroke="#2F2F2F" stroke-miterlimit="10" stroke-linecap="round" stroke-linejoin="round"/>
<path d="M28.2346 18.3377C28.2346 18.3377 26.1759 17.1817 24.2582 18.9523" stroke="#2F2F2F" stroke-miterlimit="10" stroke-linecap="round" stroke-linejoin="round"/>
<path d="M33.3811 18.2708C33.3811 18.2708 35.2988 17.3825 37.3574 18.8184" stroke="#2F2F2F" stroke-miterlimit="10" stroke-linecap="round" stroke-linejoin="round"/>
<path d="M26.8315 21.3069C27.153 21.3069 27.4135 20.8929 27.4135 20.3821C27.4135 19.8713 27.153 19.4573 26.8315 19.4573C26.5101 19.4573 26.2495 19.8713 26.2495 20.3821C26.2495 20.8929 26.5101 21.3069 26.8315 21.3069Z" fill="#263238" stroke="#2F2F2F" stroke-miterlimit="10"/>
<path d="M34.9557 21.3069C35.2772 21.3069 35.5378 20.8929 35.5378 20.3821C35.5378 19.8713 35.2772 19.4573 34.9557 19.4573C34.6342 19.4573 34.3737 19.8713 34.3737 20.3821C34.3737 20.8929 34.6342 21.3069 34.9557 21.3069Z" fill="#263238" stroke="#2F2F2F" stroke-miterlimit="10"/>
<path d="M32.1435 19.4268V24.7385L29.4048 24.2639" stroke="#2F2F2F" stroke-miterlimit="10" stroke-linecap="round" stroke-linejoin="round"/>
<path d="M30.3606 24.4647C30.3606 24.4647 29.2639 24.8724 28.4429 25.353C27.6219 25.8276 26.5926 26.1684 26.3169 26.2414C26.0412 26.3083 25.4714 26.5638 28.6819 27.4339C31.874 28.304 35.6481 26.9167 35.7829 26.3752C35.7829 26.3752 35.5562 26.4117 33.9816 25.6451C32.07 24.7142 31.3225 24.6047 31.3225 24.6047L30.3606 24.4647Z" fill="#2F2F2F" stroke="#2F2F2F" stroke-miterlimit="10"/>
<path d="M21.5441 18.9827C21.5441 18.9827 20.0614 17.3886 19.2587 18.9218C18.4561 20.4551 19.1975 21.4347 19.8776 22.3595C20.5576 23.2783 21.7953 23.7711 21.7953 23.7711L21.5441 18.9827Z" fill="white" stroke="#2F2F2F" stroke-miterlimit="10" stroke-linecap="round" stroke-linejoin="round"/>
<path d="M39.5448 18.9827C39.5448 18.9827 41.0275 17.3886 41.8301 18.9218C42.6327 20.4551 41.8914 21.4347 41.2113 22.3595C40.5312 23.2783 39.2936 23.7711 39.2936 23.7711L39.5448 18.9827Z" fill="white" stroke="#2F2F2F" stroke-miterlimit="10" stroke-linecap="round" stroke-linejoin="round"/>
</svg>
