<svg width="285" height="53" viewBox="0 0 285 53" fill="none" xmlns="http://www.w3.org/2000/svg">
<path d="M55.692 51.7408C62.6208 51.1205 67.7312 45.0395 67.1065 38.1587C66.4818 31.2779 60.3585 26.2029 53.4297 26.8232C46.5009 27.4436 41.3905 33.5245 42.0152 40.4053C42.6399 47.2861 48.7632 52.3612 55.692 51.7408Z" fill="#2F2F2F"/>
<path d="M244.6 51.7845C251.557 51.7845 257.196 46.1841 257.196 39.2757C257.196 32.3672 251.557 26.7668 244.6 26.7668C237.643 26.7668 232.004 32.3672 232.004 39.2757C232.004 46.1841 237.643 51.7845 244.6 51.7845Z" fill="#2F2F2F"/>
<path d="M27.2377 40.85L240.208 42.3116L268.583 41.849L270.133 35.6413C270.133 35.6413 271.428 30.5025 268.32 26.6464C265.216 22.7904 259.263 19.1948 254.346 20.221C249.43 21.2472 36.4479 20.221 36.4479 20.221C36.4479 20.221 24.803 23.0469 22.7324 31.5287C20.6696 40.0104 27.2377 40.85 27.2377 40.85Z" fill="#2F2F2F"/>
<path d="M41.6186 51.7845C48.5753 51.7845 54.2147 46.1841 54.2147 39.2757C54.2147 32.3672 48.5753 26.7668 41.6186 26.7668C34.662 26.7668 29.0226 32.3672 29.0226 39.2757C29.0226 46.1841 34.662 51.7845 41.6186 51.7845Z" fill="#2F2F2F"/>
<path d="M41.6187 30.5763C36.7807 30.5763 32.8586 34.4712 32.8586 39.2757C32.8586 44.0802 36.7807 47.9752 41.6187 47.9752C46.4567 47.9752 50.3788 44.0802 50.3788 39.2757C50.3788 34.4712 46.4567 30.5763 41.6187 30.5763ZM48.7309 36.7763L45.2628 37.4643C45.1454 37.235 45.0084 37.0173 44.8518 36.8152L46.989 34.0086C47.7601 34.7822 48.3551 35.7268 48.7309 36.7763ZM45.2628 32.7065L43.1257 35.513C42.9887 35.4586 42.8438 35.4119 42.699 35.373V31.8629C43.6189 31.9912 44.4839 32.2789 45.2628 32.7065ZM40.5344 31.859V35.3691C40.2957 35.4352 40.0647 35.5207 39.8455 35.6257L37.5165 32.9785C38.409 32.4071 39.4345 32.0184 40.5344 31.859ZM35.8843 34.4012L38.2133 37.0445C38.0293 37.3205 37.8806 37.6237 37.7671 37.9424L34.2325 37.7053C34.5026 36.4614 35.0819 35.3342 35.8843 34.4012ZM35.2854 43.3494C34.62 42.3271 34.1973 41.1377 34.0994 39.8549L37.6261 40.092C37.6927 40.4263 37.8101 40.7412 37.9549 41.0405L35.2854 43.3494ZM36.7102 44.9665L39.3719 42.6537C39.458 42.712 39.548 42.7664 39.642 42.8169L38.8082 46.2298C38.0371 45.9266 37.3287 45.4952 36.7102 44.9665ZM41.6187 46.774C41.3799 46.774 41.145 46.7585 40.9141 46.739L41.7478 43.3184C41.9592 43.3106 42.1628 43.2911 42.3624 43.2562L43.9124 46.4203C43.1883 46.6496 42.4172 46.774 41.6187 46.774ZM45.8578 45.4796L44.3078 42.3155C44.433 42.2066 44.5504 42.09 44.66 41.9656L47.8384 43.5205C47.3061 44.2901 46.6367 44.9548 45.8578 45.4796ZM45.623 40.0415C45.6543 39.8899 45.6699 39.7305 45.6817 39.5711L49.1497 38.8831C49.1575 39.0114 49.1693 39.1436 49.1693 39.2718C49.1693 40.0804 49.0362 40.8578 48.7974 41.5886L45.623 40.0415Z" fill="white" stroke="#263238" stroke-miterlimit="10" stroke-linecap="round" stroke-linejoin="round"/>
<path d="M255.352 51.7845C262.309 51.7845 267.949 46.1841 267.949 39.2757C267.949 32.3672 262.309 26.7668 255.352 26.7668C248.396 26.7668 242.756 32.3672 242.756 39.2757C242.756 46.1841 248.396 51.7845 255.352 51.7845Z" fill="#2F2F2F"/>
<path d="M255.352 30.5763C250.514 30.5763 246.592 34.4712 246.592 39.2757C246.592 44.0802 250.514 47.9752 255.352 47.9752C260.19 47.9752 264.113 44.0802 264.113 39.2757C264.113 34.4712 260.19 30.5763 255.352 30.5763ZM262.465 36.7763L258.997 37.4643C258.879 37.235 258.742 37.0173 258.586 36.8152L260.723 34.0086C261.494 34.7822 262.089 35.7268 262.465 36.7763ZM258.997 32.7065L256.859 35.513C256.722 35.4586 256.578 35.4119 256.433 35.373V31.8629C257.349 31.9912 258.218 32.2789 258.997 32.7065ZM254.268 31.859V35.3691C254.029 35.4352 253.798 35.5207 253.579 35.6257L251.25 32.9785C252.143 32.4071 253.168 32.0184 254.268 31.859ZM249.618 34.4012L251.947 37.0445C251.763 37.3205 251.614 37.6237 251.501 37.9424L247.966 37.7053C248.232 36.4614 248.816 35.3342 249.618 34.4012ZM249.015 43.3494C248.35 42.3271 247.927 41.1377 247.829 39.8549L251.356 40.092C251.423 40.4263 251.54 40.7412 251.685 41.0405L249.015 43.3494ZM250.444 44.9665L253.106 42.6537C253.192 42.712 253.282 42.7664 253.376 42.8169L252.542 46.2298C251.771 45.9266 251.062 45.4952 250.444 44.9665ZM255.352 46.774C255.114 46.774 254.879 46.7585 254.648 46.739L255.482 43.3184C255.693 43.3106 255.897 43.2911 256.096 43.2562L257.646 46.4203C256.922 46.6496 256.151 46.774 255.352 46.774ZM259.592 45.4796L258.042 42.3155C258.167 42.2066 258.284 42.09 258.394 41.9656L261.572 43.5205C261.04 44.2901 260.37 44.9548 259.592 45.4796ZM259.357 40.0415C259.388 39.8899 259.404 39.7305 259.415 39.5711L262.883 38.8831C262.891 39.0114 262.903 39.1436 262.903 39.2718C262.903 40.0804 262.77 40.8578 262.531 41.5886L259.357 40.0415Z" fill="white" stroke="#263238" stroke-miterlimit="10" stroke-linecap="round" stroke-linejoin="round"/>
<path d="M284.126 29.8066C282.948 29.1069 280.713 27.9369 280.713 27.9369C280.713 27.9369 279.065 24.1975 277.652 22.9108C276.239 21.6242 274.239 20.9245 273.648 20.8079C273.061 20.6913 232.681 15.6652 232.681 15.6652C232.681 15.6652 212.433 4.67624 210.198 3.62282C207.963 2.56941 203.489 1.28665 201.606 1.40327C199.723 1.51988 131.208 0.11661 131.208 0.11661L70.4628 0C70.4628 0 59.1623 0.583077 52.4533 2.68991C45.7443 4.79285 42.331 6.31272 39.8572 8.41956C37.3834 10.5225 34.4438 13.329 34.4438 13.329L9.25169 15.9023C9.25169 15.9023 5.36875 16.8391 4.54284 19.5251C3.71694 22.215 2.89494 26.3043 2.89494 26.3043C2.89494 26.3043 0.659907 27.004 0.421138 28.5239C0.186283 30.0437 1.1257 36.7063 1.71676 37.1767C2.30389 37.6431 9.60397 38.4633 9.60397 38.4633C9.60397 38.4633 11.017 39.7499 13.4869 40.0998C15.4088 40.3719 23.664 40.714 27.2416 40.8539C27.222 40.539 27.2103 40.2203 27.2142 39.9015C27.2259 31.5053 33.6022 24.6989 41.4582 24.6989C49.3101 24.6989 55.6708 31.5092 55.6551 39.9093C55.6551 40.3097 55.6356 40.7023 55.6043 41.0949L240.212 42.3193C240.161 41.5341 240.165 40.7256 240.232 39.9054C240.924 31.5092 247.857 24.7028 255.709 24.7028C263.561 24.7028 269.365 31.5131 268.673 39.9132C268.618 40.574 268.52 41.2232 268.391 41.8607L268.587 41.8568C268.587 41.8568 280.478 40.5701 281.535 40.4535C282.596 40.3369 284.361 37.2972 284.713 35.1942C285.065 33.0913 285.3 30.5063 284.126 29.8066Z" fill="#F66F6F"/>
<path d="M277.652 22.907H271.839C271.464 22.907 271.158 23.2102 271.158 23.5834V27.1945C271.158 27.5677 271.464 27.8709 271.839 27.8709H280.713C280.713 27.867 278.873 24.2286 277.652 22.907Z" fill="white" stroke="#263238" stroke-miterlimit="10" stroke-linecap="round" stroke-linejoin="round"/>
<path d="M271.37 26.4714H276.709V27.797H272.156C271.448 27.797 271.26 27.1672 271.37 26.4714Z" fill="#BDBDBD" stroke="#263238" stroke-miterlimit="10" stroke-linecap="round" stroke-linejoin="round"/>
<path d="M284.126 29.8066H266.308" stroke="#263238" stroke-miterlimit="10" stroke-linecap="round" stroke-linejoin="round"/>
<path d="M1.05133 27.8591H31.6764" stroke="#263238" stroke-miterlimit="10" stroke-linecap="round" stroke-linejoin="round"/>
<path d="M29.5941 27.7698C29.5941 27.7698 35.121 21.5621 44.8166 22.6427C54.5122 23.7233 58.1368 33.4412 58.1368 40.0999" stroke="#263238" stroke-miterlimit="10" stroke-linecap="round" stroke-linejoin="round"/>
<path d="M241.7 30.3819C241.7 30.3819 247.407 22.4638 256.378 23.2723C265.349 24.0808 267.702 30.0204 267.702 30.0204" stroke="#263238" stroke-miterlimit="10" stroke-linecap="round" stroke-linejoin="round"/>
<path d="M243.927 30.6501H55.8704C55.8704 30.6501 58.219 34.8249 57.9919 41.1027L240.208 42.3116C240.157 41.5264 240.161 40.7179 240.228 39.8977C240.517 36.4148 241.876 33.2118 243.927 30.6501Z" fill="white" stroke="#263238" stroke-miterlimit="10" stroke-linecap="round" stroke-linejoin="round"/>
<path d="M187.792 1.76868C187.792 1.76868 193.953 16.6137 194.862 30.2925" stroke="#263238" stroke-miterlimit="10" stroke-linecap="round" stroke-linejoin="round"/>
<path d="M232.681 15.6613H228.653C228.653 15.6613 217.145 8.33796 213.795 6.44881C210.444 4.55966 203.829 2.04079 201.383 1.95138L201.602 1.39941" stroke="#263238" stroke-miterlimit="10" stroke-linecap="round" stroke-linejoin="round"/>
<path d="M230.286 17.2434C230.286 17.2434 234.454 21.562 234.454 26.421C234.454 31.2799 234.184 37.8492 232.912 41.266" stroke="#263238" stroke-miterlimit="10" stroke-linecap="round" stroke-linejoin="round"/>
<path d="M83.6851 0.598633L83.7752 1.67926C83.7752 1.67926 85.5874 24.7145 86.0415 27.5016C86.4956 30.2925 85.8614 40.2786 85.8614 40.2786" stroke="#263238" stroke-miterlimit="10" stroke-linecap="round" stroke-linejoin="round"/>
<path d="M211.439 6.8958C209.806 5.81517 205.097 4.28753 202.467 3.92602C199.841 3.56452 195.582 3.02809 194.224 3.02809C192.865 3.02809 188.607 3.02809 188.607 3.02809L187.248 3.11749L81.1487 2.03687C81.1487 2.03687 69.0967 2.12628 67.1044 2.39838C65.112 2.66659 57.2287 4.01932 54.9624 5.90847C52.696 7.79762 51.9719 14.0948 51.9719 14.0948L192.591 15.8945H226.207C226.207 15.8945 213.071 7.97642 211.439 6.8958Z" fill="#2F2F2F"/>
<path d="M183.87 15.7818L192.595 15.8945H226.211C226.211 15.8945 213.075 7.9764 211.442 6.89578C209.81 5.81515 205.101 4.28751 202.471 3.92601C199.844 3.5645 195.586 3.02808 194.227 3.02808C192.869 3.02808 188.611 3.02808 188.611 3.02808L187.252 3.11747L180.336 3.04751L183.87 15.7818Z" fill="white" stroke="#263238" stroke-miterlimit="10" stroke-linecap="round" stroke-linejoin="round"/>
<path d="M211.438 6.89578C209.806 5.81515 205.097 4.28751 202.467 3.92601C199.841 3.5645 195.582 3.02808 194.224 3.02808C193.225 3.02808 190.658 3.02808 189.37 3.02808L190.591 7.35447C190.591 7.35447 196.592 7.01629 199.195 8.2524C201.798 9.48851 207.348 13.7605 207.348 13.7605C207.348 13.7605 206.667 14.5457 206.557 15.222C206.518 15.4436 206.585 15.6768 206.683 15.8906H226.203C226.207 15.8945 213.071 7.9764 211.438 6.89578ZM203.5 7.35447C203.5 7.35447 205.653 6.79082 207.689 7.01628C209.728 7.24173 222.183 14.3241 223.655 15.5602L213.916 15.3348L203.5 7.35447Z" fill="#263238" stroke="#263238" stroke-miterlimit="10" stroke-linecap="round" stroke-linejoin="round"/>
<path d="M190.102 3.02808C189.245 3.02808 188.607 3.02808 188.607 3.02808L187.248 3.11747L178.982 3.03196C179.823 5.17766 181.87 13.364 182.461 15.7624L192.591 15.8906H195.183C193.582 11.5448 191.077 5.39923 190.102 3.02808Z" fill="#4C4C4C" stroke="#4C4C4C" stroke-miterlimit="10" stroke-linecap="round" stroke-linejoin="round"/>
<path d="M58.4852 4.27588C56.986 4.754 55.6865 5.30209 54.9624 5.90459C52.696 7.79375 51.9719 14.0909 51.9719 14.0909L56.9625 14.1531L58.4852 4.27588Z" fill="#4C4C4C" stroke="#4C4C4C" stroke-miterlimit="10" stroke-linecap="round" stroke-linejoin="round"/>
<path d="M141.283 2.64711L129.341 2.52661C130.206 5.55081 131.701 12.2795 132.328 15.121L144.661 15.2803C143.835 11.16 141.953 4.85112 141.283 2.64711Z" fill="#4C4C4C" stroke="#4C4C4C" stroke-miterlimit="10" stroke-linecap="round" stroke-linejoin="round"/>
<path d="M92.6135 2.15349L81.2465 2.03687L81.3248 14.468L94.4297 14.6351C94.0266 10.8257 92.9893 4.42747 92.6135 2.15349Z" fill="#4C4C4C" stroke="#4C4C4C" stroke-miterlimit="10" stroke-linecap="round" stroke-linejoin="round"/>
<path d="M204.369 20.7534H197.574V21.5619H204.369V20.7534Z" fill="#263238"/>
<path d="M58.1328 18.5028H51.3377V19.3113H58.1328V18.5028Z" fill="#263238"/>
<path d="M47.263 22.3705C47.263 22.3705 46.6289 21.6514 46.8089 20.3026C46.989 18.9537 48.8913 7.97642 50.3435 6.17667C51.7918 4.37693 53.424 3.11749 55.7804 2.30896" stroke="#263238" stroke-miterlimit="10" stroke-linecap="round" stroke-linejoin="round"/>
<path d="M9.24389 15.8945C9.24389 15.8945 5.36095 16.8313 4.53505 19.5173C3.70914 22.2072 2.88715 26.2965 2.88715 26.2965H5.94418C5.94418 26.2965 6.83663 19.9955 9.26346 15.8906L9.24389 15.8945Z" fill="white" stroke="#263238" stroke-miterlimit="10" stroke-linecap="round" stroke-linejoin="round"/>
<path d="M85.744 10.9851C85.4974 10.9851 85.2821 10.7985 85.2586 10.5458L84.6911 4.58682C84.6676 4.3225 84.8633 4.08539 85.1295 4.06207C85.3956 4.03486 85.6344 4.2331 85.6579 4.49743L86.2254 10.4564C86.2489 10.7207 86.0532 10.9579 85.7871 10.9812C85.7753 10.9851 85.7597 10.9851 85.744 10.9851Z" fill="white"/>
<path d="M87.2158 10.9851C86.9692 10.9851 86.7539 10.7985 86.7304 10.5458L86.1629 4.58682C86.1394 4.3225 86.3351 4.08539 86.6013 4.06207C86.8674 4.03486 87.1062 4.2331 87.1297 4.49743L87.6972 10.4564C87.7207 10.7207 87.525 10.9579 87.2589 10.9812C87.2471 10.9851 87.2315 10.9851 87.2158 10.9851Z" fill="white"/>
<path d="M88.6875 10.9851C88.4409 10.9851 88.2257 10.7985 88.2022 10.5458L87.6346 4.58682C87.6111 4.3225 87.8068 4.08539 88.073 4.06207C88.3392 4.03486 88.5779 4.2331 88.6014 4.49743L89.169 10.4564C89.1925 10.7207 88.9968 10.9579 88.7306 10.9812C88.7188 10.9851 88.7032 10.9851 88.6875 10.9851Z" fill="white"/>
<path d="M90.1593 10.9851C89.9127 10.9851 89.6974 10.7985 89.6739 10.5458L89.1063 4.58682C89.0829 4.3225 89.2786 4.08539 89.5447 4.06207C89.8109 4.03486 90.0497 4.2331 90.0732 4.49743L90.6407 10.4564C90.6642 10.7207 90.4685 10.9579 90.2023 10.9812C90.1906 10.9851 90.1749 10.9851 90.1593 10.9851Z" fill="white"/>
<path d="M91.631 10.9851C91.3844 10.9851 91.1691 10.7985 91.1457 10.5458L90.5781 4.58682C90.5546 4.3225 90.7503 4.08539 91.0165 4.06207C91.2827 4.03486 91.5214 4.2331 91.5449 4.49743L92.1125 10.4564C92.136 10.7207 91.9402 10.9579 91.6741 10.9812C91.6623 10.9851 91.6467 10.9851 91.631 10.9851Z" fill="white"/>
<path d="M134.794 11.6576C134.547 11.6576 134.32 11.471 134.277 11.2183L133.287 5.25932C133.243 4.995 133.424 4.75788 133.69 4.73455C133.956 4.70734 134.206 4.90559 134.249 5.16991L135.24 11.1289C135.283 11.3932 135.103 11.6304 134.837 11.6537C134.825 11.6576 134.809 11.6576 134.794 11.6576Z" fill="white"/>
<path d="M136.265 11.6576C136.019 11.6576 135.792 11.471 135.749 11.2183L134.758 5.25932C134.715 4.995 134.895 4.75788 135.161 4.73455C135.428 4.70734 135.678 4.90559 135.721 5.16991L136.711 11.1289C136.755 11.3932 136.574 11.6304 136.308 11.6537C136.297 11.6576 136.281 11.6576 136.265 11.6576Z" fill="white"/>
<path d="M137.737 11.6576C137.49 11.6576 137.263 11.471 137.22 11.2183L136.23 5.25932C136.187 4.995 136.367 4.75788 136.633 4.73455C136.899 4.70734 137.15 4.90559 137.193 5.16991L138.183 11.1289C138.226 11.3932 138.046 11.6304 137.78 11.6537C137.768 11.6576 137.753 11.6576 137.737 11.6576Z" fill="white"/>
<path d="M139.209 11.6576C138.962 11.6576 138.735 11.471 138.692 11.2183L137.702 5.25932C137.659 4.995 137.839 4.75788 138.105 4.73455C138.371 4.70734 138.622 4.90559 138.665 5.16991L139.655 11.1289C139.698 11.3932 139.518 11.6304 139.252 11.6537C139.24 11.6576 139.224 11.6576 139.209 11.6576Z" fill="white"/>
<path d="M140.681 11.6576C140.434 11.6576 140.207 11.471 140.164 11.2183L139.174 5.25932C139.13 4.995 139.311 4.75788 139.577 4.73455C139.843 4.70734 140.093 4.90559 140.136 5.16991L141.127 11.1289C141.17 11.3932 140.99 11.6304 140.724 11.6537C140.712 11.6576 140.696 11.6576 140.681 11.6576Z" fill="white"/>
<path d="M183.702 12.1085C183.455 12.1085 183.205 11.9219 183.131 11.6692L181.365 5.71025C181.287 5.44592 181.436 5.20881 181.698 5.18548C181.96 5.15827 182.238 5.35652 182.316 5.62084L184.082 11.5798C184.16 11.8442 184.011 12.0813 183.749 12.1046C183.733 12.1085 183.718 12.1085 183.702 12.1085Z" fill="white"/>
<path d="M185.174 12.1085C184.927 12.1085 184.677 11.9219 184.602 11.6692L182.837 5.71025C182.759 5.44592 182.907 5.20881 183.17 5.18548C183.432 5.15827 183.71 5.35652 183.788 5.62084L185.554 11.5798C185.632 11.8442 185.483 12.0813 185.221 12.1046C185.205 12.1085 185.189 12.1085 185.174 12.1085Z" fill="white"/>
<path d="M186.646 12.1085C186.399 12.1085 186.148 11.9219 186.074 11.6692L184.313 5.71025C184.234 5.44592 184.383 5.20881 184.645 5.18548C184.908 5.15827 185.186 5.35652 185.264 5.62084L187.029 11.5798C187.107 11.8442 186.959 12.0813 186.696 12.1046C186.677 12.1085 186.661 12.1085 186.646 12.1085Z" fill="white"/>
<path d="M188.117 12.1085C187.871 12.1085 187.62 11.9219 187.546 11.6692L185.784 5.71025C185.706 5.44592 185.855 5.20881 186.117 5.18548C186.379 5.15827 186.657 5.35652 186.736 5.62084L188.501 11.5798C188.579 11.8442 188.431 12.0813 188.168 12.1046C188.149 12.1085 188.133 12.1085 188.117 12.1085Z" fill="white"/>
<path d="M189.593 12.1085C189.346 12.1085 189.096 11.9219 189.022 11.6692L187.256 5.71025C187.178 5.44592 187.327 5.20881 187.589 5.18548C187.851 5.15827 188.129 5.35652 188.207 5.62084L189.973 11.5798C190.051 11.8442 189.902 12.0813 189.64 12.1046C189.62 12.1085 189.605 12.1085 189.593 12.1085Z" fill="white"/>
<path d="M219.467 11.5137C219.467 11.5137 219.013 14.4369 219.58 15.226C220.148 16.0151 221.619 17.5855 223.205 17.6982C224.79 17.8109 225.244 16.8003 225.017 16.2366C224.79 15.673 224.563 13.4262 223.432 12.5244C222.297 11.6265 220.488 11.401 219.467 11.5137Z" fill="white" stroke="#263238" stroke-miterlimit="10" stroke-linecap="round" stroke-linejoin="round"/>
</svg>
