<svg width="36" height="30" viewBox="0 0 36 30" fill="none" xmlns="http://www.w3.org/2000/svg">
<path d="M1.66668 25.2336C1.66668 26.037 1.98583 26.8075 2.55391 27.3755C3.122 27.9436 3.89249 28.2628 4.69588 28.2628H31.9587C32.762 28.2628 33.5325 27.9436 34.1006 27.3755C34.6687 26.8075 34.9879 26.037 34.9879 25.2336V8.57299C34.9879 7.7696 34.6687 6.99911 34.1006 6.43103C33.5325 5.86294 32.762 5.5438 31.9587 5.5438H25.9003L22.8711 1H13.7835L10.7543 5.5438H4.69588C3.89249 5.5438 3.122 5.86294 2.55391 6.43103C1.98583 6.99911 1.66668 7.7696 1.66668 8.57299V25.2336Z" stroke="black" stroke-width="2" stroke-linecap="round" stroke-linejoin="round"/>
<path d="M18.3273 22.2044C14.9813 22.2044 12.2689 19.4919 12.2689 16.146C12.2689 12.8 14.9813 10.0876 18.3273 10.0876C21.6732 10.0876 24.3857 12.8 24.3857 16.146C24.3857 19.4919 21.6732 22.2044 18.3273 22.2044Z" stroke="black" stroke-width="2" stroke-linecap="round" stroke-linejoin="round"/>
</svg>
