<svg width="434" height="316" viewBox="0 0 434 316" fill="none" xmlns="http://www.w3.org/2000/svg">
<g clip-path="url(#clip0_135_3941)">
<g opacity="0.3">
<path d="M0 296.085H19.6221V118.965H71.2325V203.269H82.3211V308.008H95.1152V151.664H119.004V88.3095H157.393V204.971H171.892V158.561H204.308V168.781H232.036V306.733H243.125V281.611H273.407V306.306H287.913V181.98H336.962V298.642H351.04V135.996H368.101V106.194H376.628V89.1638H390.278V199.437H412.462V304.603H429.522" stroke="black" stroke-opacity="0.33" stroke-miterlimit="10"/>
<path d="M71.2325 113.431H19.6221V118.965H71.2325V113.431Z" stroke="black" stroke-opacity="0.33" stroke-miterlimit="10"/>
<path d="M119.004 151.664H94.9725V154.469H119.004V151.664Z" stroke="black" stroke-opacity="0.33" stroke-miterlimit="10"/>
<path d="M157.392 88.3095H118.892V91.0334H157.392V88.3095Z" stroke="black" stroke-opacity="0.33" stroke-miterlimit="10"/>
<path d="M180.556 152.778H174.949V158.56H180.556V152.778Z" stroke="black" stroke-opacity="0.33" stroke-miterlimit="10"/>
<path d="M195.13 155.199H192.327V158.554H195.13V155.199Z" stroke="black" stroke-opacity="0.33" stroke-miterlimit="10"/>
<path d="M232.123 168.781H204.308V172.174H232.123V168.781Z" stroke="black" stroke-opacity="0.33" stroke-miterlimit="10"/>
<path d="M336.956 179.448H287.913V181.98H336.956V179.448Z" stroke="black" stroke-opacity="0.33" stroke-miterlimit="10"/>
<path d="M319.951 174.415H300.515V179.454H319.951V174.415Z" stroke="black" stroke-opacity="0.33" stroke-miterlimit="10"/>
<path d="M315.839 174.6V169.939H330.041V179.262" stroke="black" stroke-opacity="0.33" stroke-miterlimit="10"/>
<path d="M222.237 167.388V129.694H267.187V160.925H282.654V107.798H332.28V172.056H347.741" stroke="black" stroke-opacity="0.33" stroke-miterlimit="10"/>
<path d="M189.877 148.724V107.079H159.309" stroke="black" stroke-opacity="0.33" stroke-miterlimit="10"/>
<path d="M93.4965 159.13H83.4312V130.053H73.7194" stroke="black" stroke-opacity="0.33" stroke-miterlimit="10"/>
<path d="M17.9786 151.231H9.71179V264.308" stroke="black" stroke-opacity="0.33" stroke-miterlimit="10"/>
<path d="M362.848 130.412V116.774H367.158" stroke="black" stroke-opacity="0.33" stroke-miterlimit="10"/>
<path d="M391.971 117.133H407.438V174.21H433.69V240.258" stroke="black" stroke-opacity="0.33" stroke-miterlimit="10"/>
<path d="M125.764 96.314H121.906V103.854H125.764V96.314Z" stroke="black" stroke-opacity="0.33" stroke-miterlimit="10"/>
<path d="M132.71 96.314H128.852V103.854H132.71V96.314Z" stroke="black" stroke-opacity="0.33" stroke-miterlimit="10"/>
<path d="M139.656 96.314H135.798V103.854H139.656V96.314Z" stroke="black" stroke-opacity="0.33" stroke-miterlimit="10"/>
<path d="M146.608 96.314H142.75V103.854H146.608V96.314Z" stroke="black" stroke-opacity="0.33" stroke-miterlimit="10"/>
<path d="M153.554 96.314H149.696V103.854H153.554V96.314Z" stroke="black" stroke-opacity="0.33" stroke-miterlimit="10"/>
<path d="M125.764 109.054H121.906V116.594H125.764V109.054Z" stroke="black" stroke-opacity="0.33" stroke-miterlimit="10"/>
<path d="M132.71 109.054H128.852V116.594H132.71V109.054Z" stroke="black" stroke-opacity="0.33" stroke-miterlimit="10"/>
<path d="M139.656 109.054H135.798V116.594H139.656V109.054Z" stroke="black" stroke-opacity="0.33" stroke-miterlimit="10"/>
<path d="M146.608 109.054H142.75V116.594H146.608V109.054Z" stroke="black" stroke-opacity="0.33" stroke-miterlimit="10"/>
<path d="M153.554 109.054H149.696V116.594H153.554V109.054Z" stroke="black" stroke-opacity="0.33" stroke-miterlimit="10"/>
<path d="M125.764 121.801H121.906V129.341H125.764V121.801Z" stroke="black" stroke-opacity="0.33" stroke-miterlimit="10"/>
<path d="M132.71 121.801H128.852V129.341H132.71V121.801Z" stroke="black" stroke-opacity="0.33" stroke-miterlimit="10"/>
<path d="M139.656 121.801H135.798V129.341H139.656V121.801Z" stroke="black" stroke-opacity="0.33" stroke-miterlimit="10"/>
<path d="M146.608 121.801H142.75V129.341H146.608V121.801Z" stroke="black" stroke-opacity="0.33" stroke-miterlimit="10"/>
<path d="M153.554 121.801H149.696V129.341H153.554V121.801Z" stroke="black" stroke-opacity="0.33" stroke-miterlimit="10"/>
<path d="M125.764 134.541H121.906V142.081H125.764V134.541Z" stroke="black" stroke-opacity="0.33" stroke-miterlimit="10"/>
<path d="M132.71 134.541H128.852V142.081H132.71V134.541Z" stroke="black" stroke-opacity="0.33" stroke-miterlimit="10"/>
<path d="M139.656 134.541H135.798V142.081H139.656V134.541Z" stroke="black" stroke-opacity="0.33" stroke-miterlimit="10"/>
<path d="M146.608 134.541H142.75V142.081H146.608V134.541Z" stroke="black" stroke-opacity="0.33" stroke-miterlimit="10"/>
<path d="M153.554 134.541H149.696V142.081H153.554V134.541Z" stroke="black" stroke-opacity="0.33" stroke-miterlimit="10"/>
<path d="M125.764 147.287H121.906V154.828H125.764V147.287Z" stroke="black" stroke-opacity="0.33" stroke-miterlimit="10"/>
<path d="M132.71 147.287H128.852V154.828H132.71V147.287Z" stroke="black" stroke-opacity="0.33" stroke-miterlimit="10"/>
<path d="M139.656 147.287H135.798V154.828H139.656V147.287Z" stroke="black" stroke-opacity="0.33" stroke-miterlimit="10"/>
<path d="M146.608 147.287H142.75V154.828H146.608V147.287Z" stroke="black" stroke-opacity="0.33" stroke-miterlimit="10"/>
<path d="M153.554 147.287H149.696V154.828H153.554V147.287Z" stroke="black" stroke-opacity="0.33" stroke-miterlimit="10"/>
<path d="M125.764 160.028H121.906V167.568H125.764V160.028Z" stroke="black" stroke-opacity="0.33" stroke-miterlimit="10"/>
<path d="M132.71 160.028H128.852V167.568H132.71V160.028Z" stroke="black" stroke-opacity="0.33" stroke-miterlimit="10"/>
<path d="M139.656 160.028H135.798V167.568H139.656V160.028Z" stroke="black" stroke-opacity="0.33" stroke-miterlimit="10"/>
<path d="M146.608 160.028H142.75V167.568H146.608V160.028Z" stroke="black" stroke-opacity="0.33" stroke-miterlimit="10"/>
<path d="M153.554 160.028H149.696V167.568H153.554V160.028Z" stroke="black" stroke-opacity="0.33" stroke-miterlimit="10"/>
<path d="M102.08 160.028H98.2223V167.568H102.08V160.028Z" stroke="black" stroke-opacity="0.33" stroke-miterlimit="10"/>
<path d="M109.032 160.028H105.174V167.568H109.032V160.028Z" stroke="black" stroke-opacity="0.33" stroke-miterlimit="10"/>
<path d="M115.978 160.028H112.12V167.568H115.978V160.028Z" stroke="black" stroke-opacity="0.33" stroke-miterlimit="10"/>
<path d="M102.08 172.415H98.2223V179.955H102.08V172.415Z" stroke="black" stroke-opacity="0.33" stroke-miterlimit="10"/>
<path d="M109.032 172.415H105.174V179.955H109.032V172.415Z" stroke="black" stroke-opacity="0.33" stroke-miterlimit="10"/>
<path d="M115.978 172.415H112.12V179.955H115.978V172.415Z" stroke="black" stroke-opacity="0.33" stroke-miterlimit="10"/>
<path d="M102.08 184.796H98.2223V192.337H102.08V184.796Z" stroke="black" stroke-opacity="0.33" stroke-miterlimit="10"/>
<path d="M109.032 184.796H105.174V192.337H109.032V184.796Z" stroke="black" stroke-opacity="0.33" stroke-miterlimit="10"/>
<path d="M115.978 184.796H112.12V192.337H115.978V184.796Z" stroke="black" stroke-opacity="0.33" stroke-miterlimit="10"/>
<path d="M102.08 197.184H98.2223V204.724H102.08V197.184Z" stroke="black" stroke-opacity="0.33" stroke-miterlimit="10"/>
<path d="M109.032 197.184H105.174V204.724H109.032V197.184Z" stroke="black" stroke-opacity="0.33" stroke-miterlimit="10"/>
<path d="M115.978 197.184H112.12V204.724H115.978V197.184Z" stroke="black" stroke-opacity="0.33" stroke-miterlimit="10"/>
<path d="M102.08 209.565H98.2223V217.105H102.08V209.565Z" stroke="black" stroke-opacity="0.33" stroke-miterlimit="10"/>
<path d="M109.032 209.565H105.174V217.105H109.032V209.565Z" stroke="black" stroke-opacity="0.33" stroke-miterlimit="10"/>
<path d="M115.978 209.565H112.12V217.105H115.978V209.565Z" stroke="black" stroke-opacity="0.33" stroke-miterlimit="10"/>
<path d="M102.08 221.952H98.2223V229.493H102.08V221.952Z" stroke="black" stroke-opacity="0.33" stroke-miterlimit="10"/>
<path d="M109.032 221.952H105.174V229.493H109.032V221.952Z" stroke="black" stroke-opacity="0.33" stroke-miterlimit="10"/>
<path d="M115.978 221.952H112.12V229.493H115.978V221.952Z" stroke="black" stroke-opacity="0.33" stroke-miterlimit="10"/>
<path d="M102.08 234.333H98.2223V241.874H102.08V234.333Z" stroke="black" stroke-opacity="0.33" stroke-miterlimit="10"/>
<path d="M109.032 234.333H105.174V241.874H109.032V234.333Z" stroke="black" stroke-opacity="0.33" stroke-miterlimit="10"/>
<path d="M115.978 234.333H112.12V241.874H115.978V234.333Z" stroke="black" stroke-opacity="0.33" stroke-miterlimit="10"/>
<path d="M102.08 246.721H98.2223V254.261H102.08V246.721Z" stroke="black" stroke-opacity="0.33" stroke-miterlimit="10"/>
<path d="M109.032 246.721H105.174V254.261H109.032V246.721Z" stroke="black" stroke-opacity="0.33" stroke-miterlimit="10"/>
<path d="M115.978 246.721H112.12V254.261H115.978V246.721Z" stroke="black" stroke-opacity="0.33" stroke-miterlimit="10"/>
<path d="M102.08 259.102H98.2223V266.642H102.08V259.102Z" stroke="black" stroke-opacity="0.33" stroke-miterlimit="10"/>
<path d="M109.032 259.102H105.174V266.642H109.032V259.102Z" stroke="black" stroke-opacity="0.33" stroke-miterlimit="10"/>
<path d="M115.978 259.102H112.12V266.642H115.978V259.102Z" stroke="black" stroke-opacity="0.33" stroke-miterlimit="10"/>
<path d="M102.08 271.49H98.2223V279.03H102.08V271.49Z" stroke="black" stroke-opacity="0.33" stroke-miterlimit="10"/>
<path d="M109.032 271.49H105.174V279.03H109.032V271.49Z" stroke="black" stroke-opacity="0.33" stroke-miterlimit="10"/>
<path d="M115.978 271.49H112.12V279.03H115.978V271.49Z" stroke="black" stroke-opacity="0.33" stroke-miterlimit="10"/>
<path d="M102.08 283.871H98.2223V291.411H102.08V283.871Z" stroke="black" stroke-opacity="0.33" stroke-miterlimit="10"/>
<path d="M109.032 283.871H105.174V291.411H109.032V283.871Z" stroke="black" stroke-opacity="0.33" stroke-miterlimit="10"/>
<path d="M115.978 283.871H112.12V291.411H115.978V283.871Z" stroke="black" stroke-opacity="0.33" stroke-miterlimit="10"/>
<path d="M164.022 211.001H160.165V218.541H164.022V211.001Z" stroke="black" stroke-opacity="0.33" stroke-miterlimit="10"/>
<path d="M170.968 211.001H167.111V218.541H170.968V211.001Z" stroke="black" stroke-opacity="0.33" stroke-miterlimit="10"/>
<path d="M164.022 223.389H160.165V230.929H164.022V223.389Z" stroke="black" stroke-opacity="0.33" stroke-miterlimit="10"/>
<path d="M170.968 223.389H167.111V230.929H170.968V223.389Z" stroke="black" stroke-opacity="0.33" stroke-miterlimit="10"/>
<path d="M164.022 235.77H160.165V243.31H164.022V235.77Z" stroke="black" stroke-opacity="0.33" stroke-miterlimit="10"/>
<path d="M170.968 235.77H167.111V243.31H170.968V235.77Z" stroke="black" stroke-opacity="0.33" stroke-miterlimit="10"/>
<path d="M164.022 248.157H160.165V255.697H164.022V248.157Z" stroke="black" stroke-opacity="0.33" stroke-miterlimit="10"/>
<path d="M170.968 248.157H167.111V255.697H170.968V248.157Z" stroke="black" stroke-opacity="0.33" stroke-miterlimit="10"/>
<path d="M164.022 260.538H160.165V268.079H164.022V260.538Z" stroke="black" stroke-opacity="0.33" stroke-miterlimit="10"/>
<path d="M170.968 260.538H167.111V268.079H170.968V260.538Z" stroke="black" stroke-opacity="0.33" stroke-miterlimit="10"/>
<path d="M164.022 272.926H160.165V280.466H164.022V272.926Z" stroke="black" stroke-opacity="0.33" stroke-miterlimit="10"/>
<path d="M170.968 272.926H167.111V280.466H170.968V272.926Z" stroke="black" stroke-opacity="0.33" stroke-miterlimit="10"/>
<path d="M164.022 285.307H160.165V292.847H164.022V285.307Z" stroke="black" stroke-opacity="0.33" stroke-miterlimit="10"/>
<path d="M170.968 285.307H167.111V292.847H170.968V285.307Z" stroke="black" stroke-opacity="0.33" stroke-miterlimit="10"/>
<path d="M125.764 172.774H121.906V180.314H125.764V172.774Z" stroke="black" stroke-opacity="0.33" stroke-miterlimit="10"/>
<path d="M132.71 172.774H128.852V180.314H132.71V172.774Z" stroke="black" stroke-opacity="0.33" stroke-miterlimit="10"/>
<path d="M139.656 172.774H135.798V180.314H139.656V172.774Z" stroke="black" stroke-opacity="0.33" stroke-miterlimit="10"/>
<path d="M146.608 172.774H142.75V180.314H146.608V172.774Z" stroke="black" stroke-opacity="0.33" stroke-miterlimit="10"/>
<path d="M153.554 172.774H149.696V180.314H153.554V172.774Z" stroke="black" stroke-opacity="0.33" stroke-miterlimit="10"/>
<path d="M125.764 185.514H121.906V193.055H125.764V185.514Z" stroke="black" stroke-opacity="0.33" stroke-miterlimit="10"/>
<path d="M132.71 185.514H128.852V193.055H132.71V185.514Z" stroke="black" stroke-opacity="0.33" stroke-miterlimit="10"/>
<path d="M139.656 185.514H135.798V193.055H139.656V185.514Z" stroke="black" stroke-opacity="0.33" stroke-miterlimit="10"/>
<path d="M146.608 185.514H142.75V193.055H146.608V185.514Z" stroke="black" stroke-opacity="0.33" stroke-miterlimit="10"/>
<path d="M153.554 185.514H149.696V193.055H153.554V185.514Z" stroke="black" stroke-opacity="0.33" stroke-miterlimit="10"/>
<path d="M125.764 198.261H121.906V205.801H125.764V198.261Z" stroke="black" stroke-opacity="0.33" stroke-miterlimit="10"/>
<path d="M132.71 198.261H128.852V205.801H132.71V198.261Z" stroke="black" stroke-opacity="0.33" stroke-miterlimit="10"/>
<path d="M139.656 198.261H135.798V205.801H139.656V198.261Z" stroke="black" stroke-opacity="0.33" stroke-miterlimit="10"/>
<path d="M146.608 198.261H142.75V205.801H146.608V198.261Z" stroke="black" stroke-opacity="0.33" stroke-miterlimit="10"/>
<path d="M153.554 198.261H149.696V205.801H153.554V198.261Z" stroke="black" stroke-opacity="0.33" stroke-miterlimit="10"/>
<path d="M125.764 211.001H121.906V218.541H125.764V211.001Z" stroke="black" stroke-opacity="0.33" stroke-miterlimit="10"/>
<path d="M132.71 211.001H128.852V218.541H132.71V211.001Z" stroke="black" stroke-opacity="0.33" stroke-miterlimit="10"/>
<path d="M139.656 211.001H135.798V218.541H139.656V211.001Z" stroke="black" stroke-opacity="0.33" stroke-miterlimit="10"/>
<path d="M146.608 211.001H142.75V218.541H146.608V211.001Z" stroke="black" stroke-opacity="0.33" stroke-miterlimit="10"/>
<path d="M153.554 211.001H149.696V218.541H153.554V211.001Z" stroke="black" stroke-opacity="0.33" stroke-miterlimit="10"/>
<path d="M125.764 223.748H121.906V231.288H125.764V223.748Z" stroke="black" stroke-opacity="0.33" stroke-miterlimit="10"/>
<path d="M132.71 223.748H128.852V231.288H132.71V223.748Z" stroke="black" stroke-opacity="0.33" stroke-miterlimit="10"/>
<path d="M139.656 223.748H135.798V231.288H139.656V223.748Z" stroke="black" stroke-opacity="0.33" stroke-miterlimit="10"/>
<path d="M146.608 223.748H142.75V231.288H146.608V223.748Z" stroke="black" stroke-opacity="0.33" stroke-miterlimit="10"/>
<path d="M153.554 223.748H149.696V231.288H153.554V223.748Z" stroke="black" stroke-opacity="0.33" stroke-miterlimit="10"/>
<path d="M125.764 236.488H121.906V244.028H125.764V236.488Z" stroke="black" stroke-opacity="0.33" stroke-miterlimit="10"/>
<path d="M132.71 236.488H128.852V244.028H132.71V236.488Z" stroke="black" stroke-opacity="0.33" stroke-miterlimit="10"/>
<path d="M139.656 236.488H135.798V244.028H139.656V236.488Z" stroke="black" stroke-opacity="0.33" stroke-miterlimit="10"/>
<path d="M146.608 236.488H142.75V244.028H146.608V236.488Z" stroke="black" stroke-opacity="0.33" stroke-miterlimit="10"/>
<path d="M153.554 236.488H149.696V244.028H153.554V236.488Z" stroke="black" stroke-opacity="0.33" stroke-miterlimit="10"/>
<path d="M125.764 249.234H121.906V256.775H125.764V249.234Z" stroke="black" stroke-opacity="0.33" stroke-miterlimit="10"/>
<path d="M132.71 249.234H128.852V256.775H132.71V249.234Z" stroke="black" stroke-opacity="0.33" stroke-miterlimit="10"/>
<path d="M139.656 249.234H135.798V256.775H139.656V249.234Z" stroke="black" stroke-opacity="0.33" stroke-miterlimit="10"/>
<path d="M146.608 249.234H142.75V256.775H146.608V249.234Z" stroke="black" stroke-opacity="0.33" stroke-miterlimit="10"/>
<path d="M153.554 249.234H149.696V256.775H153.554V249.234Z" stroke="black" stroke-opacity="0.33" stroke-miterlimit="10"/>
<path d="M125.764 261.975H121.906V269.515H125.764V261.975Z" stroke="black" stroke-opacity="0.33" stroke-miterlimit="10"/>
<path d="M132.71 261.975H128.852V269.515H132.71V261.975Z" stroke="black" stroke-opacity="0.33" stroke-miterlimit="10"/>
<path d="M139.656 261.975H135.798V269.515H139.656V261.975Z" stroke="black" stroke-opacity="0.33" stroke-miterlimit="10"/>
<path d="M146.608 261.975H142.75V269.515H146.608V261.975Z" stroke="black" stroke-opacity="0.33" stroke-miterlimit="10"/>
<path d="M153.554 261.975H149.696V269.515H153.554V261.975Z" stroke="black" stroke-opacity="0.33" stroke-miterlimit="10"/>
<path d="M125.764 274.721H121.906V282.261H125.764V274.721Z" stroke="black" stroke-opacity="0.33" stroke-miterlimit="10"/>
<path d="M132.71 274.721H128.852V282.261H132.71V274.721Z" stroke="black" stroke-opacity="0.33" stroke-miterlimit="10"/>
<path d="M139.656 274.721H135.798V282.261H139.656V274.721Z" stroke="black" stroke-opacity="0.33" stroke-miterlimit="10"/>
<path d="M146.608 274.721H142.75V282.261H146.608V274.721Z" stroke="black" stroke-opacity="0.33" stroke-miterlimit="10"/>
<path d="M153.554 274.721H149.696V282.261H153.554V274.721Z" stroke="black" stroke-opacity="0.33" stroke-miterlimit="10"/>
<path d="M125.764 287.82H121.906V295.36H125.764V287.82Z" stroke="black" stroke-opacity="0.33" stroke-miterlimit="10"/>
<path d="M132.71 287.82H128.852V295.36H132.71V287.82Z" stroke="black" stroke-opacity="0.33" stroke-miterlimit="10"/>
<path d="M139.656 287.82H135.798V295.36H139.656V287.82Z" stroke="black" stroke-opacity="0.33" stroke-miterlimit="10"/>
<path d="M146.608 287.82H142.75V295.36H146.608V287.82Z" stroke="black" stroke-opacity="0.33" stroke-miterlimit="10"/>
<path d="M153.554 287.82H149.696V295.36H153.554V287.82Z" stroke="black" stroke-opacity="0.33" stroke-miterlimit="10"/>
<path d="M119.004 154.462V308.101" stroke="black" stroke-opacity="0.33" stroke-miterlimit="10"/>
<path d="M178.007 161.643V305.946" stroke="black" stroke-opacity="0.33" stroke-miterlimit="10"/>
<path d="M185.561 161.643V305.946" stroke="black" stroke-opacity="0.33" stroke-miterlimit="10"/>
<path d="M193.108 161.643V305.946" stroke="black" stroke-opacity="0.33" stroke-miterlimit="10"/>
<path d="M200.662 161.643V305.946" stroke="black" stroke-opacity="0.33" stroke-miterlimit="10"/>
<path d="M208.215 175.999V305.946" stroke="black" stroke-opacity="0.33" stroke-miterlimit="10"/>
<path d="M215.763 175.999V305.946" stroke="black" stroke-opacity="0.33" stroke-miterlimit="10"/>
<path d="M223.316 175.999V305.946" stroke="black" stroke-opacity="0.33" stroke-miterlimit="10"/>
<path d="M21.5757 127.18H68.6837" stroke="black" stroke-opacity="0.33" stroke-miterlimit="10"/>
<path d="M21.5757 136.516H68.6837" stroke="black" stroke-opacity="0.33" stroke-miterlimit="10"/>
<path d="M21.5757 145.851H68.6837" stroke="black" stroke-opacity="0.33" stroke-miterlimit="10"/>
<path d="M21.5757 155.18H68.6837" stroke="black" stroke-opacity="0.33" stroke-miterlimit="10"/>
<path d="M21.5757 164.516H68.6837" stroke="black" stroke-opacity="0.33" stroke-miterlimit="10"/>
<path d="M21.5757 173.851H68.6837" stroke="black" stroke-opacity="0.33" stroke-miterlimit="10"/>
<path d="M21.5757 183.181H68.6837" stroke="black" stroke-opacity="0.33" stroke-miterlimit="10"/>
<path d="M21.5757 192.516H68.6837" stroke="black" stroke-opacity="0.33" stroke-miterlimit="10"/>
<path d="M21.5757 201.845H68.6837" stroke="black" stroke-opacity="0.33" stroke-miterlimit="10"/>
<path d="M21.5757 211.181H68.6837" stroke="black" stroke-opacity="0.33" stroke-miterlimit="10"/>
<path d="M21.5757 220.516H68.6837" stroke="black" stroke-opacity="0.33" stroke-miterlimit="10"/>
<path d="M21.5757 229.845H68.6837" stroke="black" stroke-opacity="0.33" stroke-miterlimit="10"/>
<path d="M21.5757 239.181H68.6837" stroke="black" stroke-opacity="0.33" stroke-miterlimit="10"/>
<path d="M21.5757 248.516H68.6837" stroke="black" stroke-opacity="0.33" stroke-miterlimit="10"/>
<path d="M21.5757 257.845H68.6837" stroke="black" stroke-opacity="0.33" stroke-miterlimit="10"/>
<path d="M21.5757 267.181H68.6837" stroke="black" stroke-opacity="0.33" stroke-miterlimit="10"/>
<path d="M21.5757 276.516H68.6837" stroke="black" stroke-opacity="0.33" stroke-miterlimit="10"/>
<path d="M21.5757 285.846H68.6837" stroke="black" stroke-opacity="0.33" stroke-miterlimit="10"/>
<path d="M21.5757 295.181H68.6837" stroke="black" stroke-opacity="0.33" stroke-miterlimit="10"/>
<path d="M21.5757 304.51H68.6837" stroke="black" stroke-opacity="0.33" stroke-miterlimit="10"/>
<path d="M21.5757 313.846H68.6837" stroke="black" stroke-opacity="0.33" stroke-miterlimit="10"/>
<path d="M27.6906 113.183V316" stroke="black" stroke-opacity="0.33" stroke-miterlimit="10"/>
<path d="M351.338 153.026H361.769V158.053H351.338" stroke="black" stroke-opacity="0.33" stroke-miterlimit="10"/>
<path d="M412.114 209.385H400.244V214.412H412.114" stroke="black" stroke-opacity="0.33" stroke-miterlimit="10"/>
<path d="M412.114 221.234H400.244V226.261H412.114" stroke="black" stroke-opacity="0.33" stroke-miterlimit="10"/>
<path d="M412.114 233.077H400.244V238.104H412.114" stroke="black" stroke-opacity="0.33" stroke-miterlimit="10"/>
<path d="M412.114 244.926H400.244V249.952H412.114" stroke="black" stroke-opacity="0.33" stroke-miterlimit="10"/>
<path d="M412.114 256.768H400.244V261.795H412.114" stroke="black" stroke-opacity="0.33" stroke-miterlimit="10"/>
<path d="M412.114 268.617H400.244V273.644H412.114" stroke="black" stroke-opacity="0.33" stroke-miterlimit="10"/>
<path d="M412.114 280.46H400.244V285.486H412.114" stroke="black" stroke-opacity="0.33" stroke-miterlimit="10"/>
<path d="M412.114 292.309H400.244V297.335H412.114" stroke="black" stroke-opacity="0.33" stroke-miterlimit="10"/>
<path d="M351.338 166.67H361.769V171.697H351.338" stroke="black" stroke-opacity="0.33" stroke-miterlimit="10"/>
<path d="M351.338 180.308H361.769V185.335H351.338" stroke="black" stroke-opacity="0.33" stroke-miterlimit="10"/>
<path d="M351.338 193.952H361.769V198.979H351.338" stroke="black" stroke-opacity="0.33" stroke-miterlimit="10"/>
<path d="M351.338 207.59H361.769V212.617H351.338" stroke="black" stroke-opacity="0.33" stroke-miterlimit="10"/>
<path d="M351.338 221.234H361.769V226.261H351.338" stroke="black" stroke-opacity="0.33" stroke-miterlimit="10"/>
<path d="M351.338 234.872H361.769V239.899H351.338" stroke="black" stroke-opacity="0.33" stroke-miterlimit="10"/>
<path d="M351.338 248.516H361.769V253.537H351.338" stroke="black" stroke-opacity="0.33" stroke-miterlimit="10"/>
<path d="M351.338 262.154H361.769V267.181H351.338" stroke="black" stroke-opacity="0.33" stroke-miterlimit="10"/>
<path d="M351.338 275.798H361.769V280.819H351.338" stroke="black" stroke-opacity="0.33" stroke-miterlimit="10"/>
<path d="M334.798 185.694H289.488V190.003H334.798V185.694Z" stroke="black" stroke-opacity="0.33" stroke-miterlimit="10"/>
<path d="M334.798 193.234H289.488V197.543H334.798V193.234Z" stroke="black" stroke-opacity="0.33" stroke-miterlimit="10"/>
<path d="M334.798 200.774H289.488V205.083H334.798V200.774Z" stroke="black" stroke-opacity="0.33" stroke-miterlimit="10"/>
<path d="M334.798 208.308H289.488V212.617H334.798V208.308Z" stroke="black" stroke-opacity="0.33" stroke-miterlimit="10"/>
<path d="M334.798 215.848H289.488V220.157H334.798V215.848Z" stroke="black" stroke-opacity="0.33" stroke-miterlimit="10"/>
<path d="M334.798 223.389H289.488V227.697H334.798V223.389Z" stroke="black" stroke-opacity="0.33" stroke-miterlimit="10"/>
<path d="M334.798 230.922H289.488V235.231H334.798V230.922Z" stroke="black" stroke-opacity="0.33" stroke-miterlimit="10"/>
<path d="M334.798 238.463H289.488V242.771H334.798V238.463Z" stroke="black" stroke-opacity="0.33" stroke-miterlimit="10"/>
<path d="M334.798 246.003H289.488V250.311H334.798V246.003Z" stroke="black" stroke-opacity="0.33" stroke-miterlimit="10"/>
<path d="M334.798 253.537H289.488V257.845H334.798V253.537Z" stroke="black" stroke-opacity="0.33" stroke-miterlimit="10"/>
<path d="M334.798 261.077H289.488V265.386H334.798V261.077Z" stroke="black" stroke-opacity="0.33" stroke-miterlimit="10"/>
<path d="M334.798 268.617H289.488V272.926H334.798V268.617Z" stroke="black" stroke-opacity="0.33" stroke-miterlimit="10"/>
<path d="M334.798 276.157H289.488V280.466H334.798V276.157Z" stroke="black" stroke-opacity="0.33" stroke-miterlimit="10"/>
<path d="M334.798 283.691H289.488V288H334.798V283.691Z" stroke="black" stroke-opacity="0.33" stroke-miterlimit="10"/>
<path d="M334.798 291.231H289.488V295.54H334.798V291.231Z" stroke="black" stroke-opacity="0.33" stroke-miterlimit="10"/>
<path d="M334.798 298.771H289.488V303.08H334.798V298.771Z" stroke="black" stroke-opacity="0.33" stroke-miterlimit="10"/>
<path d="M334.798 306.306H289.488V310.614H334.798V306.306Z" stroke="black" stroke-opacity="0.33" stroke-miterlimit="10"/>
<path d="M368.237 141.183V307.742" stroke="black" stroke-opacity="0.33" stroke-miterlimit="10"/>
<path d="M377.589 109.593V307.742" stroke="black" stroke-opacity="0.33" stroke-miterlimit="10"/>
<path d="M270.065 269.694H247.41V281.543H270.065V269.694Z" stroke="black" stroke-opacity="0.33" stroke-miterlimit="10"/>
<path d="M264.675 248.875H252.805V269.694H264.675V248.875Z" stroke="black" stroke-opacity="0.33" stroke-miterlimit="10"/>
<path d="M157.393 204.971V307.816" stroke="black" stroke-opacity="0.33" stroke-miterlimit="10"/>
<path d="M287.516 193.698H232.507" stroke="black" stroke-opacity="0.33" stroke-miterlimit="10"/>
<path d="M287.516 199.833H232.507" stroke="black" stroke-opacity="0.33" stroke-miterlimit="10"/>
<path d="M243.354 204.439H234.963V210.574H243.354V204.439Z" stroke="black" stroke-opacity="0.33" stroke-miterlimit="10"/>
<path d="M253.705 204.439H245.314V210.574H253.705V204.439Z" stroke="black" stroke-opacity="0.33" stroke-miterlimit="10"/>
<path d="M264.055 204.439H255.664V210.574H264.055V204.439Z" stroke="black" stroke-opacity="0.33" stroke-miterlimit="10"/>
<path d="M274.4 204.439H266.009V210.574H274.4V204.439Z" stroke="black" stroke-opacity="0.33" stroke-miterlimit="10"/>
<path d="M284.75 204.439H276.359V210.574H284.75V204.439Z" stroke="black" stroke-opacity="0.33" stroke-miterlimit="10"/>
<path d="M243.354 213.948H234.963V220.083H243.354V213.948Z" stroke="black" stroke-opacity="0.33" stroke-miterlimit="10"/>
<path d="M253.705 213.948H245.314V220.083H253.705V213.948Z" stroke="black" stroke-opacity="0.33" stroke-miterlimit="10"/>
<path d="M264.055 213.948H255.664V220.083H264.055V213.948Z" stroke="black" stroke-opacity="0.33" stroke-miterlimit="10"/>
<path d="M274.4 213.948H266.009V220.083H274.4V213.948Z" stroke="black" stroke-opacity="0.33" stroke-miterlimit="10"/>
<path d="M284.75 213.948H276.359V220.083H284.75V213.948Z" stroke="black" stroke-opacity="0.33" stroke-miterlimit="10"/>
<path d="M243.354 223.457H234.963V229.592H243.354V223.457Z" stroke="black" stroke-opacity="0.33" stroke-miterlimit="10"/>
<path d="M253.705 223.457H245.314V229.592H253.705V223.457Z" stroke="black" stroke-opacity="0.33" stroke-miterlimit="10"/>
<path d="M264.055 223.457H255.664V229.592H264.055V223.457Z" stroke="black" stroke-opacity="0.33" stroke-miterlimit="10"/>
<path d="M274.4 223.457H266.009V229.592H274.4V223.457Z" stroke="black" stroke-opacity="0.33" stroke-miterlimit="10"/>
<path d="M284.75 223.457H276.359V229.592H284.75V223.457Z" stroke="black" stroke-opacity="0.33" stroke-miterlimit="10"/>
<path d="M243.354 240.635H234.963V246.77H243.354V240.635Z" stroke="black" stroke-opacity="0.33" stroke-miterlimit="10"/>
<path d="M253.705 240.635H245.314V246.77H253.705V240.635Z" stroke="black" stroke-opacity="0.33" stroke-miterlimit="10"/>
<path d="M264.055 240.635H255.664V246.77H264.055V240.635Z" stroke="black" stroke-opacity="0.33" stroke-miterlimit="10"/>
<path d="M274.4 240.635H266.009V246.77H274.4V240.635Z" stroke="black" stroke-opacity="0.33" stroke-miterlimit="10"/>
<path d="M284.75 240.635H276.359V246.77H284.75V240.635Z" stroke="black" stroke-opacity="0.33" stroke-miterlimit="10"/>
</g>
</g>
<path opacity="0.3" d="M268.326 82.6195C268.326 82.6195 267.272 80.9083 265.645 81.0039C264.018 81.0995 263.44 82.1463 262.964 82.9063C262.487 83.6663 262.295 83.1931 261.048 82.8107C259.801 82.4283 259.228 83.0975 258.94 83.7619C258.651 84.4263 258.747 83.9531 257.597 83.7619C256.446 83.5707 256.417 84.2543 255.681 84.6175C255.079 84.9139 254.954 84.9282 254.29 84.7514C253.462 84.5267 253.193 84.7131 253 85.0955H272.422C272.422 85.0955 272.051 83.5755 271.19 83.1931C270.333 82.8107 269.187 83.5707 268.326 82.6195Z" stroke="black" stroke-miterlimit="10"/>
<path opacity="0.3" d="M370.156 30.606C370.156 30.606 369.113 28.909 367.505 29.0038C365.896 29.0986 365.324 30.1367 364.853 30.8904C364.382 31.644 364.192 31.1747 362.959 30.7955C361.726 30.4163 361.159 31.08 360.874 31.7388C360.588 32.3977 360.683 31.9284 359.546 31.7388C358.408 31.5492 358.38 32.227 357.651 32.5873C357.056 32.8812 356.933 32.8954 356.276 32.72C355.457 32.4972 355.19 32.6821 355 33.0613H374.207C374.207 33.0613 373.84 31.5539 372.988 31.1747C372.146 30.7955 371.008 31.5492 370.156 30.606Z" stroke="black" stroke-miterlimit="10"/>
<path opacity="0.3" d="M108.084 4.08347C108.084 4.08347 106.084 0.827086 102.995 1.00721C99.9059 1.18733 98.8159 3.17812 97.9067 4.62856C96.9976 6.07426 96.6358 5.17366 94.2701 4.44844C91.9091 3.72322 90.8143 4.99354 90.2717 6.25912C89.7243 7.5247 89.9099 6.61936 87.7251 6.25912C85.545 5.89888 85.4879 7.19291 84.0884 7.88969C82.9508 8.45849 82.7033 8.48218 81.4466 8.1409C79.8758 7.71904 79.3618 8.0698 79 8.79502H115.871C115.871 8.79502 115.171 5.89888 113.534 5.17366C111.901 4.44844 109.716 5.89415 108.084 4.08347Z" stroke="black" stroke-miterlimit="10"/>
<defs>
<clipPath id="clip0_135_3941">
<rect width="434" height="228" fill="white" transform="translate(0 88)"/>
</clipPath>
</defs>
</svg>
