<svg width="434" height="356" viewBox="0 0 434 356" fill="none" xmlns="http://www.w3.org/2000/svg">
<g clip-path="url(#clip0_165_3404)">
<g opacity="0.3">
<path d="M0 296.085H19.6221V118.965H71.2325V203.269H82.3211V308.008H95.1152V151.664H119.004V88.3095H157.393V204.971H171.892V158.561H204.308V168.781H232.036V306.733H243.125V281.611H273.407V306.306H287.913V181.98H336.962V298.642H351.04V135.996H368.101V106.194H376.628V89.1638H390.278V199.437H412.462V304.603H429.522" stroke="black" stroke-opacity="0.33" stroke-miterlimit="10"/>
<path d="M71.2325 113.431H19.6221V118.965H71.2325V113.431Z" stroke="black" stroke-opacity="0.33" stroke-miterlimit="10"/>
<path d="M119.004 151.664H94.9725V154.469H119.004V151.664Z" stroke="black" stroke-opacity="0.33" stroke-miterlimit="10"/>
<path d="M157.392 88.3095H118.892V91.0334H157.392V88.3095Z" stroke="black" stroke-opacity="0.33" stroke-miterlimit="10"/>
<path d="M180.556 152.778H174.949V158.56H180.556V152.778Z" stroke="black" stroke-opacity="0.33" stroke-miterlimit="10"/>
<path d="M195.13 155.199H192.327V158.554H195.13V155.199Z" stroke="black" stroke-opacity="0.33" stroke-miterlimit="10"/>
<path d="M232.123 168.781H204.308V172.174H232.123V168.781Z" stroke="black" stroke-opacity="0.33" stroke-miterlimit="10"/>
<path d="M336.956 179.448H287.913V181.98H336.956V179.448Z" stroke="black" stroke-opacity="0.33" stroke-miterlimit="10"/>
<path d="M319.951 174.415H300.515V179.454H319.951V174.415Z" stroke="black" stroke-opacity="0.33" stroke-miterlimit="10"/>
<path d="M315.839 174.6V169.939H330.041V179.262" stroke="black" stroke-opacity="0.33" stroke-miterlimit="10"/>
<path d="M222.237 167.388V129.694H267.187V160.925H282.654V107.798H332.28V172.056H347.741" stroke="black" stroke-opacity="0.33" stroke-miterlimit="10"/>
<path d="M189.877 148.724V107.079H159.309" stroke="black" stroke-opacity="0.33" stroke-miterlimit="10"/>
<path d="M93.4965 159.13H83.4312V130.053H73.7194" stroke="black" stroke-opacity="0.33" stroke-miterlimit="10"/>
<path d="M17.9786 151.231H9.71179V264.308" stroke="black" stroke-opacity="0.33" stroke-miterlimit="10"/>
<path d="M362.848 130.412V116.774H367.158" stroke="black" stroke-opacity="0.33" stroke-miterlimit="10"/>
<path d="M391.971 117.133H407.438V174.21H433.69V240.258" stroke="black" stroke-opacity="0.33" stroke-miterlimit="10"/>
<path d="M125.764 96.314H121.906V103.854H125.764V96.314Z" stroke="black" stroke-opacity="0.33" stroke-miterlimit="10"/>
<path d="M132.71 96.314H128.852V103.854H132.71V96.314Z" stroke="black" stroke-opacity="0.33" stroke-miterlimit="10"/>
<path d="M139.656 96.314H135.798V103.854H139.656V96.314Z" stroke="black" stroke-opacity="0.33" stroke-miterlimit="10"/>
<path d="M146.608 96.314H142.75V103.854H146.608V96.314Z" stroke="black" stroke-opacity="0.33" stroke-miterlimit="10"/>
<path d="M153.554 96.314H149.696V103.854H153.554V96.314Z" stroke="black" stroke-opacity="0.33" stroke-miterlimit="10"/>
<path d="M125.764 109.054H121.906V116.594H125.764V109.054Z" stroke="black" stroke-opacity="0.33" stroke-miterlimit="10"/>
<path d="M132.71 109.054H128.852V116.594H132.71V109.054Z" stroke="black" stroke-opacity="0.33" stroke-miterlimit="10"/>
<path d="M139.656 109.054H135.798V116.594H139.656V109.054Z" stroke="black" stroke-opacity="0.33" stroke-miterlimit="10"/>
<path d="M146.608 109.054H142.75V116.594H146.608V109.054Z" stroke="black" stroke-opacity="0.33" stroke-miterlimit="10"/>
<path d="M153.554 109.054H149.696V116.594H153.554V109.054Z" stroke="black" stroke-opacity="0.33" stroke-miterlimit="10"/>
<path d="M125.764 121.801H121.906V129.341H125.764V121.801Z" stroke="black" stroke-opacity="0.33" stroke-miterlimit="10"/>
<path d="M132.71 121.801H128.852V129.341H132.71V121.801Z" stroke="black" stroke-opacity="0.33" stroke-miterlimit="10"/>
<path d="M139.656 121.801H135.798V129.341H139.656V121.801Z" stroke="black" stroke-opacity="0.33" stroke-miterlimit="10"/>
<path d="M146.608 121.801H142.75V129.341H146.608V121.801Z" stroke="black" stroke-opacity="0.33" stroke-miterlimit="10"/>
<path d="M153.554 121.801H149.696V129.341H153.554V121.801Z" stroke="black" stroke-opacity="0.33" stroke-miterlimit="10"/>
<path d="M125.764 134.541H121.906V142.081H125.764V134.541Z" stroke="black" stroke-opacity="0.33" stroke-miterlimit="10"/>
<path d="M132.71 134.541H128.852V142.081H132.71V134.541Z" stroke="black" stroke-opacity="0.33" stroke-miterlimit="10"/>
<path d="M139.656 134.541H135.798V142.081H139.656V134.541Z" stroke="black" stroke-opacity="0.33" stroke-miterlimit="10"/>
<path d="M146.608 134.541H142.75V142.081H146.608V134.541Z" stroke="black" stroke-opacity="0.33" stroke-miterlimit="10"/>
<path d="M153.554 134.541H149.696V142.081H153.554V134.541Z" stroke="black" stroke-opacity="0.33" stroke-miterlimit="10"/>
<path d="M125.764 147.287H121.906V154.828H125.764V147.287Z" stroke="black" stroke-opacity="0.33" stroke-miterlimit="10"/>
<path d="M132.71 147.287H128.852V154.828H132.71V147.287Z" stroke="black" stroke-opacity="0.33" stroke-miterlimit="10"/>
<path d="M139.656 147.287H135.798V154.828H139.656V147.287Z" stroke="black" stroke-opacity="0.33" stroke-miterlimit="10"/>
<path d="M146.608 147.287H142.75V154.828H146.608V147.287Z" stroke="black" stroke-opacity="0.33" stroke-miterlimit="10"/>
<path d="M153.554 147.287H149.696V154.828H153.554V147.287Z" stroke="black" stroke-opacity="0.33" stroke-miterlimit="10"/>
<path d="M125.764 160.028H121.906V167.568H125.764V160.028Z" stroke="black" stroke-opacity="0.33" stroke-miterlimit="10"/>
<path d="M132.71 160.028H128.852V167.568H132.71V160.028Z" stroke="black" stroke-opacity="0.33" stroke-miterlimit="10"/>
<path d="M139.656 160.028H135.798V167.568H139.656V160.028Z" stroke="black" stroke-opacity="0.33" stroke-miterlimit="10"/>
<path d="M146.608 160.028H142.75V167.568H146.608V160.028Z" stroke="black" stroke-opacity="0.33" stroke-miterlimit="10"/>
<path d="M153.554 160.028H149.696V167.568H153.554V160.028Z" stroke="black" stroke-opacity="0.33" stroke-miterlimit="10"/>
<path d="M102.08 160.028H98.2223V167.568H102.08V160.028Z" stroke="black" stroke-opacity="0.33" stroke-miterlimit="10"/>
<path d="M109.032 160.028H105.174V167.568H109.032V160.028Z" stroke="black" stroke-opacity="0.33" stroke-miterlimit="10"/>
<path d="M115.978 160.028H112.12V167.568H115.978V160.028Z" stroke="black" stroke-opacity="0.33" stroke-miterlimit="10"/>
<path d="M102.08 172.415H98.2223V179.955H102.08V172.415Z" stroke="black" stroke-opacity="0.33" stroke-miterlimit="10"/>
<path d="M109.032 172.415H105.174V179.955H109.032V172.415Z" stroke="black" stroke-opacity="0.33" stroke-miterlimit="10"/>
<path d="M115.978 172.415H112.12V179.955H115.978V172.415Z" stroke="black" stroke-opacity="0.33" stroke-miterlimit="10"/>
<path d="M102.08 184.796H98.2223V192.336H102.08V184.796Z" stroke="black" stroke-opacity="0.33" stroke-miterlimit="10"/>
<path d="M109.032 184.796H105.174V192.336H109.032V184.796Z" stroke="black" stroke-opacity="0.33" stroke-miterlimit="10"/>
<path d="M115.978 184.796H112.12V192.336H115.978V184.796Z" stroke="black" stroke-opacity="0.33" stroke-miterlimit="10"/>
<path d="M102.08 197.184H98.2223V204.724H102.08V197.184Z" stroke="black" stroke-opacity="0.33" stroke-miterlimit="10"/>
<path d="M109.032 197.184H105.174V204.724H109.032V197.184Z" stroke="black" stroke-opacity="0.33" stroke-miterlimit="10"/>
<path d="M115.978 197.184H112.12V204.724H115.978V197.184Z" stroke="black" stroke-opacity="0.33" stroke-miterlimit="10"/>
<path d="M102.08 209.565H98.2223V217.105H102.08V209.565Z" stroke="black" stroke-opacity="0.33" stroke-miterlimit="10"/>
<path d="M109.032 209.565H105.174V217.105H109.032V209.565Z" stroke="black" stroke-opacity="0.33" stroke-miterlimit="10"/>
<path d="M115.978 209.565H112.12V217.105H115.978V209.565Z" stroke="black" stroke-opacity="0.33" stroke-miterlimit="10"/>
<path d="M102.08 221.952H98.2223V229.492H102.08V221.952Z" stroke="black" stroke-opacity="0.33" stroke-miterlimit="10"/>
<path d="M109.032 221.952H105.174V229.492H109.032V221.952Z" stroke="black" stroke-opacity="0.33" stroke-miterlimit="10"/>
<path d="M115.978 221.952H112.12V229.492H115.978V221.952Z" stroke="black" stroke-opacity="0.33" stroke-miterlimit="10"/>
<path d="M102.08 234.333H98.2223V241.874H102.08V234.333Z" stroke="black" stroke-opacity="0.33" stroke-miterlimit="10"/>
<path d="M109.032 234.333H105.174V241.874H109.032V234.333Z" stroke="black" stroke-opacity="0.33" stroke-miterlimit="10"/>
<path d="M115.978 234.333H112.12V241.874H115.978V234.333Z" stroke="black" stroke-opacity="0.33" stroke-miterlimit="10"/>
<path d="M102.08 246.721H98.2223V254.261H102.08V246.721Z" stroke="black" stroke-opacity="0.33" stroke-miterlimit="10"/>
<path d="M109.032 246.721H105.174V254.261H109.032V246.721Z" stroke="black" stroke-opacity="0.33" stroke-miterlimit="10"/>
<path d="M115.978 246.721H112.12V254.261H115.978V246.721Z" stroke="black" stroke-opacity="0.33" stroke-miterlimit="10"/>
<path d="M102.08 259.102H98.2223V266.642H102.08V259.102Z" stroke="black" stroke-opacity="0.33" stroke-miterlimit="10"/>
<path d="M109.032 259.102H105.174V266.642H109.032V259.102Z" stroke="black" stroke-opacity="0.33" stroke-miterlimit="10"/>
<path d="M115.978 259.102H112.12V266.642H115.978V259.102Z" stroke="black" stroke-opacity="0.33" stroke-miterlimit="10"/>
<path d="M102.08 271.49H98.2223V279.03H102.08V271.49Z" stroke="black" stroke-opacity="0.33" stroke-miterlimit="10"/>
<path d="M109.032 271.49H105.174V279.03H109.032V271.49Z" stroke="black" stroke-opacity="0.33" stroke-miterlimit="10"/>
<path d="M115.978 271.49H112.12V279.03H115.978V271.49Z" stroke="black" stroke-opacity="0.33" stroke-miterlimit="10"/>
<path d="M102.08 283.871H98.2223V291.411H102.08V283.871Z" stroke="black" stroke-opacity="0.33" stroke-miterlimit="10"/>
<path d="M109.032 283.871H105.174V291.411H109.032V283.871Z" stroke="black" stroke-opacity="0.33" stroke-miterlimit="10"/>
<path d="M115.978 283.871H112.12V291.411H115.978V283.871Z" stroke="black" stroke-opacity="0.33" stroke-miterlimit="10"/>
<path d="M164.022 211.001H160.165V218.541H164.022V211.001Z" stroke="black" stroke-opacity="0.33" stroke-miterlimit="10"/>
<path d="M170.968 211.001H167.111V218.541H170.968V211.001Z" stroke="black" stroke-opacity="0.33" stroke-miterlimit="10"/>
<path d="M164.022 223.388H160.165V230.929H164.022V223.388Z" stroke="black" stroke-opacity="0.33" stroke-miterlimit="10"/>
<path d="M170.968 223.388H167.111V230.929H170.968V223.388Z" stroke="black" stroke-opacity="0.33" stroke-miterlimit="10"/>
<path d="M164.022 235.77H160.165V243.31H164.022V235.77Z" stroke="black" stroke-opacity="0.33" stroke-miterlimit="10"/>
<path d="M170.968 235.77H167.111V243.31H170.968V235.77Z" stroke="black" stroke-opacity="0.33" stroke-miterlimit="10"/>
<path d="M164.022 248.157H160.165V255.697H164.022V248.157Z" stroke="black" stroke-opacity="0.33" stroke-miterlimit="10"/>
<path d="M170.968 248.157H167.111V255.697H170.968V248.157Z" stroke="black" stroke-opacity="0.33" stroke-miterlimit="10"/>
<path d="M164.022 260.538H160.165V268.079H164.022V260.538Z" stroke="black" stroke-opacity="0.33" stroke-miterlimit="10"/>
<path d="M170.968 260.538H167.111V268.079H170.968V260.538Z" stroke="black" stroke-opacity="0.33" stroke-miterlimit="10"/>
<path d="M164.022 272.926H160.165V280.466H164.022V272.926Z" stroke="black" stroke-opacity="0.33" stroke-miterlimit="10"/>
<path d="M170.968 272.926H167.111V280.466H170.968V272.926Z" stroke="black" stroke-opacity="0.33" stroke-miterlimit="10"/>
<path d="M164.022 285.307H160.165V292.847H164.022V285.307Z" stroke="black" stroke-opacity="0.33" stroke-miterlimit="10"/>
<path d="M170.968 285.307H167.111V292.847H170.968V285.307Z" stroke="black" stroke-opacity="0.33" stroke-miterlimit="10"/>
<path d="M125.764 172.774H121.906V180.314H125.764V172.774Z" stroke="black" stroke-opacity="0.33" stroke-miterlimit="10"/>
<path d="M132.71 172.774H128.852V180.314H132.71V172.774Z" stroke="black" stroke-opacity="0.33" stroke-miterlimit="10"/>
<path d="M139.656 172.774H135.798V180.314H139.656V172.774Z" stroke="black" stroke-opacity="0.33" stroke-miterlimit="10"/>
<path d="M146.608 172.774H142.75V180.314H146.608V172.774Z" stroke="black" stroke-opacity="0.33" stroke-miterlimit="10"/>
<path d="M153.554 172.774H149.696V180.314H153.554V172.774Z" stroke="black" stroke-opacity="0.33" stroke-miterlimit="10"/>
<path d="M125.764 185.514H121.906V193.055H125.764V185.514Z" stroke="black" stroke-opacity="0.33" stroke-miterlimit="10"/>
<path d="M132.71 185.514H128.852V193.055H132.71V185.514Z" stroke="black" stroke-opacity="0.33" stroke-miterlimit="10"/>
<path d="M139.656 185.514H135.798V193.055H139.656V185.514Z" stroke="black" stroke-opacity="0.33" stroke-miterlimit="10"/>
<path d="M146.608 185.514H142.75V193.055H146.608V185.514Z" stroke="black" stroke-opacity="0.33" stroke-miterlimit="10"/>
<path d="M153.554 185.514H149.696V193.055H153.554V185.514Z" stroke="black" stroke-opacity="0.33" stroke-miterlimit="10"/>
<path d="M125.764 198.261H121.906V205.801H125.764V198.261Z" stroke="black" stroke-opacity="0.33" stroke-miterlimit="10"/>
<path d="M132.71 198.261H128.852V205.801H132.71V198.261Z" stroke="black" stroke-opacity="0.33" stroke-miterlimit="10"/>
<path d="M139.656 198.261H135.798V205.801H139.656V198.261Z" stroke="black" stroke-opacity="0.33" stroke-miterlimit="10"/>
<path d="M146.608 198.261H142.75V205.801H146.608V198.261Z" stroke="black" stroke-opacity="0.33" stroke-miterlimit="10"/>
<path d="M153.554 198.261H149.696V205.801H153.554V198.261Z" stroke="black" stroke-opacity="0.33" stroke-miterlimit="10"/>
<path d="M125.764 211.001H121.906V218.541H125.764V211.001Z" stroke="black" stroke-opacity="0.33" stroke-miterlimit="10"/>
<path d="M132.71 211.001H128.852V218.541H132.71V211.001Z" stroke="black" stroke-opacity="0.33" stroke-miterlimit="10"/>
<path d="M139.656 211.001H135.798V218.541H139.656V211.001Z" stroke="black" stroke-opacity="0.33" stroke-miterlimit="10"/>
<path d="M146.608 211.001H142.75V218.541H146.608V211.001Z" stroke="black" stroke-opacity="0.33" stroke-miterlimit="10"/>
<path d="M153.554 211.001H149.696V218.541H153.554V211.001Z" stroke="black" stroke-opacity="0.33" stroke-miterlimit="10"/>
<path d="M125.764 223.748H121.906V231.288H125.764V223.748Z" stroke="black" stroke-opacity="0.33" stroke-miterlimit="10"/>
<path d="M132.71 223.748H128.852V231.288H132.71V223.748Z" stroke="black" stroke-opacity="0.33" stroke-miterlimit="10"/>
<path d="M139.656 223.748H135.798V231.288H139.656V223.748Z" stroke="black" stroke-opacity="0.33" stroke-miterlimit="10"/>
<path d="M146.608 223.748H142.75V231.288H146.608V223.748Z" stroke="black" stroke-opacity="0.33" stroke-miterlimit="10"/>
<path d="M153.554 223.748H149.696V231.288H153.554V223.748Z" stroke="black" stroke-opacity="0.33" stroke-miterlimit="10"/>
<path d="M125.764 236.488H121.906V244.028H125.764V236.488Z" stroke="black" stroke-opacity="0.33" stroke-miterlimit="10"/>
<path d="M132.71 236.488H128.852V244.028H132.71V236.488Z" stroke="black" stroke-opacity="0.33" stroke-miterlimit="10"/>
<path d="M139.656 236.488H135.798V244.028H139.656V236.488Z" stroke="black" stroke-opacity="0.33" stroke-miterlimit="10"/>
<path d="M146.608 236.488H142.75V244.028H146.608V236.488Z" stroke="black" stroke-opacity="0.33" stroke-miterlimit="10"/>
<path d="M153.554 236.488H149.696V244.028H153.554V236.488Z" stroke="black" stroke-opacity="0.33" stroke-miterlimit="10"/>
<path d="M125.764 249.234H121.906V256.774H125.764V249.234Z" stroke="black" stroke-opacity="0.33" stroke-miterlimit="10"/>
<path d="M132.71 249.234H128.852V256.774H132.71V249.234Z" stroke="black" stroke-opacity="0.33" stroke-miterlimit="10"/>
<path d="M139.656 249.234H135.798V256.774H139.656V249.234Z" stroke="black" stroke-opacity="0.33" stroke-miterlimit="10"/>
<path d="M146.608 249.234H142.75V256.774H146.608V249.234Z" stroke="black" stroke-opacity="0.33" stroke-miterlimit="10"/>
<path d="M153.554 249.234H149.696V256.774H153.554V249.234Z" stroke="black" stroke-opacity="0.33" stroke-miterlimit="10"/>
<path d="M125.764 261.975H121.906V269.515H125.764V261.975Z" stroke="black" stroke-opacity="0.33" stroke-miterlimit="10"/>
<path d="M132.71 261.975H128.852V269.515H132.71V261.975Z" stroke="black" stroke-opacity="0.33" stroke-miterlimit="10"/>
<path d="M139.656 261.975H135.798V269.515H139.656V261.975Z" stroke="black" stroke-opacity="0.33" stroke-miterlimit="10"/>
<path d="M146.608 261.975H142.75V269.515H146.608V261.975Z" stroke="black" stroke-opacity="0.33" stroke-miterlimit="10"/>
<path d="M153.554 261.975H149.696V269.515H153.554V261.975Z" stroke="black" stroke-opacity="0.33" stroke-miterlimit="10"/>
<path d="M125.764 274.721H121.906V282.261H125.764V274.721Z" stroke="black" stroke-opacity="0.33" stroke-miterlimit="10"/>
<path d="M132.71 274.721H128.852V282.261H132.71V274.721Z" stroke="black" stroke-opacity="0.33" stroke-miterlimit="10"/>
<path d="M139.656 274.721H135.798V282.261H139.656V274.721Z" stroke="black" stroke-opacity="0.33" stroke-miterlimit="10"/>
<path d="M146.608 274.721H142.75V282.261H146.608V274.721Z" stroke="black" stroke-opacity="0.33" stroke-miterlimit="10"/>
<path d="M153.554 274.721H149.696V282.261H153.554V274.721Z" stroke="black" stroke-opacity="0.33" stroke-miterlimit="10"/>
<path d="M125.764 287.82H121.906V295.36H125.764V287.82Z" stroke="black" stroke-opacity="0.33" stroke-miterlimit="10"/>
<path d="M132.71 287.82H128.852V295.36H132.71V287.82Z" stroke="black" stroke-opacity="0.33" stroke-miterlimit="10"/>
<path d="M139.656 287.82H135.798V295.36H139.656V287.82Z" stroke="black" stroke-opacity="0.33" stroke-miterlimit="10"/>
<path d="M146.608 287.82H142.75V295.36H146.608V287.82Z" stroke="black" stroke-opacity="0.33" stroke-miterlimit="10"/>
<path d="M153.554 287.82H149.696V295.36H153.554V287.82Z" stroke="black" stroke-opacity="0.33" stroke-miterlimit="10"/>
<path d="M119.004 154.462V308.101" stroke="black" stroke-opacity="0.33" stroke-miterlimit="10"/>
<path d="M178.007 161.643V305.946" stroke="black" stroke-opacity="0.33" stroke-miterlimit="10"/>
<path d="M185.561 161.643V305.946" stroke="black" stroke-opacity="0.33" stroke-miterlimit="10"/>
<path d="M193.108 161.643V305.946" stroke="black" stroke-opacity="0.33" stroke-miterlimit="10"/>
<path d="M200.662 161.643V305.946" stroke="black" stroke-opacity="0.33" stroke-miterlimit="10"/>
<path d="M208.215 175.999V305.946" stroke="black" stroke-opacity="0.33" stroke-miterlimit="10"/>
<path d="M215.763 175.999V305.946" stroke="black" stroke-opacity="0.33" stroke-miterlimit="10"/>
<path d="M223.316 175.999V305.946" stroke="black" stroke-opacity="0.33" stroke-miterlimit="10"/>
<path d="M21.5757 127.18H68.6837" stroke="black" stroke-opacity="0.33" stroke-miterlimit="10"/>
<path d="M21.5757 136.516H68.6837" stroke="black" stroke-opacity="0.33" stroke-miterlimit="10"/>
<path d="M21.5757 145.851H68.6837" stroke="black" stroke-opacity="0.33" stroke-miterlimit="10"/>
<path d="M21.5757 155.18H68.6837" stroke="black" stroke-opacity="0.33" stroke-miterlimit="10"/>
<path d="M21.5757 164.516H68.6837" stroke="black" stroke-opacity="0.33" stroke-miterlimit="10"/>
<path d="M21.5757 173.851H68.6837" stroke="black" stroke-opacity="0.33" stroke-miterlimit="10"/>
<path d="M21.5757 183.181H68.6837" stroke="black" stroke-opacity="0.33" stroke-miterlimit="10"/>
<path d="M21.5757 192.516H68.6837" stroke="black" stroke-opacity="0.33" stroke-miterlimit="10"/>
<path d="M21.5757 201.845H68.6837" stroke="black" stroke-opacity="0.33" stroke-miterlimit="10"/>
<path d="M21.5757 211.181H68.6837" stroke="black" stroke-opacity="0.33" stroke-miterlimit="10"/>
<path d="M21.5757 220.516H68.6837" stroke="black" stroke-opacity="0.33" stroke-miterlimit="10"/>
<path d="M21.5757 229.845H68.6837" stroke="black" stroke-opacity="0.33" stroke-miterlimit="10"/>
<path d="M21.5757 239.181H68.6837" stroke="black" stroke-opacity="0.33" stroke-miterlimit="10"/>
<path d="M21.5757 248.516H68.6837" stroke="black" stroke-opacity="0.33" stroke-miterlimit="10"/>
<path d="M21.5757 257.845H68.6837" stroke="black" stroke-opacity="0.33" stroke-miterlimit="10"/>
<path d="M21.5757 267.181H68.6837" stroke="black" stroke-opacity="0.33" stroke-miterlimit="10"/>
<path d="M21.5757 276.516H68.6837" stroke="black" stroke-opacity="0.33" stroke-miterlimit="10"/>
<path d="M21.5757 285.846H68.6837" stroke="black" stroke-opacity="0.33" stroke-miterlimit="10"/>
<path d="M21.5757 295.181H68.6837" stroke="black" stroke-opacity="0.33" stroke-miterlimit="10"/>
<path d="M21.5757 304.51H68.6837" stroke="black" stroke-opacity="0.33" stroke-miterlimit="10"/>
<path d="M21.5757 313.846H68.6837" stroke="black" stroke-opacity="0.33" stroke-miterlimit="10"/>
<path d="M27.6906 113.183V316" stroke="black" stroke-opacity="0.33" stroke-miterlimit="10"/>
<path d="M351.338 153.026H361.769V158.053H351.338" stroke="black" stroke-opacity="0.33" stroke-miterlimit="10"/>
<path d="M412.114 209.385H400.244V214.412H412.114" stroke="black" stroke-opacity="0.33" stroke-miterlimit="10"/>
<path d="M412.114 221.234H400.244V226.261H412.114" stroke="black" stroke-opacity="0.33" stroke-miterlimit="10"/>
<path d="M412.114 233.077H400.244V238.104H412.114" stroke="black" stroke-opacity="0.33" stroke-miterlimit="10"/>
<path d="M412.114 244.926H400.244V249.952H412.114" stroke="black" stroke-opacity="0.33" stroke-miterlimit="10"/>
<path d="M412.114 256.768H400.244V261.795H412.114" stroke="black" stroke-opacity="0.33" stroke-miterlimit="10"/>
<path d="M412.114 268.617H400.244V273.644H412.114" stroke="black" stroke-opacity="0.33" stroke-miterlimit="10"/>
<path d="M412.114 280.46H400.244V285.486H412.114" stroke="black" stroke-opacity="0.33" stroke-miterlimit="10"/>
<path d="M412.114 292.309H400.244V297.335H412.114" stroke="black" stroke-opacity="0.33" stroke-miterlimit="10"/>
<path d="M351.338 166.67H361.769V171.697H351.338" stroke="black" stroke-opacity="0.33" stroke-miterlimit="10"/>
<path d="M351.338 180.308H361.769V185.335H351.338" stroke="black" stroke-opacity="0.33" stroke-miterlimit="10"/>
<path d="M351.338 193.952H361.769V198.979H351.338" stroke="black" stroke-opacity="0.33" stroke-miterlimit="10"/>
<path d="M351.338 207.59H361.769V212.617H351.338" stroke="black" stroke-opacity="0.33" stroke-miterlimit="10"/>
<path d="M351.338 221.234H361.769V226.261H351.338" stroke="black" stroke-opacity="0.33" stroke-miterlimit="10"/>
<path d="M351.338 234.872H361.769V239.899H351.338" stroke="black" stroke-opacity="0.33" stroke-miterlimit="10"/>
<path d="M351.338 248.516H361.769V253.537H351.338" stroke="black" stroke-opacity="0.33" stroke-miterlimit="10"/>
<path d="M351.338 262.154H361.769V267.181H351.338" stroke="black" stroke-opacity="0.33" stroke-miterlimit="10"/>
<path d="M351.338 275.798H361.769V280.819H351.338" stroke="black" stroke-opacity="0.33" stroke-miterlimit="10"/>
<path d="M334.798 185.694H289.488V190.003H334.798V185.694Z" stroke="black" stroke-opacity="0.33" stroke-miterlimit="10"/>
<path d="M334.798 193.234H289.488V197.543H334.798V193.234Z" stroke="black" stroke-opacity="0.33" stroke-miterlimit="10"/>
<path d="M334.798 200.774H289.488V205.083H334.798V200.774Z" stroke="black" stroke-opacity="0.33" stroke-miterlimit="10"/>
<path d="M334.798 208.308H289.488V212.617H334.798V208.308Z" stroke="black" stroke-opacity="0.33" stroke-miterlimit="10"/>
<path d="M334.798 215.848H289.488V220.157H334.798V215.848Z" stroke="black" stroke-opacity="0.33" stroke-miterlimit="10"/>
<path d="M334.798 223.389H289.488V227.697H334.798V223.389Z" stroke="black" stroke-opacity="0.33" stroke-miterlimit="10"/>
<path d="M334.798 230.922H289.488V235.231H334.798V230.922Z" stroke="black" stroke-opacity="0.33" stroke-miterlimit="10"/>
<path d="M334.798 238.463H289.488V242.771H334.798V238.463Z" stroke="black" stroke-opacity="0.33" stroke-miterlimit="10"/>
<path d="M334.798 246.003H289.488V250.311H334.798V246.003Z" stroke="black" stroke-opacity="0.33" stroke-miterlimit="10"/>
<path d="M334.798 253.537H289.488V257.845H334.798V253.537Z" stroke="black" stroke-opacity="0.33" stroke-miterlimit="10"/>
<path d="M334.798 261.077H289.488V265.386H334.798V261.077Z" stroke="black" stroke-opacity="0.33" stroke-miterlimit="10"/>
<path d="M334.798 268.617H289.488V272.926H334.798V268.617Z" stroke="black" stroke-opacity="0.33" stroke-miterlimit="10"/>
<path d="M334.798 276.157H289.488V280.466H334.798V276.157Z" stroke="black" stroke-opacity="0.33" stroke-miterlimit="10"/>
<path d="M334.798 283.691H289.488V288H334.798V283.691Z" stroke="black" stroke-opacity="0.33" stroke-miterlimit="10"/>
<path d="M334.798 291.231H289.488V295.54H334.798V291.231Z" stroke="black" stroke-opacity="0.33" stroke-miterlimit="10"/>
<path d="M334.798 298.772H289.488V303.08H334.798V298.772Z" stroke="black" stroke-opacity="0.33" stroke-miterlimit="10"/>
<path d="M334.798 306.306H289.488V310.614H334.798V306.306Z" stroke="black" stroke-opacity="0.33" stroke-miterlimit="10"/>
<path d="M368.237 141.183V307.742" stroke="black" stroke-opacity="0.33" stroke-miterlimit="10"/>
<path d="M377.589 109.593V307.742" stroke="black" stroke-opacity="0.33" stroke-miterlimit="10"/>
<path d="M270.065 269.694H247.41V281.543H270.065V269.694Z" stroke="black" stroke-opacity="0.33" stroke-miterlimit="10"/>
<path d="M264.675 248.875H252.805V269.694H264.675V248.875Z" stroke="black" stroke-opacity="0.33" stroke-miterlimit="10"/>
<path d="M157.393 204.971V307.816" stroke="black" stroke-opacity="0.33" stroke-miterlimit="10"/>
<path d="M287.516 193.698H232.507" stroke="black" stroke-opacity="0.33" stroke-miterlimit="10"/>
<path d="M287.516 199.833H232.507" stroke="black" stroke-opacity="0.33" stroke-miterlimit="10"/>
<path d="M243.354 204.439H234.963V210.574H243.354V204.439Z" stroke="black" stroke-opacity="0.33" stroke-miterlimit="10"/>
<path d="M253.705 204.439H245.314V210.574H253.705V204.439Z" stroke="black" stroke-opacity="0.33" stroke-miterlimit="10"/>
<path d="M264.055 204.439H255.664V210.574H264.055V204.439Z" stroke="black" stroke-opacity="0.33" stroke-miterlimit="10"/>
<path d="M274.4 204.439H266.009V210.574H274.4V204.439Z" stroke="black" stroke-opacity="0.33" stroke-miterlimit="10"/>
<path d="M284.75 204.439H276.359V210.574H284.75V204.439Z" stroke="black" stroke-opacity="0.33" stroke-miterlimit="10"/>
<path d="M243.354 213.948H234.963V220.083H243.354V213.948Z" stroke="black" stroke-opacity="0.33" stroke-miterlimit="10"/>
<path d="M253.705 213.948H245.314V220.083H253.705V213.948Z" stroke="black" stroke-opacity="0.33" stroke-miterlimit="10"/>
<path d="M264.055 213.948H255.664V220.083H264.055V213.948Z" stroke="black" stroke-opacity="0.33" stroke-miterlimit="10"/>
<path d="M274.4 213.948H266.009V220.083H274.4V213.948Z" stroke="black" stroke-opacity="0.33" stroke-miterlimit="10"/>
<path d="M284.75 213.948H276.359V220.083H284.75V213.948Z" stroke="black" stroke-opacity="0.33" stroke-miterlimit="10"/>
<path d="M243.354 223.457H234.963V229.591H243.354V223.457Z" stroke="black" stroke-opacity="0.33" stroke-miterlimit="10"/>
<path d="M253.705 223.457H245.314V229.591H253.705V223.457Z" stroke="black" stroke-opacity="0.33" stroke-miterlimit="10"/>
<path d="M264.055 223.457H255.664V229.591H264.055V223.457Z" stroke="black" stroke-opacity="0.33" stroke-miterlimit="10"/>
<path d="M274.4 223.457H266.009V229.591H274.4V223.457Z" stroke="black" stroke-opacity="0.33" stroke-miterlimit="10"/>
<path d="M284.75 223.457H276.359V229.591H284.75V223.457Z" stroke="black" stroke-opacity="0.33" stroke-miterlimit="10"/>
<path d="M243.354 240.636H234.963V246.77H243.354V240.636Z" stroke="black" stroke-opacity="0.33" stroke-miterlimit="10"/>
<path d="M253.705 240.636H245.314V246.77H253.705V240.636Z" stroke="black" stroke-opacity="0.33" stroke-miterlimit="10"/>
<path d="M264.055 240.636H255.664V246.77H264.055V240.636Z" stroke="black" stroke-opacity="0.33" stroke-miterlimit="10"/>
<path d="M274.4 240.636H266.009V246.77H274.4V240.636Z" stroke="black" stroke-opacity="0.33" stroke-miterlimit="10"/>
<path d="M284.75 240.636H276.359V246.77H284.75V240.636Z" stroke="black" stroke-opacity="0.33" stroke-miterlimit="10"/>
</g>
</g>
<path opacity="0.3" d="M268.326 82.6195C268.326 82.6195 267.272 80.9083 265.645 81.0039C264.018 81.0995 263.44 82.1463 262.964 82.9063C262.487 83.6663 262.295 83.1931 261.048 82.8107C259.801 82.4283 259.228 83.0975 258.94 83.7619C258.651 84.4263 258.747 83.9531 257.597 83.7619C256.446 83.5707 256.417 84.2543 255.681 84.6175C255.079 84.9139 254.954 84.9282 254.29 84.7514C253.462 84.5267 253.193 84.7131 253 85.0955H272.422C272.422 85.0955 272.051 83.5755 271.19 83.1931C270.333 82.8107 269.187 83.5707 268.326 82.6195Z" stroke="black" stroke-miterlimit="10"/>
<path opacity="0.3" d="M370.156 30.606C370.156 30.606 369.113 28.909 367.505 29.0038C365.896 29.0986 365.324 30.1367 364.853 30.8904C364.382 31.644 364.192 31.1747 362.959 30.7955C361.726 30.4163 361.159 31.08 360.874 31.7388C360.588 32.3977 360.683 31.9284 359.546 31.7388C358.408 31.5492 358.38 32.227 357.651 32.5873C357.056 32.8812 356.933 32.8954 356.276 32.72C355.457 32.4972 355.19 32.6821 355 33.0613H374.207C374.207 33.0613 373.84 31.5539 372.988 31.1747C372.146 30.7955 371.008 31.5492 370.156 30.606Z" stroke="black" stroke-miterlimit="10"/>
<path opacity="0.3" d="M108.084 4.08347C108.084 4.08347 106.084 0.827086 102.995 1.00721C99.9059 1.18733 98.8159 3.17812 97.9067 4.62856C96.9976 6.07426 96.6358 5.17366 94.2701 4.44844C91.9091 3.72322 90.8143 4.99354 90.2717 6.25912C89.7243 7.5247 89.9099 6.61936 87.7251 6.25912C85.545 5.89888 85.4879 7.19291 84.0884 7.88969C82.9508 8.45849 82.7033 8.48218 81.4466 8.1409C79.8758 7.71904 79.3618 8.0698 79 8.79502H115.871C115.871 8.79502 115.171 5.89888 113.534 5.17366C111.901 4.44844 109.716 5.89415 108.084 4.08347Z" stroke="black" stroke-miterlimit="10"/>
<g clip-path="url(#clip1_165_3404)">
<g clip-path="url(#clip2_165_3404)">
<path d="M286.644 309.362C286.644 315 283.438 315.994 279.477 315.994H277.509C273.548 315.994 270.342 314.994 270.342 309.362V287.021C270.342 281.384 273.548 276.818 277.509 276.818H279.477C283.438 276.818 286.644 281.384 286.644 287.021V309.362Z" fill="#2F2F2F"/>
<path d="M365.196 309.362C365.196 315 361.989 315.994 358.029 315.994H356.06C352.1 315.994 348.893 314.994 348.893 309.362V287.021C348.893 281.384 352.1 276.818 356.06 276.818H358.029C361.989 276.818 365.196 281.384 365.196 287.021V309.362Z" fill="#2F2F2F"/>
<path d="M362.001 279.366H274.224V308.196H362.001V279.366Z" fill="#2F2F2F"/>
<path d="M283.198 301.07C283.198 302.975 281.649 304.517 279.734 304.517C277.82 304.517 276.27 302.975 276.27 301.07C276.27 299.165 277.82 297.623 279.734 297.623C281.649 297.623 283.198 299.165 283.198 301.07Z" fill="white" stroke="#1A2E35" stroke-linecap="round" stroke-linejoin="round"/>
<path d="M283.456 285.682C283.456 287.021 282.367 288.104 281.021 288.104C279.675 288.104 278.586 287.021 278.586 285.682C278.586 284.342 279.675 283.259 281.021 283.259C282.367 283.259 283.456 284.342 283.456 285.682Z" fill="white"/>
<path d="M357.048 285.682C357.048 287.021 355.959 288.104 354.613 288.104C353.267 288.104 352.178 287.021 352.178 285.682C352.178 284.342 353.267 283.259 354.613 283.259C355.959 283.259 357.048 284.342 357.048 285.682Z" fill="white"/>
<path d="M359.1 300.903C359.1 302.808 357.55 304.35 355.636 304.35C353.721 304.35 352.172 302.808 352.172 300.903C352.172 298.998 353.721 297.457 355.636 297.457C357.55 297.457 359.1 298.998 359.1 300.903Z" fill="white" stroke="#1A2E35" stroke-linecap="round" stroke-linejoin="round"/>
<path d="M369.677 267.906C369.677 263.84 365.405 264.4 365.405 264.4H362.671C358.585 264.4 357.891 267.876 357.885 267.906C356.778 264.721 352.244 252.292 348.229 249.774C343.617 246.88 317.802 246.714 317.802 246.714C317.802 246.714 291.987 246.886 287.374 249.774C283.354 252.292 278.825 264.727 277.718 267.906H275.409C275.409 267.906 274.727 264.4 270.623 264.4H267.889C267.889 264.4 263.617 263.84 263.617 267.906C263.617 267.906 262.678 271.716 265.926 271.716H273.782C271.664 273.859 269.773 276.83 269.773 281.58V300.629C269.773 300.629 267.979 312.023 284.987 312.023H350.628C367.637 312.023 365.842 300.629 365.842 300.629V281.58C365.842 276.824 363.952 273.859 361.834 271.716H367.38C370.096 271.716 369.689 267.906 369.689 267.906H369.677ZM359.064 282.175C359.064 282.175 359.836 288.807 353.937 289.64C348.038 290.468 342.271 290.855 342.271 290.855C342.271 290.855 342.785 285.241 346.823 283.836C350.862 282.431 359.07 282.175 359.07 282.175H359.064ZM284.634 264.019L286.794 258.28C288.954 252.542 291.873 252.155 297.078 251.518C302.283 250.881 317.939 250.625 317.939 250.625C317.939 250.625 333.59 250.881 338.801 251.518C344.006 252.155 346.931 252.536 349.085 258.28L351.244 264.019C351.244 264.019 353.147 269.252 346.925 269.252H288.954C282.732 269.252 284.634 264.019 284.634 264.019ZM276.534 282.175C276.534 282.175 284.736 282.431 288.78 283.836C292.818 285.241 293.333 290.855 293.333 290.855C293.333 290.855 287.566 290.474 281.667 289.64C275.768 288.807 276.54 282.175 276.54 282.175H276.534ZM292.627 306.713H281.451C281.451 306.713 274.847 307.499 274.847 299.993H296.641C296.641 299.993 295.959 306.713 292.627 306.713ZM333.099 301.826C333.099 301.826 332.501 304.975 327.715 304.975H307.883C303.096 304.975 302.498 301.826 302.498 301.826C302.498 301.826 302.289 301.272 301.972 300.379H333.62C333.303 301.272 333.093 301.826 333.093 301.826H333.099ZM335.702 293.575H299.896C298.986 289.92 298.49 286.241 299.848 285.324C302.755 283.366 317.796 283.539 317.796 283.539C317.796 283.539 332.836 283.366 335.744 285.324C337.108 286.241 336.611 289.92 335.696 293.575H335.702ZM356.731 306.713H345.555C345.555 306.713 338.95 307.499 338.95 299.993H360.745C360.745 299.993 360.063 306.713 356.731 306.713Z" fill="#F66F6F" stroke="#1A2E35" stroke-miterlimit="10"/>
<path d="M365.83 300.63C365.83 300.63 362.282 309.362 348.953 309.362H286.644C273.315 309.362 269.767 300.63 269.767 300.63C269.767 300.63 267.972 312.023 284.981 312.023H350.616C367.625 312.023 365.83 300.63 365.83 300.63Z" fill="#BDBDBD" stroke="#1A2E35" stroke-linecap="round" stroke-linejoin="round"/>
<path d="M355.384 270.21C354.834 268.406 354.314 266.561 354.236 265.817C354.2 267.228 353.32 269.013 349.097 269.013H286.967C282.744 269.013 281.864 267.228 281.828 265.817C281.744 266.561 281.224 268.412 280.68 270.21C280.129 272.026 280.889 273.966 282.558 274.978C287.942 278.246 298.274 284.473 299.184 283.967C301.9 282.449 314.08 282.306 318.041 282.3C321.995 282.3 334.176 282.443 336.898 283.967C337.802 284.473 348.133 278.246 353.524 274.978C355.193 273.966 355.953 272.026 355.402 270.21H355.384Z" fill="#F66F6F" stroke="#1A2E35" stroke-miterlimit="10"/>
<path d="M317.939 269.204H349.18C355.887 269.204 353.835 263.566 353.835 263.566L351.508 257.381C349.18 251.196 346.034 250.78 340.422 250.095C334.81 249.41 317.945 249.131 317.945 249.131C317.945 249.131 301.074 249.404 295.469 250.095C289.857 250.78 286.71 251.196 284.383 257.381L282.056 263.566C282.056 263.566 280.003 269.204 286.71 269.204H317.951H317.939Z" fill="#2F2F2F"/>
<path d="M313.171 250.416C308.858 250.512 299.417 250.756 295.672 251.214C290.754 251.815 287.99 252.178 285.95 257.602L283.91 263.025C283.91 263.025 282.109 267.966 287.99 267.966H322.666L313.165 250.41L313.171 250.416Z" fill="white"/>
<path d="M320.356 250.393C319.297 250.416 317.921 250.446 316.402 250.488L325.848 267.942H329.857L320.356 250.387V250.393Z" fill="white"/>
<path d="M185.867 312.458C185.867 314.369 184.072 315.917 181.853 315.917H176.235C174.021 315.917 172.221 314.369 172.221 312.458V290.599C172.221 288.688 174.015 287.14 176.235 287.14H181.853C184.066 287.14 185.867 288.688 185.867 290.599V312.458Z" fill="#2F2F2F"/>
<path d="M252.765 312.458C252.765 314.369 250.97 315.917 248.756 315.917H243.139C240.919 315.917 239.124 314.369 239.124 312.458V290.599C239.124 288.688 240.919 287.14 243.139 287.14H248.756C250.97 287.14 252.765 288.688 252.765 290.599V312.458Z" fill="#2F2F2F"/>
<path d="M255.929 190H168.464V292.569H255.929V190Z" fill="#2F2F2F"/>
<path d="M254.5 300.88H170.922V305.815H254.5V300.88Z" fill="#2F2F2F"/>
<path d="M253.136 256.596C253.136 263.531 248.212 269.15 242.134 269.15H181.619C175.541 269.15 170.617 263.531 170.617 256.596V204.192C170.617 197.257 175.541 191.637 181.619 191.637H242.134C248.212 191.637 253.136 197.257 253.136 204.192V256.596Z" fill="#F66F6F" stroke="#1A2E35" stroke-miterlimit="10"/>
<path d="M182.858 192.185L185.885 199.852H235.666L240.895 191.917" stroke="#003242" stroke-miterlimit="10"/>
<path d="M252.089 262.078C252.089 267.942 245.442 271.978 239.896 271.978H184.659C179.113 271.978 172.999 266.71 172.999 260.846L174.524 214.746C174.524 208.883 179.113 206.394 184.659 206.394L232.202 206.508C236.564 206.609 249.935 204.99 249.935 217.014L252.083 262.078H252.089Z" fill="#2F2F2F"/>
<path d="M257.252 279.3H166.507V283.253H257.252V279.3Z" fill="#2F2F2F"/>
<path d="M257.156 280.866C257.395 279.878 257.533 278.854 257.533 277.788V269.162C257.533 262.358 252.358 256.84 245.974 256.84H177.773C171.389 256.84 166.214 262.358 166.214 269.162V277.788C166.214 278.854 166.352 279.884 166.591 280.866H257.15H257.156Z" fill="#F66F6F" stroke="#1A2E35" stroke-miterlimit="10"/>
<path d="M176.379 239.177H163.791V241.642H176.379V239.177Z" fill="#2F2F2F"/>
<path d="M167.088 220.777C166.615 220.598 166.107 220.491 165.568 220.491C163.217 220.491 161.308 222.39 161.308 224.729V239.255C161.308 241.594 163.217 243.493 165.568 243.493C166.107 243.493 166.615 243.392 167.088 243.207V220.777Z" fill="#2F2F2F"/>
<path d="M178.239 237.332H174.105V243.285H178.239V237.332Z" fill="#2F2F2F"/>
<path d="M261.015 239.796H248.427V242.261H261.015V239.796Z" fill="#2F2F2F"/>
<path d="M257.712 220.777C258.185 220.598 258.694 220.491 259.232 220.491C261.583 220.491 263.492 222.39 263.492 224.729V239.255C263.492 241.594 261.583 243.493 259.232 243.493C258.694 243.493 258.185 243.392 257.712 243.207V220.777Z" fill="#2F2F2F"/>
<path d="M250.904 237.332H247.392V243.285H250.904V237.332Z" fill="#2F2F2F"/>
<path d="M166.244 269.162C166.244 269.162 175.015 269.162 177.904 269.162C180.794 269.162 182.14 269.418 183.061 268.442C183.767 267.698 183.157 265.835 182.648 265.156C180.842 262.733 172.538 258.274 172.538 258.274C172.538 258.274 170.887 258.483 169.026 260.947C167.171 263.412 166.346 265.257 166.136 266.287C165.927 267.317 166.238 269.162 166.238 269.162H166.244Z" fill="#2F2F2F"/>
<path d="M165.933 267.412C165.933 267.412 173.657 267.418 176.085 267.418C178.514 267.418 179.651 267.614 180.429 266.87C181.021 266.299 180.507 264.876 180.082 264.358C178.562 262.501 170.958 258.995 170.958 258.995C170.958 258.995 170.151 259.227 168.619 261.138C166.142 264.227 165.933 267.412 165.933 267.412Z" fill="white" stroke="#1A2E35" stroke-linecap="round" stroke-linejoin="round"/>
<path d="M169.235 262.549C168.517 263.049 168.398 265.34 169.134 266.132C169.546 266.579 172.131 266.71 172.795 266.287C173.561 265.799 173.627 263.138 172.998 262.59C172.998 262.59 169.977 262.031 169.235 262.549Z" fill="white" stroke="#1A2E35" stroke-linecap="round" stroke-linejoin="round"/>
<path d="M174.452 263.328C173.914 263.709 173.824 265.43 174.374 266.025C174.685 266.358 176.63 266.46 177.132 266.138C177.707 265.769 177.761 263.769 177.288 263.358C177.288 263.358 175.015 262.935 174.452 263.328Z" fill="white" stroke="#1A2E35" stroke-linecap="round" stroke-linejoin="round"/>
<path d="M257.509 269.162C257.509 269.162 248.738 269.162 245.849 269.162C242.959 269.162 241.613 269.418 240.692 268.442C239.986 267.698 240.596 265.835 241.105 265.156C242.911 262.733 251.215 258.274 251.215 258.274C251.215 258.274 252.866 258.483 254.721 260.947C256.576 263.412 257.401 265.257 257.611 266.287C257.82 267.317 257.509 269.162 257.509 269.162Z" fill="#2F2F2F"/>
<path d="M257.82 267.412C257.82 267.412 250.096 267.418 247.667 267.418C245.239 267.418 244.102 267.614 243.324 266.87C242.726 266.299 243.246 264.876 243.671 264.358C245.197 262.501 252.801 258.995 252.801 258.995C252.801 258.995 253.608 259.227 255.14 261.138C257.611 264.227 257.82 267.412 257.82 267.412Z" fill="white" stroke="#1A2E35" stroke-linecap="round" stroke-linejoin="round"/>
<path d="M254.518 262.549C255.235 263.049 255.355 265.34 254.619 266.132C254.206 266.579 251.622 266.71 250.958 266.287C250.192 265.799 250.126 263.138 250.749 262.59C250.749 262.59 253.77 262.031 254.518 262.549Z" fill="white" stroke="#1A2E35" stroke-linecap="round" stroke-linejoin="round"/>
<path d="M249.301 263.328C249.839 263.709 249.929 265.43 249.379 266.025C249.067 266.358 247.123 266.46 246.627 266.138C246.052 265.769 245.998 263.769 246.471 263.358C246.471 263.358 248.744 262.935 249.307 263.328H249.301Z" fill="white" stroke="#1A2E35" stroke-linecap="round" stroke-linejoin="round"/>
<path d="M248.194 242.404L246.776 216.544C246.776 211.943 243.97 209.919 238.771 209.919H186.944C181.739 209.919 178.562 211.127 178.562 215.723L177.527 249.613C177.45 251.381 177.45 252.81 177.569 253.708C177.826 256.393 179.777 258.328 181.972 260.06C185.945 263.203 194.524 269.097 194.524 269.097L234.41 268.549C234.41 268.549 248.206 255.375 248.206 253.006V252.637C248.385 251.137 248.373 247.011 248.206 242.404H248.194Z" fill="#F66F6F" stroke="#1A2E35" stroke-miterlimit="10"/>
<path d="M183.731 214.246L179.825 238.511H244.736L241.99 213.949L183.731 214.246Z" fill="#2F2F2F"/>
<path d="M189.834 253.22L177.647 240.981L174.53 257.149C174.53 257.149 183.522 261.245 185.765 263.864C188.009 266.477 192.897 274.502 192.897 274.502C192.897 274.502 189.433 262.554 189.433 260.126C189.433 257.697 189.84 253.22 189.84 253.22H189.834Z" fill="#F66F6F" stroke="#1A2E35" stroke-miterlimit="10"/>
<path d="M232.872 254.81L248.116 240.975L251.233 257.143C251.233 257.143 242.241 261.239 239.998 263.858C237.754 266.472 232.866 274.496 232.866 274.496C232.866 274.496 236.33 262.549 236.33 260.12C236.33 257.691 232.866 254.804 232.866 254.804L232.872 254.81Z" fill="#F66F6F" stroke="#1A2E35" stroke-miterlimit="10"/>
<path d="M180.734 241.642L188.577 249.839L234.595 250.422L243.886 242.231" fill="#F66F6F"/>
<path d="M180.734 241.642L188.577 249.839L234.595 250.422L243.886 242.231" stroke="#1A2E35" stroke-miterlimit="10"/>
<path d="M167.303 273.163L183.396 272.96" stroke="#003242" stroke-miterlimit="10"/>
<path d="M240.357 273.163L256.45 272.96" stroke="#003242" stroke-miterlimit="10"/>
<path d="M166.471 282.914V295.796C166.471 299.623 169.953 302.731 174.249 302.731H249.504C253.8 302.731 257.281 299.623 257.281 295.796V282.914H166.471Z" fill="#BDBDBD" stroke="#1A2E35" stroke-linecap="round" stroke-linejoin="round"/>
<path d="M171.395 285.848C171.395 285.848 172.957 291.522 174.65 292.051C176.343 292.581 191.999 292.772 191.999 292.772L189.499 285.997L171.395 285.848Z" fill="#2F2F2F"/>
<path d="M252.358 285.848C252.358 285.848 250.796 291.522 249.103 292.051C247.404 292.581 231.754 292.772 231.754 292.772L234.248 285.997L252.352 285.848H252.358Z" fill="#2F2F2F"/>
<path d="M176.594 298.475C176.594 300.118 175.242 301.451 173.579 301.451C171.916 301.451 170.564 300.118 170.564 298.475C170.564 296.832 171.916 295.498 173.579 295.498C175.242 295.498 176.594 296.832 176.594 298.475Z" fill="#2F3C4F"/>
<path d="M175.864 298.475C175.864 299.725 174.841 300.731 173.573 300.731C172.305 300.731 171.281 299.719 171.281 298.475C171.281 297.23 172.305 296.218 173.573 296.218C174.841 296.218 175.864 297.23 175.864 298.475Z" fill="#F6F6F6"/>
<path d="M253.195 298.064C253.195 299.707 251.843 301.04 250.174 301.04C248.505 301.04 247.159 299.707 247.159 298.064C247.159 296.421 248.511 295.087 250.174 295.087C251.837 295.087 253.195 296.421 253.195 298.064Z" fill="#2F3C4F"/>
<path d="M252.465 298.064C252.465 299.314 251.442 300.32 250.174 300.32C248.906 300.32 247.883 299.308 247.883 298.064C247.883 296.82 248.906 295.808 250.174 295.808C251.442 295.808 252.465 296.82 252.465 298.064Z" fill="#F6F6F6"/>
<path d="M223.504 293.391H200.243V303.04H223.504V293.391Z" fill="#2F2F2F"/>
<path d="M222.547 295.2H201.207V302.838H222.547V295.2Z" fill="white"/>
<path d="M195.894 288.253H229.157C234.027 279.753 238.305 266.216 238.155 263.549C237.952 260.019 234.685 252.065 234.685 252.065L188.374 252.018C188.374 252.018 185.059 257.816 185.682 264.65C186.106 269.335 191.407 281.116 195.894 288.259V288.253Z" fill="#2F2F2F"/>
<path d="M198.359 284.527H226.489C230.611 277.556 234.225 266.454 234.099 264.263C233.925 261.37 231.275 254.988 231.275 254.988L191.993 254.804C191.993 254.804 189.193 259.56 189.714 265.162C190.073 269.007 194.56 278.669 198.353 284.527H198.359Z" fill="white"/>
<path d="M231.891 259.364C231.891 259.763 231.568 260.09 231.167 260.09H192.574C192.173 260.09 191.85 259.769 191.85 259.364C191.85 258.965 192.173 258.637 192.574 258.637H231.167C231.568 258.637 231.891 258.959 231.891 259.364Z" fill="#2F2F2F"/>
<path d="M231.891 264.442C231.891 264.84 231.568 265.168 231.167 265.168H192.574C192.173 265.168 191.85 264.84 191.85 264.442C191.85 264.043 192.173 263.715 192.574 263.715H231.167C231.568 263.715 231.891 264.043 231.891 264.442Z" fill="#2F2F2F"/>
<path d="M230.719 269.513C230.719 269.912 230.414 270.24 230.043 270.24H193.71C193.333 270.24 193.034 269.912 193.034 269.513C193.034 269.115 193.339 268.787 193.71 268.787H230.043C230.42 268.787 230.719 269.115 230.719 269.513Z" fill="#2F2F2F"/>
<path d="M228.798 274.585C228.798 274.984 228.529 275.312 228.188 275.312H195.565C195.23 275.312 194.955 274.984 194.955 274.585C194.955 274.187 195.23 273.859 195.565 273.859H228.188C228.529 273.859 228.798 274.187 228.798 274.585Z" fill="#2F2F2F"/>
<path d="M226.525 279.663C226.525 280.062 226.286 280.39 225.999 280.39H197.755C197.461 280.39 197.228 280.062 197.228 279.663C197.228 279.264 197.467 278.937 197.755 278.937H225.999C226.292 278.937 226.525 279.264 226.525 279.663Z" fill="#2F2F2F"/>
<path d="M189.953 253.762H233.285" stroke="#1A2E35" stroke-linecap="round" stroke-linejoin="round"/>
<path d="M183.731 214.246L179.825 238.511H198.437L193.651 214.199" fill="white"/>
<path d="M196.265 214.199L201.248 238.511H206.633L201.847 214.383L196.265 214.199Z" fill="white"/>
<path d="M191.275 214.598L197.725 220.64H227.297L234.189 214.383L191.275 214.598Z" fill="#F66F6F" stroke="#494949" stroke-miterlimit="10"/>
<path d="M228.08 217.389C228.08 218.253 227.38 218.949 226.513 218.949H198.951C198.084 218.949 197.384 218.253 197.384 217.389C197.384 216.526 198.084 215.83 198.951 215.83H226.513C227.38 215.83 228.08 216.526 228.08 217.389Z" fill="white"/>
<path d="M216.522 215.806C216.522 217.729 214.955 219.294 213.016 219.294C211.078 219.294 209.516 217.735 209.516 215.806C209.516 213.877 211.084 212.318 213.016 212.318C214.949 212.318 216.522 213.877 216.522 215.806Z" fill="white"/>
<path d="M215.296 215.806C215.296 217.056 214.279 218.068 213.022 218.068C211.766 218.068 210.749 217.056 210.749 215.806C210.749 214.556 211.766 213.544 213.022 213.544C214.279 213.544 215.296 214.556 215.296 215.806Z" fill="#F6F6F6"/>
<path d="M215.87 215.806C215.87 217.372 214.596 218.64 213.022 218.64C211.449 218.64 210.174 217.372 210.174 215.806C210.174 214.24 211.449 212.972 213.022 212.972C214.596 212.972 215.87 214.24 215.87 215.806Z" stroke="#323232" stroke-miterlimit="10"/>
<path d="M208.547 215.806C208.547 217.729 206.98 219.294 205.041 219.294C203.103 219.294 201.536 217.735 201.536 215.806C201.536 213.877 203.103 212.318 205.041 212.318C206.98 212.318 208.547 213.877 208.547 215.806Z" fill="white"/>
<path d="M207.321 215.806C207.321 217.056 206.304 218.068 205.047 218.068C203.791 218.068 202.774 217.056 202.774 215.806C202.774 214.556 203.791 213.544 205.047 213.544C206.304 213.544 207.321 214.556 207.321 215.806Z" fill="#A5AFD3"/>
<path d="M207.889 215.806C207.889 217.372 206.615 218.64 205.041 218.64C203.468 218.64 202.194 217.372 202.194 215.806C202.194 214.24 203.468 212.972 205.041 212.972C206.615 212.972 207.889 214.24 207.889 215.806Z" fill="#F6F6F6" stroke="#323232" stroke-miterlimit="10"/>
<path d="M224.503 215.806C224.503 217.729 222.935 219.294 220.997 219.294C219.059 219.294 217.491 217.735 217.491 215.806C217.491 213.877 219.059 212.318 220.997 212.318C222.935 212.318 224.503 213.877 224.503 215.806Z" fill="white"/>
<path d="M223.27 215.806C223.27 217.056 222.253 218.068 220.997 218.068C219.741 218.068 218.724 217.056 218.724 215.806C218.724 214.556 219.741 213.544 220.997 213.544C222.253 213.544 223.27 214.556 223.27 215.806Z" fill="#A5AFD3"/>
<path d="M223.845 215.806C223.845 217.372 222.57 218.64 220.997 218.64C219.424 218.64 218.149 217.372 218.149 215.806C218.149 214.24 219.424 212.972 220.997 212.972C222.57 212.972 223.845 214.24 223.845 215.806Z" fill="#F6F6F6" stroke="#323232" stroke-miterlimit="10"/>
<path d="M96.0263 252.069H54.0223V283.578C54.0223 283.578 60.4836 291.454 69.0447 291.454H127.166C135.727 291.454 142.188 283.578 142.188 283.578V252.069H96.0263Z" fill="#2F2F2F"/>
<path d="M62.0032 300.371V313.873C62.0032 315.117 63.0142 316.123 64.2646 316.123H69.7028C70.9532 316.123 71.9642 315.117 71.9642 313.873V300.371H62.0032Z" fill="#2F2F2F"/>
<path d="M122.966 300.371V313.873C122.966 315.117 123.977 316.123 125.227 316.123H130.666C131.916 316.123 132.927 315.117 132.927 313.873V300.371H122.966Z" fill="#2F2F2F"/>
<path d="M77.893 228.817H77.0135L76.9358 228.013H74.8718L74.6743 226.085H71.5335H66.3166L65.8021 231.174H78.1323L77.893 228.817Z" stroke="white" stroke-width="0.25" stroke-miterlimit="10"/>
<path d="M90.6239 228.817H89.7445L89.6667 228.013H87.5967L87.3993 226.085H84.2644H79.0476L78.5331 231.174H90.8573L90.6239 228.817Z" stroke="white" stroke-width="0.25" stroke-miterlimit="10"/>
<path d="M50.6901 252.069H48.7756V256.343H50.6901V252.069Z" fill="#2F2F2F"/>
<path d="M54.0284 251.188H43.7682V252.611H54.0284V251.188Z" fill="#2F2F2F"/>
<path d="M54.0284 255.635H43.7682V257.058H54.0284V255.635Z" fill="#2F2F2F"/>
<path d="M43.8878 257.052H39L40.8307 272.101C40.9144 272.779 41.5546 273.291 42.3144 273.291H45.4612C46.221 273.291 47.4116 273.268 47.4893 272.589L48.7696 257.052H43.8818H43.8878Z" fill="#2F2F2F"/>
<path d="M43.1998 257.052H39L40.5734 271.428C40.6452 272.077 41.1956 272.565 41.8477 272.565H44.5519C45.204 272.565 46.227 272.541 46.2988 271.892L47.3996 257.052H43.1998Z" fill="#2F2F2F"/>
<path d="M44.839 251.188C43.6365 251.188 42.6554 252.158 42.6554 253.361V257.058H47.0167V253.361C47.0167 252.164 46.0416 251.188 44.8331 251.188H44.839Z" fill="#2F2F2F"/>
<path d="M43.7681 251.188C42.5656 251.188 41.5845 252.158 41.5845 253.361V257.058H45.9458V253.361C45.9458 252.164 44.9706 251.188 43.7621 251.188H43.7681Z" fill="#2F2F2F"/>
<path d="M145.526 256.343H147.441V252.069H145.526V256.343Z" fill="#2F2F2F"/>
<path d="M142.194 252.605H152.454V251.182H142.194V252.605Z" fill="#2F2F2F"/>
<path d="M142.194 257.052H152.454V255.629H142.194V257.052Z" fill="#2F2F2F"/>
<path d="M152.329 257.052H157.216L155.386 272.101C155.302 272.779 154.662 273.291 153.902 273.291H150.755C149.995 273.291 148.805 273.268 148.727 272.589L147.447 257.052H152.335H152.329Z" fill="#2F2F2F"/>
<path d="M153.017 257.052H157.216L155.643 271.428C155.571 272.077 155.021 272.565 154.369 272.565H151.665C151.013 272.565 149.989 272.541 149.918 271.893L148.817 257.052H153.017Z" fill="#2F2F2F"/>
<path d="M151.377 251.188C152.58 251.188 153.561 252.159 153.561 253.361V257.058H149.2V253.361C149.2 252.164 150.175 251.188 151.383 251.188H151.377Z" fill="#2F2F2F"/>
<path d="M152.448 251.188C153.651 251.188 154.632 252.159 154.632 253.361V257.058H150.271V253.361C150.271 252.164 151.246 251.188 152.454 251.188H152.448Z" fill="#2F2F2F"/>
<path d="M140.25 203.844C140.25 194.522 128.135 195.004 128.135 195.004H68.0815C68.0815 195.004 55.9667 194.522 55.9667 203.844C55.9667 213.167 54.0283 241.3 54.0283 241.3H142.194C142.194 241.3 140.256 213.167 140.256 203.844H140.25Z" fill="#F66F6F" stroke="#1A2E35" stroke-miterlimit="10"/>
<path d="M96.0263 241.3H94.6443H54.0223V244.033H94.6443H96.0263H142.188V241.3H96.0263Z" fill="#F66F6F" stroke="#1A2E35" stroke-miterlimit="10"/>
<path d="M96.0263 244.033H94.6443H54.0223V252.069H94.6443H96.0263H142.188V244.033H96.0263Z" fill="#F66F6F" stroke="#1A2E35" stroke-miterlimit="10"/>
<path d="M96.0263 252.069H54.0223V307.729C54.0223 308.628 54.2198 309.533 54.6864 310.307C55.0813 310.962 55.6915 311.551 56.6068 311.551H139.604C140.525 311.551 141.129 310.968 141.53 310.307C141.997 309.533 142.194 308.634 142.194 307.729V252.069H96.0322H96.0263Z" fill="#F66F6F" stroke="#1A2E35" stroke-miterlimit="10"/>
<path d="M119.981 311.533V311.372C120.226 311.372 120.794 310.414 121.117 309.729L123.463 304.824L123.606 304.896L121.261 309.801C121.123 310.093 120.411 311.533 119.975 311.533H119.981Z" fill="#F05C5C"/>
<path d="M128.093 300.996H68.1174V301.157H128.093V300.996Z" fill="#F05C5C"/>
<path d="M76.2358 311.533C75.8051 311.533 75.0872 310.087 74.9496 309.801L72.6044 304.896L72.748 304.824L75.0931 309.729C75.4222 310.414 75.9905 311.372 76.2298 311.372V311.533H76.2358Z" fill="#F05C5C"/>
<path d="M141.057 252.069H55.1531C55.1531 252.069 54.9916 282.614 55.1531 283.257C55.201 283.459 55.6496 283.703 56.2359 283.953C58.0008 284.691 59.9033 285.025 61.8177 285.025H134.399C136.313 285.025 138.216 284.691 139.981 283.953C140.567 283.709 141.016 283.459 141.063 283.257C141.225 282.614 141.063 252.069 141.063 252.069H141.057Z" fill="url(#paint0_linear_165_3404)"/>
<path d="M133.968 251.896H62.2424V280.066H133.968V251.896Z" fill="url(#paint1_linear_165_3404)"/>
<path d="M113.489 302.598H82.7269C81.8953 302.598 81.2192 303.27 81.2192 304.098C81.2192 304.925 81.8953 305.598 82.7269 305.598H113.489C114.321 305.598 114.997 304.925 114.997 304.098C114.997 303.27 114.321 302.598 113.489 302.598Z" fill="#2F2F2F"/>
<path d="M131.766 300.752C124.222 300.752 123.534 304.955 123.534 304.955H129.984C129.984 304.955 140.405 305.384 142.194 302.604V293.918C142.194 293.918 139.316 300.752 131.766 300.752Z" fill="#2F2F2F"/>
<path d="M136.858 281.06H59.3528L57.1871 284.304C58.6768 284.792 60.2383 285.025 61.8117 285.025H134.393C135.966 285.025 137.534 284.792 139.017 284.304L136.852 281.06H136.858Z" fill="url(#paint2_linear_165_3404)"/>
<path d="M127.363 270.339H113.633V281.054H127.363V270.339Z" fill="url(#paint3_linear_165_3404)"/>
<path d="M133.627 279.066H120.501H110.606H97.48L94.6443 281.06H110.606H120.501H136.463L133.627 279.066Z" fill="url(#paint4_linear_165_3404)"/>
<path d="M119.071 279.066C119.837 277.822 121.213 276.982 122.792 276.982C124.372 276.982 125.748 277.816 126.514 279.066H127.674C126.819 277.238 124.958 275.964 122.798 275.964C120.639 275.964 118.778 277.232 117.923 279.066H119.083H119.071Z" fill="url(#paint5_linear_165_3404)"/>
<path d="M106.58 252.123H102.757V279.066H106.58V252.123Z" fill="url(#paint6_linear_165_3404)"/>
<path d="M64.45 300.752C71.9941 300.752 72.6821 304.955 72.6821 304.955H66.2329C66.2329 304.955 55.8111 305.384 54.0223 302.604V293.918C54.0223 293.918 56.9 300.752 64.45 300.752Z" fill="#2F2F2F"/>
<path d="M107.058 305.598H89.1522V310.313H107.058V305.598Z" fill="white"/>
<path d="M128.093 301.086H68.1174V301.246H128.093V301.086Z" fill="#F66F6F" stroke="#1A2E35" stroke-miterlimit="10"/>
<path d="M76.2358 311.545V311.462C75.9905 311.462 75.4222 310.503 75.0991 309.819L72.7539 304.913L72.6104 304.985L74.9555 309.89C75.0752 310.14 75.6196 311.241 76.0444 311.545H76.2358Z" fill="#F66F6F" stroke="#1A2E35" stroke-miterlimit="10"/>
<path d="M123.463 304.919L121.117 309.825C120.788 310.509 120.22 311.468 119.981 311.468V311.551H120.172C120.597 311.247 121.141 310.146 121.261 309.896L123.606 304.991L123.463 304.919Z" fill="#F66F6F" stroke="#1A2E35" stroke-miterlimit="10"/>
<path d="M128.632 202.88H67.585C62.5775 202.88 60.6392 204.969 60.6392 204.969V232.621C61.9314 231.014 67.908 230.853 67.908 230.853H128.308C128.308 230.853 134.285 231.014 135.577 232.621V204.969C135.577 204.969 133.639 202.88 128.632 202.88Z" fill="#2F2F2F"/>
<path d="M77.7673 276.262H79.0775L78.1861 267.261H75.47H70.9531L70.7796 268.993H69.6967L69.5771 270.339H67.7584L66.7892 281.06H70.7138H72.6761H76.6067L76.4272 279.066H78.0185L77.7673 276.262Z" fill="url(#paint7_linear_165_3404)"/>
<path d="M89.0564 276.262H90.0974L89.206 267.261H86.4899H81.973L81.7995 268.993H80.9919L80.8663 270.339H79.7714L78.7963 281.06H82.7268H84.6891H88.6197L88.4402 279.066H89.3137L89.0564 276.262Z" fill="url(#paint8_linear_165_3404)"/>
<path d="M96.0263 241.3H94.6443H54.0223V241.461H94.6443H96.0263H142.188V241.3H96.0263Z" fill="#F05C5C"/>
<path d="M96.0263 252.313H54.0223V283.822C54.0223 283.822 60.4836 291.698 69.0447 291.698H127.166C135.727 291.698 142.188 283.822 142.188 283.822V252.313H96.0263Z" fill="#2F2F2F"/>
<path d="M59.4127 301.526C59.4127 302.735 58.4196 303.717 57.1932 303.717C55.9667 303.717 54.9736 302.735 54.9736 301.526C54.9736 300.318 55.9667 299.336 57.1932 299.336C58.4196 299.336 59.4127 300.318 59.4127 301.526Z" fill="#2F3C4F"/>
<path d="M58.8743 301.526C58.8743 302.443 58.1205 303.187 57.1932 303.187C56.2659 303.187 55.5121 302.443 55.5121 301.526C55.5121 300.609 56.2659 299.865 57.1932 299.865C58.1205 299.865 58.8743 300.609 58.8743 301.526Z" fill="#F6F6F6"/>
<path d="M63.6844 302.788C63.6844 303.705 62.9306 304.449 62.0033 304.449C61.076 304.449 60.3221 303.705 60.3221 302.788C60.3221 301.871 61.076 301.127 62.0033 301.127C62.9306 301.127 63.6844 301.871 63.6844 302.788Z" fill="#2F3C4F"/>
<path d="M63.2776 302.788C63.2776 303.485 62.7092 304.044 62.0033 304.044C61.2974 304.044 60.729 303.479 60.729 302.788C60.729 302.098 61.3033 301.532 62.0033 301.532C62.7033 301.532 63.2776 302.098 63.2776 302.788Z" fill="#F6F6F6"/>
<path d="M136.971 301.526C136.971 302.735 137.964 303.717 139.191 303.717C140.417 303.717 141.41 302.735 141.41 301.526C141.41 300.318 140.417 299.336 139.191 299.336C137.964 299.336 136.971 300.318 136.971 301.526Z" fill="#2F3C4F"/>
<path d="M137.504 301.526C137.504 302.443 138.258 303.187 139.185 303.187C140.112 303.187 140.866 302.443 140.866 301.526C140.866 300.609 140.112 299.865 139.185 299.865C138.258 299.865 137.504 300.609 137.504 301.526Z" fill="#F6F6F6"/>
<path d="M132.694 302.788C132.694 303.705 133.448 304.449 134.375 304.449C135.302 304.449 136.056 303.705 136.056 302.788C136.056 301.871 135.302 301.127 134.375 301.127C133.448 301.127 132.694 301.871 132.694 302.788Z" fill="#2F3C4F"/>
<path d="M133.101 302.788C133.101 303.485 133.669 304.044 134.375 304.044C135.081 304.044 135.649 303.479 135.649 302.788C135.649 302.098 135.075 301.532 134.375 301.532C133.675 301.532 133.101 302.098 133.101 302.788Z" fill="#F6F6F6"/>
<path d="M66.1132 201.644L71.9642 229.307H84.39L77.1271 201.578L66.1132 201.644Z" fill="white"/>
<path d="M80.0228 201.578L87.6806 229.551H92.9393L85.6046 201.578H80.0228Z" fill="white"/>
<path d="M62.6134 250.625L71.9642 290.39H84.3901L73.6274 250.559L62.6134 250.625Z" fill="white"/>
<path d="M76.2837 250.559L87.6806 290.39H92.9393L81.8655 250.559H76.2837Z" fill="white"/>
<path d="M60.6392 203.668C60.6392 203.668 62.41 201.787 66.1133 201.644L71.9702 229.301C71.9702 229.301 62.775 228.849 60.6392 231.129V203.668Z" fill="white"/>
<path d="M54.0224 250.559H62.6074L71.9642 290.39H68.8593C68.8593 290.39 61.9194 290.349 57.4983 285.825C53.0771 281.3 53.8968 281.741 53.8968 281.741L54.0224 250.565V250.559Z" fill="white"/>
</g>
<path d="M54 316.671L372 316.671" stroke="#263238" stroke-miterlimit="10"/>
<path d="M279.193 268.654L281.607 331.646C281.607 331.646 280.094 332.546 280.094 334.347C280.094 336.148 280.547 339.896 280.547 339.896C280.547 339.896 280.094 340.645 279.941 341.545C279.787 342.445 280.241 345.445 280.241 345.445C280.241 345.445 283.562 343.948 285.222 344.392C286.882 344.843 292.323 347.544 292.323 347.544C292.323 347.544 294.437 343.492 294.59 341.545C294.743 339.598 293.383 336.294 293.383 335.096C293.383 333.897 297.31 276.454 297.31 276.454L302.291 332.85L301.385 336.75C301.385 336.75 300.631 339.75 300.931 340.651C301.231 341.551 301.838 346.498 301.838 346.498C301.838 346.498 304.558 348.001 307.272 347.398C309.993 346.796 316.334 344.849 316.334 344.849C316.334 344.849 316.181 341.849 316.334 340.346C316.487 338.85 313.92 333.897 314.067 332.4C314.22 330.903 315.127 267.455 315.127 267.455H278.728L279.193 268.654Z" fill="#2F2F2F"/>
<path d="M277.772 232.537C278.257 232.418 278.257 232.418 278.257 232.417L278.257 232.417L278.256 232.413L278.253 232.4L278.241 232.349L278.192 232.149C278.149 231.974 278.086 231.716 278.006 231.388C277.846 230.732 277.619 229.795 277.346 228.667C276.802 226.412 276.08 223.397 275.37 220.36C274.659 217.323 273.961 214.266 273.464 211.924C273.215 210.752 273.017 209.764 272.893 209.049C272.831 208.69 272.789 208.408 272.768 208.209C272.765 208.179 272.762 208.151 272.76 208.127C272.866 208.075 273.017 208.011 273.214 207.936C273.645 207.773 274.249 207.576 274.977 207.355C276.429 206.914 278.336 206.393 280.236 205.892C282.136 205.392 284.025 204.914 285.439 204.562C286.146 204.385 286.734 204.24 287.145 204.139C287.351 204.089 287.512 204.049 287.622 204.023L287.739 203.994L287.81 203.993L288.167 203.984L289.476 203.951C290.581 203.924 292.101 203.887 293.768 203.847C297.102 203.766 301.019 203.673 303.355 203.625C304.457 203.603 306.066 203.869 307.896 204.302C309.715 204.733 311.713 205.321 313.573 205.922C315.433 206.522 317.15 207.134 318.405 207.612C319.034 207.851 319.543 208.055 319.895 208.207C319.986 208.246 320.065 208.281 320.131 208.311C320.099 208.499 320.05 208.763 319.987 209.093C319.853 209.789 319.657 210.769 319.418 211.94C318.942 214.282 318.297 217.379 317.65 220.468C317.002 223.558 316.352 226.639 315.864 228.947C315.619 230.101 315.416 231.063 315.273 231.735L315.107 232.516L315.064 232.721L315.052 232.774L315.05 232.787L315.049 232.791L315.049 232.791C315.049 232.792 315.049 232.792 315.538 232.896L315.049 232.792L315.036 232.849L315.038 232.908L315.947 269.292C315.816 269.326 315.655 269.368 315.466 269.416C314.922 269.555 314.154 269.747 313.257 269.962C311.462 270.394 309.159 270.914 307.112 271.277C303.033 271.999 298.212 272.364 289.889 272.091C285.753 271.955 282.485 271.391 280.257 270.863C279.142 270.599 278.288 270.345 277.714 270.157C277.494 270.085 277.315 270.022 277.179 269.973L278.272 232.551L278.274 232.484L278.257 232.418L277.772 232.537Z" fill="white" stroke="#2F2F2F"/>
<path d="M290.081 200.539L288.77 202.042L286.846 203.587L284.095 208.503L288.31 208.686L285.008 211.326C285.008 211.326 288.947 218.701 291.147 221.433C293.346 224.165 296.747 230.663 296.747 230.663C296.747 230.663 301.415 222.71 303.07 220.8C304.718 218.889 307.377 214.156 308.296 212.969C309.215 211.783 309.852 210.329 309.852 210.329L306.458 208.692L309.576 206.873C309.576 206.873 305.906 203.502 305.361 202.23C304.81 200.959 304.626 200.046 303.621 200.137C302.616 200.222 290.081 200.539 290.081 200.539Z" fill="white" stroke="#2F2F2F" stroke-miterlimit="10" stroke-linecap="round" stroke-linejoin="round"/>
<path d="M290.081 200.539L296.753 230.663L303.976 200.904L290.081 200.539Z" fill="white" stroke="#2F2F2F" stroke-miterlimit="10" stroke-linecap="round" stroke-linejoin="round"/>
<path d="M290.081 200.539L292.311 210.627L296.937 205.139L301.587 210.748L303.976 200.904L290.081 200.539Z" fill="white" stroke="#2F2F2F" stroke-miterlimit="10" stroke-linecap="round" stroke-linejoin="round"/>
<path d="M290.081 196.553V200.539C290.081 200.539 296.753 205.078 296.937 205.139C297.12 205.199 303.976 200.904 303.976 200.904V195.197C303.976 195.197 300.147 198.817 297.862 198.878C295.576 198.945 290.081 196.553 290.081 196.553Z" fill="white" stroke="#2F2F2F" stroke-miterlimit="10" stroke-linecap="round" stroke-linejoin="round"/>
<path d="M294.59 208.144L296.379 210.535L294.712 220.417L296.753 230.663L299.222 220.356L298.113 210.535L299.406 208.205L296.937 205.139L294.59 208.144Z" fill="#2F2F2F"/>
<path d="M298.677 214.058H296.385V214.861H298.677V214.058Z" fill="white"/>
<path d="M300.502 250.108L297.935 251.471C297.935 251.471 295.092 253.108 293.996 253.838C292.893 254.568 289.045 260.209 289.321 260.665C289.597 261.121 290.516 262.119 291.153 262.302C291.796 262.484 292.985 263.306 294.271 263.488C295.552 263.671 297.022 263.944 298.67 262.758C300.319 261.571 302.518 258.116 302.794 257.659C303.069 257.203 304.534 255.931 304.534 255.931L300.502 250.108Z" fill="white" stroke="#263238" stroke-miterlimit="10" stroke-linecap="round" stroke-linejoin="round"/>
<path d="M322.034 210.493L322.033 210.492C321.672 209.491 321.285 208.953 321.005 208.669L315.845 231.784L315.571 236.75L315.56 236.951L315.413 237.088L315.072 236.723L315.413 237.088L315.413 237.089L315.412 237.089L315.411 237.091L315.404 237.097L315.378 237.121L315.278 237.214C315.191 237.295 315.064 237.412 314.905 237.559C314.587 237.851 314.142 238.259 313.63 238.721C312.609 239.644 311.318 240.789 310.255 241.661M322.034 210.493L309.938 241.274M322.034 210.493C322.119 210.728 322.252 211.337 322.418 212.282C322.581 213.207 322.769 214.411 322.972 215.8C323.378 218.577 323.841 222.084 324.276 225.564C324.711 229.044 325.117 232.496 325.408 235.162C325.554 236.495 325.671 237.63 325.749 238.473C325.787 238.895 325.816 239.241 325.834 239.502C325.852 239.776 325.856 239.923 325.853 239.969C325.814 240.548 325.575 241.135 325.326 241.596C325.203 241.823 325.084 242.01 324.995 242.14C324.951 242.205 324.915 242.255 324.89 242.288C324.888 242.291 324.886 242.293 324.885 242.296L305.754 258.363M322.034 210.493L305.754 258.363M310.255 241.661L309.938 241.274M310.255 241.661C310.255 241.66 310.255 241.66 310.255 241.66L309.938 241.274M310.255 241.661C309.195 242.532 306.623 244.562 304.322 246.37C303.17 247.275 302.083 248.125 301.285 248.75C300.886 249.062 300.559 249.318 300.332 249.495L300.328 249.498M309.938 241.274C307.83 243.008 299.669 249.378 299.669 249.378M300.328 249.498L300.096 249.117L299.669 249.378M300.328 249.498L305.754 258.363M300.328 249.498L300.069 249.7L300 249.754L299.983 249.768L299.978 249.771L299.977 249.772L299.977 249.772C299.977 249.772 299.977 249.772 299.669 249.378M299.669 249.378L305.754 258.363" fill="white" stroke="#2F2F2F"/>
<path d="M292.072 250.291C292.072 250.291 294.823 250.656 295.282 250.565C295.742 250.473 297.941 250.473 299.038 251.569C300.141 252.664 302.34 253.844 302.34 253.844C302.34 253.844 303.713 254.118 302.616 255.031C301.513 255.943 300.876 256.035 299.865 255.67C298.854 255.305 298.033 255.122 298.033 255.122C298.033 255.122 300.968 257.032 301.519 257.945C302.071 258.858 303.443 259.673 301.611 260.677C299.779 261.681 299.779 261.681 299.779 261.681C299.779 261.681 295.564 262.229 293.726 262.137C291.888 262.046 290.148 259.223 289.787 258.408C289.419 257.586 288.506 256.406 288.506 256.406L292.072 250.291Z" fill="white" stroke="#2F2F2F" stroke-miterlimit="10" stroke-linecap="round" stroke-linejoin="round"/>
<path d="M287.188 258.363L292.613 249.498L292.61 249.495C292.383 249.318 292.056 249.062 291.656 248.75C290.858 248.125 289.772 247.275 288.62 246.37C286.318 244.562 283.746 242.531 282.686 241.66M287.188 258.363L267.089 239.969C267.086 239.923 267.09 239.776 267.108 239.502C267.126 239.241 267.154 238.895 267.193 238.473C267.271 237.63 267.388 236.495 267.533 235.162C267.825 232.496 268.231 229.044 268.666 225.564C269.1 222.084 269.564 218.577 269.97 215.8C270.173 214.411 270.361 213.207 270.524 212.282C270.69 211.337 270.822 210.728 270.908 210.493L270.908 210.492C271.27 209.491 271.656 208.953 271.937 208.669L277.097 231.784L277.371 236.75L277.382 236.951L277.529 237.088L277.87 236.723L277.529 237.088L277.529 237.089L277.529 237.089L277.531 237.091L277.538 237.097L277.564 237.121L277.664 237.214C277.751 237.295 277.878 237.412 278.037 237.559C278.354 237.851 278.8 238.259 279.311 238.721C280.332 239.644 281.623 240.788 282.686 241.66M287.188 258.363L268.057 242.296C268.055 242.293 268.053 242.291 268.051 242.288C268.027 242.255 267.991 242.205 267.947 242.14C267.858 242.01 267.738 241.823 267.616 241.596C267.367 241.135 267.128 240.548 267.089 239.969L287.188 258.363ZM282.686 241.66L283.004 241.274L282.687 241.661C282.687 241.66 282.687 241.66 282.686 241.66Z" fill="white" stroke="#2F2F2F"/>
<path d="M299.038 234.812C299.038 235.317 298.628 235.725 298.119 235.725C297.61 235.725 297.2 235.317 297.2 234.812C297.2 234.307 297.61 233.9 298.119 233.9C298.628 233.906 299.038 234.313 299.038 234.812Z" fill="white"/>
<path d="M299.038 245.831C299.038 246.336 298.628 246.744 298.119 246.744C297.61 246.744 297.2 246.336 297.2 245.831C297.2 245.326 297.61 244.918 298.119 244.918C298.628 244.918 299.038 245.326 299.038 245.831Z" fill="white"/>
<path d="M281.296 344.538L281.343 344.478C281.352 344.473 281.362 344.467 281.373 344.461C281.447 344.422 281.561 344.364 281.71 344.3C282.008 344.171 282.445 344.014 282.988 343.91C284.071 343.702 285.58 343.699 287.279 344.542C289.057 345.425 290.232 346.266 290.956 346.877C291.309 347.174 291.555 347.418 291.712 347.586L290.273 349.794L290.268 349.8C290.252 349.819 290.228 349.847 290.195 349.885C290.131 349.959 290.036 350.067 289.914 350.202C289.671 350.471 289.323 350.844 288.906 351.258C288.065 352.093 286.966 353.072 285.885 353.716C285.416 353.996 284.713 354.165 283.848 354.231C282.993 354.297 282.029 354.257 281.075 354.156C279.156 353.953 277.355 353.509 276.658 353.231C276.361 353.112 276.197 352.961 276.107 352.806C276.016 352.65 275.971 352.438 276.008 352.144C276.085 351.532 276.505 350.684 277.318 349.656C278.153 348.604 279.175 347.289 279.987 346.238C280.393 345.713 280.747 345.253 281 344.924L281.296 344.538Z" stroke="#2F2F2F"/>
<path d="M306.706 349.794L305.268 347.586C305.425 347.418 305.671 347.174 306.023 346.877C306.747 346.266 307.922 345.425 309.7 344.542L309.701 344.542C311.396 343.699 312.905 343.702 313.989 343.91C314.533 344.015 314.97 344.171 315.269 344.3C315.418 344.365 315.532 344.422 315.607 344.462C315.617 344.467 315.627 344.473 315.636 344.478L315.683 344.538L315.979 344.924C316.232 345.253 316.586 345.713 316.992 346.238C317.804 347.289 318.826 348.604 319.661 349.656C320.474 350.684 320.895 351.532 320.971 352.144C321.008 352.438 320.963 352.65 320.872 352.806C320.783 352.961 320.618 353.112 320.322 353.231C319.622 353.509 317.82 353.953 315.902 354.156C314.948 354.257 313.985 354.297 313.13 354.231C312.266 354.165 311.563 353.996 311.094 353.716C310.013 353.072 308.914 352.093 308.074 351.258C307.656 350.844 307.308 350.471 307.065 350.202C306.943 350.067 306.848 349.959 306.784 349.885C306.752 349.847 306.727 349.819 306.711 349.8L306.706 349.794Z" stroke="#2F2F2F"/>
<path d="M287.795 185.2C287.795 185.2 283.592 182.073 282.851 180.351C282.11 178.635 293.414 170.044 295.019 169.679C296.624 169.314 298.971 169.314 300.208 170.044C301.446 170.78 311.512 179.371 311.328 180.594C311.145 181.823 305.894 185.991 305.894 185.991C305.894 185.991 303.051 182.432 297.494 182.249C291.931 182.073 287.795 185.2 287.795 185.2Z" fill="#2F2F2F" stroke="#2F2F2F" stroke-miterlimit="10"/>
<path d="M297.12 178.574C291.275 178.489 287.354 181.586 285.565 183.393C286.723 184.403 287.789 185.2 287.789 185.2C287.789 185.2 291.931 182.073 297.488 182.255C303.045 182.438 305.888 185.997 305.888 185.997C305.888 185.997 306.678 185.37 307.652 184.531C305.845 182.079 302.389 178.653 297.12 178.574Z" stroke="#2F2F2F" stroke-miterlimit="10" stroke-linecap="round" stroke-linejoin="round"/>
<path d="M287.379 184.975C287.379 184.975 287.857 194.035 288.543 195.397C289.229 196.76 293.138 200.642 294.302 201.531C295.466 202.419 297.8 202.212 299.173 201.597C300.545 200.983 304.589 196.967 305.14 194.375C305.692 191.783 305.692 184.634 305.692 184.634C305.692 184.634 302.671 181.367 297.666 181.634C292.66 181.908 288.61 183.271 287.379 184.975Z" fill="white" stroke="#2F2F2F" stroke-miterlimit="10" stroke-linecap="round" stroke-linejoin="round"/>
<path d="M287.379 184.975C287.379 184.975 289.137 185.93 290.485 185.997C291.839 186.064 295.754 183.411 297.715 183.819C299.675 184.226 302.108 186.612 303.664 186.545C305.22 186.478 305.894 185.316 305.894 185.316C305.894 185.316 303.866 181.568 299.001 180.618C294.137 179.663 288.861 182.389 287.379 184.975Z" fill="#BDBDBD" stroke="#2F2F2F" stroke-miterlimit="10" stroke-linecap="round" stroke-linejoin="round"/>
<path d="M294.234 186.338C294.234 186.338 292.176 185.182 290.258 186.952" stroke="#2F2F2F" stroke-miterlimit="10" stroke-linecap="round" stroke-linejoin="round"/>
<path d="M299.381 186.271C299.381 186.271 301.299 185.383 303.357 186.818" stroke="#2F2F2F" stroke-miterlimit="10" stroke-linecap="round" stroke-linejoin="round"/>
<path d="M292.831 189.307C293.153 189.307 293.413 188.893 293.413 188.382C293.413 187.871 293.153 187.457 292.831 187.457C292.51 187.457 292.249 187.871 292.249 188.382C292.249 188.893 292.51 189.307 292.831 189.307Z" fill="#263238" stroke="#2F2F2F" stroke-miterlimit="10"/>
<path d="M300.956 189.307C301.277 189.307 301.538 188.893 301.538 188.382C301.538 187.871 301.277 187.457 300.956 187.457C300.634 187.457 300.374 187.871 300.374 188.382C300.374 188.893 300.634 189.307 300.956 189.307Z" fill="#263238" stroke="#2F2F2F" stroke-miterlimit="10"/>
<path d="M298.143 187.427V192.739L295.405 192.264" stroke="#2F2F2F" stroke-miterlimit="10" stroke-linecap="round" stroke-linejoin="round"/>
<path d="M296.361 192.465C296.361 192.465 295.264 192.872 294.443 193.353C293.622 193.828 292.593 194.168 292.317 194.241C292.041 194.308 291.471 194.564 294.682 195.434C297.874 196.304 301.648 194.917 301.783 194.375C301.783 194.375 301.556 194.412 299.982 193.645C298.07 192.714 297.322 192.605 297.322 192.605L296.361 192.465Z" fill="#2F2F2F" stroke="#2F2F2F" stroke-miterlimit="10"/>
<path d="M287.544 186.983C287.544 186.983 286.061 185.389 285.259 186.922C284.456 188.455 285.197 189.435 285.877 190.36C286.558 191.278 287.795 191.771 287.795 191.771L287.544 186.983Z" fill="white" stroke="#2F2F2F" stroke-miterlimit="10" stroke-linecap="round" stroke-linejoin="round"/>
<path d="M305.545 186.983C305.545 186.983 307.027 185.389 307.83 186.922C308.633 188.455 307.891 189.435 307.211 190.36C306.531 191.278 305.294 191.771 305.294 191.771L305.545 186.983Z" fill="white" stroke="#2F2F2F" stroke-miterlimit="10" stroke-linecap="round" stroke-linejoin="round"/>
</g>
<defs>
<linearGradient id="paint0_linear_165_3404" x1="72.4069" y1="178.586" x2="100.416" y2="276.627" gradientUnits="userSpaceOnUse">
<stop stop-color="#7C7D81"/>
<stop offset="1" stop-color="#454442"/>
</linearGradient>
<linearGradient id="paint1_linear_165_3404" x1="100.244" y1="361.252" x2="96.0857" y2="174.144" gradientUnits="userSpaceOnUse">
<stop stop-color="#565656"/>
<stop offset="1" stop-color="#202020"/>
</linearGradient>
<linearGradient id="paint2_linear_165_3404" x1="98.1082" y1="296.186" x2="98.1082" y2="275.417" gradientUnits="userSpaceOnUse">
<stop stop-color="#565656"/>
<stop offset="1" stop-color="#202020"/>
</linearGradient>
<linearGradient id="paint3_linear_165_3404" x1="120.501" y1="292.704" x2="120.501" y2="266.594" gradientUnits="userSpaceOnUse">
<stop stop-color="#565656"/>
<stop offset="0.38" stop-color="#3A3A3A"/>
<stop offset="0.75" stop-color="#272727"/>
<stop offset="1" stop-color="#202020"/>
</linearGradient>
<linearGradient id="paint4_linear_165_3404" x1="115.554" y1="286.59" x2="115.554" y2="279.994" gradientUnits="userSpaceOnUse">
<stop stop-color="#565656"/>
<stop offset="0.01" stop-color="#545454"/>
<stop offset="0.41" stop-color="#373737"/>
<stop offset="0.75" stop-color="#262626"/>
<stop offset="1" stop-color="#202020"/>
</linearGradient>
<linearGradient id="paint5_linear_165_3404" x1="122.792" y1="283.858" x2="122.792" y2="277.286" gradientUnits="userSpaceOnUse">
<stop stop-color="#565656"/>
<stop offset="0.01" stop-color="#545454"/>
<stop offset="0.41" stop-color="#373737"/>
<stop offset="0.75" stop-color="#262626"/>
<stop offset="1" stop-color="#202020"/>
</linearGradient>
<linearGradient id="paint6_linear_165_3404" x1="104.671" y1="311.134" x2="104.671" y2="236.693" gradientUnits="userSpaceOnUse">
<stop stop-color="#565656"/>
<stop offset="1" stop-color="#202020"/>
</linearGradient>
<linearGradient id="paint7_linear_165_3404" x1="72.9333" y1="295.597" x2="72.9333" y2="269.124" gradientUnits="userSpaceOnUse">
<stop stop-color="#565656"/>
<stop offset="1" stop-color="#202020"/>
</linearGradient>
<linearGradient id="paint8_linear_165_3404" x1="84.4498" y1="295.597" x2="84.4498" y2="269.124" gradientUnits="userSpaceOnUse">
<stop stop-color="#565656"/>
<stop offset="1" stop-color="#202020"/>
</linearGradient>
<clipPath id="clip0_165_3404">
<rect width="434" height="228" fill="white" transform="translate(0 88)"/>
</clipPath>
<clipPath id="clip1_165_3404">
<rect width="361" height="239" fill="white" transform="translate(33 117)"/>
</clipPath>
<clipPath id="clip2_165_3404">
<rect width="331" height="126" fill="white" transform="translate(39 190)"/>
</clipPath>
</defs>
</svg>
