<svg width="99" height="27" viewBox="0 0 99 27" fill="none" xmlns="http://www.w3.org/2000/svg">
<path d="M1 14.0904V19.8988C1 21.0034 1.89543 21.8988 3 21.8988H64.1322C64.6845 21.8988 65.1322 21.4511 65.1322 20.8988V10.1382C65.1322 9.82348 64.984 9.52709 64.7322 9.33824L55.9481 2.75015C54.5633 1.71157 52.8791 1.15015 51.1481 1.15015H35.1425C32.5516 1.15015 30.0116 1.86908 27.8051 3.22693L21.2876 7.23772C19.7205 8.20209 17.9988 8.88891 16.1982 9.26798L2.58798 12.1333C1.66249 12.3281 1 13.1446 1 14.0904Z" fill="white" stroke="black"/>
<path d="M38.7249 1.15015L38.7249 21.8988" stroke="black"/>
<path d="M17.9762 8.69512H50.0423M64.1891 8.69512H50.0423M50.0423 1.15015V8.69512" stroke="black"/>
<circle cx="12.3174" cy="20.9557" r="5.15873" fill="white" stroke="black"/>
<circle cx="53.8147" cy="20.9557" r="5.15873" fill="white" stroke="black"/>
<path d="M36.8386 12.4677L34.9524 12.4677" stroke="black" stroke-linecap="round" stroke-linejoin="round"/>
<path d="M70.7267 21.2682H66.5308C65.7584 21.2682 65.1322 20.642 65.1322 19.8696V19.8696" stroke="black"/>
<path d="M73.1453 3.90165L69.2501 19.4824C68.9345 20.7447 69.8892 21.9675 71.1903 21.9675H96C97.1046 21.9675 98 21.0721 98 19.9675V4.38672C98 3.28215 97.1046 2.38672 96 2.38672H75.0855C74.1678 2.38672 73.3678 3.01131 73.1453 3.90165Z" fill="white" stroke="black"/>
<circle cx="88.2096" cy="22.1808" r="3.69589" fill="white" stroke="black"/>
</svg>
