<svg width="106" height="37" viewBox="0 0 106 37" fill="none" xmlns="http://www.w3.org/2000/svg">
<path d="M0.777832 18L5.77783 1H104.778V30H0.777832V18Z" stroke="black" stroke-linejoin="round"/>
<path d="M11.7778 1V15L0.777832 18" stroke="black" stroke-linejoin="round"/>
<rect x="16.7778" y="7.00012" width="8" height="22" fill="white" stroke="black" stroke-linejoin="round"/>
<path d="M20.7778 7.00024V29.0002" stroke="black" stroke-linejoin="round"/>
<path d="M28.7778 2H100.778L102.778 10H28.7778V2Z" fill="white" stroke="black" stroke-linejoin="round"/>
<path d="M36.7778 2V9" stroke="black" stroke-linejoin="round"/>
<path d="M44.7778 2V9" stroke="black" stroke-linejoin="round"/>
<path d="M52.7778 2V9" stroke="black" stroke-linejoin="round"/>
<path d="M60.7778 2V9" stroke="black" stroke-linejoin="round"/>
<path d="M68.7778 2V9" stroke="black" stroke-linejoin="round"/>
<path d="M76.7778 2V9" stroke="black" stroke-linejoin="round"/>
<path d="M84.7778 2V9" stroke="black" stroke-linejoin="round"/>
<path d="M92.7778 2V9" stroke="black" stroke-linejoin="round"/>
<circle cx="10.7778" cy="31.0001" r="5.5" fill="white" stroke="black"/>
<circle cx="92.7778" cy="31.0001" r="5.5" fill="white" stroke="black"/>
<circle cx="76.7778" cy="31.0001" r="5.5" fill="white" stroke="black"/>
</svg>
