<svg width="127" height="30" viewBox="0 0 127 30" fill="none" xmlns="http://www.w3.org/2000/svg">
<path d="M87.5095 24.4255H84.6844C83.6442 24.4255 82.801 23.5823 82.801 22.5421V22.5421" stroke="black"/>
<rect x="86.8763" y="0.883179" width="39.1236" height="23.6372" fill="white" stroke="black" stroke-linejoin="round"/>
<circle cx="94.26" cy="24.8081" r="4.10278" fill="white" stroke="black"/>
<circle cx="118.377" cy="24.8081" r="4.10278" fill="white" stroke="black"/>
<path d="M0.874023 14.2239L4.79773 0.883301H82.4871V23.6408H0.874023V14.2239Z" stroke="black" stroke-linejoin="round"/>
<path d="M9.50618 0.883301V11.8697L0.874023 14.2239" stroke="black" stroke-linejoin="round"/>
<rect x="13.4299" y="5.5918" width="6.27793" height="17.2643" fill="white" stroke="black" stroke-linejoin="round"/>
<path d="M16.5688 5.59167V22.856" stroke="black" stroke-linejoin="round"/>
<path d="M22.8468 1.66797H79.3482L80.9177 7.9459H22.8468V1.66797Z" fill="white" stroke="black" stroke-linejoin="round"/>
<path d="M29.1248 1.66797V7.16116" stroke="black" stroke-linejoin="round"/>
<path d="M35.4026 1.66797V7.16116" stroke="black" stroke-linejoin="round"/>
<path d="M41.6805 1.66797V7.16116" stroke="black" stroke-linejoin="round"/>
<path d="M47.9585 1.66797V7.16116" stroke="black" stroke-linejoin="round"/>
<path d="M54.2365 1.66797V7.16116" stroke="black" stroke-linejoin="round"/>
<path d="M60.5144 1.66797V7.16116" stroke="black" stroke-linejoin="round"/>
<path d="M66.7922 1.66797V7.16116" stroke="black" stroke-linejoin="round"/>
<path d="M73.0702 1.66797V7.16116" stroke="black" stroke-linejoin="round"/>
<circle cx="8.72139" cy="24.4255" r="4.20845" fill="white" stroke="black"/>
<circle cx="73.0703" cy="24.4255" r="4.20845" fill="white" stroke="black"/>
<circle cx="60.5144" cy="24.4255" r="4.20845" fill="white" stroke="black"/>
</svg>
