<svg width="67" height="36" viewBox="0 0 67 36" fill="none" xmlns="http://www.w3.org/2000/svg">
<path d="M8.11652 7.41541H22.1615V29.5846H1V17.0902C1 16.6953 1.11688 16.3093 1.3359 15.9808L6.45242 8.306C6.82335 7.74961 7.44782 7.41541 8.11652 7.41541Z" fill="white" stroke="black" stroke-linejoin="round"/>
<path d="M1 16.4846L1.42191 16.9065C1.79698 17.2816 2.30569 17.4923 2.83612 17.4923H8.63424C9.14693 17.4923 9.64004 17.2954 10.0117 16.9423L13.0968 14.0115C13.4685 13.6584 13.9616 13.4615 14.4743 13.4615H22.1615" stroke="black"/>
<rect x="24.1769" y="1.36926" width="42.3231" height="28.2154" fill="white" stroke="black" stroke-linejoin="round"/>
<circle cx="12.0846" cy="29.5847" r="5.54615" fill="white" stroke="black"/>
<circle cx="52.3923" cy="29.5847" r="5.54615" fill="white" stroke="black"/>
<path d="M19.1384 17.4923L17.123 17.4923" stroke="black" stroke-linecap="round" stroke-linejoin="round"/>
</svg>
