<svg width="117" height="32" viewBox="0 0 117 32" fill="none" xmlns="http://www.w3.org/2000/svg">
<path d="M74.8878 26.3603H71.6293C70.7294 26.3603 70 25.6309 70 24.7311V24.7311" stroke="black"/>
<rect x="74.3278" y="1.36133" width="41.5462" height="25.1008" fill="white" stroke="black" stroke-linejoin="round"/>
<circle cx="82.1685" cy="26.7677" r="4.38779" fill="white" stroke="black"/>
<circle cx="107.779" cy="26.7677" r="4.38779" fill="white" stroke="black"/>
<path d="M8 1.8313H17.6265V19.7048C17.6265 19.9344 17.4404 20.1205 17.2108 20.1205C16.9813 20.1205 16.7952 20.3066 16.7952 20.5361V26.7711H1V8.8313C1 4.96531 4.13401 1.8313 8 1.8313Z" fill="white" stroke="black" stroke-linejoin="round"/>
<path d="M10.1446 10.1447H6.32532C5.22075 10.1447 4.32532 11.0401 4.32532 12.1447V17.6266L10.1446 15.9639M10.1446 10.1447V15.9639M10.1446 10.1447H14.3012V15.9639H10.1446" stroke="black" stroke-linejoin="round"/>
<path d="M69.1687 1H20.1205V20.9518H18.4579V27.6024H30.0964V26.7711H70V20.9518H69.1687V1Z" fill="white" stroke="black" stroke-linejoin="round"/>
<circle cx="10.1446" cy="26.7711" r="3.3253" fill="white" stroke="black"/>
<circle cx="50.0482" cy="26.7711" r="3.3253" fill="white" stroke="black"/>
<circle cx="61.6868" cy="26.7711" r="3.3253" fill="white" stroke="black"/>
<path d="M12.6386 19.2892L10.976 19.2892" stroke="black" stroke-linecap="round" stroke-linejoin="round"/>
</svg>
