<svg width="15" height="16" viewBox="0 0 15 16" fill="none" xmlns="http://www.w3.org/2000/svg">
<g clip-path="url(#clip0_15_3073)">
<path d="M7.65308 6.54541V9.64362H11.7718C11.591 10.64 11.0482 11.4837 10.2342 12.0509L12.718 14.0655C14.1651 12.6692 15 10.6182 15 8.18186C15 7.6146 14.9513 7.06909 14.8609 6.5455L7.65308 6.54541Z" fill="#4285F4"/>
<path d="M3.36399 9.52271L2.80381 9.97096L0.820923 11.5855C2.0802 14.1964 4.6612 16.0001 7.65284 16.0001C9.71913 16.0001 11.4515 15.2873 12.7178 14.0655L10.234 12.051C9.55217 12.531 8.68249 12.8219 7.65284 12.8219C5.66304 12.8219 3.97245 11.4183 3.36712 9.52732L3.36399 9.52271Z" fill="#34A853"/>
<path d="M0.82091 4.41455C0.299136 5.49088 0 6.70545 0 7.99998C0 9.29451 0.299136 10.5091 0.82091 11.5854C0.82091 11.5926 3.36735 9.51994 3.36735 9.51994C3.21429 9.03994 3.12382 8.53088 3.12382 7.99989C3.12382 7.46891 3.21429 6.95985 3.36735 6.47985L0.82091 4.41455Z" fill="#FBBC05"/>
<path d="M7.653 3.18547C8.78011 3.18547 9.78195 3.59273 10.582 4.3782L12.7736 2.08731C11.4447 0.792781 9.71936 0 7.653 0C4.66135 0 2.0802 1.79637 0.820923 4.41458L3.36728 6.48004C3.97254 4.5891 5.6632 3.18547 7.653 3.18547Z" fill="#EA4335"/>
</g>
<defs>
<clipPath id="clip0_15_3073">
<rect width="15" height="16" fill="white"/>
</clipPath>
</defs>
</svg>
