<svg width="434" height="265" viewBox="0 0 434 265" fill="none" xmlns="http://www.w3.org/2000/svg">
<g clip-path="url(#clip0_268_895)">
<g opacity="0.3">
<path d="M0 208.085H19.6221V30.9655H71.2325V115.269H82.3211V220.008H95.1152V63.6642H119.004V0.30957H157.393V116.972H171.892V70.5606H204.308V80.7813H232.036V218.733H243.125V193.611H273.407V218.306H287.913V93.9796H336.962V210.642H351.04V47.9958H368.101V18.1942H376.628V1.16387H390.278V111.437H412.462V216.603H429.522" stroke="black" stroke-opacity="0.33" stroke-miterlimit="10"/>
<path d="M71.2325 25.431H19.6221V30.9654H71.2325V25.431Z" stroke="black" stroke-opacity="0.33" stroke-miterlimit="10"/>
<path d="M119.004 63.6642H94.9725V66.4685H119.004V63.6642Z" stroke="black" stroke-opacity="0.33" stroke-miterlimit="10"/>
<path d="M157.392 0.30957H118.892V3.03344H157.392V0.30957Z" stroke="black" stroke-opacity="0.33" stroke-miterlimit="10"/>
<path d="M180.556 64.7786H174.949V70.5606H180.556V64.7786Z" stroke="black" stroke-opacity="0.33" stroke-miterlimit="10"/>
<path d="M195.13 67.1991H192.327V70.5544H195.13V67.1991Z" stroke="black" stroke-opacity="0.33" stroke-miterlimit="10"/>
<path d="M232.123 80.7812H204.308V84.1737H232.123V80.7812Z" stroke="black" stroke-opacity="0.33" stroke-miterlimit="10"/>
<path d="M336.956 91.4476H287.913V93.9796H336.956V91.4476Z" stroke="black" stroke-opacity="0.33" stroke-miterlimit="10"/>
<path d="M319.951 86.4147H300.515V91.4538H319.951V86.4147Z" stroke="black" stroke-opacity="0.33" stroke-miterlimit="10"/>
<path d="M315.839 86.6004V81.9388H330.041V91.2619" stroke="black" stroke-opacity="0.33" stroke-miterlimit="10"/>
<path d="M222.237 79.3884V41.6938H267.187V72.9254H282.654V19.7976H332.28V84.0561H347.741" stroke="black" stroke-opacity="0.33" stroke-miterlimit="10"/>
<path d="M189.877 60.7237V19.0795H159.309" stroke="black" stroke-opacity="0.33" stroke-miterlimit="10"/>
<path d="M93.4965 71.1301H83.4312V42.0529H73.7194" stroke="black" stroke-opacity="0.33" stroke-miterlimit="10"/>
<path d="M17.9788 63.2308H9.71191V176.308" stroke="black" stroke-opacity="0.33" stroke-miterlimit="10"/>
<path d="M362.848 42.4118V28.7739H367.158" stroke="black" stroke-opacity="0.33" stroke-miterlimit="10"/>
<path d="M391.971 29.1331H407.438V86.2104H433.69V152.258" stroke="black" stroke-opacity="0.33" stroke-miterlimit="10"/>
<path d="M125.764 8.31396H121.906V15.8541H125.764V8.31396Z" stroke="black" stroke-opacity="0.33" stroke-miterlimit="10"/>
<path d="M132.71 8.31396H128.852V15.8541H132.71V8.31396Z" stroke="black" stroke-opacity="0.33" stroke-miterlimit="10"/>
<path d="M139.656 8.31396H135.798V15.8541H139.656V8.31396Z" stroke="black" stroke-opacity="0.33" stroke-miterlimit="10"/>
<path d="M146.608 8.31396H142.75V15.8541H146.608V8.31396Z" stroke="black" stroke-opacity="0.33" stroke-miterlimit="10"/>
<path d="M153.554 8.31396H149.696V15.8541H153.554V8.31396Z" stroke="black" stroke-opacity="0.33" stroke-miterlimit="10"/>
<path d="M125.764 21.0543H121.906V28.5945H125.764V21.0543Z" stroke="black" stroke-opacity="0.33" stroke-miterlimit="10"/>
<path d="M132.71 21.0543H128.852V28.5945H132.71V21.0543Z" stroke="black" stroke-opacity="0.33" stroke-miterlimit="10"/>
<path d="M139.656 21.0543H135.798V28.5945H139.656V21.0543Z" stroke="black" stroke-opacity="0.33" stroke-miterlimit="10"/>
<path d="M146.608 21.0543H142.75V28.5945H146.608V21.0543Z" stroke="black" stroke-opacity="0.33" stroke-miterlimit="10"/>
<path d="M153.554 21.0543H149.696V28.5945H153.554V21.0543Z" stroke="black" stroke-opacity="0.33" stroke-miterlimit="10"/>
<path d="M125.764 33.8008H121.906V41.3409H125.764V33.8008Z" stroke="black" stroke-opacity="0.33" stroke-miterlimit="10"/>
<path d="M132.71 33.8008H128.852V41.3409H132.71V33.8008Z" stroke="black" stroke-opacity="0.33" stroke-miterlimit="10"/>
<path d="M139.656 33.8008H135.798V41.3409H139.656V33.8008Z" stroke="black" stroke-opacity="0.33" stroke-miterlimit="10"/>
<path d="M146.608 33.8008H142.75V41.3409H146.608V33.8008Z" stroke="black" stroke-opacity="0.33" stroke-miterlimit="10"/>
<path d="M153.554 33.8008H149.696V41.3409H153.554V33.8008Z" stroke="black" stroke-opacity="0.33" stroke-miterlimit="10"/>
<path d="M125.764 46.541H121.906V54.0812H125.764V46.541Z" stroke="black" stroke-opacity="0.33" stroke-miterlimit="10"/>
<path d="M132.71 46.541H128.852V54.0812H132.71V46.541Z" stroke="black" stroke-opacity="0.33" stroke-miterlimit="10"/>
<path d="M139.656 46.541H135.798V54.0812H139.656V46.541Z" stroke="black" stroke-opacity="0.33" stroke-miterlimit="10"/>
<path d="M146.608 46.541H142.75V54.0812H146.608V46.541Z" stroke="black" stroke-opacity="0.33" stroke-miterlimit="10"/>
<path d="M153.554 46.541H149.696V54.0812H153.554V46.541Z" stroke="black" stroke-opacity="0.33" stroke-miterlimit="10"/>
<path d="M125.764 59.2875H121.906V66.8276H125.764V59.2875Z" stroke="black" stroke-opacity="0.33" stroke-miterlimit="10"/>
<path d="M132.71 59.2875H128.852V66.8276H132.71V59.2875Z" stroke="black" stroke-opacity="0.33" stroke-miterlimit="10"/>
<path d="M139.656 59.2875H135.798V66.8276H139.656V59.2875Z" stroke="black" stroke-opacity="0.33" stroke-miterlimit="10"/>
<path d="M146.608 59.2875H142.75V66.8276H146.608V59.2875Z" stroke="black" stroke-opacity="0.33" stroke-miterlimit="10"/>
<path d="M153.554 59.2875H149.696V66.8276H153.554V59.2875Z" stroke="black" stroke-opacity="0.33" stroke-miterlimit="10"/>
<path d="M125.764 72.0277H121.906V79.5679H125.764V72.0277Z" stroke="black" stroke-opacity="0.33" stroke-miterlimit="10"/>
<path d="M132.71 72.0277H128.852V79.5679H132.71V72.0277Z" stroke="black" stroke-opacity="0.33" stroke-miterlimit="10"/>
<path d="M139.656 72.0277H135.798V79.5679H139.656V72.0277Z" stroke="black" stroke-opacity="0.33" stroke-miterlimit="10"/>
<path d="M146.608 72.0277H142.75V79.5679H146.608V72.0277Z" stroke="black" stroke-opacity="0.33" stroke-miterlimit="10"/>
<path d="M153.554 72.0277H149.696V79.5679H153.554V72.0277Z" stroke="black" stroke-opacity="0.33" stroke-miterlimit="10"/>
<path d="M102.08 72.0277H98.2223V79.5679H102.08V72.0277Z" stroke="black" stroke-opacity="0.33" stroke-miterlimit="10"/>
<path d="M109.032 72.0277H105.174V79.5679H109.032V72.0277Z" stroke="black" stroke-opacity="0.33" stroke-miterlimit="10"/>
<path d="M115.978 72.0277H112.12V79.5679H115.978V72.0277Z" stroke="black" stroke-opacity="0.33" stroke-miterlimit="10"/>
<path d="M102.08 84.4152H98.2223V91.9553H102.08V84.4152Z" stroke="black" stroke-opacity="0.33" stroke-miterlimit="10"/>
<path d="M109.032 84.4152H105.174V91.9553H109.032V84.4152Z" stroke="black" stroke-opacity="0.33" stroke-miterlimit="10"/>
<path d="M115.978 84.4152H112.12V91.9553H115.978V84.4152Z" stroke="black" stroke-opacity="0.33" stroke-miterlimit="10"/>
<path d="M102.08 96.7964H98.2223V104.337H102.08V96.7964Z" stroke="black" stroke-opacity="0.33" stroke-miterlimit="10"/>
<path d="M109.032 96.7964H105.174V104.337H109.032V96.7964Z" stroke="black" stroke-opacity="0.33" stroke-miterlimit="10"/>
<path d="M115.978 96.7964H112.12V104.337H115.978V96.7964Z" stroke="black" stroke-opacity="0.33" stroke-miterlimit="10"/>
<path d="M102.08 109.184H98.2223V116.724H102.08V109.184Z" stroke="black" stroke-opacity="0.33" stroke-miterlimit="10"/>
<path d="M109.032 109.184H105.174V116.724H109.032V109.184Z" stroke="black" stroke-opacity="0.33" stroke-miterlimit="10"/>
<path d="M115.978 109.184H112.12V116.724H115.978V109.184Z" stroke="black" stroke-opacity="0.33" stroke-miterlimit="10"/>
<path d="M102.08 121.565H98.2223V129.105H102.08V121.565Z" stroke="black" stroke-opacity="0.33" stroke-miterlimit="10"/>
<path d="M109.032 121.565H105.174V129.105H109.032V121.565Z" stroke="black" stroke-opacity="0.33" stroke-miterlimit="10"/>
<path d="M115.978 121.565H112.12V129.105H115.978V121.565Z" stroke="black" stroke-opacity="0.33" stroke-miterlimit="10"/>
<path d="M102.08 133.952H98.2223V141.493H102.08V133.952Z" stroke="black" stroke-opacity="0.33" stroke-miterlimit="10"/>
<path d="M109.032 133.952H105.174V141.493H109.032V133.952Z" stroke="black" stroke-opacity="0.33" stroke-miterlimit="10"/>
<path d="M115.978 133.952H112.12V141.493H115.978V133.952Z" stroke="black" stroke-opacity="0.33" stroke-miterlimit="10"/>
<path d="M102.08 146.333H98.2223V153.874H102.08V146.333Z" stroke="black" stroke-opacity="0.33" stroke-miterlimit="10"/>
<path d="M109.032 146.333H105.174V153.874H109.032V146.333Z" stroke="black" stroke-opacity="0.33" stroke-miterlimit="10"/>
<path d="M115.978 146.333H112.12V153.874H115.978V146.333Z" stroke="black" stroke-opacity="0.33" stroke-miterlimit="10"/>
<path d="M102.08 158.721H98.2223V166.261H102.08V158.721Z" stroke="black" stroke-opacity="0.33" stroke-miterlimit="10"/>
<path d="M109.032 158.721H105.174V166.261H109.032V158.721Z" stroke="black" stroke-opacity="0.33" stroke-miterlimit="10"/>
<path d="M115.978 158.721H112.12V166.261H115.978V158.721Z" stroke="black" stroke-opacity="0.33" stroke-miterlimit="10"/>
<path d="M102.08 171.102H98.2223V178.642H102.08V171.102Z" stroke="black" stroke-opacity="0.33" stroke-miterlimit="10"/>
<path d="M109.032 171.102H105.174V178.642H109.032V171.102Z" stroke="black" stroke-opacity="0.33" stroke-miterlimit="10"/>
<path d="M115.978 171.102H112.12V178.642H115.978V171.102Z" stroke="black" stroke-opacity="0.33" stroke-miterlimit="10"/>
<path d="M102.08 183.49H98.2223V191.03H102.08V183.49Z" stroke="black" stroke-opacity="0.33" stroke-miterlimit="10"/>
<path d="M109.032 183.49H105.174V191.03H109.032V183.49Z" stroke="black" stroke-opacity="0.33" stroke-miterlimit="10"/>
<path d="M115.978 183.49H112.12V191.03H115.978V183.49Z" stroke="black" stroke-opacity="0.33" stroke-miterlimit="10"/>
<path d="M102.08 195.871H98.2223V203.411H102.08V195.871Z" stroke="black" stroke-opacity="0.33" stroke-miterlimit="10"/>
<path d="M109.032 195.871H105.174V203.411H109.032V195.871Z" stroke="black" stroke-opacity="0.33" stroke-miterlimit="10"/>
<path d="M115.978 195.871H112.12V203.411H115.978V195.871Z" stroke="black" stroke-opacity="0.33" stroke-miterlimit="10"/>
<path d="M164.022 123.001H160.165V130.541H164.022V123.001Z" stroke="black" stroke-opacity="0.33" stroke-miterlimit="10"/>
<path d="M170.968 123.001H167.111V130.541H170.968V123.001Z" stroke="black" stroke-opacity="0.33" stroke-miterlimit="10"/>
<path d="M164.022 135.389H160.165V142.929H164.022V135.389Z" stroke="black" stroke-opacity="0.33" stroke-miterlimit="10"/>
<path d="M170.968 135.389H167.111V142.929H170.968V135.389Z" stroke="black" stroke-opacity="0.33" stroke-miterlimit="10"/>
<path d="M164.022 147.77H160.165V155.31H164.022V147.77Z" stroke="black" stroke-opacity="0.33" stroke-miterlimit="10"/>
<path d="M170.968 147.77H167.111V155.31H170.968V147.77Z" stroke="black" stroke-opacity="0.33" stroke-miterlimit="10"/>
<path d="M164.022 160.157H160.165V167.697H164.022V160.157Z" stroke="black" stroke-opacity="0.33" stroke-miterlimit="10"/>
<path d="M170.968 160.157H167.111V167.697H170.968V160.157Z" stroke="black" stroke-opacity="0.33" stroke-miterlimit="10"/>
<path d="M164.022 172.538H160.165V180.079H164.022V172.538Z" stroke="black" stroke-opacity="0.33" stroke-miterlimit="10"/>
<path d="M170.968 172.538H167.111V180.079H170.968V172.538Z" stroke="black" stroke-opacity="0.33" stroke-miterlimit="10"/>
<path d="M164.022 184.926H160.165V192.466H164.022V184.926Z" stroke="black" stroke-opacity="0.33" stroke-miterlimit="10"/>
<path d="M170.968 184.926H167.111V192.466H170.968V184.926Z" stroke="black" stroke-opacity="0.33" stroke-miterlimit="10"/>
<path d="M164.022 197.307H160.165V204.847H164.022V197.307Z" stroke="black" stroke-opacity="0.33" stroke-miterlimit="10"/>
<path d="M170.968 197.307H167.111V204.847H170.968V197.307Z" stroke="black" stroke-opacity="0.33" stroke-miterlimit="10"/>
<path d="M125.764 84.7742H121.906V92.3143H125.764V84.7742Z" stroke="black" stroke-opacity="0.33" stroke-miterlimit="10"/>
<path d="M132.71 84.7742H128.852V92.3143H132.71V84.7742Z" stroke="black" stroke-opacity="0.33" stroke-miterlimit="10"/>
<path d="M139.656 84.7742H135.798V92.3143H139.656V84.7742Z" stroke="black" stroke-opacity="0.33" stroke-miterlimit="10"/>
<path d="M146.608 84.7742H142.75V92.3143H146.608V84.7742Z" stroke="black" stroke-opacity="0.33" stroke-miterlimit="10"/>
<path d="M153.554 84.7742H149.696V92.3143H153.554V84.7742Z" stroke="black" stroke-opacity="0.33" stroke-miterlimit="10"/>
<path d="M125.764 97.5144H121.906V105.055H125.764V97.5144Z" stroke="black" stroke-opacity="0.33" stroke-miterlimit="10"/>
<path d="M132.71 97.5144H128.852V105.055H132.71V97.5144Z" stroke="black" stroke-opacity="0.33" stroke-miterlimit="10"/>
<path d="M139.656 97.5144H135.798V105.055H139.656V97.5144Z" stroke="black" stroke-opacity="0.33" stroke-miterlimit="10"/>
<path d="M146.608 97.5144H142.75V105.055H146.608V97.5144Z" stroke="black" stroke-opacity="0.33" stroke-miterlimit="10"/>
<path d="M153.554 97.5144H149.696V105.055H153.554V97.5144Z" stroke="black" stroke-opacity="0.33" stroke-miterlimit="10"/>
<path d="M125.764 110.261H121.906V117.801H125.764V110.261Z" stroke="black" stroke-opacity="0.33" stroke-miterlimit="10"/>
<path d="M132.71 110.261H128.852V117.801H132.71V110.261Z" stroke="black" stroke-opacity="0.33" stroke-miterlimit="10"/>
<path d="M139.656 110.261H135.798V117.801H139.656V110.261Z" stroke="black" stroke-opacity="0.33" stroke-miterlimit="10"/>
<path d="M146.608 110.261H142.75V117.801H146.608V110.261Z" stroke="black" stroke-opacity="0.33" stroke-miterlimit="10"/>
<path d="M153.554 110.261H149.696V117.801H153.554V110.261Z" stroke="black" stroke-opacity="0.33" stroke-miterlimit="10"/>
<path d="M125.764 123.001H121.906V130.541H125.764V123.001Z" stroke="black" stroke-opacity="0.33" stroke-miterlimit="10"/>
<path d="M132.71 123.001H128.852V130.541H132.71V123.001Z" stroke="black" stroke-opacity="0.33" stroke-miterlimit="10"/>
<path d="M139.656 123.001H135.798V130.541H139.656V123.001Z" stroke="black" stroke-opacity="0.33" stroke-miterlimit="10"/>
<path d="M146.608 123.001H142.75V130.541H146.608V123.001Z" stroke="black" stroke-opacity="0.33" stroke-miterlimit="10"/>
<path d="M153.554 123.001H149.696V130.541H153.554V123.001Z" stroke="black" stroke-opacity="0.33" stroke-miterlimit="10"/>
<path d="M125.764 135.748H121.906V143.288H125.764V135.748Z" stroke="black" stroke-opacity="0.33" stroke-miterlimit="10"/>
<path d="M132.71 135.748H128.852V143.288H132.71V135.748Z" stroke="black" stroke-opacity="0.33" stroke-miterlimit="10"/>
<path d="M139.656 135.748H135.798V143.288H139.656V135.748Z" stroke="black" stroke-opacity="0.33" stroke-miterlimit="10"/>
<path d="M146.608 135.748H142.75V143.288H146.608V135.748Z" stroke="black" stroke-opacity="0.33" stroke-miterlimit="10"/>
<path d="M153.554 135.748H149.696V143.288H153.554V135.748Z" stroke="black" stroke-opacity="0.33" stroke-miterlimit="10"/>
<path d="M125.764 148.488H121.906V156.028H125.764V148.488Z" stroke="black" stroke-opacity="0.33" stroke-miterlimit="10"/>
<path d="M132.71 148.488H128.852V156.028H132.71V148.488Z" stroke="black" stroke-opacity="0.33" stroke-miterlimit="10"/>
<path d="M139.656 148.488H135.798V156.028H139.656V148.488Z" stroke="black" stroke-opacity="0.33" stroke-miterlimit="10"/>
<path d="M146.608 148.488H142.75V156.028H146.608V148.488Z" stroke="black" stroke-opacity="0.33" stroke-miterlimit="10"/>
<path d="M153.554 148.488H149.696V156.028H153.554V148.488Z" stroke="black" stroke-opacity="0.33" stroke-miterlimit="10"/>
<path d="M125.764 161.234H121.906V168.775H125.764V161.234Z" stroke="black" stroke-opacity="0.33" stroke-miterlimit="10"/>
<path d="M132.71 161.234H128.852V168.775H132.71V161.234Z" stroke="black" stroke-opacity="0.33" stroke-miterlimit="10"/>
<path d="M139.656 161.234H135.798V168.775H139.656V161.234Z" stroke="black" stroke-opacity="0.33" stroke-miterlimit="10"/>
<path d="M146.608 161.234H142.75V168.775H146.608V161.234Z" stroke="black" stroke-opacity="0.33" stroke-miterlimit="10"/>
<path d="M153.554 161.234H149.696V168.775H153.554V161.234Z" stroke="black" stroke-opacity="0.33" stroke-miterlimit="10"/>
<path d="M125.764 173.975H121.906V181.515H125.764V173.975Z" stroke="black" stroke-opacity="0.33" stroke-miterlimit="10"/>
<path d="M132.71 173.975H128.852V181.515H132.71V173.975Z" stroke="black" stroke-opacity="0.33" stroke-miterlimit="10"/>
<path d="M139.656 173.975H135.798V181.515H139.656V173.975Z" stroke="black" stroke-opacity="0.33" stroke-miterlimit="10"/>
<path d="M146.608 173.975H142.75V181.515H146.608V173.975Z" stroke="black" stroke-opacity="0.33" stroke-miterlimit="10"/>
<path d="M153.554 173.975H149.696V181.515H153.554V173.975Z" stroke="black" stroke-opacity="0.33" stroke-miterlimit="10"/>
<path d="M125.764 186.721H121.906V194.261H125.764V186.721Z" stroke="black" stroke-opacity="0.33" stroke-miterlimit="10"/>
<path d="M132.71 186.721H128.852V194.261H132.71V186.721Z" stroke="black" stroke-opacity="0.33" stroke-miterlimit="10"/>
<path d="M139.656 186.721H135.798V194.261H139.656V186.721Z" stroke="black" stroke-opacity="0.33" stroke-miterlimit="10"/>
<path d="M146.608 186.721H142.75V194.261H146.608V186.721Z" stroke="black" stroke-opacity="0.33" stroke-miterlimit="10"/>
<path d="M153.554 186.721H149.696V194.261H153.554V186.721Z" stroke="black" stroke-opacity="0.33" stroke-miterlimit="10"/>
<path d="M125.764 199.82H121.906V207.361H125.764V199.82Z" stroke="black" stroke-opacity="0.33" stroke-miterlimit="10"/>
<path d="M132.71 199.82H128.852V207.361H132.71V199.82Z" stroke="black" stroke-opacity="0.33" stroke-miterlimit="10"/>
<path d="M139.656 199.82H135.798V207.361H139.656V199.82Z" stroke="black" stroke-opacity="0.33" stroke-miterlimit="10"/>
<path d="M146.608 199.82H142.75V207.361H146.608V199.82Z" stroke="black" stroke-opacity="0.33" stroke-miterlimit="10"/>
<path d="M153.554 199.82H149.696V207.361H153.554V199.82Z" stroke="black" stroke-opacity="0.33" stroke-miterlimit="10"/>
<path d="M119.004 66.4624V220.101" stroke="black" stroke-opacity="0.33" stroke-miterlimit="10"/>
<path d="M178.007 73.6434V217.946" stroke="black" stroke-opacity="0.33" stroke-miterlimit="10"/>
<path d="M185.561 73.6434V217.946" stroke="black" stroke-opacity="0.33" stroke-miterlimit="10"/>
<path d="M193.108 73.6434V217.946" stroke="black" stroke-opacity="0.33" stroke-miterlimit="10"/>
<path d="M200.662 73.6434V217.946" stroke="black" stroke-opacity="0.33" stroke-miterlimit="10"/>
<path d="M208.215 87.9995V217.947" stroke="black" stroke-opacity="0.33" stroke-miterlimit="10"/>
<path d="M215.763 87.9995V217.947" stroke="black" stroke-opacity="0.33" stroke-miterlimit="10"/>
<path d="M223.316 87.9995V217.947" stroke="black" stroke-opacity="0.33" stroke-miterlimit="10"/>
<path d="M21.5757 39.1804H68.6837" stroke="black" stroke-opacity="0.33" stroke-miterlimit="10"/>
<path d="M21.5757 48.5159H68.6837" stroke="black" stroke-opacity="0.33" stroke-miterlimit="10"/>
<path d="M21.5757 57.8512H68.6837" stroke="black" stroke-opacity="0.33" stroke-miterlimit="10"/>
<path d="M21.5757 67.1805H68.6837" stroke="black" stroke-opacity="0.33" stroke-miterlimit="10"/>
<path d="M21.5757 76.5159H68.6837" stroke="black" stroke-opacity="0.33" stroke-miterlimit="10"/>
<path d="M21.5757 85.8513H68.6837" stroke="black" stroke-opacity="0.33" stroke-miterlimit="10"/>
<path d="M21.5757 95.1807H68.6837" stroke="black" stroke-opacity="0.33" stroke-miterlimit="10"/>
<path d="M21.5757 104.516H68.6837" stroke="black" stroke-opacity="0.33" stroke-miterlimit="10"/>
<path d="M21.5757 113.845H68.6837" stroke="black" stroke-opacity="0.33" stroke-miterlimit="10"/>
<path d="M21.5757 123.181H68.6837" stroke="black" stroke-opacity="0.33" stroke-miterlimit="10"/>
<path d="M21.5757 132.516H68.6837" stroke="black" stroke-opacity="0.33" stroke-miterlimit="10"/>
<path d="M21.5757 141.845H68.6837" stroke="black" stroke-opacity="0.33" stroke-miterlimit="10"/>
<path d="M21.5757 151.181H68.6837" stroke="black" stroke-opacity="0.33" stroke-miterlimit="10"/>
<path d="M21.5757 160.516H68.6837" stroke="black" stroke-opacity="0.33" stroke-miterlimit="10"/>
<path d="M21.5757 169.845H68.6837" stroke="black" stroke-opacity="0.33" stroke-miterlimit="10"/>
<path d="M21.5757 179.181H68.6837" stroke="black" stroke-opacity="0.33" stroke-miterlimit="10"/>
<path d="M21.5757 188.516H68.6837" stroke="black" stroke-opacity="0.33" stroke-miterlimit="10"/>
<path d="M21.5757 197.846H68.6837" stroke="black" stroke-opacity="0.33" stroke-miterlimit="10"/>
<path d="M21.5757 207.181H68.6837" stroke="black" stroke-opacity="0.33" stroke-miterlimit="10"/>
<path d="M21.5757 216.51H68.6837" stroke="black" stroke-opacity="0.33" stroke-miterlimit="10"/>
<path d="M21.5757 225.846H68.6837" stroke="black" stroke-opacity="0.33" stroke-miterlimit="10"/>
<path d="M27.6904 25.1835V228" stroke="black" stroke-opacity="0.33" stroke-miterlimit="10"/>
<path d="M351.338 65.0261H361.769V70.0529H351.338" stroke="black" stroke-opacity="0.33" stroke-miterlimit="10"/>
<path d="M412.114 121.385H400.244V126.412H412.114" stroke="black" stroke-opacity="0.33" stroke-miterlimit="10"/>
<path d="M412.114 133.234H400.244V138.261H412.114" stroke="black" stroke-opacity="0.33" stroke-miterlimit="10"/>
<path d="M412.114 145.077H400.244V150.104H412.114" stroke="black" stroke-opacity="0.33" stroke-miterlimit="10"/>
<path d="M412.114 156.926H400.244V161.952H412.114" stroke="black" stroke-opacity="0.33" stroke-miterlimit="10"/>
<path d="M412.114 168.768H400.244V173.795H412.114" stroke="black" stroke-opacity="0.33" stroke-miterlimit="10"/>
<path d="M412.114 180.617H400.244V185.644H412.114" stroke="black" stroke-opacity="0.33" stroke-miterlimit="10"/>
<path d="M412.114 192.46H400.244V197.487H412.114" stroke="black" stroke-opacity="0.33" stroke-miterlimit="10"/>
<path d="M412.114 204.309H400.244V209.335H412.114" stroke="black" stroke-opacity="0.33" stroke-miterlimit="10"/>
<path d="M351.338 78.6703H361.769V83.6971H351.338" stroke="black" stroke-opacity="0.33" stroke-miterlimit="10"/>
<path d="M351.338 92.3081H361.769V97.3349H351.338" stroke="black" stroke-opacity="0.33" stroke-miterlimit="10"/>
<path d="M351.338 105.952H361.769V110.979H351.338" stroke="black" stroke-opacity="0.33" stroke-miterlimit="10"/>
<path d="M351.338 119.59H361.769V124.617H351.338" stroke="black" stroke-opacity="0.33" stroke-miterlimit="10"/>
<path d="M351.338 133.234H361.769V138.261H351.338" stroke="black" stroke-opacity="0.33" stroke-miterlimit="10"/>
<path d="M351.338 146.872H361.769V151.899H351.338" stroke="black" stroke-opacity="0.33" stroke-miterlimit="10"/>
<path d="M351.338 160.516H361.769V165.537H351.338" stroke="black" stroke-opacity="0.33" stroke-miterlimit="10"/>
<path d="M351.338 174.154H361.769V179.181H351.338" stroke="black" stroke-opacity="0.33" stroke-miterlimit="10"/>
<path d="M351.338 187.798H361.769V192.819H351.338" stroke="black" stroke-opacity="0.33" stroke-miterlimit="10"/>
<path d="M334.798 97.694H289.488V102.003H334.798V97.694Z" stroke="black" stroke-opacity="0.33" stroke-miterlimit="10"/>
<path d="M334.798 105.234H289.488V109.543H334.798V105.234Z" stroke="black" stroke-opacity="0.33" stroke-miterlimit="10"/>
<path d="M334.798 112.774H289.488V117.083H334.798V112.774Z" stroke="black" stroke-opacity="0.33" stroke-miterlimit="10"/>
<path d="M334.798 120.308H289.488V124.617H334.798V120.308Z" stroke="black" stroke-opacity="0.33" stroke-miterlimit="10"/>
<path d="M334.798 127.848H289.488V132.157H334.798V127.848Z" stroke="black" stroke-opacity="0.33" stroke-miterlimit="10"/>
<path d="M334.798 135.389H289.488V139.697H334.798V135.389Z" stroke="black" stroke-opacity="0.33" stroke-miterlimit="10"/>
<path d="M334.798 142.923H289.488V147.231H334.798V142.923Z" stroke="black" stroke-opacity="0.33" stroke-miterlimit="10"/>
<path d="M334.798 150.463H289.488V154.771H334.798V150.463Z" stroke="black" stroke-opacity="0.33" stroke-miterlimit="10"/>
<path d="M334.798 158.003H289.488V162.312H334.798V158.003Z" stroke="black" stroke-opacity="0.33" stroke-miterlimit="10"/>
<path d="M334.798 165.537H289.488V169.846H334.798V165.537Z" stroke="black" stroke-opacity="0.33" stroke-miterlimit="10"/>
<path d="M334.798 173.077H289.488V177.386H334.798V173.077Z" stroke="black" stroke-opacity="0.33" stroke-miterlimit="10"/>
<path d="M334.798 180.617H289.488V184.926H334.798V180.617Z" stroke="black" stroke-opacity="0.33" stroke-miterlimit="10"/>
<path d="M334.798 188.157H289.488V192.466H334.798V188.157Z" stroke="black" stroke-opacity="0.33" stroke-miterlimit="10"/>
<path d="M334.798 195.691H289.488V200H334.798V195.691Z" stroke="black" stroke-opacity="0.33" stroke-miterlimit="10"/>
<path d="M334.798 203.231H289.488V207.54H334.798V203.231Z" stroke="black" stroke-opacity="0.33" stroke-miterlimit="10"/>
<path d="M334.798 210.771H289.488V215.08H334.798V210.771Z" stroke="black" stroke-opacity="0.33" stroke-miterlimit="10"/>
<path d="M334.798 218.306H289.488V222.614H334.798V218.306Z" stroke="black" stroke-opacity="0.33" stroke-miterlimit="10"/>
<path d="M368.237 53.1836V219.742" stroke="black" stroke-opacity="0.33" stroke-miterlimit="10"/>
<path d="M377.589 21.5929V219.742" stroke="black" stroke-opacity="0.33" stroke-miterlimit="10"/>
<path d="M270.065 181.694H247.41V193.543H270.065V181.694Z" stroke="black" stroke-opacity="0.33" stroke-miterlimit="10"/>
<path d="M264.675 160.875H252.805V181.694H264.675V160.875Z" stroke="black" stroke-opacity="0.33" stroke-miterlimit="10"/>
<path d="M157.393 116.972V219.816" stroke="black" stroke-opacity="0.33" stroke-miterlimit="10"/>
<path d="M287.516 105.698H232.507" stroke="black" stroke-opacity="0.33" stroke-miterlimit="10"/>
<path d="M287.516 111.833H232.507" stroke="black" stroke-opacity="0.33" stroke-miterlimit="10"/>
<path d="M243.354 116.439H234.963V122.574H243.354V116.439Z" stroke="black" stroke-opacity="0.33" stroke-miterlimit="10"/>
<path d="M253.705 116.439H245.314V122.574H253.705V116.439Z" stroke="black" stroke-opacity="0.33" stroke-miterlimit="10"/>
<path d="M264.055 116.439H255.664V122.574H264.055V116.439Z" stroke="black" stroke-opacity="0.33" stroke-miterlimit="10"/>
<path d="M274.4 116.439H266.009V122.574H274.4V116.439Z" stroke="black" stroke-opacity="0.33" stroke-miterlimit="10"/>
<path d="M284.75 116.439H276.359V122.574H284.75V116.439Z" stroke="black" stroke-opacity="0.33" stroke-miterlimit="10"/>
<path d="M243.354 125.948H234.963V132.083H243.354V125.948Z" stroke="black" stroke-opacity="0.33" stroke-miterlimit="10"/>
<path d="M253.705 125.948H245.314V132.083H253.705V125.948Z" stroke="black" stroke-opacity="0.33" stroke-miterlimit="10"/>
<path d="M264.055 125.948H255.664V132.083H264.055V125.948Z" stroke="black" stroke-opacity="0.33" stroke-miterlimit="10"/>
<path d="M274.4 125.948H266.009V132.083H274.4V125.948Z" stroke="black" stroke-opacity="0.33" stroke-miterlimit="10"/>
<path d="M284.75 125.948H276.359V132.083H284.75V125.948Z" stroke="black" stroke-opacity="0.33" stroke-miterlimit="10"/>
<path d="M243.354 135.457H234.963V141.592H243.354V135.457Z" stroke="black" stroke-opacity="0.33" stroke-miterlimit="10"/>
<path d="M253.705 135.457H245.314V141.592H253.705V135.457Z" stroke="black" stroke-opacity="0.33" stroke-miterlimit="10"/>
<path d="M264.055 135.457H255.664V141.592H264.055V135.457Z" stroke="black" stroke-opacity="0.33" stroke-miterlimit="10"/>
<path d="M274.4 135.457H266.009V141.592H274.4V135.457Z" stroke="black" stroke-opacity="0.33" stroke-miterlimit="10"/>
<path d="M284.75 135.457H276.359V141.592H284.75V135.457Z" stroke="black" stroke-opacity="0.33" stroke-miterlimit="10"/>
<path d="M243.354 152.636H234.963V158.771H243.354V152.636Z" stroke="black" stroke-opacity="0.33" stroke-miterlimit="10"/>
<path d="M253.705 152.636H245.314V158.771H253.705V152.636Z" stroke="black" stroke-opacity="0.33" stroke-miterlimit="10"/>
<path d="M264.055 152.636H255.664V158.771H264.055V152.636Z" stroke="black" stroke-opacity="0.33" stroke-miterlimit="10"/>
<path d="M274.4 152.636H266.009V158.771H274.4V152.636Z" stroke="black" stroke-opacity="0.33" stroke-miterlimit="10"/>
<path d="M284.75 152.636H276.359V158.771H284.75V152.636Z" stroke="black" stroke-opacity="0.33" stroke-miterlimit="10"/>
</g>
</g>
<g clip-path="url(#clip1_268_895)">
<g clip-path="url(#clip2_268_895)">
<path d="M294.644 219.362C294.644 225 291.438 225.994 287.477 225.994H285.509C281.548 225.994 278.342 224.994 278.342 219.362V197.021C278.342 191.384 281.548 186.818 285.509 186.818H287.477C291.438 186.818 294.644 191.384 294.644 197.021V219.362Z" fill="#2F2F2F"/>
<path d="M373.196 219.362C373.196 225 369.989 225.994 366.029 225.994H364.06C360.1 225.994 356.893 224.994 356.893 219.362V197.021C356.893 191.384 360.1 186.818 364.06 186.818H366.029C369.989 186.818 373.196 191.384 373.196 197.021V219.362Z" fill="#2F2F2F"/>
<path d="M370.001 189.366H282.224V218.196H370.001V189.366Z" fill="#2F2F2F"/>
<path d="M291.198 211.07C291.198 212.975 289.649 214.517 287.734 214.517C285.82 214.517 284.27 212.975 284.27 211.07C284.27 209.165 285.82 207.623 287.734 207.623C289.649 207.623 291.198 209.165 291.198 211.07Z" fill="white" stroke="#1A2E35" stroke-linecap="round" stroke-linejoin="round"/>
<path d="M291.456 195.682C291.456 197.021 290.367 198.105 289.021 198.105C287.675 198.105 286.586 197.021 286.586 195.682C286.586 194.342 287.675 193.259 289.021 193.259C290.367 193.259 291.456 194.342 291.456 195.682Z" fill="white"/>
<path d="M365.048 195.682C365.048 197.021 363.959 198.105 362.613 198.105C361.267 198.105 360.178 197.021 360.178 195.682C360.178 194.342 361.267 193.259 362.613 193.259C363.959 193.259 365.048 194.342 365.048 195.682Z" fill="white"/>
<path d="M367.1 210.903C367.1 212.808 365.55 214.35 363.636 214.35C361.721 214.35 360.172 212.808 360.172 210.903C360.172 208.998 361.721 207.457 363.636 207.457C365.55 207.457 367.1 208.998 367.1 210.903Z" fill="white" stroke="#1A2E35" stroke-linecap="round" stroke-linejoin="round"/>
<path d="M377.677 177.906C377.677 173.84 373.405 174.4 373.405 174.4H370.671C366.585 174.4 365.891 177.876 365.885 177.906C364.778 174.721 360.244 162.292 356.229 159.774C351.617 156.88 325.802 156.714 325.802 156.714C325.802 156.714 299.987 156.886 295.374 159.774C291.354 162.292 286.825 174.727 285.718 177.906H283.409C283.409 177.906 282.727 174.4 278.623 174.4H275.889C275.889 174.4 271.617 173.84 271.617 177.906C271.617 177.906 270.678 181.716 273.926 181.716H281.782C279.664 183.859 277.773 186.83 277.773 191.58V210.63C277.773 210.63 275.979 222.023 292.987 222.023H358.628C375.637 222.023 373.842 210.63 373.842 210.63V191.58C373.842 186.824 371.952 183.859 369.834 181.716H375.38C378.096 181.716 377.689 177.906 377.689 177.906H377.677ZM367.064 192.175C367.064 192.175 367.836 198.807 361.937 199.64C356.038 200.468 350.271 200.855 350.271 200.855C350.271 200.855 350.785 195.241 354.823 193.836C358.862 192.431 367.07 192.175 367.07 192.175H367.064ZM292.634 174.019L294.794 168.28C296.954 162.542 299.873 162.155 305.078 161.518C310.283 160.881 325.939 160.625 325.939 160.625C325.939 160.625 341.59 160.881 346.801 161.518C352.006 162.155 354.931 162.536 357.085 168.28L359.244 174.019C359.244 174.019 361.147 179.252 354.925 179.252H296.954C290.732 179.252 292.634 174.019 292.634 174.019ZM284.534 192.175C284.534 192.175 292.736 192.431 296.78 193.836C300.818 195.241 301.333 200.855 301.333 200.855C301.333 200.855 295.566 200.474 289.667 199.64C283.768 198.807 284.54 192.175 284.54 192.175H284.534ZM300.627 216.713H289.451C289.451 216.713 282.847 217.499 282.847 209.993H304.641C304.641 209.993 303.959 216.713 300.627 216.713ZM341.099 211.826C341.099 211.826 340.501 214.975 335.715 214.975H315.883C311.096 214.975 310.498 211.826 310.498 211.826C310.498 211.826 310.289 211.272 309.972 210.38H341.62C341.303 211.272 341.093 211.826 341.093 211.826H341.099ZM343.702 203.575H307.896C306.986 199.92 306.49 196.241 307.848 195.325C310.755 193.366 325.796 193.539 325.796 193.539C325.796 193.539 340.836 193.366 343.744 195.325C345.108 196.241 344.611 199.92 343.696 203.575H343.702ZM364.731 216.713H353.555C353.555 216.713 346.95 217.499 346.95 209.993H368.745C368.745 209.993 368.063 216.713 364.731 216.713Z" fill="#F66F6F" stroke="#1A2E35" stroke-miterlimit="10"/>
<path d="M373.83 210.63C373.83 210.63 370.282 219.363 356.953 219.363H294.644C281.315 219.363 277.767 210.63 277.767 210.63C277.767 210.63 275.972 222.024 292.981 222.024H358.616C375.625 222.024 373.83 210.63 373.83 210.63Z" fill="#BDBDBD" stroke="#1A2E35" stroke-linecap="round" stroke-linejoin="round"/>
<path d="M363.384 180.21C362.834 178.406 362.314 176.561 362.236 175.817C362.2 177.228 361.32 179.013 357.097 179.013H294.967C290.744 179.013 289.864 177.228 289.828 175.817C289.744 176.561 289.224 178.412 288.68 180.21C288.129 182.026 288.889 183.966 290.558 184.978C295.942 188.247 306.274 194.473 307.184 193.967C309.9 192.449 322.08 192.306 326.041 192.3C329.995 192.3 342.176 192.443 344.898 193.967C345.802 194.473 356.133 188.247 361.524 184.978C363.193 183.966 363.953 182.026 363.402 180.21H363.384Z" fill="#F66F6F" stroke="#1A2E35" stroke-miterlimit="10"/>
<path d="M325.939 179.204H357.18C363.887 179.204 361.835 173.567 361.835 173.567L359.508 167.381C357.18 161.196 354.034 160.78 348.422 160.095C342.81 159.41 325.945 159.131 325.945 159.131C325.945 159.131 309.074 159.404 303.469 160.095C297.857 160.78 294.71 161.196 292.383 167.381L290.056 173.567C290.056 173.567 288.003 179.204 294.71 179.204H325.951H325.939Z" fill="#2F2F2F"/>
<path d="M321.171 160.416C316.858 160.512 307.417 160.756 303.672 161.214C298.754 161.815 295.99 162.179 293.95 167.602L291.91 173.025C291.91 173.025 290.109 177.966 295.99 177.966H330.666L321.165 160.411L321.171 160.416Z" fill="white"/>
<path d="M328.356 160.393C327.297 160.416 325.921 160.446 324.402 160.488L333.848 177.942H337.857L328.356 160.387V160.393Z" fill="white"/>
<path d="M193.867 222.458C193.867 224.369 192.072 225.917 189.853 225.917H184.235C182.021 225.917 180.221 224.369 180.221 222.458V200.599C180.221 198.688 182.015 197.14 184.235 197.14H189.853C192.066 197.14 193.867 198.688 193.867 200.599V222.458Z" fill="#2F2F2F"/>
<path d="M260.765 222.458C260.765 224.369 258.97 225.917 256.756 225.917H251.139C248.919 225.917 247.124 224.369 247.124 222.458V200.599C247.124 198.688 248.919 197.14 251.139 197.14H256.756C258.97 197.14 260.765 198.688 260.765 200.599V222.458Z" fill="#2F2F2F"/>
<path d="M263.929 100H176.464V202.569H263.929V100Z" fill="#2F2F2F"/>
<path d="M262.5 210.879H178.922V215.814H262.5V210.879Z" fill="#2F2F2F"/>
<path d="M261.136 166.596C261.136 173.531 256.212 179.15 250.134 179.15H189.619C183.541 179.15 178.617 173.531 178.617 166.596V114.192C178.617 107.257 183.541 101.637 189.619 101.637H250.134C256.212 101.637 261.136 107.257 261.136 114.192V166.596Z" fill="#F66F6F" stroke="#1A2E35" stroke-miterlimit="10"/>
<path d="M190.858 102.185L193.885 109.852H243.666L248.895 101.917" stroke="#003242" stroke-miterlimit="10"/>
<path d="M260.089 172.078C260.089 177.942 253.442 181.978 247.896 181.978H192.659C187.113 181.978 180.999 176.71 180.999 170.846L182.524 124.746C182.524 118.883 187.113 116.394 192.659 116.394L240.202 116.508C244.564 116.609 257.935 114.99 257.935 127.014L260.083 172.078H260.089Z" fill="#2F2F2F"/>
<path d="M265.252 189.3H174.507V193.253H265.252V189.3Z" fill="#2F2F2F"/>
<path d="M265.156 190.866C265.395 189.877 265.533 188.854 265.533 187.788V179.162C265.533 172.358 260.358 166.84 253.974 166.84H185.773C179.389 166.84 174.214 172.358 174.214 179.162V187.788C174.214 188.854 174.352 189.883 174.591 190.866H265.15H265.156Z" fill="#F66F6F" stroke="#1A2E35" stroke-miterlimit="10"/>
<path d="M184.379 149.177H171.791V151.642H184.379V149.177Z" fill="#2F2F2F"/>
<path d="M175.088 130.777C174.615 130.598 174.107 130.491 173.568 130.491C171.217 130.491 169.308 132.39 169.308 134.729V149.255C169.308 151.594 171.217 153.493 173.568 153.493C174.107 153.493 174.615 153.392 175.088 153.207V130.777Z" fill="#2F2F2F"/>
<path d="M186.239 147.332H182.105V153.285H186.239V147.332Z" fill="#2F2F2F"/>
<path d="M269.015 149.796H256.427V152.261H269.015V149.796Z" fill="#2F2F2F"/>
<path d="M265.712 130.777C266.185 130.598 266.694 130.491 267.232 130.491C269.583 130.491 271.492 132.39 271.492 134.729V149.255C271.492 151.594 269.583 153.493 267.232 153.493C266.694 153.493 266.185 153.392 265.712 153.207V130.777Z" fill="#2F2F2F"/>
<path d="M258.904 147.332H255.392V153.285H258.904V147.332Z" fill="#2F2F2F"/>
<path d="M174.244 179.162C174.244 179.162 183.015 179.162 185.904 179.162C188.794 179.162 190.14 179.418 191.061 178.442C191.767 177.698 191.157 175.835 190.648 175.156C188.842 172.733 180.538 168.274 180.538 168.274C180.538 168.274 178.887 168.483 177.026 170.947C175.171 173.412 174.346 175.257 174.136 176.287C173.927 177.317 174.238 179.162 174.238 179.162H174.244Z" fill="#2F2F2F"/>
<path d="M173.933 177.412C173.933 177.412 181.657 177.418 184.085 177.418C186.514 177.418 187.651 177.614 188.429 176.87C189.021 176.299 188.507 174.876 188.082 174.358C186.562 172.501 178.958 168.995 178.958 168.995C178.958 168.995 178.151 169.227 176.619 171.138C174.142 174.227 173.933 177.412 173.933 177.412Z" fill="white" stroke="#1A2E35" stroke-linecap="round" stroke-linejoin="round"/>
<path d="M177.235 172.548C176.517 173.049 176.398 175.34 177.134 176.132C177.546 176.579 180.131 176.71 180.795 176.287C181.561 175.799 181.627 173.138 180.998 172.59C180.998 172.59 177.977 172.031 177.235 172.548Z" fill="white" stroke="#1A2E35" stroke-linecap="round" stroke-linejoin="round"/>
<path d="M182.452 173.328C181.914 173.709 181.824 175.43 182.374 176.025C182.685 176.358 184.63 176.46 185.132 176.138C185.707 175.769 185.761 173.769 185.288 173.358C185.288 173.358 183.015 172.935 182.452 173.328Z" fill="white" stroke="#1A2E35" stroke-linecap="round" stroke-linejoin="round"/>
<path d="M265.509 179.162C265.509 179.162 256.738 179.162 253.849 179.162C250.959 179.162 249.613 179.418 248.692 178.442C247.986 177.698 248.596 175.835 249.105 175.156C250.911 172.733 259.215 168.274 259.215 168.274C259.215 168.274 260.866 168.483 262.721 170.947C264.576 173.412 265.401 175.257 265.611 176.287C265.82 177.317 265.509 179.162 265.509 179.162Z" fill="#2F2F2F"/>
<path d="M265.82 177.412C265.82 177.412 258.096 177.418 255.667 177.418C253.239 177.418 252.102 177.614 251.324 176.87C250.726 176.299 251.246 174.876 251.671 174.358C253.197 172.501 260.801 168.995 260.801 168.995C260.801 168.995 261.608 169.227 263.14 171.138C265.611 174.227 265.82 177.412 265.82 177.412Z" fill="white" stroke="#1A2E35" stroke-linecap="round" stroke-linejoin="round"/>
<path d="M262.518 172.548C263.235 173.049 263.355 175.34 262.619 176.132C262.206 176.579 259.622 176.71 258.958 176.287C258.192 175.799 258.126 173.138 258.749 172.59C258.749 172.59 261.77 172.031 262.518 172.548Z" fill="white" stroke="#1A2E35" stroke-linecap="round" stroke-linejoin="round"/>
<path d="M257.301 173.328C257.839 173.709 257.929 175.43 257.379 176.025C257.067 176.358 255.123 176.46 254.627 176.138C254.052 175.769 253.998 173.769 254.471 173.358C254.471 173.358 256.744 172.935 257.307 173.328H257.301Z" fill="white" stroke="#1A2E35" stroke-linecap="round" stroke-linejoin="round"/>
<path d="M256.194 152.404L254.776 126.544C254.776 121.943 251.97 119.919 246.771 119.919H194.944C189.739 119.919 186.562 121.127 186.562 125.723L185.527 159.613C185.45 161.381 185.45 162.81 185.569 163.708C185.826 166.393 187.777 168.328 189.972 170.06C193.945 173.203 202.524 179.097 202.524 179.097L242.41 178.549C242.41 178.549 256.206 165.375 256.206 163.006V162.637C256.385 161.137 256.373 157.011 256.206 152.404H256.194Z" fill="#F66F6F" stroke="#1A2E35" stroke-miterlimit="10"/>
<path d="M191.731 124.246L187.825 148.511H252.736L249.99 123.949L191.731 124.246Z" fill="#2F2F2F"/>
<path d="M197.834 163.22L185.647 150.981L182.53 167.149C182.53 167.149 191.522 171.245 193.765 173.864C196.009 176.478 200.897 184.502 200.897 184.502C200.897 184.502 197.433 172.555 197.433 170.126C197.433 167.697 197.84 163.22 197.84 163.22H197.834Z" fill="#F66F6F" stroke="#1A2E35" stroke-miterlimit="10"/>
<path d="M240.872 164.81L256.116 150.975L259.233 167.143C259.233 167.143 250.241 171.239 247.998 173.858C245.754 176.472 240.866 184.496 240.866 184.496C240.866 184.496 244.33 172.549 244.33 170.12C244.33 167.691 240.866 164.804 240.866 164.804L240.872 164.81Z" fill="#F66F6F" stroke="#1A2E35" stroke-miterlimit="10"/>
<path d="M188.734 151.642L196.577 159.839L242.595 160.422L251.886 152.231" fill="#F66F6F"/>
<path d="M188.734 151.642L196.577 159.839L242.595 160.422L251.886 152.231" stroke="#1A2E35" stroke-miterlimit="10"/>
<path d="M175.303 183.163L191.396 182.96" stroke="#003242" stroke-miterlimit="10"/>
<path d="M248.357 183.163L264.45 182.96" stroke="#003242" stroke-miterlimit="10"/>
<path d="M174.471 192.914V205.796C174.471 209.623 177.953 212.731 182.249 212.731H257.504C261.8 212.731 265.281 209.623 265.281 205.796V192.914H174.471Z" fill="#BDBDBD" stroke="#1A2E35" stroke-linecap="round" stroke-linejoin="round"/>
<path d="M179.395 195.848C179.395 195.848 180.957 201.522 182.65 202.051C184.343 202.581 199.999 202.772 199.999 202.772L197.499 195.997L179.395 195.848Z" fill="#2F2F2F"/>
<path d="M260.358 195.848C260.358 195.848 258.796 201.522 257.103 202.051C255.404 202.581 239.754 202.772 239.754 202.772L242.248 195.997L260.352 195.848H260.358Z" fill="#2F2F2F"/>
<path d="M184.594 208.475C184.594 210.118 183.242 211.451 181.579 211.451C179.916 211.451 178.564 210.118 178.564 208.475C178.564 206.832 179.916 205.498 181.579 205.498C183.242 205.498 184.594 206.832 184.594 208.475Z" fill="#2F3C4F"/>
<path d="M183.864 208.475C183.864 209.725 182.841 210.731 181.573 210.731C180.305 210.731 179.281 209.719 179.281 208.475C179.281 207.23 180.305 206.218 181.573 206.218C182.841 206.218 183.864 207.23 183.864 208.475Z" fill="#F6F6F6"/>
<path d="M261.195 208.064C261.195 209.707 259.843 211.04 258.174 211.04C256.505 211.04 255.159 209.707 255.159 208.064C255.159 206.421 256.511 205.087 258.174 205.087C259.837 205.087 261.195 206.421 261.195 208.064Z" fill="#2F3C4F"/>
<path d="M260.465 208.064C260.465 209.314 259.442 210.32 258.174 210.32C256.906 210.32 255.883 209.308 255.883 208.064C255.883 206.82 256.906 205.808 258.174 205.808C259.442 205.808 260.465 206.82 260.465 208.064Z" fill="#F6F6F6"/>
<path d="M231.504 203.391H208.243V213.04H231.504V203.391Z" fill="#2F2F2F"/>
<path d="M230.547 205.2H209.207V212.838H230.547V205.2Z" fill="white"/>
<path d="M203.894 198.253H237.157C242.027 189.753 246.305 176.216 246.155 173.549C245.952 170.019 242.685 162.065 242.685 162.065L196.374 162.018C196.374 162.018 193.059 167.816 193.682 174.65C194.106 179.335 199.407 191.116 203.894 198.259V198.253Z" fill="#2F2F2F"/>
<path d="M206.359 194.527H234.489C238.611 187.556 242.225 176.454 242.099 174.263C241.925 171.37 239.275 164.988 239.275 164.988L199.993 164.804C199.993 164.804 197.193 169.56 197.714 175.162C198.073 179.008 202.56 188.669 206.353 194.527H206.359Z" fill="white"/>
<path d="M239.891 169.364C239.891 169.763 239.568 170.09 239.167 170.09H200.574C200.173 170.09 199.85 169.769 199.85 169.364C199.85 168.965 200.173 168.637 200.574 168.637H239.167C239.568 168.637 239.891 168.959 239.891 169.364Z" fill="#2F2F2F"/>
<path d="M239.891 174.442C239.891 174.84 239.568 175.168 239.167 175.168H200.574C200.173 175.168 199.85 174.84 199.85 174.442C199.85 174.043 200.173 173.715 200.574 173.715H239.167C239.568 173.715 239.891 174.043 239.891 174.442Z" fill="#2F2F2F"/>
<path d="M238.719 179.513C238.719 179.912 238.414 180.24 238.043 180.24H201.71C201.333 180.24 201.034 179.912 201.034 179.513C201.034 179.115 201.339 178.787 201.71 178.787H238.043C238.42 178.787 238.719 179.115 238.719 179.513Z" fill="#2F2F2F"/>
<path d="M236.798 184.585C236.798 184.984 236.529 185.312 236.188 185.312H203.565C203.23 185.312 202.955 184.984 202.955 184.585C202.955 184.187 203.23 183.859 203.565 183.859H236.188C236.529 183.859 236.798 184.187 236.798 184.585Z" fill="#2F2F2F"/>
<path d="M234.525 189.663C234.525 190.062 234.286 190.39 233.999 190.39H205.755C205.461 190.39 205.228 190.062 205.228 189.663C205.228 189.264 205.467 188.937 205.755 188.937H233.999C234.292 188.937 234.525 189.264 234.525 189.663Z" fill="#2F2F2F"/>
<path d="M197.953 163.762H241.285" stroke="#1A2E35" stroke-linecap="round" stroke-linejoin="round"/>
<path d="M191.731 124.246L187.825 148.511H206.437L201.651 124.199" fill="white"/>
<path d="M204.265 124.199L209.248 148.511H214.633L209.847 124.383L204.265 124.199Z" fill="white"/>
<path d="M199.275 124.598L205.725 130.64H235.297L242.189 124.383L199.275 124.598Z" fill="#F66F6F" stroke="#494949" stroke-miterlimit="10"/>
<path d="M236.08 127.39C236.08 128.253 235.38 128.949 234.513 128.949H206.951C206.084 128.949 205.384 128.253 205.384 127.39C205.384 126.526 206.084 125.83 206.951 125.83H234.513C235.38 125.83 236.08 126.526 236.08 127.39Z" fill="white"/>
<path d="M224.522 125.806C224.522 127.729 222.955 129.294 221.016 129.294C219.078 129.294 217.516 127.735 217.516 125.806C217.516 123.877 219.084 122.318 221.016 122.318C222.949 122.318 224.522 123.877 224.522 125.806Z" fill="white"/>
<path d="M223.296 125.806C223.296 127.056 222.279 128.068 221.022 128.068C219.766 128.068 218.749 127.056 218.749 125.806C218.749 124.556 219.766 123.544 221.022 123.544C222.279 123.544 223.296 124.556 223.296 125.806Z" fill="#F6F6F6"/>
<path d="M223.87 125.806C223.87 127.372 222.596 128.64 221.022 128.64C219.449 128.64 218.174 127.372 218.174 125.806C218.174 124.24 219.449 122.972 221.022 122.972C222.596 122.972 223.87 124.24 223.87 125.806Z" stroke="#323232" stroke-miterlimit="10"/>
<path d="M216.547 125.806C216.547 127.729 214.98 129.294 213.041 129.294C211.103 129.294 209.536 127.735 209.536 125.806C209.536 123.877 211.103 122.318 213.041 122.318C214.98 122.318 216.547 123.877 216.547 125.806Z" fill="white"/>
<path d="M215.321 125.806C215.321 127.056 214.304 128.068 213.047 128.068C211.791 128.068 210.774 127.056 210.774 125.806C210.774 124.556 211.791 123.544 213.047 123.544C214.304 123.544 215.321 124.556 215.321 125.806Z" fill="#A5AFD3"/>
<path d="M215.889 125.806C215.889 127.372 214.615 128.64 213.041 128.64C211.468 128.64 210.194 127.372 210.194 125.806C210.194 124.24 211.468 122.972 213.041 122.972C214.615 122.972 215.889 124.24 215.889 125.806Z" fill="#F6F6F6" stroke="#323232" stroke-miterlimit="10"/>
<path d="M232.503 125.806C232.503 127.729 230.935 129.294 228.997 129.294C227.059 129.294 225.491 127.735 225.491 125.806C225.491 123.877 227.059 122.318 228.997 122.318C230.935 122.318 232.503 123.877 232.503 125.806Z" fill="white"/>
<path d="M231.27 125.806C231.27 127.056 230.253 128.068 228.997 128.068C227.741 128.068 226.724 127.056 226.724 125.806C226.724 124.556 227.741 123.544 228.997 123.544C230.253 123.544 231.27 124.556 231.27 125.806Z" fill="#A5AFD3"/>
<path d="M231.845 125.806C231.845 127.372 230.57 128.64 228.997 128.64C227.424 128.64 226.149 127.372 226.149 125.806C226.149 124.24 227.424 122.972 228.997 122.972C230.57 122.972 231.845 124.24 231.845 125.806Z" fill="#F6F6F6" stroke="#323232" stroke-miterlimit="10"/>
<path d="M104.026 162.069H62.0223V193.578C62.0223 193.578 68.4836 201.454 77.0447 201.454H135.166C143.727 201.454 150.188 193.578 150.188 193.578V162.069H104.026Z" fill="#2F2F2F"/>
<path d="M70.0032 210.371V223.873C70.0032 225.117 71.0142 226.123 72.2646 226.123H77.7028C78.9532 226.123 79.9642 225.117 79.9642 223.873V210.371H70.0032Z" fill="#2F2F2F"/>
<path d="M130.966 210.371V223.873C130.966 225.117 131.977 226.123 133.227 226.123H138.666C139.916 226.123 140.927 225.117 140.927 223.873V210.371H130.966Z" fill="#2F2F2F"/>
<path d="M85.893 138.817H85.0135L84.9358 138.013H82.8718L82.6743 136.085H79.5335H74.3166L73.8021 141.174H86.1323L85.893 138.817Z" stroke="white" stroke-width="0.25" stroke-miterlimit="10"/>
<path d="M98.6239 138.817H97.7445L97.6667 138.013H95.5967L95.3993 136.085H92.2644H87.0476L86.5331 141.174H98.8573L98.6239 138.817Z" stroke="white" stroke-width="0.25" stroke-miterlimit="10"/>
<path d="M58.6901 162.069H56.7756V166.343H58.6901V162.069Z" fill="#2F2F2F"/>
<path d="M62.0284 161.188H51.7682V162.611H62.0284V161.188Z" fill="#2F2F2F"/>
<path d="M62.0284 165.635H51.7682V167.058H62.0284V165.635Z" fill="#2F2F2F"/>
<path d="M51.8878 167.052H47L48.8307 182.101C48.9144 182.779 49.5546 183.291 50.3144 183.291H53.4612C54.221 183.291 55.4116 183.268 55.4893 182.589L56.7696 167.052H51.8818H51.8878Z" fill="#2F2F2F"/>
<path d="M51.1998 167.052H47L48.5734 181.428C48.6452 182.077 49.1956 182.565 49.8477 182.565H52.5519C53.204 182.565 54.227 182.541 54.2988 181.892L55.3996 167.052H51.1998Z" fill="#2F2F2F"/>
<path d="M52.839 161.188C51.6365 161.188 50.6554 162.158 50.6554 163.361V167.058H55.0167V163.361C55.0167 162.164 54.0416 161.188 52.8331 161.188H52.839Z" fill="#2F2F2F"/>
<path d="M51.7681 161.188C50.5656 161.188 49.5845 162.158 49.5845 163.361V167.058H53.9458V163.361C53.9458 162.164 52.9706 161.188 51.7621 161.188H51.7681Z" fill="#2F2F2F"/>
<path d="M153.526 166.343H155.441V162.069H153.526V166.343Z" fill="#2F2F2F"/>
<path d="M150.194 162.605H160.454V161.182H150.194V162.605Z" fill="#2F2F2F"/>
<path d="M150.194 167.052H160.454V165.629H150.194V167.052Z" fill="#2F2F2F"/>
<path d="M160.329 167.052H165.216L163.386 182.101C163.302 182.779 162.662 183.291 161.902 183.291H158.755C157.995 183.291 156.805 183.268 156.727 182.589L155.447 167.052H160.335H160.329Z" fill="#2F2F2F"/>
<path d="M161.017 167.052H165.216L163.643 181.428C163.571 182.077 163.021 182.565 162.369 182.565H159.665C159.013 182.565 157.989 182.541 157.918 181.892L156.817 167.052H161.017Z" fill="#2F2F2F"/>
<path d="M159.377 161.188C160.58 161.188 161.561 162.158 161.561 163.361V167.058H157.2V163.361C157.2 162.164 158.175 161.188 159.383 161.188H159.377Z" fill="#2F2F2F"/>
<path d="M160.448 161.188C161.651 161.188 162.632 162.158 162.632 163.361V167.058H158.271V163.361C158.271 162.164 159.246 161.188 160.454 161.188H160.448Z" fill="#2F2F2F"/>
<path d="M148.25 113.844C148.25 104.522 136.135 105.004 136.135 105.004H76.0815C76.0815 105.004 63.9667 104.522 63.9667 113.844C63.9667 123.167 62.0283 151.3 62.0283 151.3H150.194C150.194 151.3 148.256 123.167 148.256 113.844H148.25Z" fill="#F66F6F" stroke="#1A2E35" stroke-miterlimit="10"/>
<path d="M104.026 151.3H102.644H62.0223V154.033H102.644H104.026H150.188V151.3H104.026Z" fill="#F66F6F" stroke="#1A2E35" stroke-miterlimit="10"/>
<path d="M104.026 154.033H102.644H62.0223V162.069H102.644H104.026H150.188V154.033H104.026Z" fill="#F66F6F" stroke="#1A2E35" stroke-miterlimit="10"/>
<path d="M104.026 162.069H62.0223V217.729C62.0223 218.628 62.2198 219.533 62.6864 220.307C63.0813 220.962 63.6915 221.551 64.6068 221.551H147.604C148.525 221.551 149.129 220.968 149.53 220.307C149.997 219.533 150.194 218.634 150.194 217.729V162.069H104.032H104.026Z" fill="#F66F6F" stroke="#1A2E35" stroke-miterlimit="10"/>
<path d="M127.981 221.533V221.372C128.226 221.372 128.794 220.414 129.117 219.729L131.463 214.824L131.606 214.895L129.261 219.801C129.123 220.092 128.411 221.533 127.975 221.533H127.981Z" fill="#F05C5C"/>
<path d="M136.093 210.996H76.1174V211.157H136.093V210.996Z" fill="#F05C5C"/>
<path d="M84.2358 221.533C83.8051 221.533 83.0872 220.086 82.9496 219.801L80.6044 214.895L80.748 214.824L83.0931 219.729C83.4222 220.414 83.9905 221.372 84.2298 221.372V221.533H84.2358Z" fill="#F05C5C"/>
<path d="M149.057 162.069H63.1531C63.1531 162.069 62.9916 192.614 63.1531 193.257C63.201 193.459 63.6496 193.703 64.2359 193.953C66.0008 194.691 67.9033 195.025 69.8177 195.025H142.399C144.313 195.025 146.216 194.691 147.981 193.953C148.567 193.709 149.016 193.459 149.063 193.257C149.225 192.614 149.063 162.069 149.063 162.069H149.057Z" fill="url(#paint0_linear_268_895)"/>
<path d="M141.968 161.896H70.2424V190.066H141.968V161.896Z" fill="url(#paint1_linear_268_895)"/>
<path d="M121.489 212.598H90.7269C89.8953 212.598 89.2192 213.27 89.2192 214.098C89.2192 214.925 89.8953 215.598 90.7269 215.598H121.489C122.321 215.598 122.997 214.925 122.997 214.098C122.997 213.27 122.321 212.598 121.489 212.598Z" fill="#2F2F2F"/>
<path d="M139.766 210.752C132.222 210.752 131.534 214.955 131.534 214.955H137.984C137.984 214.955 148.405 215.384 150.194 212.604V203.918C150.194 203.918 147.316 210.752 139.766 210.752Z" fill="#2F2F2F"/>
<path d="M144.858 191.06H67.3528L65.1871 194.304C66.6768 194.792 68.2383 195.025 69.8117 195.025H142.393C143.966 195.025 145.534 194.792 147.017 194.304L144.852 191.06H144.858Z" fill="url(#paint2_linear_268_895)"/>
<path d="M135.363 180.339H121.633V191.054H135.363V180.339Z" fill="url(#paint3_linear_268_895)"/>
<path d="M141.627 189.066H128.501H118.606H105.48L102.644 191.06H118.606H128.501H144.463L141.627 189.066Z" fill="url(#paint4_linear_268_895)"/>
<path d="M127.071 189.066C127.837 187.822 129.213 186.982 130.792 186.982C132.372 186.982 133.748 187.816 134.514 189.066H135.674C134.819 187.238 132.958 185.964 130.798 185.964C128.639 185.964 126.778 187.232 125.923 189.066H127.083H127.071Z" fill="url(#paint5_linear_268_895)"/>
<path d="M114.58 162.123H110.757V189.066H114.58V162.123Z" fill="url(#paint6_linear_268_895)"/>
<path d="M72.45 210.752C79.9941 210.752 80.6821 214.955 80.6821 214.955H74.2329C74.2329 214.955 63.8111 215.384 62.0223 212.604V203.918C62.0223 203.918 64.9 210.752 72.45 210.752Z" fill="#2F2F2F"/>
<path d="M115.058 215.598H97.1522V220.313H115.058V215.598Z" fill="white"/>
<path d="M136.093 211.086H76.1174V211.246H136.093V211.086Z" fill="#F66F6F" stroke="#1A2E35" stroke-miterlimit="10"/>
<path d="M84.2358 221.545V221.462C83.9905 221.462 83.4222 220.503 83.0991 219.819L80.7539 214.913L80.6104 214.985L82.9555 219.89C83.0752 220.14 83.6196 221.241 84.0444 221.545H84.2358Z" fill="#F66F6F" stroke="#1A2E35" stroke-miterlimit="10"/>
<path d="M131.463 214.919L129.117 219.825C128.788 220.509 128.22 221.468 127.981 221.468V221.551H128.172C128.597 221.247 129.141 220.146 129.261 219.896L131.606 214.991L131.463 214.919Z" fill="#F66F6F" stroke="#1A2E35" stroke-miterlimit="10"/>
<path d="M136.632 112.88H75.585C70.5775 112.88 68.6392 114.969 68.6392 114.969V142.621C69.9314 141.014 75.908 140.853 75.908 140.853H136.308C136.308 140.853 142.285 141.014 143.577 142.621V114.969C143.577 114.969 141.639 112.88 136.632 112.88Z" fill="#2F2F2F"/>
<path d="M85.7673 186.262H87.0775L86.1861 177.261H83.47H78.9531L78.7796 178.993H77.6967L77.5771 180.339H75.7584L74.7892 191.06H78.7138H80.6761H84.6067L84.4272 189.066H86.0185L85.7673 186.262Z" fill="url(#paint7_linear_268_895)"/>
<path d="M97.0564 186.262H98.0974L97.206 177.261H94.4899H89.973L89.7995 178.993H88.9919L88.8663 180.339H87.7714L86.7963 191.06H90.7268H92.6891H96.6197L96.4402 189.066H97.3137L97.0564 186.262Z" fill="url(#paint8_linear_268_895)"/>
<path d="M104.026 151.3H102.644H62.0223V151.461H102.644H104.026H150.188V151.3H104.026Z" fill="#F05C5C"/>
<path d="M104.026 162.313H62.0223V193.822C62.0223 193.822 68.4836 201.698 77.0447 201.698H135.166C143.727 201.698 150.188 193.822 150.188 193.822V162.313H104.026Z" fill="#2F2F2F"/>
<path d="M67.4127 211.526C67.4127 212.735 66.4196 213.717 65.1932 213.717C63.9667 213.717 62.9736 212.735 62.9736 211.526C62.9736 210.318 63.9667 209.335 65.1932 209.335C66.4196 209.335 67.4127 210.318 67.4127 211.526Z" fill="#2F3C4F"/>
<path d="M66.8743 211.526C66.8743 212.443 66.1205 213.187 65.1932 213.187C64.2659 213.187 63.5121 212.443 63.5121 211.526C63.5121 210.609 64.2659 209.865 65.1932 209.865C66.1205 209.865 66.8743 210.609 66.8743 211.526Z" fill="#F6F6F6"/>
<path d="M71.6844 212.788C71.6844 213.705 70.9306 214.449 70.0033 214.449C69.076 214.449 68.3221 213.705 68.3221 212.788C68.3221 211.871 69.076 211.127 70.0033 211.127C70.9306 211.127 71.6844 211.871 71.6844 212.788Z" fill="#2F3C4F"/>
<path d="M71.2776 212.788C71.2776 213.485 70.7092 214.044 70.0033 214.044C69.2974 214.044 68.729 213.479 68.729 212.788C68.729 212.098 69.3033 211.532 70.0033 211.532C70.7033 211.532 71.2776 212.098 71.2776 212.788Z" fill="#F6F6F6"/>
<path d="M144.971 211.526C144.971 212.735 145.964 213.717 147.191 213.717C148.417 213.717 149.41 212.735 149.41 211.526C149.41 210.318 148.417 209.335 147.191 209.335C145.964 209.335 144.971 210.318 144.971 211.526Z" fill="#2F3C4F"/>
<path d="M145.504 211.526C145.504 212.443 146.258 213.187 147.185 213.187C148.112 213.187 148.866 212.443 148.866 211.526C148.866 210.609 148.112 209.865 147.185 209.865C146.258 209.865 145.504 210.609 145.504 211.526Z" fill="#F6F6F6"/>
<path d="M140.694 212.788C140.694 213.705 141.448 214.449 142.375 214.449C143.302 214.449 144.056 213.705 144.056 212.788C144.056 211.871 143.302 211.127 142.375 211.127C141.448 211.127 140.694 211.871 140.694 212.788Z" fill="#2F3C4F"/>
<path d="M141.101 212.788C141.101 213.485 141.669 214.044 142.375 214.044C143.081 214.044 143.649 213.479 143.649 212.788C143.649 212.098 143.075 211.532 142.375 211.532C141.675 211.532 141.101 212.098 141.101 212.788Z" fill="#F6F6F6"/>
<path d="M74.1132 113.065L79.9642 140.729H92.39L85.1271 113L74.1132 113.065Z" fill="white"/>
<path d="M88.0228 113L95.6806 140.973H100.939L93.6046 113H88.0228Z" fill="white"/>
<path d="M70.6134 162.046L79.9642 201.812H92.3901L81.6274 161.981L70.6134 162.046Z" fill="white"/>
<path d="M84.2837 161.981L95.6806 201.812H100.939L89.8655 161.981H84.2837Z" fill="white"/>
<path d="M68.6392 115.09C68.6392 115.09 70.41 113.209 74.1133 113.066L79.9702 140.723C79.9702 140.723 70.775 140.271 68.6392 142.551V115.09Z" fill="white"/>
<path d="M62.0224 161.981H70.6074L79.9642 201.812H76.8593C76.8593 201.812 69.9194 201.77 65.4983 197.246C61.0771 192.722 61.8968 193.162 61.8968 193.162L62.0224 161.987V161.981Z" fill="white"/>
</g>
<path d="M56.0056 225.671L380.006 225.671" stroke="#263238" stroke-miterlimit="10"/>
<path d="M283.193 177.654L285.607 240.646C285.607 240.646 284.094 241.546 284.094 243.347C284.094 245.148 284.547 248.896 284.547 248.896C284.547 248.896 284.094 249.644 283.941 250.545C283.787 251.445 284.241 254.445 284.241 254.445C284.241 254.445 287.562 252.948 289.222 253.392C290.882 253.843 296.323 256.544 296.323 256.544C296.323 256.544 298.437 252.492 298.59 250.545C298.743 248.598 297.383 245.294 297.383 244.095C297.383 242.897 301.31 185.454 301.31 185.454L306.291 241.85L305.385 245.75C305.385 245.75 304.631 248.75 304.931 249.651C305.231 250.551 305.838 255.498 305.838 255.498C305.838 255.498 308.558 257 311.272 256.398C313.993 255.796 320.334 253.849 320.334 253.849C320.334 253.849 320.181 250.849 320.334 249.346C320.487 247.85 317.92 242.897 318.067 241.4C318.22 239.903 319.127 176.455 319.127 176.455H282.728L283.193 177.654Z" fill="#2F2F2F"/>
<path d="M281.772 141.537C282.257 141.418 282.257 141.417 282.257 141.417L282.257 141.417L282.256 141.413L282.253 141.4L282.241 141.349L282.192 141.149C282.149 140.973 282.086 140.716 282.006 140.388C281.846 139.732 281.619 138.795 281.346 137.667C280.802 135.412 280.08 132.397 279.37 129.36C278.659 126.323 277.961 123.266 277.464 120.924C277.215 119.752 277.017 118.764 276.893 118.049C276.831 117.69 276.789 117.408 276.768 117.209C276.765 117.179 276.762 117.151 276.76 117.127C276.866 117.075 277.017 117.011 277.214 116.936C277.645 116.773 278.249 116.576 278.977 116.355C280.429 115.914 282.336 115.392 284.236 114.892C286.136 114.392 288.025 113.914 289.439 113.562C290.146 113.385 290.734 113.24 291.145 113.139C291.351 113.089 291.512 113.049 291.622 113.023L291.739 112.994L291.81 112.992L292.167 112.984L293.476 112.951C294.581 112.924 296.101 112.887 297.768 112.847C301.102 112.766 305.019 112.673 307.355 112.624C308.457 112.603 310.066 112.868 311.896 113.302C313.715 113.733 315.713 114.321 317.573 114.922C319.433 115.522 321.15 116.134 322.405 116.612C323.034 116.851 323.543 117.055 323.895 117.207C323.986 117.246 324.065 117.281 324.131 117.311C324.099 117.499 324.05 117.763 323.987 118.093C323.853 118.789 323.657 119.769 323.418 120.94C322.942 123.282 322.297 126.379 321.65 129.468C321.002 132.558 320.352 135.638 319.864 137.947C319.619 139.101 319.416 140.062 319.273 140.735L319.107 141.516L319.064 141.721L319.052 141.774L319.05 141.787L319.049 141.791L319.049 141.791C319.049 141.792 319.049 141.792 319.538 141.896L319.049 141.792L319.036 141.849L319.038 141.908L319.947 178.292C319.816 178.326 319.655 178.368 319.466 178.416C318.922 178.554 318.154 178.747 317.257 178.962C315.462 179.394 313.159 179.914 311.112 180.277C307.033 180.999 302.212 181.364 293.889 181.091C289.753 180.955 286.485 180.391 284.257 179.863C283.142 179.599 282.288 179.344 281.714 179.157C281.494 179.084 281.315 179.022 281.179 178.973L282.272 141.551L282.274 141.483L282.257 141.418L281.772 141.537Z" fill="white" stroke="#2F2F2F"/>
<path d="M294.081 109.539L292.77 111.042L290.846 112.587L288.095 117.503L292.31 117.686L289.008 120.326C289.008 120.326 292.947 127.701 295.147 130.433C297.346 133.164 300.747 139.663 300.747 139.663C300.747 139.663 305.415 131.71 307.07 129.8C308.718 127.889 311.377 123.156 312.296 121.969C313.215 120.783 313.852 119.329 313.852 119.329L310.458 117.692L313.576 115.873C313.576 115.873 309.906 112.502 309.361 111.23C308.81 109.959 308.626 109.046 307.621 109.137C306.616 109.222 294.081 109.539 294.081 109.539Z" fill="white" stroke="#2F2F2F" stroke-miterlimit="10" stroke-linecap="round" stroke-linejoin="round"/>
<path d="M294.081 109.539L300.753 139.663L307.976 109.904L294.081 109.539Z" fill="white" stroke="#2F2F2F" stroke-miterlimit="10" stroke-linecap="round" stroke-linejoin="round"/>
<path d="M294.081 109.539L296.311 119.627L300.937 114.139L305.587 119.748L307.976 109.904L294.081 109.539Z" fill="white" stroke="#2F2F2F" stroke-miterlimit="10" stroke-linecap="round" stroke-linejoin="round"/>
<path d="M294.081 105.553V109.539C294.081 109.539 300.753 114.078 300.937 114.138C301.12 114.199 307.976 109.904 307.976 109.904V104.197C307.976 104.197 304.147 107.817 301.862 107.878C299.576 107.945 294.081 105.553 294.081 105.553Z" fill="white" stroke="#2F2F2F" stroke-miterlimit="10" stroke-linecap="round" stroke-linejoin="round"/>
<path d="M298.59 117.144L300.379 119.535L298.712 129.417L300.753 139.663L303.222 129.356L302.113 119.535L303.406 117.205L300.937 114.139L298.59 117.144Z" fill="#2F2F2F"/>
<path d="M302.677 123.058H300.385V123.861H302.677V123.058Z" fill="white"/>
<path d="M304.502 159.108L301.935 160.471C301.935 160.471 299.092 162.108 297.996 162.838C296.893 163.568 293.045 169.209 293.321 169.665C293.597 170.121 294.516 171.119 295.153 171.302C295.796 171.484 296.985 172.305 298.271 172.488C299.552 172.671 301.022 172.944 302.67 171.758C304.319 170.571 306.518 167.115 306.794 166.659C307.069 166.203 308.534 164.931 308.534 164.931L304.502 159.108Z" fill="white" stroke="#263238" stroke-miterlimit="10" stroke-linecap="round" stroke-linejoin="round"/>
<path d="M326.034 119.493L326.034 119.492C325.672 118.491 325.286 117.953 325.005 117.669L319.845 140.784L319.571 145.75L319.56 145.951L319.413 146.088L319.072 145.723L319.413 146.088L319.413 146.088L319.413 146.089L319.411 146.09L319.404 146.097L319.378 146.121L319.278 146.214C319.191 146.295 319.064 146.412 318.905 146.559C318.587 146.851 318.142 147.259 317.631 147.721C316.609 148.644 315.318 149.789 314.255 150.66M326.034 119.493L313.938 150.274M326.034 119.493C326.119 119.728 326.252 120.337 326.418 121.282C326.581 122.207 326.769 123.411 326.972 124.8C327.378 127.577 327.841 131.084 328.276 134.564C328.711 138.044 329.117 141.496 329.408 144.161C329.554 145.495 329.671 146.63 329.749 147.473C329.787 147.895 329.816 148.241 329.834 148.502C329.852 148.776 329.856 148.923 329.853 148.968C329.814 149.548 329.575 150.134 329.326 150.596C329.203 150.823 329.084 151.01 328.995 151.14C328.951 151.205 328.915 151.255 328.89 151.288C328.888 151.291 328.886 151.293 328.885 151.296L309.754 167.363M326.034 119.493L309.754 167.363M314.255 150.66L313.938 150.274M314.255 150.66C314.255 150.66 314.255 150.66 314.255 150.66L313.938 150.274M314.255 150.66C313.195 151.532 310.623 153.562 308.322 155.369C307.17 156.274 306.084 157.125 305.285 157.75C304.886 158.062 304.559 158.317 304.332 158.495L304.329 158.498M313.938 150.274C311.83 152.008 303.669 158.378 303.669 158.378M304.329 158.498L304.096 158.117L303.669 158.378M304.329 158.498L309.754 167.363M304.329 158.498L304.069 158.7L304 158.754L303.983 158.768L303.978 158.771L303.977 158.772L303.977 158.772C303.977 158.772 303.977 158.772 303.669 158.378M303.669 158.378L309.754 167.363" fill="white" stroke="#2F2F2F"/>
<path d="M272.619 90.0273C272.619 90.0273 274.642 88.1277 275.069 87.9341C275.495 87.7405 277.283 86.4589 277.536 84.9298C277.794 83.3972 278.894 81.1562 278.894 81.1562C278.894 81.1562 279.85 80.134 278.427 80.0313C276.999 79.9322 276.428 80.2293 275.819 81.1151C275.21 82.0008 274.649 82.6276 274.649 82.6276C274.649 82.6276 275.921 79.3648 275.837 78.3018C275.753 77.2388 276.394 75.7765 274.32 76.0281C272.246 76.2796 272.246 76.2796 272.246 76.2796C272.246 76.2796 268.501 78.2908 267.061 79.436C265.62 80.5811 265.851 83.8894 266.032 84.7626C266.212 85.6444 266.158 87.1356 266.158 87.1356L272.619 90.0273Z" fill="white" stroke="#2F2F2F" stroke-miterlimit="10" stroke-linecap="round" stroke-linejoin="round"/>
<path d="M268.983 109.33L268.493 109.231L268.493 109.231L268.493 109.23L268.494 109.228L268.495 109.219L268.502 109.184L268.53 109.05C268.553 108.934 268.588 108.764 268.632 108.553C268.72 108.13 268.844 107.539 268.99 106.865C269.282 105.52 269.665 103.838 270.021 102.51M268.983 109.33L258.33 112.973M268.983 109.33L268.493 109.231M268.983 109.33L268.493 109.231M270.021 102.51C270.021 102.51 270.021 102.51 270.021 102.51L270.504 102.639L270.021 102.51ZM270.021 102.51C270.374 101.184 271.282 98.0355 272.099 95.2256C272.508 93.8188 272.895 92.4945 273.18 91.5219C273.322 91.0356 273.439 90.6373 273.52 90.3604L273.521 90.3564M273.521 90.3564L263.947 86.313M273.521 90.3564L273.614 90.0406L273.639 89.9569L273.645 89.9355L273.647 89.9301L273.647 89.9287L273.647 89.9284C273.647 89.9283 273.647 89.9283 273.718 89.9491C273.781 89.9677 273.901 90.0028 274.127 90.0693M273.521 90.3564L273.932 90.5299L274.127 90.0693M263.947 86.313L257.761 110.518M263.947 86.313L263.481 86.1163L274.127 90.0693M263.947 86.313L264.072 85.8231L274.127 90.0693M257.761 110.518C257.761 110.521 257.761 110.524 257.761 110.528C257.76 110.569 257.76 110.63 257.762 110.709C257.766 110.866 257.778 111.088 257.81 111.343C257.877 111.864 258.025 112.48 258.33 112.973M257.761 110.518L257.747 110.572L257.263 110.448M257.761 110.518C257.762 110.502 257.762 110.49 257.762 110.483L257.762 110.473L257.762 110.472C257.762 110.472 257.762 110.472 257.263 110.448M258.33 112.973L257.905 113.237M258.33 112.973L258.33 112.973M257.263 110.448C257.263 110.448 257.186 112.076 257.905 113.237M257.263 110.448L257.905 113.237M257.905 113.237L258.33 112.973M258.33 112.973C258.355 113.012 258.443 113.13 258.618 113.342C258.784 113.543 259.009 113.808 259.286 114.128C259.841 114.768 260.597 115.623 261.492 116.621C263.283 118.618 265.624 121.186 268.005 123.761C270.386 126.336 272.806 128.916 274.754 130.937C275.729 131.947 276.583 132.816 277.255 133.473C277.94 134.144 278.402 134.562 278.609 134.703L278.61 134.703M258.33 112.973L278.61 134.703M278.61 134.703C279.557 135.355 280.213 135.55 280.597 135.599C280.606 135.6 280.614 135.601 280.622 135.602L276.048 117.255L271.646 112.854L271.646 112.854L271.638 112.845L268.621 109.674L268.442 109.486M278.61 134.703L268.442 109.486M268.442 109.486L268.493 109.231M268.442 109.486L268.493 109.231" fill="white" stroke="#2F2F2F"/>
<path d="M303.038 143.812C303.038 144.317 302.628 144.725 302.119 144.725C301.61 144.725 301.2 144.317 301.2 143.812C301.2 143.307 301.61 142.9 302.119 142.9C302.628 142.906 303.038 143.313 303.038 143.812Z" fill="white"/>
<path d="M303.038 154.831C303.038 155.336 302.628 155.744 302.119 155.744C301.61 155.744 301.2 155.336 301.2 154.831C301.2 154.326 301.61 153.918 302.119 153.918C302.628 153.918 303.038 154.326 303.038 154.831Z" fill="white"/>
<path d="M285.297 253.538L285.343 253.478C285.352 253.473 285.362 253.467 285.373 253.461C285.447 253.422 285.561 253.364 285.71 253.3C286.008 253.171 286.445 253.015 286.988 252.91C288.071 252.702 289.58 252.699 291.279 253.542C293.057 254.425 294.232 255.266 294.956 255.877C295.309 256.174 295.555 256.418 295.712 256.586L294.273 258.794L294.269 258.8C294.252 258.819 294.228 258.847 294.196 258.885C294.131 258.959 294.036 259.067 293.914 259.202C293.671 259.471 293.323 259.844 292.906 260.258C292.065 261.093 290.966 262.072 289.885 262.716C289.416 262.996 288.714 263.166 287.848 263.231C286.993 263.297 286.029 263.257 285.075 263.156C283.156 262.953 281.355 262.51 280.659 262.231C280.361 262.113 280.197 261.961 280.107 261.806C280.016 261.65 279.971 261.438 280.008 261.144C280.085 260.532 280.505 259.684 281.318 258.656C282.154 257.604 283.175 256.289 283.987 255.238C284.393 254.713 284.747 254.253 285 253.924L285.297 253.538Z" stroke="#2F2F2F"/>
<path d="M310.706 258.794L309.268 256.586C309.425 256.418 309.671 256.174 310.024 255.877C310.747 255.266 311.922 254.425 313.701 253.542L313.701 253.542C315.397 252.699 316.906 252.702 317.989 252.91C318.533 253.015 318.97 253.171 319.269 253.3C319.418 253.365 319.532 253.422 319.607 253.462C319.617 253.467 319.627 253.473 319.637 253.478L319.683 253.538L319.979 253.924C320.232 254.253 320.586 254.713 320.992 255.238C321.804 256.289 322.826 257.604 323.661 258.656C324.475 259.684 324.895 260.532 324.972 261.144C325.009 261.438 324.963 261.65 324.873 261.806C324.783 261.961 324.618 262.112 324.322 262.231C323.622 262.51 321.82 262.953 319.902 263.156C318.949 263.257 317.985 263.297 317.131 263.231C316.266 263.166 315.563 262.996 315.094 262.716C314.013 262.072 312.914 261.093 312.074 260.258C311.656 259.844 311.308 259.471 311.065 259.202C310.944 259.067 310.848 258.959 310.784 258.885C310.752 258.847 310.727 258.819 310.711 258.8L310.706 258.794Z" stroke="#2F2F2F"/>
<path d="M291.795 94.1999C291.795 94.1999 287.592 91.0725 286.851 89.3506C286.11 87.6348 297.414 79.0436 299.019 78.6785C300.624 78.3134 302.971 78.3135 304.208 79.0436C305.446 79.7798 315.512 88.371 315.328 89.5939C315.145 90.823 309.894 94.9908 309.894 94.9908C309.894 94.9908 307.051 91.4314 301.494 91.2489C295.931 91.0725 291.795 94.1999 291.795 94.1999Z" fill="#2F2F2F" stroke="#2F2F2F" stroke-miterlimit="10"/>
<path d="M301.12 87.5739C295.275 87.4887 291.354 90.5856 289.565 92.3927C290.723 93.4027 291.789 94.1998 291.789 94.1998C291.789 94.1998 295.931 91.0724 301.488 91.2549C307.045 91.4375 309.888 94.9968 309.888 94.9968C309.888 94.9968 310.678 94.3701 311.652 93.5305C309.845 91.0785 306.389 87.653 301.12 87.5739Z" stroke="#2F2F2F" stroke-miterlimit="10" stroke-linecap="round" stroke-linejoin="round"/>
<path d="M291.379 93.9748C291.379 93.9748 291.857 103.035 292.543 104.397C293.229 105.76 297.138 109.642 298.302 110.531C299.466 111.419 301.8 111.212 303.173 110.597C304.545 109.983 308.589 105.967 309.14 103.375C309.692 100.783 309.692 93.6341 309.692 93.6341C309.692 93.6341 306.671 90.3668 301.666 90.6345C296.66 90.9083 292.61 92.2712 291.379 93.9748Z" fill="white" stroke="#2F2F2F" stroke-miterlimit="10" stroke-linecap="round" stroke-linejoin="round"/>
<path d="M291.379 93.9748C291.379 93.9748 293.137 94.93 294.485 94.997C295.839 95.0639 299.754 92.4111 301.715 92.8187C303.675 93.2264 306.108 95.6115 307.664 95.5445C309.22 95.4776 309.894 94.3155 309.894 94.3155C309.894 94.3155 307.866 90.5675 303.001 89.6183C298.137 88.6631 292.861 91.3889 291.379 93.9748Z" fill="#BDBDBD" stroke="#2F2F2F" stroke-miterlimit="10" stroke-linecap="round" stroke-linejoin="round"/>
<path d="M298.234 95.3377C298.234 95.3377 296.176 94.1816 294.258 95.9522" stroke="#2F2F2F" stroke-miterlimit="10" stroke-linecap="round" stroke-linejoin="round"/>
<path d="M303.381 95.2707C303.381 95.2707 305.299 94.3824 307.357 95.8183" stroke="#2F2F2F" stroke-miterlimit="10" stroke-linecap="round" stroke-linejoin="round"/>
<path d="M296.831 98.3068C297.153 98.3068 297.413 97.8928 297.413 97.382C297.413 96.8712 297.153 96.4572 296.831 96.4572C296.51 96.4572 296.249 96.8712 296.249 97.382C296.249 97.8928 296.51 98.3068 296.831 98.3068Z" fill="#263238" stroke="#2F2F2F" stroke-miterlimit="10"/>
<path d="M304.956 98.3068C305.277 98.3068 305.538 97.8928 305.538 97.382C305.538 96.8712 305.277 96.4572 304.956 96.4572C304.634 96.4572 304.374 96.8712 304.374 97.382C304.374 97.8928 304.634 98.3068 304.956 98.3068Z" fill="#263238" stroke="#2F2F2F" stroke-miterlimit="10"/>
<path d="M302.143 96.4268V101.738L299.405 101.264" stroke="#2F2F2F" stroke-miterlimit="10" stroke-linecap="round" stroke-linejoin="round"/>
<path d="M300.361 101.465C300.361 101.465 299.264 101.872 298.443 102.353C297.622 102.828 296.593 103.168 296.317 103.241C296.041 103.308 295.471 103.564 298.682 104.434C301.874 105.304 305.648 103.917 305.783 103.375C305.783 103.375 305.556 103.412 303.982 102.645C302.07 101.714 301.322 101.605 301.322 101.605L300.361 101.465Z" fill="#2F2F2F" stroke="#2F2F2F" stroke-miterlimit="10"/>
<path d="M291.544 95.9826C291.544 95.9826 290.061 94.3885 289.259 95.9218C288.456 97.455 289.197 98.4346 289.877 99.3595C290.558 100.278 291.795 100.771 291.795 100.771L291.544 95.9826Z" fill="white" stroke="#2F2F2F" stroke-miterlimit="10" stroke-linecap="round" stroke-linejoin="round"/>
<path d="M309.545 95.9826C309.545 95.9826 311.027 94.3885 311.83 95.9218C312.633 97.455 311.891 98.4346 311.211 99.3595C310.531 100.278 309.294 100.771 309.294 100.771L309.545 95.9826Z" fill="white" stroke="#2F2F2F" stroke-miterlimit="10" stroke-linecap="round" stroke-linejoin="round"/>
</g>
<defs>
<linearGradient id="paint0_linear_268_895" x1="80.4069" y1="88.586" x2="108.416" y2="186.627" gradientUnits="userSpaceOnUse">
<stop stop-color="#7C7D81"/>
<stop offset="1" stop-color="#454442"/>
</linearGradient>
<linearGradient id="paint1_linear_268_895" x1="108.244" y1="271.252" x2="104.086" y2="84.1442" gradientUnits="userSpaceOnUse">
<stop stop-color="#565656"/>
<stop offset="1" stop-color="#202020"/>
</linearGradient>
<linearGradient id="paint2_linear_268_895" x1="106.108" y1="206.186" x2="106.108" y2="185.417" gradientUnits="userSpaceOnUse">
<stop stop-color="#565656"/>
<stop offset="1" stop-color="#202020"/>
</linearGradient>
<linearGradient id="paint3_linear_268_895" x1="128.501" y1="202.704" x2="128.501" y2="176.594" gradientUnits="userSpaceOnUse">
<stop stop-color="#565656"/>
<stop offset="0.38" stop-color="#3A3A3A"/>
<stop offset="0.75" stop-color="#272727"/>
<stop offset="1" stop-color="#202020"/>
</linearGradient>
<linearGradient id="paint4_linear_268_895" x1="123.554" y1="196.59" x2="123.554" y2="189.994" gradientUnits="userSpaceOnUse">
<stop stop-color="#565656"/>
<stop offset="0.01" stop-color="#545454"/>
<stop offset="0.41" stop-color="#373737"/>
<stop offset="0.75" stop-color="#262626"/>
<stop offset="1" stop-color="#202020"/>
</linearGradient>
<linearGradient id="paint5_linear_268_895" x1="130.792" y1="193.858" x2="130.792" y2="187.286" gradientUnits="userSpaceOnUse">
<stop stop-color="#565656"/>
<stop offset="0.01" stop-color="#545454"/>
<stop offset="0.41" stop-color="#373737"/>
<stop offset="0.75" stop-color="#262626"/>
<stop offset="1" stop-color="#202020"/>
</linearGradient>
<linearGradient id="paint6_linear_268_895" x1="112.671" y1="221.134" x2="112.671" y2="146.693" gradientUnits="userSpaceOnUse">
<stop stop-color="#565656"/>
<stop offset="1" stop-color="#202020"/>
</linearGradient>
<linearGradient id="paint7_linear_268_895" x1="80.9333" y1="205.597" x2="80.9333" y2="179.124" gradientUnits="userSpaceOnUse">
<stop stop-color="#565656"/>
<stop offset="1" stop-color="#202020"/>
</linearGradient>
<linearGradient id="paint8_linear_268_895" x1="92.4498" y1="205.597" x2="92.4498" y2="179.124" gradientUnits="userSpaceOnUse">
<stop stop-color="#565656"/>
<stop offset="1" stop-color="#202020"/>
</linearGradient>
<clipPath id="clip0_268_895">
<rect width="434" height="228" fill="white"/>
</clipPath>
<clipPath id="clip1_268_895">
<rect width="361" height="239" fill="white" transform="translate(37 26)"/>
</clipPath>
<clipPath id="clip2_268_895">
<rect width="331" height="126" fill="white" transform="translate(47 100)"/>
</clipPath>
</defs>
</svg>
