<svg width="434" height="340" viewBox="0 0 434 340" fill="none" xmlns="http://www.w3.org/2000/svg">
<g clip-path="url(#clip0_268_2700)">
<g opacity="0.3">
<path d="M0 280.085H19.6221V102.965H71.2325V187.269H82.3211V292.008H95.1152V135.664H119.004V72.3096H157.393V188.972H171.892V142.561H204.308V152.781H232.036V290.733H243.125V265.611H273.407V290.306H287.913V165.98H336.962V282.642H351.04V119.996H368.101V90.1942H376.628V73.1639H390.278V183.437H412.462V288.603H429.522" stroke="black" stroke-opacity="0.33" stroke-miterlimit="10"/>
<path d="M71.2325 97.431H19.6221V102.965H71.2325V97.431Z" stroke="black" stroke-opacity="0.33" stroke-miterlimit="10"/>
<path d="M119.004 135.664H94.9726V138.469H119.004V135.664Z" stroke="black" stroke-opacity="0.33" stroke-miterlimit="10"/>
<path d="M157.393 72.3096H118.892V75.0334H157.393V72.3096Z" stroke="black" stroke-opacity="0.33" stroke-miterlimit="10"/>
<path d="M180.556 136.779H174.949V142.561H180.556V136.779Z" stroke="black" stroke-opacity="0.33" stroke-miterlimit="10"/>
<path d="M195.13 139.199H192.327V142.554H195.13V139.199Z" stroke="black" stroke-opacity="0.33" stroke-miterlimit="10"/>
<path d="M232.123 152.781H204.308V156.174H232.123V152.781Z" stroke="black" stroke-opacity="0.33" stroke-miterlimit="10"/>
<path d="M336.956 163.448H287.913V165.98H336.956V163.448Z" stroke="black" stroke-opacity="0.33" stroke-miterlimit="10"/>
<path d="M319.951 158.415H300.515V163.454H319.951V158.415Z" stroke="black" stroke-opacity="0.33" stroke-miterlimit="10"/>
<path d="M315.839 158.6V153.939H330.041V163.262" stroke="black" stroke-opacity="0.33" stroke-miterlimit="10"/>
<path d="M222.237 151.388V113.694H267.187V144.925H282.654V91.7976H332.28V156.056H347.741" stroke="black" stroke-opacity="0.33" stroke-miterlimit="10"/>
<path d="M189.877 132.724V91.0795H159.309" stroke="black" stroke-opacity="0.33" stroke-miterlimit="10"/>
<path d="M93.4966 143.13H83.4313V114.053H73.7194" stroke="black" stroke-opacity="0.33" stroke-miterlimit="10"/>
<path d="M17.9787 135.231H9.71182V248.308" stroke="black" stroke-opacity="0.33" stroke-miterlimit="10"/>
<path d="M362.848 114.412V100.774H367.158" stroke="black" stroke-opacity="0.33" stroke-miterlimit="10"/>
<path d="M391.971 101.133H407.438V158.21H433.69V224.258" stroke="black" stroke-opacity="0.33" stroke-miterlimit="10"/>
<path d="M125.764 80.314H121.906V87.8541H125.764V80.314Z" stroke="black" stroke-opacity="0.33" stroke-miterlimit="10"/>
<path d="M132.71 80.314H128.852V87.8541H132.71V80.314Z" stroke="black" stroke-opacity="0.33" stroke-miterlimit="10"/>
<path d="M139.656 80.314H135.798V87.8541H139.656V80.314Z" stroke="black" stroke-opacity="0.33" stroke-miterlimit="10"/>
<path d="M146.608 80.314H142.75V87.8541H146.608V80.314Z" stroke="black" stroke-opacity="0.33" stroke-miterlimit="10"/>
<path d="M153.554 80.314H149.696V87.8541H153.554V80.314Z" stroke="black" stroke-opacity="0.33" stroke-miterlimit="10"/>
<path d="M125.764 93.0543H121.906V100.594H125.764V93.0543Z" stroke="black" stroke-opacity="0.33" stroke-miterlimit="10"/>
<path d="M132.71 93.0543H128.852V100.594H132.71V93.0543Z" stroke="black" stroke-opacity="0.33" stroke-miterlimit="10"/>
<path d="M139.656 93.0543H135.798V100.594H139.656V93.0543Z" stroke="black" stroke-opacity="0.33" stroke-miterlimit="10"/>
<path d="M146.608 93.0543H142.75V100.594H146.608V93.0543Z" stroke="black" stroke-opacity="0.33" stroke-miterlimit="10"/>
<path d="M153.554 93.0543H149.696V100.594H153.554V93.0543Z" stroke="black" stroke-opacity="0.33" stroke-miterlimit="10"/>
<path d="M125.764 105.801H121.906V113.341H125.764V105.801Z" stroke="black" stroke-opacity="0.33" stroke-miterlimit="10"/>
<path d="M132.71 105.801H128.852V113.341H132.71V105.801Z" stroke="black" stroke-opacity="0.33" stroke-miterlimit="10"/>
<path d="M139.656 105.801H135.798V113.341H139.656V105.801Z" stroke="black" stroke-opacity="0.33" stroke-miterlimit="10"/>
<path d="M146.608 105.801H142.75V113.341H146.608V105.801Z" stroke="black" stroke-opacity="0.33" stroke-miterlimit="10"/>
<path d="M153.554 105.801H149.696V113.341H153.554V105.801Z" stroke="black" stroke-opacity="0.33" stroke-miterlimit="10"/>
<path d="M125.764 118.541H121.906V126.081H125.764V118.541Z" stroke="black" stroke-opacity="0.33" stroke-miterlimit="10"/>
<path d="M132.71 118.541H128.852V126.081H132.71V118.541Z" stroke="black" stroke-opacity="0.33" stroke-miterlimit="10"/>
<path d="M139.656 118.541H135.798V126.081H139.656V118.541Z" stroke="black" stroke-opacity="0.33" stroke-miterlimit="10"/>
<path d="M146.608 118.541H142.75V126.081H146.608V118.541Z" stroke="black" stroke-opacity="0.33" stroke-miterlimit="10"/>
<path d="M153.554 118.541H149.696V126.081H153.554V118.541Z" stroke="black" stroke-opacity="0.33" stroke-miterlimit="10"/>
<path d="M125.764 131.287H121.906V138.828H125.764V131.287Z" stroke="black" stroke-opacity="0.33" stroke-miterlimit="10"/>
<path d="M132.71 131.287H128.852V138.828H132.71V131.287Z" stroke="black" stroke-opacity="0.33" stroke-miterlimit="10"/>
<path d="M139.656 131.287H135.798V138.828H139.656V131.287Z" stroke="black" stroke-opacity="0.33" stroke-miterlimit="10"/>
<path d="M146.608 131.287H142.75V138.828H146.608V131.287Z" stroke="black" stroke-opacity="0.33" stroke-miterlimit="10"/>
<path d="M153.554 131.287H149.696V138.828H153.554V131.287Z" stroke="black" stroke-opacity="0.33" stroke-miterlimit="10"/>
<path d="M125.764 144.028H121.906V151.568H125.764V144.028Z" stroke="black" stroke-opacity="0.33" stroke-miterlimit="10"/>
<path d="M132.71 144.028H128.852V151.568H132.71V144.028Z" stroke="black" stroke-opacity="0.33" stroke-miterlimit="10"/>
<path d="M139.656 144.028H135.798V151.568H139.656V144.028Z" stroke="black" stroke-opacity="0.33" stroke-miterlimit="10"/>
<path d="M146.608 144.028H142.75V151.568H146.608V144.028Z" stroke="black" stroke-opacity="0.33" stroke-miterlimit="10"/>
<path d="M153.554 144.028H149.696V151.568H153.554V144.028Z" stroke="black" stroke-opacity="0.33" stroke-miterlimit="10"/>
<path d="M102.08 144.028H98.2223V151.568H102.08V144.028Z" stroke="black" stroke-opacity="0.33" stroke-miterlimit="10"/>
<path d="M109.032 144.028H105.174V151.568H109.032V144.028Z" stroke="black" stroke-opacity="0.33" stroke-miterlimit="10"/>
<path d="M115.978 144.028H112.12V151.568H115.978V144.028Z" stroke="black" stroke-opacity="0.33" stroke-miterlimit="10"/>
<path d="M102.08 156.415H98.2223V163.955H102.08V156.415Z" stroke="black" stroke-opacity="0.33" stroke-miterlimit="10"/>
<path d="M109.032 156.415H105.174V163.955H109.032V156.415Z" stroke="black" stroke-opacity="0.33" stroke-miterlimit="10"/>
<path d="M115.978 156.415H112.12V163.955H115.978V156.415Z" stroke="black" stroke-opacity="0.33" stroke-miterlimit="10"/>
<path d="M102.08 168.796H98.2223V176.337H102.08V168.796Z" stroke="black" stroke-opacity="0.33" stroke-miterlimit="10"/>
<path d="M109.032 168.796H105.174V176.337H109.032V168.796Z" stroke="black" stroke-opacity="0.33" stroke-miterlimit="10"/>
<path d="M115.978 168.796H112.12V176.337H115.978V168.796Z" stroke="black" stroke-opacity="0.33" stroke-miterlimit="10"/>
<path d="M102.08 181.184H98.2223V188.724H102.08V181.184Z" stroke="black" stroke-opacity="0.33" stroke-miterlimit="10"/>
<path d="M109.032 181.184H105.174V188.724H109.032V181.184Z" stroke="black" stroke-opacity="0.33" stroke-miterlimit="10"/>
<path d="M115.978 181.184H112.12V188.724H115.978V181.184Z" stroke="black" stroke-opacity="0.33" stroke-miterlimit="10"/>
<path d="M102.08 193.565H98.2223V201.105H102.08V193.565Z" stroke="black" stroke-opacity="0.33" stroke-miterlimit="10"/>
<path d="M109.032 193.565H105.174V201.105H109.032V193.565Z" stroke="black" stroke-opacity="0.33" stroke-miterlimit="10"/>
<path d="M115.978 193.565H112.12V201.105H115.978V193.565Z" stroke="black" stroke-opacity="0.33" stroke-miterlimit="10"/>
<path d="M102.08 205.952H98.2223V213.493H102.08V205.952Z" stroke="black" stroke-opacity="0.33" stroke-miterlimit="10"/>
<path d="M109.032 205.952H105.174V213.493H109.032V205.952Z" stroke="black" stroke-opacity="0.33" stroke-miterlimit="10"/>
<path d="M115.978 205.952H112.12V213.493H115.978V205.952Z" stroke="black" stroke-opacity="0.33" stroke-miterlimit="10"/>
<path d="M102.08 218.333H98.2223V225.874H102.08V218.333Z" stroke="black" stroke-opacity="0.33" stroke-miterlimit="10"/>
<path d="M109.032 218.333H105.174V225.874H109.032V218.333Z" stroke="black" stroke-opacity="0.33" stroke-miterlimit="10"/>
<path d="M115.978 218.333H112.12V225.874H115.978V218.333Z" stroke="black" stroke-opacity="0.33" stroke-miterlimit="10"/>
<path d="M102.08 230.721H98.2223V238.261H102.08V230.721Z" stroke="black" stroke-opacity="0.33" stroke-miterlimit="10"/>
<path d="M109.032 230.721H105.174V238.261H109.032V230.721Z" stroke="black" stroke-opacity="0.33" stroke-miterlimit="10"/>
<path d="M115.978 230.721H112.12V238.261H115.978V230.721Z" stroke="black" stroke-opacity="0.33" stroke-miterlimit="10"/>
<path d="M102.08 243.102H98.2223V250.642H102.08V243.102Z" stroke="black" stroke-opacity="0.33" stroke-miterlimit="10"/>
<path d="M109.032 243.102H105.174V250.642H109.032V243.102Z" stroke="black" stroke-opacity="0.33" stroke-miterlimit="10"/>
<path d="M115.978 243.102H112.12V250.642H115.978V243.102Z" stroke="black" stroke-opacity="0.33" stroke-miterlimit="10"/>
<path d="M102.08 255.49H98.2223V263.03H102.08V255.49Z" stroke="black" stroke-opacity="0.33" stroke-miterlimit="10"/>
<path d="M109.032 255.49H105.174V263.03H109.032V255.49Z" stroke="black" stroke-opacity="0.33" stroke-miterlimit="10"/>
<path d="M115.978 255.49H112.12V263.03H115.978V255.49Z" stroke="black" stroke-opacity="0.33" stroke-miterlimit="10"/>
<path d="M102.08 267.871H98.2223V275.411H102.08V267.871Z" stroke="black" stroke-opacity="0.33" stroke-miterlimit="10"/>
<path d="M109.032 267.871H105.174V275.411H109.032V267.871Z" stroke="black" stroke-opacity="0.33" stroke-miterlimit="10"/>
<path d="M115.978 267.871H112.12V275.411H115.978V267.871Z" stroke="black" stroke-opacity="0.33" stroke-miterlimit="10"/>
<path d="M164.022 195.001H160.165V202.541H164.022V195.001Z" stroke="black" stroke-opacity="0.33" stroke-miterlimit="10"/>
<path d="M170.968 195.001H167.111V202.541H170.968V195.001Z" stroke="black" stroke-opacity="0.33" stroke-miterlimit="10"/>
<path d="M164.022 207.389H160.165V214.929H164.022V207.389Z" stroke="black" stroke-opacity="0.33" stroke-miterlimit="10"/>
<path d="M170.968 207.389H167.111V214.929H170.968V207.389Z" stroke="black" stroke-opacity="0.33" stroke-miterlimit="10"/>
<path d="M164.022 219.77H160.165V227.31H164.022V219.77Z" stroke="black" stroke-opacity="0.33" stroke-miterlimit="10"/>
<path d="M170.968 219.77H167.111V227.31H170.968V219.77Z" stroke="black" stroke-opacity="0.33" stroke-miterlimit="10"/>
<path d="M164.022 232.157H160.165V239.697H164.022V232.157Z" stroke="black" stroke-opacity="0.33" stroke-miterlimit="10"/>
<path d="M170.968 232.157H167.111V239.697H170.968V232.157Z" stroke="black" stroke-opacity="0.33" stroke-miterlimit="10"/>
<path d="M164.022 244.538H160.165V252.079H164.022V244.538Z" stroke="black" stroke-opacity="0.33" stroke-miterlimit="10"/>
<path d="M170.968 244.538H167.111V252.079H170.968V244.538Z" stroke="black" stroke-opacity="0.33" stroke-miterlimit="10"/>
<path d="M164.022 256.926H160.165V264.466H164.022V256.926Z" stroke="black" stroke-opacity="0.33" stroke-miterlimit="10"/>
<path d="M170.968 256.926H167.111V264.466H170.968V256.926Z" stroke="black" stroke-opacity="0.33" stroke-miterlimit="10"/>
<path d="M164.022 269.307H160.165V276.847H164.022V269.307Z" stroke="black" stroke-opacity="0.33" stroke-miterlimit="10"/>
<path d="M170.968 269.307H167.111V276.847H170.968V269.307Z" stroke="black" stroke-opacity="0.33" stroke-miterlimit="10"/>
<path d="M125.764 156.774H121.906V164.314H125.764V156.774Z" stroke="black" stroke-opacity="0.33" stroke-miterlimit="10"/>
<path d="M132.71 156.774H128.852V164.314H132.71V156.774Z" stroke="black" stroke-opacity="0.33" stroke-miterlimit="10"/>
<path d="M139.656 156.774H135.798V164.314H139.656V156.774Z" stroke="black" stroke-opacity="0.33" stroke-miterlimit="10"/>
<path d="M146.608 156.774H142.75V164.314H146.608V156.774Z" stroke="black" stroke-opacity="0.33" stroke-miterlimit="10"/>
<path d="M153.554 156.774H149.696V164.314H153.554V156.774Z" stroke="black" stroke-opacity="0.33" stroke-miterlimit="10"/>
<path d="M125.764 169.514H121.906V177.055H125.764V169.514Z" stroke="black" stroke-opacity="0.33" stroke-miterlimit="10"/>
<path d="M132.71 169.514H128.852V177.055H132.71V169.514Z" stroke="black" stroke-opacity="0.33" stroke-miterlimit="10"/>
<path d="M139.656 169.514H135.798V177.055H139.656V169.514Z" stroke="black" stroke-opacity="0.33" stroke-miterlimit="10"/>
<path d="M146.608 169.514H142.75V177.055H146.608V169.514Z" stroke="black" stroke-opacity="0.33" stroke-miterlimit="10"/>
<path d="M153.554 169.514H149.696V177.055H153.554V169.514Z" stroke="black" stroke-opacity="0.33" stroke-miterlimit="10"/>
<path d="M125.764 182.261H121.906V189.801H125.764V182.261Z" stroke="black" stroke-opacity="0.33" stroke-miterlimit="10"/>
<path d="M132.71 182.261H128.852V189.801H132.71V182.261Z" stroke="black" stroke-opacity="0.33" stroke-miterlimit="10"/>
<path d="M139.656 182.261H135.798V189.801H139.656V182.261Z" stroke="black" stroke-opacity="0.33" stroke-miterlimit="10"/>
<path d="M146.608 182.261H142.75V189.801H146.608V182.261Z" stroke="black" stroke-opacity="0.33" stroke-miterlimit="10"/>
<path d="M153.554 182.261H149.696V189.801H153.554V182.261Z" stroke="black" stroke-opacity="0.33" stroke-miterlimit="10"/>
<path d="M125.764 195.001H121.906V202.541H125.764V195.001Z" stroke="black" stroke-opacity="0.33" stroke-miterlimit="10"/>
<path d="M132.71 195.001H128.852V202.541H132.71V195.001Z" stroke="black" stroke-opacity="0.33" stroke-miterlimit="10"/>
<path d="M139.656 195.001H135.798V202.541H139.656V195.001Z" stroke="black" stroke-opacity="0.33" stroke-miterlimit="10"/>
<path d="M146.608 195.001H142.75V202.541H146.608V195.001Z" stroke="black" stroke-opacity="0.33" stroke-miterlimit="10"/>
<path d="M153.554 195.001H149.696V202.541H153.554V195.001Z" stroke="black" stroke-opacity="0.33" stroke-miterlimit="10"/>
<path d="M125.764 207.748H121.906V215.288H125.764V207.748Z" stroke="black" stroke-opacity="0.33" stroke-miterlimit="10"/>
<path d="M132.71 207.748H128.852V215.288H132.71V207.748Z" stroke="black" stroke-opacity="0.33" stroke-miterlimit="10"/>
<path d="M139.656 207.748H135.798V215.288H139.656V207.748Z" stroke="black" stroke-opacity="0.33" stroke-miterlimit="10"/>
<path d="M146.608 207.748H142.75V215.288H146.608V207.748Z" stroke="black" stroke-opacity="0.33" stroke-miterlimit="10"/>
<path d="M153.554 207.748H149.696V215.288H153.554V207.748Z" stroke="black" stroke-opacity="0.33" stroke-miterlimit="10"/>
<path d="M125.764 220.488H121.906V228.028H125.764V220.488Z" stroke="black" stroke-opacity="0.33" stroke-miterlimit="10"/>
<path d="M132.71 220.488H128.852V228.028H132.71V220.488Z" stroke="black" stroke-opacity="0.33" stroke-miterlimit="10"/>
<path d="M139.656 220.488H135.798V228.028H139.656V220.488Z" stroke="black" stroke-opacity="0.33" stroke-miterlimit="10"/>
<path d="M146.608 220.488H142.75V228.028H146.608V220.488Z" stroke="black" stroke-opacity="0.33" stroke-miterlimit="10"/>
<path d="M153.554 220.488H149.696V228.028H153.554V220.488Z" stroke="black" stroke-opacity="0.33" stroke-miterlimit="10"/>
<path d="M125.764 233.234H121.906V240.775H125.764V233.234Z" stroke="black" stroke-opacity="0.33" stroke-miterlimit="10"/>
<path d="M132.71 233.234H128.852V240.775H132.71V233.234Z" stroke="black" stroke-opacity="0.33" stroke-miterlimit="10"/>
<path d="M139.656 233.234H135.798V240.775H139.656V233.234Z" stroke="black" stroke-opacity="0.33" stroke-miterlimit="10"/>
<path d="M146.608 233.234H142.75V240.775H146.608V233.234Z" stroke="black" stroke-opacity="0.33" stroke-miterlimit="10"/>
<path d="M153.554 233.234H149.696V240.775H153.554V233.234Z" stroke="black" stroke-opacity="0.33" stroke-miterlimit="10"/>
<path d="M125.764 245.975H121.906V253.515H125.764V245.975Z" stroke="black" stroke-opacity="0.33" stroke-miterlimit="10"/>
<path d="M132.71 245.975H128.852V253.515H132.71V245.975Z" stroke="black" stroke-opacity="0.33" stroke-miterlimit="10"/>
<path d="M139.656 245.975H135.798V253.515H139.656V245.975Z" stroke="black" stroke-opacity="0.33" stroke-miterlimit="10"/>
<path d="M146.608 245.975H142.75V253.515H146.608V245.975Z" stroke="black" stroke-opacity="0.33" stroke-miterlimit="10"/>
<path d="M153.554 245.975H149.696V253.515H153.554V245.975Z" stroke="black" stroke-opacity="0.33" stroke-miterlimit="10"/>
<path d="M125.764 258.721H121.906V266.261H125.764V258.721Z" stroke="black" stroke-opacity="0.33" stroke-miterlimit="10"/>
<path d="M132.71 258.721H128.852V266.261H132.71V258.721Z" stroke="black" stroke-opacity="0.33" stroke-miterlimit="10"/>
<path d="M139.656 258.721H135.798V266.261H139.656V258.721Z" stroke="black" stroke-opacity="0.33" stroke-miterlimit="10"/>
<path d="M146.608 258.721H142.75V266.261H146.608V258.721Z" stroke="black" stroke-opacity="0.33" stroke-miterlimit="10"/>
<path d="M153.554 258.721H149.696V266.261H153.554V258.721Z" stroke="black" stroke-opacity="0.33" stroke-miterlimit="10"/>
<path d="M125.764 271.82H121.906V279.361H125.764V271.82Z" stroke="black" stroke-opacity="0.33" stroke-miterlimit="10"/>
<path d="M132.71 271.82H128.852V279.361H132.71V271.82Z" stroke="black" stroke-opacity="0.33" stroke-miterlimit="10"/>
<path d="M139.656 271.82H135.798V279.361H139.656V271.82Z" stroke="black" stroke-opacity="0.33" stroke-miterlimit="10"/>
<path d="M146.608 271.82H142.75V279.361H146.608V271.82Z" stroke="black" stroke-opacity="0.33" stroke-miterlimit="10"/>
<path d="M153.554 271.82H149.696V279.361H153.554V271.82Z" stroke="black" stroke-opacity="0.33" stroke-miterlimit="10"/>
<path d="M119.004 138.462V292.101" stroke="black" stroke-opacity="0.33" stroke-miterlimit="10"/>
<path d="M178.007 145.643V289.946" stroke="black" stroke-opacity="0.33" stroke-miterlimit="10"/>
<path d="M185.561 145.643V289.946" stroke="black" stroke-opacity="0.33" stroke-miterlimit="10"/>
<path d="M193.108 145.643V289.946" stroke="black" stroke-opacity="0.33" stroke-miterlimit="10"/>
<path d="M200.662 145.643V289.946" stroke="black" stroke-opacity="0.33" stroke-miterlimit="10"/>
<path d="M208.215 160V289.947" stroke="black" stroke-opacity="0.33" stroke-miterlimit="10"/>
<path d="M215.763 160V289.947" stroke="black" stroke-opacity="0.33" stroke-miterlimit="10"/>
<path d="M223.316 160V289.947" stroke="black" stroke-opacity="0.33" stroke-miterlimit="10"/>
<path d="M21.5757 111.18H68.6836" stroke="black" stroke-opacity="0.33" stroke-miterlimit="10"/>
<path d="M21.5757 120.516H68.6836" stroke="black" stroke-opacity="0.33" stroke-miterlimit="10"/>
<path d="M21.5757 129.851H68.6836" stroke="black" stroke-opacity="0.33" stroke-miterlimit="10"/>
<path d="M21.5757 139.181H68.6836" stroke="black" stroke-opacity="0.33" stroke-miterlimit="10"/>
<path d="M21.5757 148.516H68.6836" stroke="black" stroke-opacity="0.33" stroke-miterlimit="10"/>
<path d="M21.5757 157.851H68.6836" stroke="black" stroke-opacity="0.33" stroke-miterlimit="10"/>
<path d="M21.5757 167.181H68.6836" stroke="black" stroke-opacity="0.33" stroke-miterlimit="10"/>
<path d="M21.5757 176.516H68.6836" stroke="black" stroke-opacity="0.33" stroke-miterlimit="10"/>
<path d="M21.5757 185.845H68.6836" stroke="black" stroke-opacity="0.33" stroke-miterlimit="10"/>
<path d="M21.5757 195.181H68.6836" stroke="black" stroke-opacity="0.33" stroke-miterlimit="10"/>
<path d="M21.5757 204.516H68.6836" stroke="black" stroke-opacity="0.33" stroke-miterlimit="10"/>
<path d="M21.5757 213.845H68.6836" stroke="black" stroke-opacity="0.33" stroke-miterlimit="10"/>
<path d="M21.5757 223.181H68.6836" stroke="black" stroke-opacity="0.33" stroke-miterlimit="10"/>
<path d="M21.5757 232.516H68.6836" stroke="black" stroke-opacity="0.33" stroke-miterlimit="10"/>
<path d="M21.5757 241.845H68.6836" stroke="black" stroke-opacity="0.33" stroke-miterlimit="10"/>
<path d="M21.5757 251.181H68.6836" stroke="black" stroke-opacity="0.33" stroke-miterlimit="10"/>
<path d="M21.5757 260.516H68.6836" stroke="black" stroke-opacity="0.33" stroke-miterlimit="10"/>
<path d="M21.5757 269.846H68.6836" stroke="black" stroke-opacity="0.33" stroke-miterlimit="10"/>
<path d="M21.5757 279.181H68.6836" stroke="black" stroke-opacity="0.33" stroke-miterlimit="10"/>
<path d="M21.5757 288.51H68.6836" stroke="black" stroke-opacity="0.33" stroke-miterlimit="10"/>
<path d="M21.5757 297.846H68.6836" stroke="black" stroke-opacity="0.33" stroke-miterlimit="10"/>
<path d="M27.6905 97.1835V300" stroke="black" stroke-opacity="0.33" stroke-miterlimit="10"/>
<path d="M351.338 137.026H361.769V142.053H351.338" stroke="black" stroke-opacity="0.33" stroke-miterlimit="10"/>
<path d="M412.114 193.385H400.244V198.412H412.114" stroke="black" stroke-opacity="0.33" stroke-miterlimit="10"/>
<path d="M412.114 205.234H400.244V210.261H412.114" stroke="black" stroke-opacity="0.33" stroke-miterlimit="10"/>
<path d="M412.114 217.077H400.244V222.104H412.114" stroke="black" stroke-opacity="0.33" stroke-miterlimit="10"/>
<path d="M412.114 228.926H400.244V233.952H412.114" stroke="black" stroke-opacity="0.33" stroke-miterlimit="10"/>
<path d="M412.114 240.768H400.244V245.795H412.114" stroke="black" stroke-opacity="0.33" stroke-miterlimit="10"/>
<path d="M412.114 252.617H400.244V257.644H412.114" stroke="black" stroke-opacity="0.33" stroke-miterlimit="10"/>
<path d="M412.114 264.46H400.244V269.487H412.114" stroke="black" stroke-opacity="0.33" stroke-miterlimit="10"/>
<path d="M412.114 276.309H400.244V281.335H412.114" stroke="black" stroke-opacity="0.33" stroke-miterlimit="10"/>
<path d="M351.338 150.67H361.769V155.697H351.338" stroke="black" stroke-opacity="0.33" stroke-miterlimit="10"/>
<path d="M351.338 164.308H361.769V169.335H351.338" stroke="black" stroke-opacity="0.33" stroke-miterlimit="10"/>
<path d="M351.338 177.952H361.769V182.979H351.338" stroke="black" stroke-opacity="0.33" stroke-miterlimit="10"/>
<path d="M351.338 191.59H361.769V196.617H351.338" stroke="black" stroke-opacity="0.33" stroke-miterlimit="10"/>
<path d="M351.338 205.234H361.769V210.261H351.338" stroke="black" stroke-opacity="0.33" stroke-miterlimit="10"/>
<path d="M351.338 218.872H361.769V223.899H351.338" stroke="black" stroke-opacity="0.33" stroke-miterlimit="10"/>
<path d="M351.338 232.516H361.769V237.537H351.338" stroke="black" stroke-opacity="0.33" stroke-miterlimit="10"/>
<path d="M351.338 246.154H361.769V251.181H351.338" stroke="black" stroke-opacity="0.33" stroke-miterlimit="10"/>
<path d="M351.338 259.798H361.769V264.819H351.338" stroke="black" stroke-opacity="0.33" stroke-miterlimit="10"/>
<path d="M334.798 169.694H289.488V174.003H334.798V169.694Z" stroke="black" stroke-opacity="0.33" stroke-miterlimit="10"/>
<path d="M334.798 177.234H289.488V181.543H334.798V177.234Z" stroke="black" stroke-opacity="0.33" stroke-miterlimit="10"/>
<path d="M334.798 184.774H289.488V189.083H334.798V184.774Z" stroke="black" stroke-opacity="0.33" stroke-miterlimit="10"/>
<path d="M334.798 192.308H289.488V196.617H334.798V192.308Z" stroke="black" stroke-opacity="0.33" stroke-miterlimit="10"/>
<path d="M334.798 199.848H289.488V204.157H334.798V199.848Z" stroke="black" stroke-opacity="0.33" stroke-miterlimit="10"/>
<path d="M334.798 207.389H289.488V211.697H334.798V207.389Z" stroke="black" stroke-opacity="0.33" stroke-miterlimit="10"/>
<path d="M334.798 214.923H289.488V219.231H334.798V214.923Z" stroke="black" stroke-opacity="0.33" stroke-miterlimit="10"/>
<path d="M334.798 222.463H289.488V226.771H334.798V222.463Z" stroke="black" stroke-opacity="0.33" stroke-miterlimit="10"/>
<path d="M334.798 230.003H289.488V234.312H334.798V230.003Z" stroke="black" stroke-opacity="0.33" stroke-miterlimit="10"/>
<path d="M334.798 237.537H289.488V241.846H334.798V237.537Z" stroke="black" stroke-opacity="0.33" stroke-miterlimit="10"/>
<path d="M334.798 245.077H289.488V249.386H334.798V245.077Z" stroke="black" stroke-opacity="0.33" stroke-miterlimit="10"/>
<path d="M334.798 252.617H289.488V256.926H334.798V252.617Z" stroke="black" stroke-opacity="0.33" stroke-miterlimit="10"/>
<path d="M334.798 260.157H289.488V264.466H334.798V260.157Z" stroke="black" stroke-opacity="0.33" stroke-miterlimit="10"/>
<path d="M334.798 267.691H289.488V272H334.798V267.691Z" stroke="black" stroke-opacity="0.33" stroke-miterlimit="10"/>
<path d="M334.798 275.231H289.488V279.54H334.798V275.231Z" stroke="black" stroke-opacity="0.33" stroke-miterlimit="10"/>
<path d="M334.798 282.772H289.488V287.08H334.798V282.772Z" stroke="black" stroke-opacity="0.33" stroke-miterlimit="10"/>
<path d="M334.798 290.306H289.488V294.614H334.798V290.306Z" stroke="black" stroke-opacity="0.33" stroke-miterlimit="10"/>
<path d="M368.237 125.184V291.742" stroke="black" stroke-opacity="0.33" stroke-miterlimit="10"/>
<path d="M377.589 93.5929V291.742" stroke="black" stroke-opacity="0.33" stroke-miterlimit="10"/>
<path d="M270.065 253.694H247.41V265.543H270.065V253.694Z" stroke="black" stroke-opacity="0.33" stroke-miterlimit="10"/>
<path d="M264.675 232.875H252.805V253.694H264.675V232.875Z" stroke="black" stroke-opacity="0.33" stroke-miterlimit="10"/>
<path d="M157.393 188.972V291.816" stroke="black" stroke-opacity="0.33" stroke-miterlimit="10"/>
<path d="M287.516 177.698H232.507" stroke="black" stroke-opacity="0.33" stroke-miterlimit="10"/>
<path d="M287.516 183.833H232.507" stroke="black" stroke-opacity="0.33" stroke-miterlimit="10"/>
<path d="M243.354 188.439H234.963V194.574H243.354V188.439Z" stroke="black" stroke-opacity="0.33" stroke-miterlimit="10"/>
<path d="M253.705 188.439H245.314V194.574H253.705V188.439Z" stroke="black" stroke-opacity="0.33" stroke-miterlimit="10"/>
<path d="M264.055 188.439H255.664V194.574H264.055V188.439Z" stroke="black" stroke-opacity="0.33" stroke-miterlimit="10"/>
<path d="M274.4 188.439H266.009V194.574H274.4V188.439Z" stroke="black" stroke-opacity="0.33" stroke-miterlimit="10"/>
<path d="M284.75 188.439H276.359V194.574H284.75V188.439Z" stroke="black" stroke-opacity="0.33" stroke-miterlimit="10"/>
<path d="M243.354 197.948H234.963V204.083H243.354V197.948Z" stroke="black" stroke-opacity="0.33" stroke-miterlimit="10"/>
<path d="M253.705 197.948H245.314V204.083H253.705V197.948Z" stroke="black" stroke-opacity="0.33" stroke-miterlimit="10"/>
<path d="M264.055 197.948H255.664V204.083H264.055V197.948Z" stroke="black" stroke-opacity="0.33" stroke-miterlimit="10"/>
<path d="M274.4 197.948H266.009V204.083H274.4V197.948Z" stroke="black" stroke-opacity="0.33" stroke-miterlimit="10"/>
<path d="M284.75 197.948H276.359V204.083H284.75V197.948Z" stroke="black" stroke-opacity="0.33" stroke-miterlimit="10"/>
<path d="M243.354 207.457H234.963V213.592H243.354V207.457Z" stroke="black" stroke-opacity="0.33" stroke-miterlimit="10"/>
<path d="M253.705 207.457H245.314V213.592H253.705V207.457Z" stroke="black" stroke-opacity="0.33" stroke-miterlimit="10"/>
<path d="M264.055 207.457H255.664V213.592H264.055V207.457Z" stroke="black" stroke-opacity="0.33" stroke-miterlimit="10"/>
<path d="M274.4 207.457H266.009V213.592H274.4V207.457Z" stroke="black" stroke-opacity="0.33" stroke-miterlimit="10"/>
<path d="M284.75 207.457H276.359V213.592H284.75V207.457Z" stroke="black" stroke-opacity="0.33" stroke-miterlimit="10"/>
<path d="M243.354 224.636H234.963V230.771H243.354V224.636Z" stroke="black" stroke-opacity="0.33" stroke-miterlimit="10"/>
<path d="M253.705 224.636H245.314V230.771H253.705V224.636Z" stroke="black" stroke-opacity="0.33" stroke-miterlimit="10"/>
<path d="M264.055 224.636H255.664V230.771H264.055V224.636Z" stroke="black" stroke-opacity="0.33" stroke-miterlimit="10"/>
<path d="M274.4 224.636H266.009V230.771H274.4V224.636Z" stroke="black" stroke-opacity="0.33" stroke-miterlimit="10"/>
<path d="M284.75 224.636H276.359V230.771H284.75V224.636Z" stroke="black" stroke-opacity="0.33" stroke-miterlimit="10"/>
</g>
</g>
<g clip-path="url(#clip1_268_2700)" filter="url(#filter0_d_268_2700)">
<path d="M61.6214 293.139L378.621 293.139" stroke="#263238" stroke-miterlimit="10"/>
<g clip-path="url(#clip2_268_2700)">
<path d="M293.644 286.362C293.644 292 290.438 292.994 286.477 292.994H284.509C280.548 292.994 277.342 291.994 277.342 286.362V264.021C277.342 258.384 280.548 253.818 284.509 253.818H286.477C290.438 253.818 293.644 258.384 293.644 264.021V286.362Z" fill="#2F2F2F"/>
<path d="M372.196 286.362C372.196 292 368.989 292.994 365.029 292.994H363.06C359.1 292.994 355.893 291.994 355.893 286.362V264.021C355.893 258.384 359.1 253.818 363.06 253.818H365.029C368.989 253.818 372.196 258.384 372.196 264.021V286.362Z" fill="#2F2F2F"/>
<path d="M369.001 256.366H281.224V285.196H369.001V256.366Z" fill="#2F2F2F"/>
<path d="M290.198 278.07C290.198 279.975 288.649 281.517 286.734 281.517C284.82 281.517 283.27 279.975 283.27 278.07C283.27 276.165 284.82 274.623 286.734 274.623C288.649 274.623 290.198 276.165 290.198 278.07Z" fill="white" stroke="#1A2E35" stroke-linecap="round" stroke-linejoin="round"/>
<path d="M290.455 262.682C290.455 264.021 289.367 265.105 288.021 265.105C286.674 265.105 285.586 264.021 285.586 262.682C285.586 261.342 286.674 260.259 288.021 260.259C289.367 260.259 290.455 261.342 290.455 262.682Z" fill="white"/>
<path d="M364.048 262.682C364.048 264.021 362.959 265.105 361.613 265.105C360.267 265.105 359.178 264.021 359.178 262.682C359.178 261.342 360.267 260.259 361.613 260.259C362.959 260.259 364.048 261.342 364.048 262.682Z" fill="white"/>
<path d="M366.1 277.903C366.1 279.808 364.55 281.35 362.636 281.35C360.721 281.35 359.172 279.808 359.172 277.903C359.172 275.998 360.721 274.457 362.636 274.457C364.55 274.457 366.1 275.998 366.1 277.903Z" fill="white" stroke="#1A2E35" stroke-linecap="round" stroke-linejoin="round"/>
<path d="M376.677 244.906C376.677 240.84 372.405 241.4 372.405 241.4H369.671C365.585 241.4 364.891 244.876 364.885 244.906C363.778 241.721 359.244 229.292 355.229 226.774C350.617 223.88 324.802 223.714 324.802 223.714C324.802 223.714 298.987 223.886 294.374 226.774C290.354 229.292 285.825 241.727 284.718 244.906H282.409C282.409 244.906 281.727 241.4 277.623 241.4H274.889C274.889 241.4 270.617 240.84 270.617 244.906C270.617 244.906 269.678 248.716 272.926 248.716H280.782C278.664 250.859 276.773 253.83 276.773 258.58V277.63C276.773 277.63 274.979 289.023 291.987 289.023H357.628C374.637 289.023 372.842 277.63 372.842 277.63V258.58C372.842 253.824 370.952 250.859 368.834 248.716H374.38C377.096 248.716 376.689 244.906 376.689 244.906H376.677ZM366.064 259.175C366.064 259.175 366.836 265.807 360.937 266.64C355.038 267.468 349.271 267.855 349.271 267.855C349.271 267.855 349.785 262.241 353.823 260.836C357.862 259.431 366.07 259.175 366.07 259.175H366.064ZM291.634 241.019L293.794 235.28C295.954 229.542 298.873 229.155 304.078 228.518C309.283 227.881 324.939 227.625 324.939 227.625C324.939 227.625 340.59 227.881 345.801 228.518C351.006 229.155 353.931 229.536 356.085 235.28L358.244 241.019C358.244 241.019 360.147 246.252 353.925 246.252H295.954C289.732 246.252 291.634 241.019 291.634 241.019ZM283.534 259.175C283.534 259.175 291.736 259.431 295.78 260.836C299.818 262.241 300.333 267.855 300.333 267.855C300.333 267.855 294.566 267.474 288.667 266.64C282.768 265.807 283.54 259.175 283.54 259.175H283.534ZM299.627 283.713H288.451C288.451 283.713 281.847 284.499 281.847 276.993H303.641C303.641 276.993 302.959 283.713 299.627 283.713ZM340.099 278.826C340.099 278.826 339.501 281.975 334.715 281.975H314.883C310.096 281.975 309.498 278.826 309.498 278.826C309.498 278.826 309.289 278.272 308.972 277.38H340.62C340.303 278.272 340.093 278.826 340.093 278.826H340.099ZM342.702 270.575H306.896C305.986 266.92 305.49 263.241 306.848 262.325C309.755 260.366 324.796 260.539 324.796 260.539C324.796 260.539 339.836 260.366 342.744 262.325C344.108 263.241 343.611 266.92 342.696 270.575H342.702ZM363.731 283.713H352.555C352.555 283.713 345.95 284.499 345.95 276.993H367.745C367.745 276.993 367.063 283.713 363.731 283.713Z" fill="#F66F6F" stroke="#1A2E35" stroke-miterlimit="10"/>
<path d="M372.83 277.63C372.83 277.63 369.282 286.362 355.953 286.362H293.644C280.315 286.362 276.767 277.63 276.767 277.63C276.767 277.63 274.972 289.023 291.981 289.023H357.616C374.625 289.023 372.83 277.63 372.83 277.63Z" fill="#BDBDBD" stroke="#1A2E35" stroke-linecap="round" stroke-linejoin="round"/>
<path d="M362.384 247.21C361.834 245.406 361.314 243.561 361.236 242.817C361.2 244.228 360.32 246.013 356.097 246.013H293.967C289.744 246.013 288.864 244.228 288.828 242.817C288.744 243.561 288.224 245.412 287.68 247.21C287.129 249.026 287.889 250.966 289.558 251.978C294.942 255.247 305.274 261.473 306.184 260.967C308.9 259.449 321.081 259.306 325.041 259.3C328.996 259.3 341.176 259.443 343.898 260.967C344.802 261.473 355.134 255.247 360.524 251.978C362.193 250.966 362.953 249.026 362.402 247.21H362.384Z" fill="#F66F6F" stroke="#1A2E35" stroke-miterlimit="10"/>
<path d="M324.939 246.204H356.18C362.887 246.204 360.835 240.567 360.835 240.567L358.508 234.381C356.18 228.196 353.034 227.78 347.422 227.095C341.81 226.41 324.945 226.131 324.945 226.131C324.945 226.131 308.074 226.404 302.469 227.095C296.857 227.78 293.71 228.196 291.383 234.381L289.056 240.567C289.056 240.567 287.004 246.204 293.71 246.204H324.951H324.939Z" fill="#2F2F2F"/>
<path d="M320.171 227.416C315.858 227.512 306.417 227.756 302.672 228.214C297.754 228.815 294.99 229.179 292.95 234.602L290.91 240.025C290.91 240.025 289.109 244.966 294.99 244.966H329.666L320.165 227.411L320.171 227.416Z" fill="white"/>
<path d="M327.356 227.393C326.297 227.416 324.921 227.446 323.402 227.488L332.848 244.942H336.857L327.356 227.387V227.393Z" fill="white"/>
<path d="M192.867 289.458C192.867 291.369 191.072 292.917 188.853 292.917H183.235C181.022 292.917 179.221 291.369 179.221 289.458V267.599C179.221 265.688 181.016 264.14 183.235 264.14H188.853C191.066 264.14 192.867 265.688 192.867 267.599V289.458Z" fill="#2F2F2F"/>
<path d="M259.765 289.458C259.765 291.369 257.97 292.917 255.756 292.917H250.139C247.919 292.917 246.124 291.369 246.124 289.458V267.599C246.124 265.688 247.919 264.14 250.139 264.14H255.756C257.97 264.14 259.765 265.688 259.765 267.599V289.458Z" fill="#2F2F2F"/>
<path d="M262.93 167H175.464V269.569H262.93V167Z" fill="#2F2F2F"/>
<path d="M261.5 277.88H177.923V282.815H261.5V277.88Z" fill="#2F2F2F"/>
<path d="M260.136 233.596C260.136 240.531 255.212 246.15 249.134 246.15H188.619C182.541 246.15 177.617 240.531 177.617 233.596V181.192C177.617 174.257 182.541 168.637 188.619 168.637H249.134C255.212 168.637 260.136 174.257 260.136 181.192V233.596Z" fill="#F66F6F" stroke="#1A2E35" stroke-miterlimit="10"/>
<path d="M189.858 169.185L192.885 176.852H242.666L247.895 168.917" stroke="#003242" stroke-miterlimit="10"/>
<path d="M259.089 239.078C259.089 244.942 252.442 248.978 246.896 248.978H191.659C186.113 248.978 179.999 243.71 179.999 237.846L181.524 191.746C181.524 185.883 186.113 183.394 191.659 183.394L239.202 183.508C243.564 183.609 256.935 181.99 256.935 194.014L259.083 239.078H259.089Z" fill="#2F2F2F"/>
<path d="M264.252 256.3H173.507V260.253H264.252V256.3Z" fill="#2F2F2F"/>
<path d="M264.156 257.866C264.395 256.877 264.533 255.854 264.533 254.788V246.162C264.533 239.358 259.358 233.84 252.974 233.84H184.773C178.389 233.84 173.214 239.358 173.214 246.162V254.788C173.214 255.854 173.352 256.883 173.591 257.866H264.15H264.156Z" fill="#F66F6F" stroke="#1A2E35" stroke-miterlimit="10"/>
<path d="M183.379 216.177H170.791V218.642H183.379V216.177Z" fill="#2F2F2F"/>
<path d="M174.088 197.777C173.615 197.598 173.107 197.491 172.568 197.491C170.217 197.491 168.309 199.39 168.309 201.729V216.255C168.309 218.594 170.217 220.493 172.568 220.493C173.107 220.493 173.615 220.392 174.088 220.207V197.777Z" fill="#2F2F2F"/>
<path d="M185.239 214.332H181.105V220.285H185.239V214.332Z" fill="#2F2F2F"/>
<path d="M268.015 216.796H255.427V219.261H268.015V216.796Z" fill="#2F2F2F"/>
<path d="M264.712 197.777C265.185 197.598 265.693 197.491 266.232 197.491C268.583 197.491 270.492 199.39 270.492 201.729V216.255C270.492 218.594 268.583 220.493 266.232 220.493C265.693 220.493 265.185 220.392 264.712 220.207V197.777Z" fill="#2F2F2F"/>
<path d="M257.904 214.332H254.392V220.285H257.904V214.332Z" fill="#2F2F2F"/>
<path d="M173.244 246.162C173.244 246.162 182.015 246.162 184.904 246.162C187.794 246.162 189.14 246.418 190.061 245.442C190.767 244.698 190.157 242.835 189.648 242.156C187.842 239.733 179.538 235.274 179.538 235.274C179.538 235.274 177.887 235.483 176.026 237.947C174.171 240.412 173.346 242.257 173.136 243.287C172.927 244.317 173.238 246.162 173.238 246.162H173.244Z" fill="#2F2F2F"/>
<path d="M172.933 244.412C172.933 244.412 180.657 244.418 183.086 244.418C185.515 244.418 186.651 244.614 187.429 243.87C188.021 243.299 187.507 241.876 187.082 241.358C185.562 239.501 177.958 235.995 177.958 235.995C177.958 235.995 177.151 236.227 175.619 238.138C173.142 241.227 172.933 244.412 172.933 244.412Z" fill="white" stroke="#1A2E35" stroke-linecap="round" stroke-linejoin="round"/>
<path d="M176.235 239.548C175.518 240.049 175.398 242.34 176.134 243.132C176.547 243.579 179.131 243.71 179.795 243.287C180.561 242.799 180.627 240.138 179.999 239.59C179.999 239.59 176.977 239.031 176.235 239.548Z" fill="white" stroke="#1A2E35" stroke-linecap="round" stroke-linejoin="round"/>
<path d="M181.452 240.328C180.914 240.709 180.824 242.43 181.375 243.025C181.686 243.358 183.63 243.46 184.133 243.138C184.707 242.769 184.761 240.769 184.288 240.358C184.288 240.358 182.015 239.935 181.452 240.328Z" fill="white" stroke="#1A2E35" stroke-linecap="round" stroke-linejoin="round"/>
<path d="M264.509 246.162C264.509 246.162 255.738 246.162 252.849 246.162C249.959 246.162 248.613 246.418 247.692 245.442C246.986 244.698 247.596 242.835 248.105 242.156C249.911 239.733 258.215 235.274 258.215 235.274C258.215 235.274 259.866 235.483 261.721 237.947C263.576 240.412 264.401 242.257 264.611 243.287C264.82 244.317 264.509 246.162 264.509 246.162Z" fill="#2F2F2F"/>
<path d="M264.82 244.412C264.82 244.412 257.096 244.418 254.668 244.418C252.239 244.418 251.102 244.614 250.324 243.87C249.726 243.299 250.246 241.876 250.671 241.358C252.197 239.501 259.801 235.995 259.801 235.995C259.801 235.995 260.608 236.227 262.14 238.138C264.611 241.227 264.82 244.412 264.82 244.412Z" fill="white" stroke="#1A2E35" stroke-linecap="round" stroke-linejoin="round"/>
<path d="M261.518 239.548C262.235 240.049 262.355 242.34 261.619 243.132C261.206 243.579 258.622 243.71 257.958 243.287C257.192 242.799 257.126 240.138 257.749 239.59C257.749 239.59 260.77 239.031 261.518 239.548Z" fill="white" stroke="#1A2E35" stroke-linecap="round" stroke-linejoin="round"/>
<path d="M256.301 240.328C256.839 240.709 256.929 242.43 256.379 243.025C256.067 243.358 254.123 243.46 253.627 243.138C253.052 242.769 252.998 240.769 253.471 240.358C253.471 240.358 255.744 239.935 256.307 240.328H256.301Z" fill="white" stroke="#1A2E35" stroke-linecap="round" stroke-linejoin="round"/>
<path d="M255.194 219.404L253.776 193.544C253.776 188.943 250.97 186.919 245.771 186.919H193.944C188.739 186.919 185.562 188.127 185.562 192.723L184.527 226.613C184.45 228.381 184.45 229.81 184.569 230.708C184.826 233.393 186.777 235.328 188.972 237.06C192.945 240.203 201.524 246.097 201.524 246.097L241.41 245.549C241.41 245.549 255.206 232.375 255.206 230.006V229.637C255.385 228.137 255.373 224.011 255.206 219.404H255.194Z" fill="#F66F6F" stroke="#1A2E35" stroke-miterlimit="10"/>
<path d="M190.731 191.246L186.825 215.511H251.736L248.99 190.949L190.731 191.246Z" fill="#2F2F2F"/>
<path d="M196.834 230.22L184.647 217.981L181.53 234.149C181.53 234.149 190.522 238.245 192.765 240.864C195.009 243.478 199.897 251.502 199.897 251.502C199.897 251.502 196.433 239.555 196.433 237.126C196.433 234.697 196.84 230.22 196.84 230.22H196.834Z" fill="#F66F6F" stroke="#1A2E35" stroke-miterlimit="10"/>
<path d="M239.873 231.81L255.116 217.975L258.233 234.143C258.233 234.143 249.241 238.239 246.998 240.858C244.754 243.472 239.867 251.496 239.867 251.496C239.867 251.496 243.33 239.549 243.33 237.12C243.33 234.691 239.867 231.804 239.867 231.804L239.873 231.81Z" fill="#F66F6F" stroke="#1A2E35" stroke-miterlimit="10"/>
<path d="M187.734 218.642L195.577 226.839L241.595 227.422L250.886 219.231" fill="#F66F6F"/>
<path d="M187.734 218.642L195.577 226.839L241.595 227.422L250.886 219.231" stroke="#1A2E35" stroke-miterlimit="10"/>
<path d="M174.303 250.163L190.396 249.96" stroke="#003242" stroke-miterlimit="10"/>
<path d="M247.357 250.163L263.45 249.96" stroke="#003242" stroke-miterlimit="10"/>
<path d="M173.471 259.914V272.796C173.471 276.623 176.953 279.731 181.249 279.731H256.504C260.8 279.731 264.282 276.623 264.282 272.796V259.914H173.471Z" fill="#BDBDBD" stroke="#1A2E35" stroke-linecap="round" stroke-linejoin="round"/>
<path d="M178.395 262.848C178.395 262.848 179.957 268.522 181.65 269.051C183.343 269.581 198.999 269.772 198.999 269.772L196.499 262.997L178.395 262.848Z" fill="#2F2F2F"/>
<path d="M259.358 262.848C259.358 262.848 257.796 268.522 256.103 269.051C254.404 269.581 238.754 269.772 238.754 269.772L241.248 262.997L259.352 262.848H259.358Z" fill="#2F2F2F"/>
<path d="M183.594 275.475C183.594 277.118 182.242 278.451 180.579 278.451C178.916 278.451 177.564 277.118 177.564 275.475C177.564 273.832 178.916 272.498 180.579 272.498C182.242 272.498 183.594 273.832 183.594 275.475Z" fill="#2F3C4F"/>
<path d="M182.864 275.475C182.864 276.725 181.841 277.731 180.573 277.731C179.305 277.731 178.282 276.719 178.282 275.475C178.282 274.23 179.305 273.218 180.573 273.218C181.841 273.218 182.864 274.23 182.864 275.475Z" fill="#F6F6F6"/>
<path d="M260.195 275.064C260.195 276.707 258.843 278.04 257.174 278.04C255.505 278.04 254.159 276.707 254.159 275.064C254.159 273.421 255.511 272.087 257.174 272.087C258.837 272.087 260.195 273.421 260.195 275.064Z" fill="#2F3C4F"/>
<path d="M259.466 275.064C259.466 276.314 258.443 277.32 257.174 277.32C255.906 277.32 254.883 276.308 254.883 275.064C254.883 273.82 255.906 272.808 257.174 272.808C258.443 272.808 259.466 273.82 259.466 275.064Z" fill="#F6F6F6"/>
<path d="M230.504 270.391H207.243V280.04H230.504V270.391Z" fill="#2F2F2F"/>
<path d="M229.547 272.2H208.207V279.838H229.547V272.2Z" fill="white"/>
<path d="M202.894 265.253H236.157C241.027 256.753 245.305 243.216 245.155 240.549C244.952 237.019 241.685 229.065 241.685 229.065L195.374 229.018C195.374 229.018 192.059 234.816 192.682 241.65C193.106 246.335 198.407 258.116 202.894 265.259V265.253Z" fill="#2F2F2F"/>
<path d="M205.359 261.527H233.489C237.611 254.556 241.225 243.454 241.099 241.263C240.925 238.37 238.275 231.988 238.275 231.988L198.993 231.804C198.993 231.804 196.194 236.56 196.714 242.162C197.073 246.008 201.56 255.669 205.353 261.527H205.359Z" fill="white"/>
<path d="M238.891 236.364C238.891 236.763 238.568 237.09 238.167 237.09H199.574C199.173 237.09 198.85 236.769 198.85 236.364C198.85 235.965 199.173 235.637 199.574 235.637H238.167C238.568 235.637 238.891 235.959 238.891 236.364Z" fill="#2F2F2F"/>
<path d="M238.891 241.442C238.891 241.84 238.568 242.168 238.167 242.168H199.574C199.173 242.168 198.85 241.84 198.85 241.442C198.85 241.043 199.173 240.715 199.574 240.715H238.167C238.568 240.715 238.891 241.043 238.891 241.442Z" fill="#2F2F2F"/>
<path d="M237.719 246.513C237.719 246.912 237.414 247.24 237.043 247.24H200.71C200.333 247.24 200.034 246.912 200.034 246.513C200.034 246.115 200.339 245.787 200.71 245.787H237.043C237.42 245.787 237.719 246.115 237.719 246.513Z" fill="#2F2F2F"/>
<path d="M235.798 251.585C235.798 251.984 235.529 252.312 235.188 252.312H202.565C202.23 252.312 201.955 251.984 201.955 251.585C201.955 251.187 202.23 250.859 202.565 250.859H235.188C235.529 250.859 235.798 251.187 235.798 251.585Z" fill="#2F2F2F"/>
<path d="M233.525 256.663C233.525 257.062 233.286 257.39 232.998 257.39H204.755C204.461 257.39 204.228 257.062 204.228 256.663C204.228 256.264 204.467 255.937 204.755 255.937H232.998C233.292 255.937 233.525 256.264 233.525 256.663Z" fill="#2F2F2F"/>
<path d="M196.953 230.762H240.285" stroke="#1A2E35" stroke-linecap="round" stroke-linejoin="round"/>
<path d="M190.731 191.246L186.825 215.511H205.437L200.65 191.199" fill="white"/>
<path d="M203.265 191.199L208.248 215.511H213.633L208.847 191.383L203.265 191.199Z" fill="white"/>
<path d="M198.275 191.598L204.725 197.64H234.297L241.189 191.383L198.275 191.598Z" fill="#F66F6F" stroke="#494949" stroke-miterlimit="10"/>
<path d="M235.08 194.39C235.08 195.253 234.38 195.949 233.513 195.949H205.951C205.084 195.949 204.384 195.253 204.384 194.39C204.384 193.526 205.084 192.83 205.951 192.83H233.513C234.38 192.83 235.08 193.526 235.08 194.39Z" fill="white"/>
<path d="M223.522 192.806C223.522 194.729 221.955 196.294 220.016 196.294C218.078 196.294 216.516 194.735 216.516 192.806C216.516 190.877 218.084 189.318 220.016 189.318C221.949 189.318 223.522 190.877 223.522 192.806Z" fill="white"/>
<path d="M222.296 192.806C222.296 194.056 221.279 195.068 220.022 195.068C218.766 195.068 217.749 194.056 217.749 192.806C217.749 191.556 218.766 190.544 220.022 190.544C221.279 190.544 222.296 191.556 222.296 192.806Z" fill="#F6F6F6"/>
<path d="M222.87 192.806C222.87 194.372 221.596 195.64 220.022 195.64C218.449 195.64 217.174 194.372 217.174 192.806C217.174 191.24 218.449 189.972 220.022 189.972C221.596 189.972 222.87 191.24 222.87 192.806Z" stroke="#323232" stroke-miterlimit="10"/>
<path d="M215.547 192.806C215.547 194.729 213.98 196.294 212.041 196.294C210.103 196.294 208.536 194.735 208.536 192.806C208.536 190.877 210.103 189.318 212.041 189.318C213.98 189.318 215.547 190.877 215.547 192.806Z" fill="white"/>
<path d="M214.321 192.806C214.321 194.056 213.304 195.068 212.047 195.068C210.791 195.068 209.774 194.056 209.774 192.806C209.774 191.556 210.791 190.544 212.047 190.544C213.304 190.544 214.321 191.556 214.321 192.806Z" fill="#A5AFD3"/>
<path d="M214.889 192.806C214.889 194.372 213.615 195.64 212.041 195.64C210.468 195.64 209.194 194.372 209.194 192.806C209.194 191.24 210.468 189.972 212.041 189.972C213.615 189.972 214.889 191.24 214.889 192.806Z" fill="#F6F6F6" stroke="#323232" stroke-miterlimit="10"/>
<path d="M231.503 192.806C231.503 194.729 229.935 196.294 227.997 196.294C226.059 196.294 224.491 194.735 224.491 192.806C224.491 190.877 226.059 189.318 227.997 189.318C229.935 189.318 231.503 190.877 231.503 192.806Z" fill="white"/>
<path d="M230.27 192.806C230.27 194.056 229.253 195.068 227.997 195.068C226.741 195.068 225.724 194.056 225.724 192.806C225.724 191.556 226.741 190.544 227.997 190.544C229.253 190.544 230.27 191.556 230.27 192.806Z" fill="#A5AFD3"/>
<path d="M230.845 192.806C230.845 194.372 229.57 195.64 227.997 195.64C226.424 195.64 225.149 194.372 225.149 192.806C225.149 191.24 226.424 189.972 227.997 189.972C229.57 189.972 230.845 191.24 230.845 192.806Z" fill="#F6F6F6" stroke="#323232" stroke-miterlimit="10"/>
<path d="M103.026 229.069H61.0223V260.578C61.0223 260.578 67.4835 268.454 76.0446 268.454H134.166C142.727 268.454 149.188 260.578 149.188 260.578V229.069H103.026Z" fill="#2F2F2F"/>
<path d="M69.0031 277.371V290.873C69.0031 292.117 70.0142 293.123 71.2645 293.123H76.7027C77.9531 293.123 78.9642 292.117 78.9642 290.873V277.371H69.0031Z" fill="#2F2F2F"/>
<path d="M129.966 277.371V290.873C129.966 292.117 130.977 293.123 132.227 293.123H137.666C138.916 293.123 139.927 292.117 139.927 290.873V277.371H129.966Z" fill="#2F2F2F"/>
<path d="M84.8929 205.817H84.0135L83.9357 205.013H81.8717L81.6743 203.085H78.5334H73.3166L72.8021 208.174H85.1322L84.8929 205.817Z" stroke="white" stroke-width="0.25" stroke-miterlimit="10"/>
<path d="M97.6239 205.817H96.7445L96.6667 205.013H94.5967L94.3993 203.085H91.2644H86.0476L85.5331 208.174H97.8572L97.6239 205.817Z" stroke="white" stroke-width="0.25" stroke-miterlimit="10"/>
<path d="M57.69 229.069H55.7755V233.343H57.69V229.069Z" fill="#2F2F2F"/>
<path d="M61.0283 228.188H50.7681V229.611H61.0283V228.188Z" fill="#2F2F2F"/>
<path d="M61.0283 232.635H50.7681V234.058H61.0283V232.635Z" fill="#2F2F2F"/>
<path d="M50.8878 234.052H46L47.8306 249.101C47.9144 249.779 48.5545 250.291 49.3143 250.291H52.4612C53.221 250.291 54.4115 250.268 54.4893 249.589L55.7696 234.052H50.8818H50.8878Z" fill="#2F2F2F"/>
<path d="M50.1998 234.052H46L47.5734 248.428C47.6452 249.077 48.1956 249.565 48.8477 249.565H51.5518C52.2039 249.565 53.227 249.541 53.2988 248.892L54.3996 234.052H50.1998Z" fill="#2F2F2F"/>
<path d="M51.839 228.188C50.6365 228.188 49.6553 229.158 49.6553 230.361V234.058H54.0167V230.361C54.0167 229.164 53.0415 228.188 51.833 228.188H51.839Z" fill="#2F2F2F"/>
<path d="M50.7681 228.188C49.5656 228.188 48.5845 229.158 48.5845 230.361V234.058H52.9458V230.361C52.9458 229.164 51.9706 228.188 50.7621 228.188H50.7681Z" fill="#2F2F2F"/>
<path d="M152.526 233.343H154.441V229.069H152.526V233.343Z" fill="#2F2F2F"/>
<path d="M149.194 229.605H159.454V228.182H149.194V229.605Z" fill="#2F2F2F"/>
<path d="M149.194 234.052H159.454V232.629H149.194V234.052Z" fill="#2F2F2F"/>
<path d="M159.329 234.052H164.216L162.386 249.101C162.302 249.779 161.662 250.291 160.902 250.291H157.755C156.995 250.291 155.805 250.268 155.727 249.589L154.447 234.052H159.335H159.329Z" fill="#2F2F2F"/>
<path d="M160.017 234.052H164.216L162.643 248.428C162.571 249.077 162.021 249.565 161.369 249.565H158.665C158.012 249.565 156.989 249.541 156.918 248.892L155.817 234.052H160.017Z" fill="#2F2F2F"/>
<path d="M158.377 228.188C159.58 228.188 160.561 229.158 160.561 230.361V234.058H156.2V230.361C156.2 229.164 157.175 228.188 158.383 228.188H158.377Z" fill="#2F2F2F"/>
<path d="M159.448 228.188C160.651 228.188 161.632 229.158 161.632 230.361V234.058H157.271V230.361C157.271 229.164 158.246 228.188 159.454 228.188H159.448Z" fill="#2F2F2F"/>
<path d="M147.25 180.844C147.25 171.522 135.135 172.004 135.135 172.004H75.0814C75.0814 172.004 62.9667 171.522 62.9667 180.844C62.9667 190.167 61.0283 218.3 61.0283 218.3H149.194C149.194 218.3 147.256 190.167 147.256 180.844H147.25Z" fill="#F66F6F" stroke="#1A2E35" stroke-miterlimit="10"/>
<path d="M103.026 218.3H101.644H61.0223V221.033H101.644H103.026H149.188V218.3H103.026Z" fill="#F66F6F" stroke="#1A2E35" stroke-miterlimit="10"/>
<path d="M103.026 221.033H101.644H61.0223V229.069H101.644H103.026H149.188V221.033H103.026Z" fill="#F66F6F" stroke="#1A2E35" stroke-miterlimit="10"/>
<path d="M103.026 229.069H61.0223V284.729C61.0223 285.628 61.2197 286.533 61.6864 287.307C62.0812 287.962 62.6915 288.551 63.6068 288.551H146.604C147.525 288.551 148.129 287.968 148.53 287.307C148.997 286.533 149.194 285.634 149.194 284.729V229.069H103.032H103.026Z" fill="#F66F6F" stroke="#1A2E35" stroke-miterlimit="10"/>
<path d="M126.981 288.533V288.372C127.226 288.372 127.794 287.414 128.117 286.729L130.462 281.824L130.606 281.896L128.261 286.801C128.123 287.092 127.411 288.533 126.975 288.533H126.981Z" fill="#F05C5C"/>
<path d="M135.093 277.996H75.1173V278.157H135.093V277.996Z" fill="#F05C5C"/>
<path d="M83.2358 288.533C82.805 288.533 82.0871 287.086 81.9495 286.801L79.6043 281.896L79.7479 281.824L82.0931 286.729C82.4221 287.414 82.9905 288.372 83.2298 288.372V288.533H83.2358Z" fill="#F05C5C"/>
<path d="M148.057 229.069H62.153C62.153 229.069 61.9915 259.614 62.153 260.257C62.2009 260.459 62.6496 260.703 63.2359 260.953C65.0008 261.691 66.9032 262.025 68.8177 262.025H141.399C143.313 262.025 145.216 261.691 146.98 260.953C147.567 260.709 148.015 260.459 148.063 260.257C148.225 259.614 148.063 229.069 148.063 229.069H148.057Z" fill="url(#paint0_linear_268_2700)"/>
<path d="M140.968 228.896H69.2424V257.066H140.968V228.896Z" fill="url(#paint1_linear_268_2700)"/>
<path d="M120.489 279.598H89.7269C88.8953 279.598 88.2193 280.27 88.2193 281.098C88.2193 281.925 88.8953 282.598 89.7269 282.598H120.489C121.321 282.598 121.997 281.925 121.997 281.098C121.997 280.27 121.321 279.598 120.489 279.598Z" fill="#2F2F2F"/>
<path d="M138.766 277.752C131.222 277.752 130.534 281.955 130.534 281.955H136.984C136.984 281.955 147.405 282.384 149.194 279.604V270.918C149.194 270.918 146.316 277.752 138.766 277.752Z" fill="#2F2F2F"/>
<path d="M143.858 258.06H66.3528L64.1871 261.304C65.6768 261.792 67.2382 262.025 68.8117 262.025H141.393C142.966 262.025 144.534 261.792 146.017 261.304L143.852 258.06H143.858Z" fill="url(#paint2_linear_268_2700)"/>
<path d="M134.363 247.339H120.633V258.054H134.363V247.339Z" fill="url(#paint3_linear_268_2700)"/>
<path d="M140.627 256.066H127.501H117.606H104.48L101.644 258.06H117.606H127.501H143.463L140.627 256.066Z" fill="url(#paint4_linear_268_2700)"/>
<path d="M126.071 256.066C126.837 254.822 128.213 253.982 129.792 253.982C131.372 253.982 132.748 254.816 133.514 256.066H134.674C133.819 254.238 131.958 252.964 129.798 252.964C127.639 252.964 125.778 254.232 124.923 256.066H126.083H126.071Z" fill="url(#paint5_linear_268_2700)"/>
<path d="M113.58 229.123H109.757V256.066H113.58V229.123Z" fill="url(#paint6_linear_268_2700)"/>
<path d="M71.45 277.752C78.9941 277.752 79.6821 281.955 79.6821 281.955H73.2328C73.2328 281.955 62.8111 282.384 61.0223 279.604V270.918C61.0223 270.918 63.8999 277.752 71.45 277.752Z" fill="#2F2F2F"/>
<path d="M114.058 282.598H96.1522V287.313H114.058V282.598Z" fill="white"/>
<path d="M135.093 278.086H75.1173V278.246H135.093V278.086Z" fill="#F66F6F" stroke="#1A2E35" stroke-miterlimit="10"/>
<path d="M83.2358 288.545V288.462C82.9905 288.462 82.4221 287.503 82.0991 286.819L79.7539 281.913L79.6103 281.985L81.9555 286.89C82.0751 287.14 82.6195 288.241 83.0443 288.545H83.2358Z" fill="#F66F6F" stroke="#1A2E35" stroke-miterlimit="10"/>
<path d="M130.462 281.919L128.117 286.825C127.788 287.509 127.22 288.468 126.981 288.468V288.551H127.172C127.597 288.247 128.141 287.146 128.261 286.896L130.606 281.991L130.462 281.919Z" fill="#F66F6F" stroke="#1A2E35" stroke-miterlimit="10"/>
<path d="M135.631 179.88H74.5849C69.5774 179.88 67.6391 181.969 67.6391 181.969V209.621C68.9313 208.014 74.9079 207.853 74.9079 207.853H135.308C135.308 207.853 141.285 208.014 142.577 209.621V181.969C142.577 181.969 140.639 179.88 135.631 179.88Z" fill="#2F2F2F"/>
<path d="M84.7673 253.262H86.0775L85.1861 244.261H82.47H77.9531L77.7796 245.993H76.6968L76.5771 247.339H74.7584L73.7892 258.06H77.7138H79.6761H83.6067L83.4272 256.066H85.0186L84.7673 253.262Z" fill="url(#paint7_linear_268_2700)"/>
<path d="M96.0565 253.262H97.0975L96.2061 244.261H93.49H88.9731L88.7996 245.993H87.9919L87.8663 247.339H86.7715L85.7963 258.06H89.7269H91.6892H95.6198L95.4403 256.066H96.3138L96.0565 253.262Z" fill="url(#paint8_linear_268_2700)"/>
<path d="M103.026 218.3H101.644H61.0223V218.461H101.644H103.026H149.188V218.3H103.026Z" fill="#F05C5C"/>
<path d="M103.026 229.313H61.0223V260.822C61.0223 260.822 67.4835 268.698 76.0446 268.698H134.166C142.727 268.698 149.188 260.822 149.188 260.822V229.313H103.026Z" fill="#2F2F2F"/>
<path d="M66.4126 278.526C66.4126 279.735 65.4195 280.717 64.1931 280.717C62.9667 280.717 61.9735 279.735 61.9735 278.526C61.9735 277.318 62.9667 276.336 64.1931 276.336C65.4195 276.336 66.4126 277.318 66.4126 278.526Z" fill="#2F3C4F"/>
<path d="M65.8742 278.526C65.8742 279.443 65.1204 280.187 64.1931 280.187C63.2658 280.187 62.512 279.443 62.512 278.526C62.512 277.609 63.2658 276.865 64.1931 276.865C65.1204 276.865 65.8742 277.609 65.8742 278.526Z" fill="#F6F6F6"/>
<path d="M70.6842 279.788C70.6842 280.705 69.9304 281.449 69.0031 281.449C68.0758 281.449 67.322 280.705 67.322 279.788C67.322 278.872 68.0758 278.127 69.0031 278.127C69.9304 278.127 70.6842 278.872 70.6842 279.788Z" fill="#2F3C4F"/>
<path d="M70.2774 279.788C70.2774 280.485 69.7091 281.044 69.0031 281.044C68.2972 281.044 67.7288 280.479 67.7288 279.788C67.7288 279.098 68.3032 278.532 69.0031 278.532C69.7031 278.532 70.2774 279.098 70.2774 279.788Z" fill="#F6F6F6"/>
<path d="M143.971 278.526C143.971 279.735 144.964 280.717 146.191 280.717C147.417 280.717 148.41 279.735 148.41 278.526C148.41 277.318 147.417 276.336 146.191 276.336C144.964 276.336 143.971 277.318 143.971 278.526Z" fill="#2F3C4F"/>
<path d="M144.504 278.526C144.504 279.443 145.257 280.187 146.185 280.187C147.112 280.187 147.866 279.443 147.866 278.526C147.866 277.609 147.112 276.865 146.185 276.865C145.257 276.865 144.504 277.609 144.504 278.526Z" fill="#F6F6F6"/>
<path d="M139.694 279.788C139.694 280.705 140.447 281.449 141.375 281.449C142.302 281.449 143.056 280.705 143.056 279.788C143.056 278.872 142.302 278.127 141.375 278.127C140.447 278.127 139.694 278.872 139.694 279.788Z" fill="#2F3C4F"/>
<path d="M140.1 279.788C140.1 280.485 140.669 281.044 141.375 281.044C142.081 281.044 142.649 280.479 142.649 279.788C142.649 279.098 142.075 278.532 141.375 278.532C140.675 278.532 140.1 279.098 140.1 279.788Z" fill="#F6F6F6"/>
<path d="M73.1132 180.065L78.9642 207.729H91.39L84.1271 180L73.1132 180.065Z" fill="white"/>
<path d="M87.0227 180L94.6805 207.973H99.9392L92.6045 180H87.0227Z" fill="white"/>
<path d="M69.6133 229.046L78.9642 268.812H91.3901L80.6273 228.981L69.6133 229.046Z" fill="white"/>
<path d="M83.2836 228.981L94.6805 268.812H99.9392L88.8654 228.981H83.2836Z" fill="white"/>
<path d="M67.6391 182.089C67.6391 182.089 69.4099 180.208 73.1132 180.065L78.9701 207.723C78.9701 207.723 69.7749 207.27 67.6391 209.55V182.089Z" fill="white"/>
<path d="M61.0223 228.981H69.6073L78.9642 268.812H75.8592C75.8592 268.812 68.9193 268.77 64.4982 264.246C60.077 259.722 60.8967 260.162 60.8967 260.162L61.0223 228.987V228.981Z" fill="white"/>
</g>
<path d="M273.809 245.122L276.223 308.114C276.223 308.114 274.71 309.014 274.71 310.815C274.71 312.616 275.163 316.364 275.163 316.364C275.163 316.364 274.71 317.112 274.556 318.013C274.403 318.913 274.857 321.913 274.857 321.913C274.857 321.913 278.177 320.416 279.838 320.86C281.498 321.311 286.939 324.012 286.939 324.012C286.939 324.012 289.052 319.96 289.206 318.013C289.359 316.066 287.999 312.762 287.999 311.563C287.999 310.365 291.926 252.922 291.926 252.922L296.907 309.318L296 313.218C296 313.218 295.247 316.218 295.547 317.119C295.847 318.019 296.454 322.966 296.454 322.966C296.454 322.966 299.174 324.469 301.888 323.866C304.609 323.264 310.95 321.317 310.95 321.317C310.95 321.317 310.797 318.317 310.95 316.814C311.103 315.318 308.536 310.365 308.683 308.868C308.836 307.371 309.743 243.923 309.743 243.923H273.343L273.809 245.122Z" fill="#2F2F2F"/>
<path d="M272.388 209.005C272.873 208.886 272.873 208.886 272.873 208.885L272.873 208.885L272.872 208.881L272.869 208.868L272.856 208.817L272.807 208.617C272.765 208.441 272.702 208.184 272.622 207.856C272.462 207.2 272.234 206.263 271.962 205.135C271.418 202.88 270.696 199.865 269.986 196.828C269.275 193.791 268.577 190.734 268.079 188.392C267.83 187.22 267.633 186.232 267.509 185.517C267.447 185.158 267.405 184.876 267.384 184.677C267.381 184.647 267.378 184.619 267.376 184.595C267.482 184.543 267.633 184.479 267.83 184.404C268.26 184.241 268.865 184.044 269.593 183.823C271.045 183.382 272.951 182.86 274.852 182.36C276.752 181.86 278.64 181.382 280.054 181.03C280.761 180.853 281.35 180.708 281.761 180.607C281.967 180.557 282.128 180.517 282.238 180.491L282.354 180.462L282.426 180.461L282.783 180.452L284.092 180.419C285.196 180.392 286.717 180.355 288.384 180.315C291.717 180.234 295.635 180.141 297.971 180.093C299.073 180.071 300.682 180.336 302.512 180.77C304.331 181.201 306.329 181.789 308.189 182.39C310.049 182.99 311.766 183.602 313.021 184.08C313.649 184.319 314.159 184.523 314.511 184.675C314.602 184.714 314.681 184.749 314.747 184.779C314.715 184.967 314.666 185.231 314.602 185.561C314.469 186.257 314.273 187.237 314.034 188.408C313.557 190.75 312.913 193.847 312.266 196.936C311.618 200.026 310.968 203.106 310.479 205.415C310.235 206.569 310.031 207.531 309.889 208.203L309.723 208.984L309.679 209.189L309.668 209.242L309.665 209.255L309.665 209.259L309.664 209.259C309.664 209.26 309.664 209.26 310.153 209.364L309.664 209.26L309.652 209.317L309.654 209.376L310.563 245.76C310.432 245.794 310.271 245.836 310.082 245.884C309.538 246.022 308.77 246.215 307.873 246.43C306.078 246.862 303.775 247.382 301.728 247.745C297.649 248.467 292.827 248.832 284.504 248.559C280.369 248.423 277.101 247.859 274.872 247.331C273.758 247.067 272.903 246.813 272.33 246.625C272.11 246.553 271.931 246.49 271.795 246.441L272.887 209.019L272.889 208.951L272.873 208.886L272.388 209.005Z" fill="white" stroke="#2F2F2F"/>
<path d="M284.696 177.007L283.385 178.51L281.461 180.055L278.71 184.971L282.926 185.154L279.623 187.794C279.623 187.794 283.563 195.169 285.762 197.901C287.962 200.632 291.362 207.131 291.362 207.131C291.362 207.131 296.031 199.178 297.685 197.268C299.333 195.357 301.992 190.624 302.911 189.437C303.83 188.251 304.468 186.797 304.468 186.797L301.073 185.16L304.192 183.341C304.192 183.341 300.522 179.97 299.977 178.698C299.425 177.427 299.241 176.514 298.237 176.605C297.232 176.69 284.696 177.007 284.696 177.007Z" fill="white" stroke="#2F2F2F" stroke-miterlimit="10" stroke-linecap="round" stroke-linejoin="round"/>
<path d="M284.696 177.007L291.368 207.131L298.592 177.372L284.696 177.007Z" fill="white" stroke="#2F2F2F" stroke-miterlimit="10" stroke-linecap="round" stroke-linejoin="round"/>
<path d="M284.696 177.007L286.926 187.095L291.552 181.607L296.202 187.216L298.592 177.372L284.696 177.007Z" fill="white" stroke="#2F2F2F" stroke-miterlimit="10" stroke-linecap="round" stroke-linejoin="round"/>
<path d="M284.696 173.021V177.007C284.696 177.007 291.368 181.546 291.552 181.606C291.736 181.667 298.592 177.372 298.592 177.372V171.665C298.592 171.665 294.763 175.285 292.477 175.346C290.192 175.413 284.696 173.021 284.696 173.021Z" fill="white" stroke="#2F2F2F" stroke-miterlimit="10" stroke-linecap="round" stroke-linejoin="round"/>
<path d="M289.206 184.612L290.995 187.004L289.328 196.885L291.368 207.131L293.838 196.824L292.729 187.004L294.021 184.673L291.552 181.607L289.206 184.612Z" fill="#2F2F2F"/>
<path d="M293.292 190.526H291.001V191.33H293.292V190.526Z" fill="white"/>
<path d="M293.654 211.28C293.654 211.785 293.243 212.193 292.735 212.193C292.226 212.193 291.816 211.785 291.816 211.28C291.816 210.775 292.226 210.368 292.735 210.368C293.243 210.374 293.654 210.781 293.654 211.28Z" fill="white"/>
<path d="M293.654 222.299C293.654 222.804 293.243 223.212 292.735 223.212C292.226 223.212 291.816 222.804 291.816 222.299C291.816 221.794 292.226 221.386 292.735 221.386C293.243 221.386 293.654 221.794 293.654 222.299Z" fill="white"/>
<path d="M275.912 321.006L275.959 320.945C275.968 320.94 275.978 320.935 275.989 320.929C276.063 320.89 276.177 320.832 276.326 320.768C276.624 320.639 277.061 320.482 277.604 320.378C278.686 320.17 280.196 320.167 281.895 321.01C283.673 321.893 284.848 322.734 285.572 323.345C285.924 323.642 286.17 323.886 286.327 324.054L284.889 326.262L284.884 326.268C284.868 326.287 284.843 326.315 284.811 326.352C284.747 326.427 284.652 326.535 284.53 326.669C284.287 326.939 283.939 327.312 283.522 327.726C282.681 328.561 281.582 329.54 280.501 330.184C280.032 330.464 279.329 330.633 278.464 330.699C277.609 330.764 276.645 330.725 275.691 330.624C273.772 330.42 271.97 329.977 271.274 329.699C270.977 329.58 270.813 329.429 270.723 329.274C270.632 329.118 270.587 328.906 270.624 328.612C270.7 328 271.121 327.152 271.934 326.124C272.769 325.072 273.791 323.757 274.603 322.706C275.009 322.181 275.363 321.721 275.616 321.392L275.912 321.006Z" stroke="#2F2F2F"/>
<path d="M301.322 326.262L299.884 324.054C300.04 323.886 300.286 323.642 300.639 323.345C301.363 322.734 302.538 321.893 304.316 321.01L304.317 321.01C306.012 320.167 307.521 320.17 308.605 320.378C309.148 320.482 309.586 320.639 309.885 320.768C310.034 320.832 310.148 320.89 310.222 320.929C310.233 320.935 310.243 320.941 310.252 320.946L310.299 321.006L310.595 321.392C310.848 321.721 311.202 322.181 311.608 322.706C312.42 323.757 313.442 325.072 314.277 326.124C315.09 327.152 315.51 328 315.587 328.612C315.624 328.906 315.579 329.118 315.488 329.274C315.398 329.429 315.234 329.58 314.937 329.699C314.238 329.977 312.436 330.42 310.518 330.624C309.564 330.725 308.601 330.764 307.746 330.699C306.881 330.633 306.179 330.464 305.71 330.184C304.629 329.54 303.53 328.561 302.689 327.726C302.272 327.312 301.924 326.939 301.681 326.669C301.559 326.535 301.464 326.427 301.4 326.352C301.367 326.315 301.343 326.287 301.327 326.268L301.322 326.262Z" stroke="#2F2F2F"/>
<path d="M282.411 161.668C282.411 161.668 278.208 158.54 277.467 156.819C276.725 155.103 288.029 146.512 289.635 146.147C291.24 145.781 293.586 145.781 294.824 146.512C296.062 147.248 306.128 155.839 305.944 157.062C305.76 158.291 300.51 162.459 300.51 162.459C300.51 162.459 297.667 158.899 292.11 158.717C286.547 158.54 282.411 161.668 282.411 161.668Z" fill="#2F2F2F" stroke="#2F2F2F" stroke-miterlimit="10"/>
<path d="M291.736 155.042C285.891 154.957 281.97 158.054 280.181 159.861C281.339 160.871 282.405 161.668 282.405 161.668C282.405 161.668 286.547 158.54 292.104 158.723C297.661 158.905 300.504 162.465 300.504 162.465C300.504 162.465 301.294 161.838 302.268 160.999C300.461 158.546 297.005 155.121 291.736 155.042Z" stroke="#2F2F2F" stroke-miterlimit="10" stroke-linecap="round" stroke-linejoin="round"/>
<path d="M281.994 161.443C281.994 161.443 282.472 170.503 283.158 171.865C283.845 173.228 287.754 177.11 288.918 177.999C290.082 178.887 292.416 178.68 293.789 178.065C295.161 177.451 299.205 173.435 299.756 170.843C300.308 168.251 300.308 161.102 300.308 161.102C300.308 161.102 297.287 157.835 292.281 158.103C287.276 158.376 283.226 159.739 281.994 161.443Z" fill="white" stroke="#2F2F2F" stroke-miterlimit="10" stroke-linecap="round" stroke-linejoin="round"/>
<path d="M281.994 161.443C281.994 161.443 283.753 162.398 285.101 162.465C286.455 162.532 290.37 159.879 292.33 160.287C294.291 160.694 296.723 163.079 298.28 163.013C299.836 162.946 300.51 161.784 300.51 161.784C300.51 161.784 298.482 158.036 293.617 157.086C288.752 156.131 283.477 158.857 281.994 161.443Z" fill="#BDBDBD" stroke="#2F2F2F" stroke-miterlimit="10" stroke-linecap="round" stroke-linejoin="round"/>
<path d="M288.85 162.806C288.85 162.806 286.792 161.65 284.874 163.42" stroke="#2F2F2F" stroke-miterlimit="10" stroke-linecap="round" stroke-linejoin="round"/>
<path d="M293.997 162.739C293.997 162.739 295.915 161.85 297.973 163.286" stroke="#2F2F2F" stroke-miterlimit="10" stroke-linecap="round" stroke-linejoin="round"/>
<path d="M287.447 165.775C287.769 165.775 288.029 165.361 288.029 164.85C288.029 164.339 287.769 163.925 287.447 163.925C287.126 163.925 286.865 164.339 286.865 164.85C286.865 165.361 287.126 165.775 287.447 165.775Z" fill="#263238" stroke="#2F2F2F" stroke-miterlimit="10"/>
<path d="M295.571 165.775C295.893 165.775 296.153 165.361 296.153 164.85C296.153 164.339 295.893 163.925 295.571 163.925C295.25 163.925 294.989 164.339 294.989 164.85C294.989 165.361 295.25 165.775 295.571 165.775Z" fill="#263238" stroke="#2F2F2F" stroke-miterlimit="10"/>
<path d="M292.759 163.895V169.206L290.021 168.732" stroke="#2F2F2F" stroke-miterlimit="10" stroke-linecap="round" stroke-linejoin="round"/>
<path d="M290.976 168.933C290.976 168.933 289.88 169.34 289.059 169.821C288.238 170.296 287.208 170.636 286.933 170.709C286.657 170.776 286.087 171.032 289.298 171.902C292.49 172.772 296.264 171.385 296.399 170.843C296.399 170.843 296.172 170.88 294.597 170.113C292.686 169.182 291.938 169.073 291.938 169.073L290.976 168.933Z" fill="#2F2F2F" stroke="#2F2F2F" stroke-miterlimit="10"/>
<path d="M282.16 163.451C282.16 163.451 280.677 161.857 279.874 163.39C279.072 164.923 279.813 165.903 280.493 166.827C281.173 167.746 282.411 168.239 282.411 168.239L282.16 163.451Z" fill="white" stroke="#2F2F2F" stroke-miterlimit="10" stroke-linecap="round" stroke-linejoin="round"/>
<path d="M300.161 163.451C300.161 163.451 301.643 161.857 302.446 163.39C303.248 164.923 302.507 165.903 301.827 166.827C301.147 167.746 299.909 168.239 299.909 168.239L300.161 163.451Z" fill="white" stroke="#2F2F2F" stroke-miterlimit="10" stroke-linecap="round" stroke-linejoin="round"/>
<path d="M266.031 213.316L265.609 213.584L265.609 213.584L265.609 213.585L265.611 213.587L265.616 213.595L265.635 213.625L265.708 213.74C265.773 213.84 265.866 213.985 265.983 214.167C266.218 214.529 266.547 215.036 266.927 215.611C267.685 216.76 268.649 218.191 269.46 219.301M266.031 213.316L254.781 213.763M266.031 213.316L265.609 213.584M266.031 213.316L265.609 213.584M269.46 219.301C269.46 219.301 269.46 219.3 269.46 219.3L269.864 219.006L269.46 219.301ZM269.46 219.301C270.268 220.41 272.251 223.018 274.027 225.344C274.917 226.508 275.756 227.603 276.373 228.407C276.681 228.809 276.934 229.139 277.109 229.368L277.112 229.371M277.112 229.371L269.643 236.598M277.112 229.371L277.313 229.632L277.366 229.701L277.379 229.719L277.383 229.723L277.384 229.724L277.384 229.725C277.384 229.725 277.384 229.725 277.442 229.68C277.495 229.64 277.593 229.564 277.78 229.42M277.112 229.371L277.433 229.061L277.78 229.42M269.643 236.598L255.136 216.258M269.643 236.598L269.279 236.95L277.78 229.42M269.643 236.598L269.936 237.01L277.78 229.42M255.136 216.258C255.135 216.255 255.134 216.252 255.133 216.249C255.117 216.211 255.095 216.154 255.068 216.08C255.015 215.932 254.946 215.721 254.884 215.471C254.758 214.961 254.674 214.333 254.781 213.763M255.136 216.258L255.104 216.213L254.697 216.503M255.136 216.258C255.142 216.273 255.147 216.284 255.15 216.291L255.154 216.3L255.154 216.301C255.154 216.301 255.154 216.301 254.697 216.503M254.781 213.763L254.289 213.671M254.781 213.763L254.781 213.763M254.697 216.503C254.697 216.503 254.038 215.013 254.289 213.671M254.697 216.503L254.289 213.671M254.289 213.671L254.781 213.763M254.781 213.763C254.789 213.718 254.829 213.577 254.916 213.316C254.998 213.068 255.112 212.74 255.255 212.341C255.541 211.544 255.938 210.474 256.413 209.22C257.361 206.711 258.617 203.471 259.908 200.21C261.2 196.949 262.525 193.67 263.612 191.082C264.156 189.788 264.639 188.669 265.028 187.814C265.426 186.941 265.706 186.385 265.847 186.178L265.848 186.177M254.781 213.763L265.848 186.177M265.848 186.177C266.496 185.228 267.037 184.81 267.379 184.625C267.401 184.613 267.423 184.602 267.444 184.591L271.471 203.415L268.074 209.238L265.611 213.044L265.436 213.313M265.848 186.177L265.436 213.313M265.436 213.313L265.609 213.584M265.436 213.313L265.609 213.584" fill="white" stroke="#2F2F2F"/>
<rect x="267.612" y="193.544" width="38.448" height="47.8959" transform="rotate(-14.9705 267.612 193.544)" fill="#F66F6F" stroke="black"/>
<path d="M315.077 222.448L278.095 232.31L280.5 240L317 230L315.077 222.448Z" fill="white" stroke="black"/>
<path d="M288.162 217.404L289.008 220.568C289.008 220.568 295.269 222.755 295.428 222.764C295.586 222.774 300.118 217.908 300.118 217.908L298.906 213.377C298.906 213.377 296.634 217.064 294.833 217.597C293.033 218.136 288.162 217.404 288.162 217.404Z" fill="white" stroke="#2F2F2F" stroke-miterlimit="10" stroke-linecap="round" stroke-linejoin="round"/>
<path d="M283.937 208.875C283.937 208.875 279.936 207.284 278.982 206.075C278.029 204.87 285.18 195.649 286.377 195.019C287.574 194.388 289.437 193.89 290.574 194.207C291.713 194.528 301.529 199.212 301.643 200.222C301.758 201.237 298.474 205.661 298.474 205.661C298.474 205.661 295.461 203.438 291.011 204.473C286.556 205.514 283.937 208.875 283.937 208.875Z" fill="#2F2F2F" stroke="#2F2F2F" stroke-miterlimit="10"/>
<path d="M289.934 201.635C285.275 202.808 282.819 206.099 281.783 207.914C282.917 208.47 283.932 208.876 283.932 208.876C283.932 208.876 286.556 205.514 291.007 204.479C295.458 203.444 298.471 205.667 298.471 205.667C298.471 205.667 298.965 205.001 299.56 204.128C297.605 202.565 294.134 200.579 289.934 201.635Z" stroke="#2F2F2F" stroke-miterlimit="10" stroke-linecap="round" stroke-linejoin="round"/>
<path d="M283.558 208.785C283.558 208.785 285.861 215.876 286.695 216.813C287.529 217.749 291.457 220.001 292.57 220.459C293.683 220.917 295.492 220.257 296.451 219.478C297.41 218.699 299.768 214.652 299.656 212.477C299.543 210.302 298.026 204.626 298.026 204.626C298.026 204.626 294.934 202.674 291.016 203.949C287.1 205.229 284.174 207.171 283.558 208.785Z" fill="white" stroke="#2F2F2F" stroke-miterlimit="10" stroke-linecap="round" stroke-linejoin="round"/>
<path d="M283.558 208.785C283.558 208.785 285.157 209.17 286.242 208.937C287.331 208.703 289.876 205.765 291.519 205.673C293.162 205.58 295.6 206.957 296.821 206.574C298.042 206.19 298.331 205.125 298.331 205.125C298.331 205.125 295.925 202.579 291.861 202.859C287.796 203.133 284.187 206.417 283.558 208.785Z" fill="#BDBDBD" stroke="#2F2F2F" stroke-miterlimit="10" stroke-linecap="round" stroke-linejoin="round"/>
<path d="M289.291 208.411C289.291 208.411 287.411 207.931 286.264 209.743" stroke="#2F2F2F" stroke-miterlimit="10" stroke-linecap="round" stroke-linejoin="round"/>
<path d="M293.363 207.266C293.363 207.266 294.697 206.153 296.636 206.856" stroke="#2F2F2F" stroke-miterlimit="10" stroke-linecap="round" stroke-linejoin="round"/>
<path d="M288.807 211.067C289.063 210.998 289.182 210.614 289.073 210.209C288.965 209.803 288.67 209.53 288.415 209.598C288.159 209.666 288.04 210.05 288.149 210.456C288.257 210.861 288.552 211.135 288.807 211.067Z" fill="#263238" stroke="#2F2F2F" stroke-miterlimit="10"/>
<path d="M295.257 209.342C295.513 209.274 295.632 208.89 295.523 208.484C295.415 208.079 295.12 207.805 294.865 207.873C294.61 207.942 294.491 208.326 294.599 208.731C294.707 209.137 295.002 209.41 295.257 209.342Z" fill="#263238" stroke="#2F2F2F" stroke-miterlimit="10"/>
<path d="M292.626 208.446L293.753 212.663L291.478 212.868" stroke="#2F2F2F" stroke-miterlimit="10" stroke-linecap="round" stroke-linejoin="round"/>
<path d="M292.28 212.824C292.28 212.824 291.495 213.381 290.946 213.937C290.395 214.488 289.65 214.977 289.446 215.093C289.242 215.205 288.844 215.529 291.577 215.538C294.296 215.551 296.998 213.649 296.99 213.19C296.99 213.19 296.818 213.267 295.405 212.993C293.69 212.66 293.073 212.731 293.073 212.731L292.28 212.824Z" fill="#2F2F2F" stroke="#2F2F2F" stroke-miterlimit="10"/>
<path d="M284.116 210.344C284.116 210.344 282.6 209.393 282.289 210.781C281.977 212.168 282.774 212.789 283.51 213.379C284.245 213.964 285.332 214.092 285.332 214.092L284.116 210.344Z" fill="white" stroke="#2F2F2F" stroke-miterlimit="10" stroke-linecap="round" stroke-linejoin="round"/>
<path d="M298.407 206.522C298.407 206.522 299.246 204.942 300.209 205.989C301.172 207.036 300.791 207.971 300.447 208.85C300.103 209.723 299.225 210.377 299.225 210.377L298.407 206.522Z" fill="white" stroke="#2F2F2F" stroke-miterlimit="10" stroke-linecap="round" stroke-linejoin="round"/>
<path d="M276.389 230.004C276.389 230.004 278.962 231.045 279.429 231.071C279.897 231.098 282.027 231.648 282.815 232.982C283.609 234.318 285.443 236.011 285.443 236.011C285.443 236.011 286.704 236.62 285.414 237.229C284.118 237.837 283.478 237.766 282.59 237.16C281.703 236.554 280.954 236.172 280.954 236.172C280.954 236.172 283.317 238.755 283.623 239.777C283.929 240.798 285.054 241.931 283.029 242.445C281.004 242.959 281.004 242.959 281.004 242.959C281.004 242.959 276.786 242.435 275.029 241.887C273.272 241.339 272.293 238.171 272.147 237.291C271.997 236.404 271.408 235.033 271.408 235.033L276.389 230.004Z" fill="white" stroke="#2F2F2F" stroke-miterlimit="10" stroke-linecap="round" stroke-linejoin="round"/>
<path d="M322.888 176.798L323.378 176.699L323.378 176.699L323.378 176.698L323.377 176.696L323.375 176.687L323.368 176.652L323.341 176.518C323.317 176.402 323.283 176.232 323.239 176.021C323.151 175.598 323.027 175.007 322.881 174.333C322.588 172.988 322.206 171.306 321.85 169.978M322.888 176.798L333.54 180.441M322.888 176.798L323.378 176.699M322.888 176.798L323.378 176.699M321.85 169.978C321.85 169.978 321.85 169.978 321.85 169.978L321.367 170.107L321.85 169.978ZM321.85 169.978C321.497 168.652 320.589 165.504 319.772 162.694C319.363 161.287 318.976 159.963 318.691 158.99C318.549 158.504 318.432 158.105 318.351 157.828L318.35 157.824M318.35 157.824L327.924 153.781M318.35 157.824L318.257 157.509L318.232 157.425L318.226 157.404L318.224 157.398L318.224 157.397L318.224 157.396C318.224 157.396 318.224 157.396 318.153 157.417C318.09 157.436 317.97 157.471 317.744 157.537M318.35 157.824L317.939 157.998L317.744 157.537M327.924 153.781L334.11 177.986M327.924 153.781L328.39 153.584L317.744 157.537M327.924 153.781L327.799 153.291L317.744 157.537M334.11 177.986C334.11 177.989 334.11 177.992 334.11 177.996C334.11 178.037 334.111 178.098 334.109 178.177C334.105 178.334 334.093 178.556 334.06 178.811C333.994 179.332 333.846 179.948 333.54 180.441M334.11 177.986L334.123 178.04L334.608 177.916M334.11 177.986C334.109 177.97 334.109 177.959 334.109 177.951L334.108 177.941L334.108 177.94C334.108 177.94 334.108 177.94 334.608 177.916M333.54 180.441L333.965 180.705M333.54 180.441L333.54 180.441M334.608 177.916C334.608 177.916 334.685 179.544 333.965 180.705M334.608 177.916L333.965 180.705M333.965 180.705L333.54 180.441M333.54 180.441C333.516 180.48 333.428 180.598 333.253 180.81C333.087 181.011 332.862 181.276 332.584 181.596C332.03 182.236 331.274 183.091 330.378 184.089C328.588 186.086 326.247 188.654 323.866 191.229C321.485 193.804 319.065 196.384 317.117 198.405C316.142 199.415 315.288 200.284 314.616 200.941C313.931 201.612 313.468 202.03 313.262 202.171L313.261 202.171M333.54 180.441L313.261 202.171M313.261 202.171C312.314 202.823 311.658 203.018 311.273 203.067C311.265 203.068 311.257 203.069 311.249 203.07L315.822 184.724L320.224 180.322L320.225 180.322L320.233 180.313L323.25 177.142L323.429 176.954M313.261 202.171L323.429 176.954M323.429 176.954L323.378 176.699M323.429 176.954L323.378 176.699" fill="white" stroke="#2F2F2F"/>
<path d="M319.252 157.495C319.252 157.495 317.229 155.596 316.802 155.402C316.376 155.209 314.588 153.927 314.335 152.398C314.077 150.865 312.977 148.624 312.977 148.624C312.977 148.624 312.021 147.602 313.444 147.499C314.872 147.4 315.443 147.697 316.052 148.583C316.661 149.469 317.222 150.096 317.222 150.096C317.222 150.096 315.95 146.833 316.034 145.77C316.117 144.707 315.477 143.245 317.551 143.496C319.625 143.748 319.625 143.748 319.625 143.748C319.625 143.748 323.369 145.759 324.81 146.904C326.251 148.049 326.02 151.357 325.838 152.231C325.659 153.112 325.713 154.604 325.713 154.604L319.252 157.495Z" fill="white" stroke="#2F2F2F" stroke-miterlimit="10" stroke-linecap="round" stroke-linejoin="round"/>
</g>
<defs>
<filter id="filter0_d_268_2700" x="28" y="0" width="369" height="346" filterUnits="userSpaceOnUse" color-interpolation-filters="sRGB">
<feFlood flood-opacity="0" result="BackgroundImageFix"/>
<feColorMatrix in="SourceAlpha" type="matrix" values="0 0 0 0 0 0 0 0 0 0 0 0 0 0 0 0 0 0 127 0" result="hardAlpha"/>
<feOffset dy="4"/>
<feGaussianBlur stdDeviation="2"/>
<feComposite in2="hardAlpha" operator="out"/>
<feColorMatrix type="matrix" values="0 0 0 0 0 0 0 0 0 0 0 0 0 0 0 0 0 0 0.25 0"/>
<feBlend mode="normal" in2="BackgroundImageFix" result="effect1_dropShadow_268_2700"/>
<feBlend mode="normal" in="SourceGraphic" in2="effect1_dropShadow_268_2700" result="shape"/>
</filter>
<linearGradient id="paint0_linear_268_2700" x1="79.4069" y1="155.586" x2="107.416" y2="253.627" gradientUnits="userSpaceOnUse">
<stop stop-color="#7C7D81"/>
<stop offset="1" stop-color="#454442"/>
</linearGradient>
<linearGradient id="paint1_linear_268_2700" x1="107.244" y1="338.252" x2="103.086" y2="151.144" gradientUnits="userSpaceOnUse">
<stop stop-color="#565656"/>
<stop offset="1" stop-color="#202020"/>
</linearGradient>
<linearGradient id="paint2_linear_268_2700" x1="105.108" y1="273.186" x2="105.108" y2="252.417" gradientUnits="userSpaceOnUse">
<stop stop-color="#565656"/>
<stop offset="1" stop-color="#202020"/>
</linearGradient>
<linearGradient id="paint3_linear_268_2700" x1="127.501" y1="269.704" x2="127.501" y2="243.594" gradientUnits="userSpaceOnUse">
<stop stop-color="#565656"/>
<stop offset="0.38" stop-color="#3A3A3A"/>
<stop offset="0.75" stop-color="#272727"/>
<stop offset="1" stop-color="#202020"/>
</linearGradient>
<linearGradient id="paint4_linear_268_2700" x1="122.553" y1="263.59" x2="122.553" y2="256.994" gradientUnits="userSpaceOnUse">
<stop stop-color="#565656"/>
<stop offset="0.01" stop-color="#545454"/>
<stop offset="0.41" stop-color="#373737"/>
<stop offset="0.75" stop-color="#262626"/>
<stop offset="1" stop-color="#202020"/>
</linearGradient>
<linearGradient id="paint5_linear_268_2700" x1="129.792" y1="260.858" x2="129.792" y2="254.286" gradientUnits="userSpaceOnUse">
<stop stop-color="#565656"/>
<stop offset="0.01" stop-color="#545454"/>
<stop offset="0.41" stop-color="#373737"/>
<stop offset="0.75" stop-color="#262626"/>
<stop offset="1" stop-color="#202020"/>
</linearGradient>
<linearGradient id="paint6_linear_268_2700" x1="111.671" y1="288.134" x2="111.671" y2="213.693" gradientUnits="userSpaceOnUse">
<stop stop-color="#565656"/>
<stop offset="1" stop-color="#202020"/>
</linearGradient>
<linearGradient id="paint7_linear_268_2700" x1="79.9334" y1="272.597" x2="79.9334" y2="246.124" gradientUnits="userSpaceOnUse">
<stop stop-color="#565656"/>
<stop offset="1" stop-color="#202020"/>
</linearGradient>
<linearGradient id="paint8_linear_268_2700" x1="91.4499" y1="272.597" x2="91.4499" y2="246.124" gradientUnits="userSpaceOnUse">
<stop stop-color="#565656"/>
<stop offset="1" stop-color="#202020"/>
</linearGradient>
<clipPath id="clip0_268_2700">
<rect width="434" height="228" fill="white" transform="translate(0 72)"/>
</clipPath>
<clipPath id="clip1_268_2700">
<rect width="361" height="338" fill="white" transform="translate(32)"/>
</clipPath>
<clipPath id="clip2_268_2700">
<rect width="331" height="126" fill="white" transform="translate(46 167)"/>
</clipPath>
</defs>
</svg>
