<svg width="22" height="26" viewBox="0 0 22 26" fill="none" xmlns="http://www.w3.org/2000/svg">
<path d="M13 1H3.4C2.76348 1 2.15303 1.25286 1.70294 1.70294C1.25286 2.15303 1 2.76348 1 3.4V22.6C1 23.2365 1.25286 23.847 1.70294 24.2971C2.15303 24.7471 2.76348 25 3.4 25H17.8C18.4365 25 19.047 24.7471 19.4971 24.2971C19.9471 23.847 20.2 23.2365 20.2 22.6V8.2L13 1Z" stroke="black" stroke-width="2" stroke-linecap="round" stroke-linejoin="round"/>
<path d="M13 1V8.2H20.2" stroke="black" stroke-width="2" stroke-linecap="round" stroke-linejoin="round"/>
<path d="M15.4 14.2H5.80005" stroke="black" stroke-width="2" stroke-linecap="round" stroke-linejoin="round"/>
<path d="M15.4 19H5.80005" stroke="black" stroke-width="2" stroke-linecap="round" stroke-linejoin="round"/>
<path d="M8.20005 9.40002H7.00005H5.80005" stroke="black" stroke-width="2" stroke-linecap="round" stroke-linejoin="round"/>
</svg>
