<svg width="360" height="316" viewBox="0 0 360 316" fill="none" xmlns="http://www.w3.org/2000/svg">
<g clip-path="url(#clip0_135_3941)">
<g opacity="0.3">
<path d="M-32 296.085H-12.3779V118.965H39.2325V203.269H50.3211V308.008H63.1152V151.664H87.0041V88.3095H125.393V204.971H139.892V158.561H172.308V168.781H200.036V306.733H211.125V281.611H241.407V306.306H255.913V181.98H304.962V298.642H319.04V135.996H336.101V106.194H344.628V89.1638H358.278V199.437H380.462V304.603H397.522" stroke="black" stroke-opacity="0.33" stroke-miterlimit="10"/>
<path d="M39.2325 113.431H-12.3779V118.965H39.2325V113.431Z" stroke="black" stroke-opacity="0.33" stroke-miterlimit="10"/>
<path d="M87.0041 151.664H62.9726V154.469H87.0041V151.664Z" stroke="black" stroke-opacity="0.33" stroke-miterlimit="10"/>
<path d="M125.392 88.3095H86.8925V91.0334H125.392V88.3095Z" stroke="black" stroke-opacity="0.33" stroke-miterlimit="10"/>
<path d="M148.556 152.778H142.949V158.56H148.556V152.778Z" stroke="black" stroke-opacity="0.33" stroke-miterlimit="10"/>
<path d="M163.13 155.199H160.327V158.554H163.13V155.199Z" stroke="black" stroke-opacity="0.33" stroke-miterlimit="10"/>
<path d="M200.123 168.781H172.308V172.174H200.123V168.781Z" stroke="black" stroke-opacity="0.33" stroke-miterlimit="10"/>
<path d="M304.956 179.448H255.913V181.98H304.956V179.448Z" stroke="black" stroke-opacity="0.33" stroke-miterlimit="10"/>
<path d="M287.951 174.415H268.515V179.454H287.951V174.415Z" stroke="black" stroke-opacity="0.33" stroke-miterlimit="10"/>
<path d="M283.839 174.6V169.939H298.041V179.262" stroke="black" stroke-opacity="0.33" stroke-miterlimit="10"/>
<path d="M190.237 167.388V129.694H235.187V160.925H250.654V107.798H300.28V172.056H315.741" stroke="black" stroke-opacity="0.33" stroke-miterlimit="10"/>
<path d="M157.877 148.724V107.079H127.309" stroke="black" stroke-opacity="0.33" stroke-miterlimit="10"/>
<path d="M61.4966 159.13H51.4313V130.053H41.7194" stroke="black" stroke-opacity="0.33" stroke-miterlimit="10"/>
<path d="M330.848 130.412V116.774H335.158" stroke="black" stroke-opacity="0.33" stroke-miterlimit="10"/>
<path d="M359.971 117.133H375.438V174.21H401.69V240.258" stroke="black" stroke-opacity="0.33" stroke-miterlimit="10"/>
<path d="M93.7639 96.314H89.9065V103.854H93.7639V96.314Z" stroke="black" stroke-opacity="0.33" stroke-miterlimit="10"/>
<path d="M100.71 96.314H96.8524V103.854H100.71V96.314Z" stroke="black" stroke-opacity="0.33" stroke-miterlimit="10"/>
<path d="M107.656 96.314H103.798V103.854H107.656V96.314Z" stroke="black" stroke-opacity="0.33" stroke-miterlimit="10"/>
<path d="M114.608 96.314H110.75V103.854H114.608V96.314Z" stroke="black" stroke-opacity="0.33" stroke-miterlimit="10"/>
<path d="M121.554 96.314H117.696V103.854H121.554V96.314Z" stroke="black" stroke-opacity="0.33" stroke-miterlimit="10"/>
<path d="M93.7639 109.054H89.9065V116.594H93.7639V109.054Z" stroke="black" stroke-opacity="0.33" stroke-miterlimit="10"/>
<path d="M100.71 109.054H96.8524V116.594H100.71V109.054Z" stroke="black" stroke-opacity="0.33" stroke-miterlimit="10"/>
<path d="M107.656 109.054H103.798V116.594H107.656V109.054Z" stroke="black" stroke-opacity="0.33" stroke-miterlimit="10"/>
<path d="M114.608 109.054H110.75V116.594H114.608V109.054Z" stroke="black" stroke-opacity="0.33" stroke-miterlimit="10"/>
<path d="M121.554 109.054H117.696V116.594H121.554V109.054Z" stroke="black" stroke-opacity="0.33" stroke-miterlimit="10"/>
<path d="M93.7639 121.801H89.9065V129.341H93.7639V121.801Z" stroke="black" stroke-opacity="0.33" stroke-miterlimit="10"/>
<path d="M100.71 121.801H96.8524V129.341H100.71V121.801Z" stroke="black" stroke-opacity="0.33" stroke-miterlimit="10"/>
<path d="M107.656 121.801H103.798V129.341H107.656V121.801Z" stroke="black" stroke-opacity="0.33" stroke-miterlimit="10"/>
<path d="M114.608 121.801H110.75V129.341H114.608V121.801Z" stroke="black" stroke-opacity="0.33" stroke-miterlimit="10"/>
<path d="M121.554 121.801H117.696V129.341H121.554V121.801Z" stroke="black" stroke-opacity="0.33" stroke-miterlimit="10"/>
<path d="M93.7639 134.541H89.9065V142.081H93.7639V134.541Z" stroke="black" stroke-opacity="0.33" stroke-miterlimit="10"/>
<path d="M100.71 134.541H96.8524V142.081H100.71V134.541Z" stroke="black" stroke-opacity="0.33" stroke-miterlimit="10"/>
<path d="M107.656 134.541H103.798V142.081H107.656V134.541Z" stroke="black" stroke-opacity="0.33" stroke-miterlimit="10"/>
<path d="M114.608 134.541H110.75V142.081H114.608V134.541Z" stroke="black" stroke-opacity="0.33" stroke-miterlimit="10"/>
<path d="M121.554 134.541H117.696V142.081H121.554V134.541Z" stroke="black" stroke-opacity="0.33" stroke-miterlimit="10"/>
<path d="M93.7639 147.287H89.9065V154.828H93.7639V147.287Z" stroke="black" stroke-opacity="0.33" stroke-miterlimit="10"/>
<path d="M100.71 147.287H96.8524V154.828H100.71V147.287Z" stroke="black" stroke-opacity="0.33" stroke-miterlimit="10"/>
<path d="M107.656 147.287H103.798V154.828H107.656V147.287Z" stroke="black" stroke-opacity="0.33" stroke-miterlimit="10"/>
<path d="M114.608 147.287H110.75V154.828H114.608V147.287Z" stroke="black" stroke-opacity="0.33" stroke-miterlimit="10"/>
<path d="M121.554 147.287H117.696V154.828H121.554V147.287Z" stroke="black" stroke-opacity="0.33" stroke-miterlimit="10"/>
<path d="M93.7639 160.028H89.9065V167.568H93.7639V160.028Z" stroke="black" stroke-opacity="0.33" stroke-miterlimit="10"/>
<path d="M100.71 160.028H96.8524V167.568H100.71V160.028Z" stroke="black" stroke-opacity="0.33" stroke-miterlimit="10"/>
<path d="M107.656 160.028H103.798V167.568H107.656V160.028Z" stroke="black" stroke-opacity="0.33" stroke-miterlimit="10"/>
<path d="M114.608 160.028H110.75V167.568H114.608V160.028Z" stroke="black" stroke-opacity="0.33" stroke-miterlimit="10"/>
<path d="M121.554 160.028H117.696V167.568H121.554V160.028Z" stroke="black" stroke-opacity="0.33" stroke-miterlimit="10"/>
<path d="M70.0797 160.028H66.2223V167.568H70.0797V160.028Z" stroke="black" stroke-opacity="0.33" stroke-miterlimit="10"/>
<path d="M77.0318 160.028H73.1744V167.568H77.0318V160.028Z" stroke="black" stroke-opacity="0.33" stroke-miterlimit="10"/>
<path d="M83.9777 160.028H80.1202V167.568H83.9777V160.028Z" stroke="black" stroke-opacity="0.33" stroke-miterlimit="10"/>
<path d="M70.0797 172.415H66.2223V179.955H70.0797V172.415Z" stroke="black" stroke-opacity="0.33" stroke-miterlimit="10"/>
<path d="M77.0318 172.415H73.1744V179.955H77.0318V172.415Z" stroke="black" stroke-opacity="0.33" stroke-miterlimit="10"/>
<path d="M83.9777 172.415H80.1202V179.955H83.9777V172.415Z" stroke="black" stroke-opacity="0.33" stroke-miterlimit="10"/>
<path d="M70.0797 184.796H66.2223V192.336H70.0797V184.796Z" stroke="black" stroke-opacity="0.33" stroke-miterlimit="10"/>
<path d="M77.0318 184.796H73.1744V192.336H77.0318V184.796Z" stroke="black" stroke-opacity="0.33" stroke-miterlimit="10"/>
<path d="M83.9777 184.796H80.1202V192.336H83.9777V184.796Z" stroke="black" stroke-opacity="0.33" stroke-miterlimit="10"/>
<path d="M70.0797 197.184H66.2223V204.724H70.0797V197.184Z" stroke="black" stroke-opacity="0.33" stroke-miterlimit="10"/>
<path d="M77.0318 197.184H73.1744V204.724H77.0318V197.184Z" stroke="black" stroke-opacity="0.33" stroke-miterlimit="10"/>
<path d="M83.9777 197.184H80.1202V204.724H83.9777V197.184Z" stroke="black" stroke-opacity="0.33" stroke-miterlimit="10"/>
<path d="M70.0797 209.565H66.2223V217.105H70.0797V209.565Z" stroke="black" stroke-opacity="0.33" stroke-miterlimit="10"/>
<path d="M77.0318 209.565H73.1744V217.105H77.0318V209.565Z" stroke="black" stroke-opacity="0.33" stroke-miterlimit="10"/>
<path d="M83.9777 209.565H80.1202V217.105H83.9777V209.565Z" stroke="black" stroke-opacity="0.33" stroke-miterlimit="10"/>
<path d="M70.0797 221.952H66.2223V229.492H70.0797V221.952Z" stroke="black" stroke-opacity="0.33" stroke-miterlimit="10"/>
<path d="M77.0318 221.952H73.1744V229.492H77.0318V221.952Z" stroke="black" stroke-opacity="0.33" stroke-miterlimit="10"/>
<path d="M83.9777 221.952H80.1202V229.492H83.9777V221.952Z" stroke="black" stroke-opacity="0.33" stroke-miterlimit="10"/>
<path d="M70.0797 234.333H66.2223V241.874H70.0797V234.333Z" stroke="black" stroke-opacity="0.33" stroke-miterlimit="10"/>
<path d="M77.0318 234.333H73.1744V241.874H77.0318V234.333Z" stroke="black" stroke-opacity="0.33" stroke-miterlimit="10"/>
<path d="M83.9777 234.333H80.1202V241.874H83.9777V234.333Z" stroke="black" stroke-opacity="0.33" stroke-miterlimit="10"/>
<path d="M70.0797 246.721H66.2223V254.261H70.0797V246.721Z" stroke="black" stroke-opacity="0.33" stroke-miterlimit="10"/>
<path d="M77.0318 246.721H73.1744V254.261H77.0318V246.721Z" stroke="black" stroke-opacity="0.33" stroke-miterlimit="10"/>
<path d="M83.9777 246.721H80.1202V254.261H83.9777V246.721Z" stroke="black" stroke-opacity="0.33" stroke-miterlimit="10"/>
<path d="M70.0797 259.102H66.2223V266.642H70.0797V259.102Z" stroke="black" stroke-opacity="0.33" stroke-miterlimit="10"/>
<path d="M77.0318 259.102H73.1744V266.642H77.0318V259.102Z" stroke="black" stroke-opacity="0.33" stroke-miterlimit="10"/>
<path d="M83.9777 259.102H80.1202V266.642H83.9777V259.102Z" stroke="black" stroke-opacity="0.33" stroke-miterlimit="10"/>
<path d="M70.0797 271.49H66.2223V279.03H70.0797V271.49Z" stroke="black" stroke-opacity="0.33" stroke-miterlimit="10"/>
<path d="M77.0318 271.49H73.1744V279.03H77.0318V271.49Z" stroke="black" stroke-opacity="0.33" stroke-miterlimit="10"/>
<path d="M83.9777 271.49H80.1202V279.03H83.9777V271.49Z" stroke="black" stroke-opacity="0.33" stroke-miterlimit="10"/>
<path d="M70.0797 283.871H66.2223V291.411H70.0797V283.871Z" stroke="black" stroke-opacity="0.33" stroke-miterlimit="10"/>
<path d="M77.0318 283.871H73.1744V291.411H77.0318V283.871Z" stroke="black" stroke-opacity="0.33" stroke-miterlimit="10"/>
<path d="M83.9777 283.871H80.1202V291.411H83.9777V283.871Z" stroke="black" stroke-opacity="0.33" stroke-miterlimit="10"/>
<path d="M132.022 211.001H128.165V218.541H132.022V211.001Z" stroke="black" stroke-opacity="0.33" stroke-miterlimit="10"/>
<path d="M138.968 211.001H135.111V218.541H138.968V211.001Z" stroke="black" stroke-opacity="0.33" stroke-miterlimit="10"/>
<path d="M132.022 223.389H128.165V230.929H132.022V223.389Z" stroke="black" stroke-opacity="0.33" stroke-miterlimit="10"/>
<path d="M138.968 223.389H135.111V230.929H138.968V223.389Z" stroke="black" stroke-opacity="0.33" stroke-miterlimit="10"/>
<path d="M132.022 235.77H128.165V243.31H132.022V235.77Z" stroke="black" stroke-opacity="0.33" stroke-miterlimit="10"/>
<path d="M138.968 235.77H135.111V243.31H138.968V235.77Z" stroke="black" stroke-opacity="0.33" stroke-miterlimit="10"/>
<path d="M132.022 248.157H128.165V255.697H132.022V248.157Z" stroke="black" stroke-opacity="0.33" stroke-miterlimit="10"/>
<path d="M138.968 248.157H135.111V255.697H138.968V248.157Z" stroke="black" stroke-opacity="0.33" stroke-miterlimit="10"/>
<path d="M132.022 260.538H128.165V268.079H132.022V260.538Z" stroke="black" stroke-opacity="0.33" stroke-miterlimit="10"/>
<path d="M138.968 260.538H135.111V268.079H138.968V260.538Z" stroke="black" stroke-opacity="0.33" stroke-miterlimit="10"/>
<path d="M132.022 272.926H128.165V280.466H132.022V272.926Z" stroke="black" stroke-opacity="0.33" stroke-miterlimit="10"/>
<path d="M138.968 272.926H135.111V280.466H138.968V272.926Z" stroke="black" stroke-opacity="0.33" stroke-miterlimit="10"/>
<path d="M132.022 285.307H128.165V292.847H132.022V285.307Z" stroke="black" stroke-opacity="0.33" stroke-miterlimit="10"/>
<path d="M138.968 285.307H135.111V292.847H138.968V285.307Z" stroke="black" stroke-opacity="0.33" stroke-miterlimit="10"/>
<path d="M93.7639 172.774H89.9065V180.314H93.7639V172.774Z" stroke="black" stroke-opacity="0.33" stroke-miterlimit="10"/>
<path d="M100.71 172.774H96.8524V180.314H100.71V172.774Z" stroke="black" stroke-opacity="0.33" stroke-miterlimit="10"/>
<path d="M107.656 172.774H103.798V180.314H107.656V172.774Z" stroke="black" stroke-opacity="0.33" stroke-miterlimit="10"/>
<path d="M114.608 172.774H110.75V180.314H114.608V172.774Z" stroke="black" stroke-opacity="0.33" stroke-miterlimit="10"/>
<path d="M121.554 172.774H117.696V180.314H121.554V172.774Z" stroke="black" stroke-opacity="0.33" stroke-miterlimit="10"/>
<path d="M93.7639 185.514H89.9065V193.055H93.7639V185.514Z" stroke="black" stroke-opacity="0.33" stroke-miterlimit="10"/>
<path d="M100.71 185.514H96.8524V193.055H100.71V185.514Z" stroke="black" stroke-opacity="0.33" stroke-miterlimit="10"/>
<path d="M107.656 185.514H103.798V193.055H107.656V185.514Z" stroke="black" stroke-opacity="0.33" stroke-miterlimit="10"/>
<path d="M114.608 185.514H110.75V193.055H114.608V185.514Z" stroke="black" stroke-opacity="0.33" stroke-miterlimit="10"/>
<path d="M121.554 185.514H117.696V193.055H121.554V185.514Z" stroke="black" stroke-opacity="0.33" stroke-miterlimit="10"/>
<path d="M93.7639 198.261H89.9065V205.801H93.7639V198.261Z" stroke="black" stroke-opacity="0.33" stroke-miterlimit="10"/>
<path d="M100.71 198.261H96.8524V205.801H100.71V198.261Z" stroke="black" stroke-opacity="0.33" stroke-miterlimit="10"/>
<path d="M107.656 198.261H103.798V205.801H107.656V198.261Z" stroke="black" stroke-opacity="0.33" stroke-miterlimit="10"/>
<path d="M114.608 198.261H110.75V205.801H114.608V198.261Z" stroke="black" stroke-opacity="0.33" stroke-miterlimit="10"/>
<path d="M121.554 198.261H117.696V205.801H121.554V198.261Z" stroke="black" stroke-opacity="0.33" stroke-miterlimit="10"/>
<path d="M93.7639 211.001H89.9065V218.541H93.7639V211.001Z" stroke="black" stroke-opacity="0.33" stroke-miterlimit="10"/>
<path d="M100.71 211.001H96.8524V218.541H100.71V211.001Z" stroke="black" stroke-opacity="0.33" stroke-miterlimit="10"/>
<path d="M107.656 211.001H103.798V218.541H107.656V211.001Z" stroke="black" stroke-opacity="0.33" stroke-miterlimit="10"/>
<path d="M114.608 211.001H110.75V218.541H114.608V211.001Z" stroke="black" stroke-opacity="0.33" stroke-miterlimit="10"/>
<path d="M121.554 211.001H117.696V218.541H121.554V211.001Z" stroke="black" stroke-opacity="0.33" stroke-miterlimit="10"/>
<path d="M93.7639 223.748H89.9065V231.288H93.7639V223.748Z" stroke="black" stroke-opacity="0.33" stroke-miterlimit="10"/>
<path d="M100.71 223.748H96.8524V231.288H100.71V223.748Z" stroke="black" stroke-opacity="0.33" stroke-miterlimit="10"/>
<path d="M107.656 223.748H103.798V231.288H107.656V223.748Z" stroke="black" stroke-opacity="0.33" stroke-miterlimit="10"/>
<path d="M114.608 223.748H110.75V231.288H114.608V223.748Z" stroke="black" stroke-opacity="0.33" stroke-miterlimit="10"/>
<path d="M121.554 223.748H117.696V231.288H121.554V223.748Z" stroke="black" stroke-opacity="0.33" stroke-miterlimit="10"/>
<path d="M93.7639 236.488H89.9065V244.028H93.7639V236.488Z" stroke="black" stroke-opacity="0.33" stroke-miterlimit="10"/>
<path d="M100.71 236.488H96.8524V244.028H100.71V236.488Z" stroke="black" stroke-opacity="0.33" stroke-miterlimit="10"/>
<path d="M107.656 236.488H103.798V244.028H107.656V236.488Z" stroke="black" stroke-opacity="0.33" stroke-miterlimit="10"/>
<path d="M114.608 236.488H110.75V244.028H114.608V236.488Z" stroke="black" stroke-opacity="0.33" stroke-miterlimit="10"/>
<path d="M121.554 236.488H117.696V244.028H121.554V236.488Z" stroke="black" stroke-opacity="0.33" stroke-miterlimit="10"/>
<path d="M93.7639 249.234H89.9065V256.775H93.7639V249.234Z" stroke="black" stroke-opacity="0.33" stroke-miterlimit="10"/>
<path d="M100.71 249.234H96.8524V256.775H100.71V249.234Z" stroke="black" stroke-opacity="0.33" stroke-miterlimit="10"/>
<path d="M107.656 249.234H103.798V256.775H107.656V249.234Z" stroke="black" stroke-opacity="0.33" stroke-miterlimit="10"/>
<path d="M114.608 249.234H110.75V256.775H114.608V249.234Z" stroke="black" stroke-opacity="0.33" stroke-miterlimit="10"/>
<path d="M121.554 249.234H117.696V256.775H121.554V249.234Z" stroke="black" stroke-opacity="0.33" stroke-miterlimit="10"/>
<path d="M93.7639 261.975H89.9065V269.515H93.7639V261.975Z" stroke="black" stroke-opacity="0.33" stroke-miterlimit="10"/>
<path d="M100.71 261.975H96.8524V269.515H100.71V261.975Z" stroke="black" stroke-opacity="0.33" stroke-miterlimit="10"/>
<path d="M107.656 261.975H103.798V269.515H107.656V261.975Z" stroke="black" stroke-opacity="0.33" stroke-miterlimit="10"/>
<path d="M114.608 261.975H110.75V269.515H114.608V261.975Z" stroke="black" stroke-opacity="0.33" stroke-miterlimit="10"/>
<path d="M121.554 261.975H117.696V269.515H121.554V261.975Z" stroke="black" stroke-opacity="0.33" stroke-miterlimit="10"/>
<path d="M93.7639 274.721H89.9065V282.261H93.7639V274.721Z" stroke="black" stroke-opacity="0.33" stroke-miterlimit="10"/>
<path d="M100.71 274.721H96.8524V282.261H100.71V274.721Z" stroke="black" stroke-opacity="0.33" stroke-miterlimit="10"/>
<path d="M107.656 274.721H103.798V282.261H107.656V274.721Z" stroke="black" stroke-opacity="0.33" stroke-miterlimit="10"/>
<path d="M114.608 274.721H110.75V282.261H114.608V274.721Z" stroke="black" stroke-opacity="0.33" stroke-miterlimit="10"/>
<path d="M121.554 274.721H117.696V282.261H121.554V274.721Z" stroke="black" stroke-opacity="0.33" stroke-miterlimit="10"/>
<path d="M93.7639 287.82H89.9065V295.36H93.7639V287.82Z" stroke="black" stroke-opacity="0.33" stroke-miterlimit="10"/>
<path d="M100.71 287.82H96.8524V295.36H100.71V287.82Z" stroke="black" stroke-opacity="0.33" stroke-miterlimit="10"/>
<path d="M107.656 287.82H103.798V295.36H107.656V287.82Z" stroke="black" stroke-opacity="0.33" stroke-miterlimit="10"/>
<path d="M114.608 287.82H110.75V295.36H114.608V287.82Z" stroke="black" stroke-opacity="0.33" stroke-miterlimit="10"/>
<path d="M121.554 287.82H117.696V295.36H121.554V287.82Z" stroke="black" stroke-opacity="0.33" stroke-miterlimit="10"/>
<path d="M87.0041 154.462V308.101" stroke="black" stroke-opacity="0.33" stroke-miterlimit="10"/>
<path d="M146.007 161.643V305.946" stroke="black" stroke-opacity="0.33" stroke-miterlimit="10"/>
<path d="M153.561 161.643V305.946" stroke="black" stroke-opacity="0.33" stroke-miterlimit="10"/>
<path d="M161.108 161.643V305.946" stroke="black" stroke-opacity="0.33" stroke-miterlimit="10"/>
<path d="M168.662 161.643V305.946" stroke="black" stroke-opacity="0.33" stroke-miterlimit="10"/>
<path d="M176.215 175.999V305.946" stroke="black" stroke-opacity="0.33" stroke-miterlimit="10"/>
<path d="M183.763 175.999V305.946" stroke="black" stroke-opacity="0.33" stroke-miterlimit="10"/>
<path d="M191.316 175.999V305.946" stroke="black" stroke-opacity="0.33" stroke-miterlimit="10"/>
<path d="M-10.4243 127.18H36.6837" stroke="black" stroke-opacity="0.33" stroke-miterlimit="10"/>
<path d="M-10.4243 136.516H36.6837" stroke="black" stroke-opacity="0.33" stroke-miterlimit="10"/>
<path d="M-10.4243 145.851H36.6837" stroke="black" stroke-opacity="0.33" stroke-miterlimit="10"/>
<path d="M-10.4243 155.18H36.6837" stroke="black" stroke-opacity="0.33" stroke-miterlimit="10"/>
<path d="M-10.4243 164.516H36.6837" stroke="black" stroke-opacity="0.33" stroke-miterlimit="10"/>
<path d="M-10.4243 173.851H36.6837" stroke="black" stroke-opacity="0.33" stroke-miterlimit="10"/>
<path d="M-10.4243 183.181H36.6837" stroke="black" stroke-opacity="0.33" stroke-miterlimit="10"/>
<path d="M-10.4243 192.516H36.6837" stroke="black" stroke-opacity="0.33" stroke-miterlimit="10"/>
<path d="M-10.4243 201.845H36.6837" stroke="black" stroke-opacity="0.33" stroke-miterlimit="10"/>
<path d="M-10.4243 211.181H36.6837" stroke="black" stroke-opacity="0.33" stroke-miterlimit="10"/>
<path d="M-10.4243 220.516H36.6837" stroke="black" stroke-opacity="0.33" stroke-miterlimit="10"/>
<path d="M-10.4243 229.845H36.6837" stroke="black" stroke-opacity="0.33" stroke-miterlimit="10"/>
<path d="M-10.4243 239.181H36.6837" stroke="black" stroke-opacity="0.33" stroke-miterlimit="10"/>
<path d="M-10.4243 248.516H36.6837" stroke="black" stroke-opacity="0.33" stroke-miterlimit="10"/>
<path d="M-10.4243 257.845H36.6837" stroke="black" stroke-opacity="0.33" stroke-miterlimit="10"/>
<path d="M-10.4243 267.181H36.6837" stroke="black" stroke-opacity="0.33" stroke-miterlimit="10"/>
<path d="M-10.4243 276.516H36.6837" stroke="black" stroke-opacity="0.33" stroke-miterlimit="10"/>
<path d="M-10.4243 285.846H36.6837" stroke="black" stroke-opacity="0.33" stroke-miterlimit="10"/>
<path d="M-10.4243 295.181H36.6837" stroke="black" stroke-opacity="0.33" stroke-miterlimit="10"/>
<path d="M-10.4243 304.51H36.6837" stroke="black" stroke-opacity="0.33" stroke-miterlimit="10"/>
<path d="M-10.4243 313.846H36.6837" stroke="black" stroke-opacity="0.33" stroke-miterlimit="10"/>
<path d="M319.338 153.026H329.769V158.053H319.338" stroke="black" stroke-opacity="0.33" stroke-miterlimit="10"/>
<path d="M319.338 166.67H329.769V171.697H319.338" stroke="black" stroke-opacity="0.33" stroke-miterlimit="10"/>
<path d="M319.338 180.308H329.769V185.335H319.338" stroke="black" stroke-opacity="0.33" stroke-miterlimit="10"/>
<path d="M319.338 193.952H329.769V198.979H319.338" stroke="black" stroke-opacity="0.33" stroke-miterlimit="10"/>
<path d="M319.338 207.59H329.769V212.617H319.338" stroke="black" stroke-opacity="0.33" stroke-miterlimit="10"/>
<path d="M319.338 221.234H329.769V226.261H319.338" stroke="black" stroke-opacity="0.33" stroke-miterlimit="10"/>
<path d="M319.338 234.872H329.769V239.899H319.338" stroke="black" stroke-opacity="0.33" stroke-miterlimit="10"/>
<path d="M319.338 248.516H329.769V253.537H319.338" stroke="black" stroke-opacity="0.33" stroke-miterlimit="10"/>
<path d="M319.338 262.154H329.769V267.181H319.338" stroke="black" stroke-opacity="0.33" stroke-miterlimit="10"/>
<path d="M319.338 275.798H329.769V280.819H319.338" stroke="black" stroke-opacity="0.33" stroke-miterlimit="10"/>
<path d="M302.798 185.694H257.488V190.003H302.798V185.694Z" stroke="black" stroke-opacity="0.33" stroke-miterlimit="10"/>
<path d="M302.798 193.234H257.488V197.543H302.798V193.234Z" stroke="black" stroke-opacity="0.33" stroke-miterlimit="10"/>
<path d="M302.798 200.774H257.488V205.083H302.798V200.774Z" stroke="black" stroke-opacity="0.33" stroke-miterlimit="10"/>
<path d="M302.798 208.308H257.488V212.617H302.798V208.308Z" stroke="black" stroke-opacity="0.33" stroke-miterlimit="10"/>
<path d="M302.798 215.848H257.488V220.157H302.798V215.848Z" stroke="black" stroke-opacity="0.33" stroke-miterlimit="10"/>
<path d="M302.798 223.389H257.488V227.697H302.798V223.389Z" stroke="black" stroke-opacity="0.33" stroke-miterlimit="10"/>
<path d="M302.798 230.922H257.488V235.231H302.798V230.922Z" stroke="black" stroke-opacity="0.33" stroke-miterlimit="10"/>
<path d="M302.798 238.463H257.488V242.771H302.798V238.463Z" stroke="black" stroke-opacity="0.33" stroke-miterlimit="10"/>
<path d="M302.798 246.003H257.488V250.311H302.798V246.003Z" stroke="black" stroke-opacity="0.33" stroke-miterlimit="10"/>
<path d="M302.798 253.537H257.488V257.845H302.798V253.537Z" stroke="black" stroke-opacity="0.33" stroke-miterlimit="10"/>
<path d="M302.798 261.077H257.488V265.386H302.798V261.077Z" stroke="black" stroke-opacity="0.33" stroke-miterlimit="10"/>
<path d="M302.798 268.617H257.488V272.926H302.798V268.617Z" stroke="black" stroke-opacity="0.33" stroke-miterlimit="10"/>
<path d="M302.798 276.157H257.488V280.466H302.798V276.157Z" stroke="black" stroke-opacity="0.33" stroke-miterlimit="10"/>
<path d="M302.798 283.691H257.488V288H302.798V283.691Z" stroke="black" stroke-opacity="0.33" stroke-miterlimit="10"/>
<path d="M302.798 291.231H257.488V295.54H302.798V291.231Z" stroke="black" stroke-opacity="0.33" stroke-miterlimit="10"/>
<path d="M302.798 298.771H257.488V303.08H302.798V298.771Z" stroke="black" stroke-opacity="0.33" stroke-miterlimit="10"/>
<path d="M302.798 306.306H257.488V310.614H302.798V306.306Z" stroke="black" stroke-opacity="0.33" stroke-miterlimit="10"/>
<path d="M336.237 141.183V307.742" stroke="black" stroke-opacity="0.33" stroke-miterlimit="10"/>
<path d="M345.589 109.593V307.742" stroke="black" stroke-opacity="0.33" stroke-miterlimit="10"/>
<path d="M238.065 269.694H215.41V281.543H238.065V269.694Z" stroke="black" stroke-opacity="0.33" stroke-miterlimit="10"/>
<path d="M232.675 248.875H220.805V269.694H232.675V248.875Z" stroke="black" stroke-opacity="0.33" stroke-miterlimit="10"/>
<path d="M125.393 204.971V307.816" stroke="black" stroke-opacity="0.33" stroke-miterlimit="10"/>
<path d="M255.516 193.698H200.507" stroke="black" stroke-opacity="0.33" stroke-miterlimit="10"/>
<path d="M255.516 199.833H200.507" stroke="black" stroke-opacity="0.33" stroke-miterlimit="10"/>
<path d="M211.354 204.439H202.963V210.574H211.354V204.439Z" stroke="black" stroke-opacity="0.33" stroke-miterlimit="10"/>
<path d="M221.705 204.439H213.314V210.574H221.705V204.439Z" stroke="black" stroke-opacity="0.33" stroke-miterlimit="10"/>
<path d="M232.055 204.439H223.664V210.574H232.055V204.439Z" stroke="black" stroke-opacity="0.33" stroke-miterlimit="10"/>
<path d="M242.4 204.439H234.009V210.574H242.4V204.439Z" stroke="black" stroke-opacity="0.33" stroke-miterlimit="10"/>
<path d="M252.75 204.439H244.359V210.574H252.75V204.439Z" stroke="black" stroke-opacity="0.33" stroke-miterlimit="10"/>
<path d="M211.354 213.948H202.963V220.083H211.354V213.948Z" stroke="black" stroke-opacity="0.33" stroke-miterlimit="10"/>
<path d="M221.705 213.948H213.314V220.083H221.705V213.948Z" stroke="black" stroke-opacity="0.33" stroke-miterlimit="10"/>
<path d="M232.055 213.948H223.664V220.083H232.055V213.948Z" stroke="black" stroke-opacity="0.33" stroke-miterlimit="10"/>
<path d="M242.4 213.948H234.009V220.083H242.4V213.948Z" stroke="black" stroke-opacity="0.33" stroke-miterlimit="10"/>
<path d="M252.75 213.948H244.359V220.083H252.75V213.948Z" stroke="black" stroke-opacity="0.33" stroke-miterlimit="10"/>
<path d="M211.354 223.457H202.963V229.592H211.354V223.457Z" stroke="black" stroke-opacity="0.33" stroke-miterlimit="10"/>
<path d="M221.705 223.457H213.314V229.592H221.705V223.457Z" stroke="black" stroke-opacity="0.33" stroke-miterlimit="10"/>
<path d="M232.055 223.457H223.664V229.592H232.055V223.457Z" stroke="black" stroke-opacity="0.33" stroke-miterlimit="10"/>
<path d="M242.4 223.457H234.009V229.592H242.4V223.457Z" stroke="black" stroke-opacity="0.33" stroke-miterlimit="10"/>
<path d="M252.75 223.457H244.359V229.592H252.75V223.457Z" stroke="black" stroke-opacity="0.33" stroke-miterlimit="10"/>
<path d="M211.354 240.635H202.963V246.77H211.354V240.635Z" stroke="black" stroke-opacity="0.33" stroke-miterlimit="10"/>
<path d="M221.705 240.635H213.314V246.77H221.705V240.635Z" stroke="black" stroke-opacity="0.33" stroke-miterlimit="10"/>
<path d="M232.055 240.635H223.664V246.77H232.055V240.635Z" stroke="black" stroke-opacity="0.33" stroke-miterlimit="10"/>
<path d="M242.4 240.635H234.009V246.77H242.4V240.635Z" stroke="black" stroke-opacity="0.33" stroke-miterlimit="10"/>
<path d="M252.75 240.635H244.359V246.77H252.75V240.635Z" stroke="black" stroke-opacity="0.33" stroke-miterlimit="10"/>
</g>
</g>
<path opacity="0.3" d="M236.326 82.6195C236.326 82.6195 235.272 80.9083 233.645 81.0039C232.018 81.0995 231.44 82.1463 230.964 82.9063C230.487 83.6663 230.295 83.1931 229.048 82.8107C227.801 82.4283 227.228 83.0975 226.94 83.7619C226.651 84.4263 226.747 83.9531 225.597 83.7619C224.446 83.5707 224.417 84.2543 223.681 84.6175C223.079 84.9139 222.954 84.9282 222.29 84.7514C221.462 84.5267 221.193 84.7131 221 85.0955H240.422C240.422 85.0955 240.051 83.5755 239.19 83.1931C238.333 82.8107 237.187 83.5707 236.326 82.6195Z" stroke="black" stroke-miterlimit="10"/>
<path opacity="0.3" d="M338.156 30.606C338.156 30.606 337.113 28.909 335.505 29.0038C333.896 29.0986 333.324 30.1367 332.853 30.8904C332.382 31.644 332.192 31.1747 330.959 30.7955C329.726 30.4163 329.159 31.08 328.874 31.7388C328.588 32.3977 328.683 31.9284 327.546 31.7388C326.408 31.5492 326.38 32.227 325.651 32.5873C325.056 32.8812 324.933 32.8954 324.276 32.72C323.457 32.4972 323.19 32.6821 323 33.0613H342.207C342.207 33.0613 341.84 31.5539 340.988 31.1747C340.146 30.7955 339.008 31.5492 338.156 30.606Z" stroke="black" stroke-miterlimit="10"/>
<path opacity="0.3" d="M76.0836 4.08347C76.0836 4.08347 74.0844 0.827086 70.9952 1.00721C67.9059 1.18733 66.8159 3.17812 65.9067 4.62856C64.9976 6.07426 64.6358 5.17366 62.2701 4.44844C59.9091 3.72322 58.8143 4.99354 58.2717 6.25912C57.7243 7.5247 57.9099 6.61936 55.7251 6.25912C53.545 5.89888 53.4879 7.19291 52.0884 7.88969C50.9508 8.45849 50.7033 8.48218 49.4466 8.1409C47.8758 7.71904 47.3618 8.0698 47 8.79502H83.871C83.871 8.79502 83.1712 5.89888 81.5338 5.17366C79.9011 4.44844 77.7163 5.89415 76.0836 4.08347Z" stroke="black" stroke-miterlimit="10"/>
<defs>
<clipPath id="clip0_135_3941">
<rect width="434" height="228" fill="white" transform="translate(-32 88)"/>
</clipPath>
</defs>
</svg>
